G04 #@! TF.GenerationSoftware,KiCad,Pcbnew,(5.1.5)-3*
G04 #@! TF.CreationDate,2021-04-28T18:54:50+09:00*
G04 #@! TF.ProjectId,DSub9TestPoint.kicad_pcb(4x4),44537562-3954-4657-9374-506f696e742e,rev?*
G04 #@! TF.SameCoordinates,Original*
G04 #@! TF.FileFunction,Paste,Top*
G04 #@! TF.FilePolarity,Positive*
%FSLAX46Y46*%
G04 Gerber Fmt 4.6, Leading zero omitted, Abs format (unit mm)*
G04 Created by KiCad (PCBNEW (5.1.5)-3) date 2021-04-28 18:54:50*
%MOMM*%
%LPD*%
G04 APERTURE LIST*
%ADD10R,3.480000X1.846667*%
G04 APERTURE END LIST*
D10*
X123000000Y-56960000D03*
X123000000Y-59730000D03*
X123000000Y-62500000D03*
X123000000Y-65270000D03*
X123000000Y-68040000D03*
X102000000Y-56960000D03*
X102000000Y-59730000D03*
X102000000Y-62500000D03*
X102000000Y-65270000D03*
X102000000Y-68040000D03*
X123000000Y-81960000D03*
X123000000Y-84730000D03*
X123000000Y-87500000D03*
X123000000Y-90270000D03*
X123000000Y-93040000D03*
X102000000Y-106960000D03*
X102000000Y-109730000D03*
X102000000Y-112500000D03*
X102000000Y-115270000D03*
X102000000Y-118040000D03*
X102000000Y-81960000D03*
X102000000Y-84730000D03*
X102000000Y-87500000D03*
X102000000Y-90270000D03*
X102000000Y-93040000D03*
X123000000Y-106960000D03*
X123000000Y-109730000D03*
X123000000Y-112500000D03*
X123000000Y-115270000D03*
X123000000Y-118040000D03*
X123000000Y-131960000D03*
X123000000Y-134730000D03*
X123000000Y-137500000D03*
X123000000Y-140270000D03*
X123000000Y-143040000D03*
X102000000Y-131960000D03*
X102000000Y-134730000D03*
X102000000Y-137500000D03*
X102000000Y-140270000D03*
X102000000Y-143040000D03*
X148000000Y-93040000D03*
X148000000Y-90270000D03*
X148000000Y-87500000D03*
X148000000Y-84730000D03*
X148000000Y-81960000D03*
X148000000Y-68040000D03*
X148000000Y-65270000D03*
X148000000Y-62500000D03*
X148000000Y-59730000D03*
X148000000Y-56960000D03*
X127000000Y-68040000D03*
X127000000Y-65270000D03*
X127000000Y-62500000D03*
X127000000Y-59730000D03*
X127000000Y-56960000D03*
X148000000Y-118040000D03*
X148000000Y-115270000D03*
X148000000Y-112500000D03*
X148000000Y-109730000D03*
X148000000Y-106960000D03*
X127000000Y-143040000D03*
X127000000Y-140270000D03*
X127000000Y-137500000D03*
X127000000Y-134730000D03*
X127000000Y-131960000D03*
X127000000Y-118040000D03*
X127000000Y-115270000D03*
X127000000Y-112500000D03*
X127000000Y-109730000D03*
X127000000Y-106960000D03*
X148000000Y-143040000D03*
X148000000Y-140270000D03*
X148000000Y-137500000D03*
X148000000Y-134730000D03*
X148000000Y-131960000D03*
X127000000Y-93040000D03*
X127000000Y-90270000D03*
X127000000Y-87500000D03*
X127000000Y-84730000D03*
X127000000Y-81960000D03*
X98000000Y-56960000D03*
X98000000Y-59730000D03*
X98000000Y-62500000D03*
X98000000Y-65270000D03*
X98000000Y-68040000D03*
X77000000Y-56960000D03*
X77000000Y-59730000D03*
X77000000Y-62500000D03*
X77000000Y-65270000D03*
X77000000Y-68040000D03*
X98000000Y-81960000D03*
X98000000Y-84730000D03*
X98000000Y-87500000D03*
X98000000Y-90270000D03*
X98000000Y-93040000D03*
X77000000Y-106960000D03*
X77000000Y-109730000D03*
X77000000Y-112500000D03*
X77000000Y-115270000D03*
X77000000Y-118040000D03*
X77000000Y-81960000D03*
X77000000Y-84730000D03*
X77000000Y-87500000D03*
X77000000Y-90270000D03*
X77000000Y-93040000D03*
X98000000Y-106960000D03*
X98000000Y-109730000D03*
X98000000Y-112500000D03*
X98000000Y-115270000D03*
X98000000Y-118040000D03*
X98000000Y-131960000D03*
X98000000Y-134730000D03*
X98000000Y-137500000D03*
X98000000Y-140270000D03*
X98000000Y-143040000D03*
X77000000Y-131960000D03*
X77000000Y-134730000D03*
X77000000Y-137500000D03*
X77000000Y-140270000D03*
X77000000Y-143040000D03*
X52000000Y-68040000D03*
X52000000Y-65270000D03*
X52000000Y-62500000D03*
X52000000Y-59730000D03*
X52000000Y-56960000D03*
X73000000Y-68040000D03*
X73000000Y-65270000D03*
X73000000Y-62500000D03*
X73000000Y-59730000D03*
X73000000Y-56960000D03*
X52000000Y-93040000D03*
X52000000Y-90270000D03*
X52000000Y-87500000D03*
X52000000Y-84730000D03*
X52000000Y-81960000D03*
X73000000Y-93040000D03*
X73000000Y-90270000D03*
X73000000Y-87500000D03*
X73000000Y-84730000D03*
X73000000Y-81960000D03*
X52000000Y-118040000D03*
X52000000Y-115270000D03*
X52000000Y-112500000D03*
X52000000Y-109730000D03*
X52000000Y-106960000D03*
X73000000Y-118040000D03*
X73000000Y-115270000D03*
X73000000Y-112500000D03*
X73000000Y-109730000D03*
X73000000Y-106960000D03*
X52000000Y-143040000D03*
X52000000Y-140270000D03*
X52000000Y-137500000D03*
X52000000Y-134730000D03*
X52000000Y-131960000D03*
X73000000Y-143040000D03*
X73000000Y-140270000D03*
X73000000Y-137500000D03*
X73000000Y-134730000D03*
X73000000Y-131960000D03*
M02*
