G04 #@! TF.GenerationSoftware,KiCad,Pcbnew,(5.1.5)-3*
G04 #@! TF.CreationDate,2021-04-28T18:54:50+09:00*
G04 #@! TF.ProjectId,DSub9TestPoint.kicad_pcb(4x4),44537562-3954-4657-9374-506f696e742e,rev?*
G04 #@! TF.SameCoordinates,Original*
G04 #@! TF.FileFunction,Legend,Top*
G04 #@! TF.FilePolarity,Positive*
%FSLAX46Y46*%
G04 Gerber Fmt 4.6, Leading zero omitted, Abs format (unit mm)*
G04 Created by KiCad (PCBNEW (5.1.5)-3) date 2021-04-28 18:54:50*
%MOMM*%
%LPD*%
G04 APERTURE LIST*
%ADD10C,0.150000*%
%ADD11C,0.120000*%
%ADD12C,0.300000*%
G04 APERTURE END LIST*
D10*
X171309523Y-74785714D02*
X170547619Y-75071428D01*
X171309523Y-75357142D01*
X171785714Y-75071428D02*
X172547619Y-75071428D01*
X172880952Y-74452380D02*
X173214285Y-75452380D01*
X173547619Y-74452380D01*
X173880952Y-75071428D02*
X174642857Y-75071428D01*
X175690476Y-75357142D02*
X175642857Y-75404761D01*
X175500000Y-75452380D01*
X175404761Y-75452380D01*
X175261904Y-75404761D01*
X175166666Y-75309523D01*
X175119047Y-75214285D01*
X175071428Y-75023809D01*
X175071428Y-74880952D01*
X175119047Y-74690476D01*
X175166666Y-74595238D01*
X175261904Y-74500000D01*
X175404761Y-74452380D01*
X175500000Y-74452380D01*
X175642857Y-74500000D01*
X175690476Y-74547619D01*
X176119047Y-74452380D02*
X176119047Y-75261904D01*
X176166666Y-75357142D01*
X176214285Y-75404761D01*
X176309523Y-75452380D01*
X176500000Y-75452380D01*
X176595238Y-75404761D01*
X176642857Y-75357142D01*
X176690476Y-75261904D01*
X176690476Y-74452380D01*
X177023809Y-74452380D02*
X177595238Y-74452380D01*
X177309523Y-75452380D02*
X177309523Y-74452380D01*
X171309523Y-99785714D02*
X170547619Y-100071428D01*
X171309523Y-100357142D01*
X171785714Y-100071428D02*
X172547619Y-100071428D01*
X172880952Y-99452380D02*
X173214285Y-100452380D01*
X173547619Y-99452380D01*
X173880952Y-100071428D02*
X174642857Y-100071428D01*
X175690476Y-100357142D02*
X175642857Y-100404761D01*
X175500000Y-100452380D01*
X175404761Y-100452380D01*
X175261904Y-100404761D01*
X175166666Y-100309523D01*
X175119047Y-100214285D01*
X175071428Y-100023809D01*
X175071428Y-99880952D01*
X175119047Y-99690476D01*
X175166666Y-99595238D01*
X175261904Y-99500000D01*
X175404761Y-99452380D01*
X175500000Y-99452380D01*
X175642857Y-99500000D01*
X175690476Y-99547619D01*
X176119047Y-99452380D02*
X176119047Y-100261904D01*
X176166666Y-100357142D01*
X176214285Y-100404761D01*
X176309523Y-100452380D01*
X176500000Y-100452380D01*
X176595238Y-100404761D01*
X176642857Y-100357142D01*
X176690476Y-100261904D01*
X176690476Y-99452380D01*
X177023809Y-99452380D02*
X177595238Y-99452380D01*
X177309523Y-100452380D02*
X177309523Y-99452380D01*
X171309523Y-124785714D02*
X170547619Y-125071428D01*
X171309523Y-125357142D01*
X171785714Y-125071428D02*
X172547619Y-125071428D01*
X172880952Y-124452380D02*
X173214285Y-125452380D01*
X173547619Y-124452380D01*
X173880952Y-125071428D02*
X174642857Y-125071428D01*
X175690476Y-125357142D02*
X175642857Y-125404761D01*
X175500000Y-125452380D01*
X175404761Y-125452380D01*
X175261904Y-125404761D01*
X175166666Y-125309523D01*
X175119047Y-125214285D01*
X175071428Y-125023809D01*
X175071428Y-124880952D01*
X175119047Y-124690476D01*
X175166666Y-124595238D01*
X175261904Y-124500000D01*
X175404761Y-124452380D01*
X175500000Y-124452380D01*
X175642857Y-124500000D01*
X175690476Y-124547619D01*
X176119047Y-124452380D02*
X176119047Y-125261904D01*
X176166666Y-125357142D01*
X176214285Y-125404761D01*
X176309523Y-125452380D01*
X176500000Y-125452380D01*
X176595238Y-125404761D01*
X176642857Y-125357142D01*
X176690476Y-125261904D01*
X176690476Y-124452380D01*
X177023809Y-124452380D02*
X177595238Y-124452380D01*
X177309523Y-125452380D02*
X177309523Y-124452380D01*
X126309523Y-158785714D02*
X125547619Y-159071428D01*
X126309523Y-159357142D01*
X126785714Y-159071428D02*
X127547619Y-159071428D01*
X127880952Y-158452380D02*
X128214285Y-159452380D01*
X128547619Y-158452380D01*
X128880952Y-159071428D02*
X129642857Y-159071428D01*
X130690476Y-159357142D02*
X130642857Y-159404761D01*
X130500000Y-159452380D01*
X130404761Y-159452380D01*
X130261904Y-159404761D01*
X130166666Y-159309523D01*
X130119047Y-159214285D01*
X130071428Y-159023809D01*
X130071428Y-158880952D01*
X130119047Y-158690476D01*
X130166666Y-158595238D01*
X130261904Y-158500000D01*
X130404761Y-158452380D01*
X130500000Y-158452380D01*
X130642857Y-158500000D01*
X130690476Y-158547619D01*
X131119047Y-158452380D02*
X131119047Y-159261904D01*
X131166666Y-159357142D01*
X131214285Y-159404761D01*
X131309523Y-159452380D01*
X131500000Y-159452380D01*
X131595238Y-159404761D01*
X131642857Y-159357142D01*
X131690476Y-159261904D01*
X131690476Y-158452380D01*
X132023809Y-158452380D02*
X132595238Y-158452380D01*
X132309523Y-159452380D02*
X132309523Y-158452380D01*
X101309523Y-158785714D02*
X100547619Y-159071428D01*
X101309523Y-159357142D01*
X101785714Y-159071428D02*
X102547619Y-159071428D01*
X102880952Y-158452380D02*
X103214285Y-159452380D01*
X103547619Y-158452380D01*
X103880952Y-159071428D02*
X104642857Y-159071428D01*
X105690476Y-159357142D02*
X105642857Y-159404761D01*
X105500000Y-159452380D01*
X105404761Y-159452380D01*
X105261904Y-159404761D01*
X105166666Y-159309523D01*
X105119047Y-159214285D01*
X105071428Y-159023809D01*
X105071428Y-158880952D01*
X105119047Y-158690476D01*
X105166666Y-158595238D01*
X105261904Y-158500000D01*
X105404761Y-158452380D01*
X105500000Y-158452380D01*
X105642857Y-158500000D01*
X105690476Y-158547619D01*
X106119047Y-158452380D02*
X106119047Y-159261904D01*
X106166666Y-159357142D01*
X106214285Y-159404761D01*
X106309523Y-159452380D01*
X106500000Y-159452380D01*
X106595238Y-159404761D01*
X106642857Y-159357142D01*
X106690476Y-159261904D01*
X106690476Y-158452380D01*
X107023809Y-158452380D02*
X107595238Y-158452380D01*
X107309523Y-159452380D02*
X107309523Y-158452380D01*
X76309523Y-158785714D02*
X75547619Y-159071428D01*
X76309523Y-159357142D01*
X76785714Y-159071428D02*
X77547619Y-159071428D01*
X77880952Y-158452380D02*
X78214285Y-159452380D01*
X78547619Y-158452380D01*
X78880952Y-159071428D02*
X79642857Y-159071428D01*
X80690476Y-159357142D02*
X80642857Y-159404761D01*
X80500000Y-159452380D01*
X80404761Y-159452380D01*
X80261904Y-159404761D01*
X80166666Y-159309523D01*
X80119047Y-159214285D01*
X80071428Y-159023809D01*
X80071428Y-158880952D01*
X80119047Y-158690476D01*
X80166666Y-158595238D01*
X80261904Y-158500000D01*
X80404761Y-158452380D01*
X80500000Y-158452380D01*
X80642857Y-158500000D01*
X80690476Y-158547619D01*
X81119047Y-158452380D02*
X81119047Y-159261904D01*
X81166666Y-159357142D01*
X81214285Y-159404761D01*
X81309523Y-159452380D01*
X81500000Y-159452380D01*
X81595238Y-159404761D01*
X81642857Y-159357142D01*
X81690476Y-159261904D01*
X81690476Y-158452380D01*
X82023809Y-158452380D02*
X82595238Y-158452380D01*
X82309523Y-159452380D02*
X82309523Y-158452380D01*
X149285714Y-70952380D02*
X148714285Y-70952380D01*
X149000000Y-70952380D02*
X149000000Y-69952380D01*
X148904761Y-70095238D01*
X148809523Y-70190476D01*
X148714285Y-70238095D01*
X126238095Y-128952380D02*
X125761904Y-128952380D01*
X125714285Y-129428571D01*
X125761904Y-129380952D01*
X125857142Y-129333333D01*
X126095238Y-129333333D01*
X126190476Y-129380952D01*
X126238095Y-129428571D01*
X126285714Y-129523809D01*
X126285714Y-129761904D01*
X126238095Y-129857142D01*
X126190476Y-129904761D01*
X126095238Y-129952380D01*
X125857142Y-129952380D01*
X125761904Y-129904761D01*
X125714285Y-129857142D01*
X149238095Y-103952380D02*
X148761904Y-103952380D01*
X148714285Y-104428571D01*
X148761904Y-104380952D01*
X148857142Y-104333333D01*
X149095238Y-104333333D01*
X149190476Y-104380952D01*
X149238095Y-104428571D01*
X149285714Y-104523809D01*
X149285714Y-104761904D01*
X149238095Y-104857142D01*
X149190476Y-104904761D01*
X149095238Y-104952380D01*
X148857142Y-104952380D01*
X148761904Y-104904761D01*
X148714285Y-104857142D01*
X137952380Y-149452380D02*
X137952380Y-148452380D01*
X138190476Y-148452380D01*
X138333333Y-148500000D01*
X138428571Y-148595238D01*
X138476190Y-148690476D01*
X138523809Y-148880952D01*
X138523809Y-149023809D01*
X138476190Y-149214285D01*
X138428571Y-149309523D01*
X138333333Y-149404761D01*
X138190476Y-149452380D01*
X137952380Y-149452380D01*
X138904761Y-149404761D02*
X139047619Y-149452380D01*
X139285714Y-149452380D01*
X139380952Y-149404761D01*
X139428571Y-149357142D01*
X139476190Y-149261904D01*
X139476190Y-149166666D01*
X139428571Y-149071428D01*
X139380952Y-149023809D01*
X139285714Y-148976190D01*
X139095238Y-148928571D01*
X139000000Y-148880952D01*
X138952380Y-148833333D01*
X138904761Y-148738095D01*
X138904761Y-148642857D01*
X138952380Y-148547619D01*
X139000000Y-148500000D01*
X139095238Y-148452380D01*
X139333333Y-148452380D01*
X139476190Y-148500000D01*
X140333333Y-148785714D02*
X140333333Y-149452380D01*
X139904761Y-148785714D02*
X139904761Y-149309523D01*
X139952380Y-149404761D01*
X140047619Y-149452380D01*
X140190476Y-149452380D01*
X140285714Y-149404761D01*
X140333333Y-149357142D01*
X140809523Y-149452380D02*
X140809523Y-148452380D01*
X140809523Y-148833333D02*
X140904761Y-148785714D01*
X141095238Y-148785714D01*
X141190476Y-148833333D01*
X141238095Y-148880952D01*
X141285714Y-148976190D01*
X141285714Y-149261904D01*
X141238095Y-149357142D01*
X141190476Y-149404761D01*
X141095238Y-149452380D01*
X140904761Y-149452380D01*
X140809523Y-149404761D01*
X141761904Y-149452380D02*
X141952380Y-149452380D01*
X142047619Y-149404761D01*
X142095238Y-149357142D01*
X142190476Y-149214285D01*
X142238095Y-149023809D01*
X142238095Y-148642857D01*
X142190476Y-148547619D01*
X142142857Y-148500000D01*
X142047619Y-148452380D01*
X141857142Y-148452380D01*
X141761904Y-148500000D01*
X141714285Y-148547619D01*
X141666666Y-148642857D01*
X141666666Y-148880952D01*
X141714285Y-148976190D01*
X141761904Y-149023809D01*
X141857142Y-149071428D01*
X142047619Y-149071428D01*
X142142857Y-149023809D01*
X142190476Y-148976190D01*
X142238095Y-148880952D01*
X142523809Y-148452380D02*
X143095238Y-148452380D01*
X142809523Y-149452380D02*
X142809523Y-148452380D01*
X143809523Y-149404761D02*
X143714285Y-149452380D01*
X143523809Y-149452380D01*
X143428571Y-149404761D01*
X143380952Y-149309523D01*
X143380952Y-148928571D01*
X143428571Y-148833333D01*
X143523809Y-148785714D01*
X143714285Y-148785714D01*
X143809523Y-148833333D01*
X143857142Y-148928571D01*
X143857142Y-149023809D01*
X143380952Y-149119047D01*
X144238095Y-149404761D02*
X144333333Y-149452380D01*
X144523809Y-149452380D01*
X144619047Y-149404761D01*
X144666666Y-149309523D01*
X144666666Y-149261904D01*
X144619047Y-149166666D01*
X144523809Y-149119047D01*
X144380952Y-149119047D01*
X144285714Y-149071428D01*
X144238095Y-148976190D01*
X144238095Y-148928571D01*
X144285714Y-148833333D01*
X144380952Y-148785714D01*
X144523809Y-148785714D01*
X144619047Y-148833333D01*
X144952380Y-148785714D02*
X145333333Y-148785714D01*
X145095238Y-148452380D02*
X145095238Y-149309523D01*
X145142857Y-149404761D01*
X145238095Y-149452380D01*
X145333333Y-149452380D01*
X145666666Y-149452380D02*
X145666666Y-148452380D01*
X146047619Y-148452380D01*
X146142857Y-148500000D01*
X146190476Y-148547619D01*
X146238095Y-148642857D01*
X146238095Y-148785714D01*
X146190476Y-148880952D01*
X146142857Y-148928571D01*
X146047619Y-148976190D01*
X145666666Y-148976190D01*
X146809523Y-149452380D02*
X146714285Y-149404761D01*
X146666666Y-149357142D01*
X146619047Y-149261904D01*
X146619047Y-148976190D01*
X146666666Y-148880952D01*
X146714285Y-148833333D01*
X146809523Y-148785714D01*
X146952380Y-148785714D01*
X147047619Y-148833333D01*
X147095238Y-148880952D01*
X147142857Y-148976190D01*
X147142857Y-149261904D01*
X147095238Y-149357142D01*
X147047619Y-149404761D01*
X146952380Y-149452380D01*
X146809523Y-149452380D01*
X147571428Y-149452380D02*
X147571428Y-148785714D01*
X147571428Y-148452380D02*
X147523809Y-148500000D01*
X147571428Y-148547619D01*
X147619047Y-148500000D01*
X147571428Y-148452380D01*
X147571428Y-148547619D01*
X148047619Y-148785714D02*
X148047619Y-149452380D01*
X148047619Y-148880952D02*
X148095238Y-148833333D01*
X148190476Y-148785714D01*
X148333333Y-148785714D01*
X148428571Y-148833333D01*
X148476190Y-148928571D01*
X148476190Y-149452380D01*
X148809523Y-148785714D02*
X149190476Y-148785714D01*
X148952380Y-148452380D02*
X148952380Y-149309523D01*
X149000000Y-149404761D01*
X149095238Y-149452380D01*
X149190476Y-149452380D01*
X137952380Y-74452380D02*
X137952380Y-73452380D01*
X138190476Y-73452380D01*
X138333333Y-73500000D01*
X138428571Y-73595238D01*
X138476190Y-73690476D01*
X138523809Y-73880952D01*
X138523809Y-74023809D01*
X138476190Y-74214285D01*
X138428571Y-74309523D01*
X138333333Y-74404761D01*
X138190476Y-74452380D01*
X137952380Y-74452380D01*
X138904761Y-74404761D02*
X139047619Y-74452380D01*
X139285714Y-74452380D01*
X139380952Y-74404761D01*
X139428571Y-74357142D01*
X139476190Y-74261904D01*
X139476190Y-74166666D01*
X139428571Y-74071428D01*
X139380952Y-74023809D01*
X139285714Y-73976190D01*
X139095238Y-73928571D01*
X139000000Y-73880952D01*
X138952380Y-73833333D01*
X138904761Y-73738095D01*
X138904761Y-73642857D01*
X138952380Y-73547619D01*
X139000000Y-73500000D01*
X139095238Y-73452380D01*
X139333333Y-73452380D01*
X139476190Y-73500000D01*
X140333333Y-73785714D02*
X140333333Y-74452380D01*
X139904761Y-73785714D02*
X139904761Y-74309523D01*
X139952380Y-74404761D01*
X140047619Y-74452380D01*
X140190476Y-74452380D01*
X140285714Y-74404761D01*
X140333333Y-74357142D01*
X140809523Y-74452380D02*
X140809523Y-73452380D01*
X140809523Y-73833333D02*
X140904761Y-73785714D01*
X141095238Y-73785714D01*
X141190476Y-73833333D01*
X141238095Y-73880952D01*
X141285714Y-73976190D01*
X141285714Y-74261904D01*
X141238095Y-74357142D01*
X141190476Y-74404761D01*
X141095238Y-74452380D01*
X140904761Y-74452380D01*
X140809523Y-74404761D01*
X141761904Y-74452380D02*
X141952380Y-74452380D01*
X142047619Y-74404761D01*
X142095238Y-74357142D01*
X142190476Y-74214285D01*
X142238095Y-74023809D01*
X142238095Y-73642857D01*
X142190476Y-73547619D01*
X142142857Y-73500000D01*
X142047619Y-73452380D01*
X141857142Y-73452380D01*
X141761904Y-73500000D01*
X141714285Y-73547619D01*
X141666666Y-73642857D01*
X141666666Y-73880952D01*
X141714285Y-73976190D01*
X141761904Y-74023809D01*
X141857142Y-74071428D01*
X142047619Y-74071428D01*
X142142857Y-74023809D01*
X142190476Y-73976190D01*
X142238095Y-73880952D01*
X142523809Y-73452380D02*
X143095238Y-73452380D01*
X142809523Y-74452380D02*
X142809523Y-73452380D01*
X143809523Y-74404761D02*
X143714285Y-74452380D01*
X143523809Y-74452380D01*
X143428571Y-74404761D01*
X143380952Y-74309523D01*
X143380952Y-73928571D01*
X143428571Y-73833333D01*
X143523809Y-73785714D01*
X143714285Y-73785714D01*
X143809523Y-73833333D01*
X143857142Y-73928571D01*
X143857142Y-74023809D01*
X143380952Y-74119047D01*
X144238095Y-74404761D02*
X144333333Y-74452380D01*
X144523809Y-74452380D01*
X144619047Y-74404761D01*
X144666666Y-74309523D01*
X144666666Y-74261904D01*
X144619047Y-74166666D01*
X144523809Y-74119047D01*
X144380952Y-74119047D01*
X144285714Y-74071428D01*
X144238095Y-73976190D01*
X144238095Y-73928571D01*
X144285714Y-73833333D01*
X144380952Y-73785714D01*
X144523809Y-73785714D01*
X144619047Y-73833333D01*
X144952380Y-73785714D02*
X145333333Y-73785714D01*
X145095238Y-73452380D02*
X145095238Y-74309523D01*
X145142857Y-74404761D01*
X145238095Y-74452380D01*
X145333333Y-74452380D01*
X145666666Y-74452380D02*
X145666666Y-73452380D01*
X146047619Y-73452380D01*
X146142857Y-73500000D01*
X146190476Y-73547619D01*
X146238095Y-73642857D01*
X146238095Y-73785714D01*
X146190476Y-73880952D01*
X146142857Y-73928571D01*
X146047619Y-73976190D01*
X145666666Y-73976190D01*
X146809523Y-74452380D02*
X146714285Y-74404761D01*
X146666666Y-74357142D01*
X146619047Y-74261904D01*
X146619047Y-73976190D01*
X146666666Y-73880952D01*
X146714285Y-73833333D01*
X146809523Y-73785714D01*
X146952380Y-73785714D01*
X147047619Y-73833333D01*
X147095238Y-73880952D01*
X147142857Y-73976190D01*
X147142857Y-74261904D01*
X147095238Y-74357142D01*
X147047619Y-74404761D01*
X146952380Y-74452380D01*
X146809523Y-74452380D01*
X147571428Y-74452380D02*
X147571428Y-73785714D01*
X147571428Y-73452380D02*
X147523809Y-73500000D01*
X147571428Y-73547619D01*
X147619047Y-73500000D01*
X147571428Y-73452380D01*
X147571428Y-73547619D01*
X148047619Y-73785714D02*
X148047619Y-74452380D01*
X148047619Y-73880952D02*
X148095238Y-73833333D01*
X148190476Y-73785714D01*
X148333333Y-73785714D01*
X148428571Y-73833333D01*
X148476190Y-73928571D01*
X148476190Y-74452380D01*
X148809523Y-73785714D02*
X149190476Y-73785714D01*
X148952380Y-73452380D02*
X148952380Y-74309523D01*
X149000000Y-74404761D01*
X149095238Y-74452380D01*
X149190476Y-74452380D01*
X149238095Y-128952380D02*
X148761904Y-128952380D01*
X148714285Y-129428571D01*
X148761904Y-129380952D01*
X148857142Y-129333333D01*
X149095238Y-129333333D01*
X149190476Y-129380952D01*
X149238095Y-129428571D01*
X149285714Y-129523809D01*
X149285714Y-129761904D01*
X149238095Y-129857142D01*
X149190476Y-129904761D01*
X149095238Y-129952380D01*
X148857142Y-129952380D01*
X148761904Y-129904761D01*
X148714285Y-129857142D01*
X126285714Y-145952380D02*
X125714285Y-145952380D01*
X126000000Y-145952380D02*
X126000000Y-144952380D01*
X125904761Y-145095238D01*
X125809523Y-145190476D01*
X125714285Y-145238095D01*
X149238095Y-53952380D02*
X148761904Y-53952380D01*
X148714285Y-54428571D01*
X148761904Y-54380952D01*
X148857142Y-54333333D01*
X149095238Y-54333333D01*
X149190476Y-54380952D01*
X149238095Y-54428571D01*
X149285714Y-54523809D01*
X149285714Y-54761904D01*
X149238095Y-54857142D01*
X149190476Y-54904761D01*
X149095238Y-54952380D01*
X148857142Y-54952380D01*
X148761904Y-54904761D01*
X148714285Y-54857142D01*
X149285714Y-145952380D02*
X148714285Y-145952380D01*
X149000000Y-145952380D02*
X149000000Y-144952380D01*
X148904761Y-145095238D01*
X148809523Y-145190476D01*
X148714285Y-145238095D01*
X126238095Y-53952380D02*
X125761904Y-53952380D01*
X125714285Y-54428571D01*
X125761904Y-54380952D01*
X125857142Y-54333333D01*
X126095238Y-54333333D01*
X126190476Y-54380952D01*
X126238095Y-54428571D01*
X126285714Y-54523809D01*
X126285714Y-54761904D01*
X126238095Y-54857142D01*
X126190476Y-54904761D01*
X126095238Y-54952380D01*
X125857142Y-54952380D01*
X125761904Y-54904761D01*
X125714285Y-54857142D01*
X126285714Y-70952380D02*
X125714285Y-70952380D01*
X126000000Y-70952380D02*
X126000000Y-69952380D01*
X125904761Y-70095238D01*
X125809523Y-70190476D01*
X125714285Y-70238095D01*
X101285714Y-70952380D02*
X100714285Y-70952380D01*
X101000000Y-70952380D02*
X101000000Y-69952380D01*
X100904761Y-70095238D01*
X100809523Y-70190476D01*
X100714285Y-70238095D01*
X101238095Y-53952380D02*
X100761904Y-53952380D01*
X100714285Y-54428571D01*
X100761904Y-54380952D01*
X100857142Y-54333333D01*
X101095238Y-54333333D01*
X101190476Y-54380952D01*
X101238095Y-54428571D01*
X101285714Y-54523809D01*
X101285714Y-54761904D01*
X101238095Y-54857142D01*
X101190476Y-54904761D01*
X101095238Y-54952380D01*
X100857142Y-54952380D01*
X100761904Y-54904761D01*
X100714285Y-54857142D01*
X124285714Y-70952380D02*
X123714285Y-70952380D01*
X124000000Y-70952380D02*
X124000000Y-69952380D01*
X123904761Y-70095238D01*
X123809523Y-70190476D01*
X123714285Y-70238095D01*
X124238095Y-53952380D02*
X123761904Y-53952380D01*
X123714285Y-54428571D01*
X123761904Y-54380952D01*
X123857142Y-54333333D01*
X124095238Y-54333333D01*
X124190476Y-54380952D01*
X124238095Y-54428571D01*
X124285714Y-54523809D01*
X124285714Y-54761904D01*
X124238095Y-54857142D01*
X124190476Y-54904761D01*
X124095238Y-54952380D01*
X123857142Y-54952380D01*
X123761904Y-54904761D01*
X123714285Y-54857142D01*
X112952380Y-74452380D02*
X112952380Y-73452380D01*
X113190476Y-73452380D01*
X113333333Y-73500000D01*
X113428571Y-73595238D01*
X113476190Y-73690476D01*
X113523809Y-73880952D01*
X113523809Y-74023809D01*
X113476190Y-74214285D01*
X113428571Y-74309523D01*
X113333333Y-74404761D01*
X113190476Y-74452380D01*
X112952380Y-74452380D01*
X113904761Y-74404761D02*
X114047619Y-74452380D01*
X114285714Y-74452380D01*
X114380952Y-74404761D01*
X114428571Y-74357142D01*
X114476190Y-74261904D01*
X114476190Y-74166666D01*
X114428571Y-74071428D01*
X114380952Y-74023809D01*
X114285714Y-73976190D01*
X114095238Y-73928571D01*
X114000000Y-73880952D01*
X113952380Y-73833333D01*
X113904761Y-73738095D01*
X113904761Y-73642857D01*
X113952380Y-73547619D01*
X114000000Y-73500000D01*
X114095238Y-73452380D01*
X114333333Y-73452380D01*
X114476190Y-73500000D01*
X115333333Y-73785714D02*
X115333333Y-74452380D01*
X114904761Y-73785714D02*
X114904761Y-74309523D01*
X114952380Y-74404761D01*
X115047619Y-74452380D01*
X115190476Y-74452380D01*
X115285714Y-74404761D01*
X115333333Y-74357142D01*
X115809523Y-74452380D02*
X115809523Y-73452380D01*
X115809523Y-73833333D02*
X115904761Y-73785714D01*
X116095238Y-73785714D01*
X116190476Y-73833333D01*
X116238095Y-73880952D01*
X116285714Y-73976190D01*
X116285714Y-74261904D01*
X116238095Y-74357142D01*
X116190476Y-74404761D01*
X116095238Y-74452380D01*
X115904761Y-74452380D01*
X115809523Y-74404761D01*
X116761904Y-74452380D02*
X116952380Y-74452380D01*
X117047619Y-74404761D01*
X117095238Y-74357142D01*
X117190476Y-74214285D01*
X117238095Y-74023809D01*
X117238095Y-73642857D01*
X117190476Y-73547619D01*
X117142857Y-73500000D01*
X117047619Y-73452380D01*
X116857142Y-73452380D01*
X116761904Y-73500000D01*
X116714285Y-73547619D01*
X116666666Y-73642857D01*
X116666666Y-73880952D01*
X116714285Y-73976190D01*
X116761904Y-74023809D01*
X116857142Y-74071428D01*
X117047619Y-74071428D01*
X117142857Y-74023809D01*
X117190476Y-73976190D01*
X117238095Y-73880952D01*
X117523809Y-73452380D02*
X118095238Y-73452380D01*
X117809523Y-74452380D02*
X117809523Y-73452380D01*
X118809523Y-74404761D02*
X118714285Y-74452380D01*
X118523809Y-74452380D01*
X118428571Y-74404761D01*
X118380952Y-74309523D01*
X118380952Y-73928571D01*
X118428571Y-73833333D01*
X118523809Y-73785714D01*
X118714285Y-73785714D01*
X118809523Y-73833333D01*
X118857142Y-73928571D01*
X118857142Y-74023809D01*
X118380952Y-74119047D01*
X119238095Y-74404761D02*
X119333333Y-74452380D01*
X119523809Y-74452380D01*
X119619047Y-74404761D01*
X119666666Y-74309523D01*
X119666666Y-74261904D01*
X119619047Y-74166666D01*
X119523809Y-74119047D01*
X119380952Y-74119047D01*
X119285714Y-74071428D01*
X119238095Y-73976190D01*
X119238095Y-73928571D01*
X119285714Y-73833333D01*
X119380952Y-73785714D01*
X119523809Y-73785714D01*
X119619047Y-73833333D01*
X119952380Y-73785714D02*
X120333333Y-73785714D01*
X120095238Y-73452380D02*
X120095238Y-74309523D01*
X120142857Y-74404761D01*
X120238095Y-74452380D01*
X120333333Y-74452380D01*
X120666666Y-74452380D02*
X120666666Y-73452380D01*
X121047619Y-73452380D01*
X121142857Y-73500000D01*
X121190476Y-73547619D01*
X121238095Y-73642857D01*
X121238095Y-73785714D01*
X121190476Y-73880952D01*
X121142857Y-73928571D01*
X121047619Y-73976190D01*
X120666666Y-73976190D01*
X121809523Y-74452380D02*
X121714285Y-74404761D01*
X121666666Y-74357142D01*
X121619047Y-74261904D01*
X121619047Y-73976190D01*
X121666666Y-73880952D01*
X121714285Y-73833333D01*
X121809523Y-73785714D01*
X121952380Y-73785714D01*
X122047619Y-73833333D01*
X122095238Y-73880952D01*
X122142857Y-73976190D01*
X122142857Y-74261904D01*
X122095238Y-74357142D01*
X122047619Y-74404761D01*
X121952380Y-74452380D01*
X121809523Y-74452380D01*
X122571428Y-74452380D02*
X122571428Y-73785714D01*
X122571428Y-73452380D02*
X122523809Y-73500000D01*
X122571428Y-73547619D01*
X122619047Y-73500000D01*
X122571428Y-73452380D01*
X122571428Y-73547619D01*
X123047619Y-73785714D02*
X123047619Y-74452380D01*
X123047619Y-73880952D02*
X123095238Y-73833333D01*
X123190476Y-73785714D01*
X123333333Y-73785714D01*
X123428571Y-73833333D01*
X123476190Y-73928571D01*
X123476190Y-74452380D01*
X123809523Y-73785714D02*
X124190476Y-73785714D01*
X123952380Y-73452380D02*
X123952380Y-74309523D01*
X124000000Y-74404761D01*
X124095238Y-74452380D01*
X124190476Y-74452380D01*
X126285714Y-120952380D02*
X125714285Y-120952380D01*
X126000000Y-120952380D02*
X126000000Y-119952380D01*
X125904761Y-120095238D01*
X125809523Y-120190476D01*
X125714285Y-120238095D01*
X137952380Y-124452380D02*
X137952380Y-123452380D01*
X138190476Y-123452380D01*
X138333333Y-123500000D01*
X138428571Y-123595238D01*
X138476190Y-123690476D01*
X138523809Y-123880952D01*
X138523809Y-124023809D01*
X138476190Y-124214285D01*
X138428571Y-124309523D01*
X138333333Y-124404761D01*
X138190476Y-124452380D01*
X137952380Y-124452380D01*
X138904761Y-124404761D02*
X139047619Y-124452380D01*
X139285714Y-124452380D01*
X139380952Y-124404761D01*
X139428571Y-124357142D01*
X139476190Y-124261904D01*
X139476190Y-124166666D01*
X139428571Y-124071428D01*
X139380952Y-124023809D01*
X139285714Y-123976190D01*
X139095238Y-123928571D01*
X139000000Y-123880952D01*
X138952380Y-123833333D01*
X138904761Y-123738095D01*
X138904761Y-123642857D01*
X138952380Y-123547619D01*
X139000000Y-123500000D01*
X139095238Y-123452380D01*
X139333333Y-123452380D01*
X139476190Y-123500000D01*
X140333333Y-123785714D02*
X140333333Y-124452380D01*
X139904761Y-123785714D02*
X139904761Y-124309523D01*
X139952380Y-124404761D01*
X140047619Y-124452380D01*
X140190476Y-124452380D01*
X140285714Y-124404761D01*
X140333333Y-124357142D01*
X140809523Y-124452380D02*
X140809523Y-123452380D01*
X140809523Y-123833333D02*
X140904761Y-123785714D01*
X141095238Y-123785714D01*
X141190476Y-123833333D01*
X141238095Y-123880952D01*
X141285714Y-123976190D01*
X141285714Y-124261904D01*
X141238095Y-124357142D01*
X141190476Y-124404761D01*
X141095238Y-124452380D01*
X140904761Y-124452380D01*
X140809523Y-124404761D01*
X141761904Y-124452380D02*
X141952380Y-124452380D01*
X142047619Y-124404761D01*
X142095238Y-124357142D01*
X142190476Y-124214285D01*
X142238095Y-124023809D01*
X142238095Y-123642857D01*
X142190476Y-123547619D01*
X142142857Y-123500000D01*
X142047619Y-123452380D01*
X141857142Y-123452380D01*
X141761904Y-123500000D01*
X141714285Y-123547619D01*
X141666666Y-123642857D01*
X141666666Y-123880952D01*
X141714285Y-123976190D01*
X141761904Y-124023809D01*
X141857142Y-124071428D01*
X142047619Y-124071428D01*
X142142857Y-124023809D01*
X142190476Y-123976190D01*
X142238095Y-123880952D01*
X142523809Y-123452380D02*
X143095238Y-123452380D01*
X142809523Y-124452380D02*
X142809523Y-123452380D01*
X143809523Y-124404761D02*
X143714285Y-124452380D01*
X143523809Y-124452380D01*
X143428571Y-124404761D01*
X143380952Y-124309523D01*
X143380952Y-123928571D01*
X143428571Y-123833333D01*
X143523809Y-123785714D01*
X143714285Y-123785714D01*
X143809523Y-123833333D01*
X143857142Y-123928571D01*
X143857142Y-124023809D01*
X143380952Y-124119047D01*
X144238095Y-124404761D02*
X144333333Y-124452380D01*
X144523809Y-124452380D01*
X144619047Y-124404761D01*
X144666666Y-124309523D01*
X144666666Y-124261904D01*
X144619047Y-124166666D01*
X144523809Y-124119047D01*
X144380952Y-124119047D01*
X144285714Y-124071428D01*
X144238095Y-123976190D01*
X144238095Y-123928571D01*
X144285714Y-123833333D01*
X144380952Y-123785714D01*
X144523809Y-123785714D01*
X144619047Y-123833333D01*
X144952380Y-123785714D02*
X145333333Y-123785714D01*
X145095238Y-123452380D02*
X145095238Y-124309523D01*
X145142857Y-124404761D01*
X145238095Y-124452380D01*
X145333333Y-124452380D01*
X145666666Y-124452380D02*
X145666666Y-123452380D01*
X146047619Y-123452380D01*
X146142857Y-123500000D01*
X146190476Y-123547619D01*
X146238095Y-123642857D01*
X146238095Y-123785714D01*
X146190476Y-123880952D01*
X146142857Y-123928571D01*
X146047619Y-123976190D01*
X145666666Y-123976190D01*
X146809523Y-124452380D02*
X146714285Y-124404761D01*
X146666666Y-124357142D01*
X146619047Y-124261904D01*
X146619047Y-123976190D01*
X146666666Y-123880952D01*
X146714285Y-123833333D01*
X146809523Y-123785714D01*
X146952380Y-123785714D01*
X147047619Y-123833333D01*
X147095238Y-123880952D01*
X147142857Y-123976190D01*
X147142857Y-124261904D01*
X147095238Y-124357142D01*
X147047619Y-124404761D01*
X146952380Y-124452380D01*
X146809523Y-124452380D01*
X147571428Y-124452380D02*
X147571428Y-123785714D01*
X147571428Y-123452380D02*
X147523809Y-123500000D01*
X147571428Y-123547619D01*
X147619047Y-123500000D01*
X147571428Y-123452380D01*
X147571428Y-123547619D01*
X148047619Y-123785714D02*
X148047619Y-124452380D01*
X148047619Y-123880952D02*
X148095238Y-123833333D01*
X148190476Y-123785714D01*
X148333333Y-123785714D01*
X148428571Y-123833333D01*
X148476190Y-123928571D01*
X148476190Y-124452380D01*
X148809523Y-123785714D02*
X149190476Y-123785714D01*
X148952380Y-123452380D02*
X148952380Y-124309523D01*
X149000000Y-124404761D01*
X149095238Y-124452380D01*
X149190476Y-124452380D01*
X149285714Y-120952380D02*
X148714285Y-120952380D01*
X149000000Y-120952380D02*
X149000000Y-119952380D01*
X148904761Y-120095238D01*
X148809523Y-120190476D01*
X148714285Y-120238095D01*
X126238095Y-103952380D02*
X125761904Y-103952380D01*
X125714285Y-104428571D01*
X125761904Y-104380952D01*
X125857142Y-104333333D01*
X126095238Y-104333333D01*
X126190476Y-104380952D01*
X126238095Y-104428571D01*
X126285714Y-104523809D01*
X126285714Y-104761904D01*
X126238095Y-104857142D01*
X126190476Y-104904761D01*
X126095238Y-104952380D01*
X125857142Y-104952380D01*
X125761904Y-104904761D01*
X125714285Y-104857142D01*
X126238095Y-78952380D02*
X125761904Y-78952380D01*
X125714285Y-79428571D01*
X125761904Y-79380952D01*
X125857142Y-79333333D01*
X126095238Y-79333333D01*
X126190476Y-79380952D01*
X126238095Y-79428571D01*
X126285714Y-79523809D01*
X126285714Y-79761904D01*
X126238095Y-79857142D01*
X126190476Y-79904761D01*
X126095238Y-79952380D01*
X125857142Y-79952380D01*
X125761904Y-79904761D01*
X125714285Y-79857142D01*
X149285714Y-95952380D02*
X148714285Y-95952380D01*
X149000000Y-95952380D02*
X149000000Y-94952380D01*
X148904761Y-95095238D01*
X148809523Y-95190476D01*
X148714285Y-95238095D01*
X149238095Y-78952380D02*
X148761904Y-78952380D01*
X148714285Y-79428571D01*
X148761904Y-79380952D01*
X148857142Y-79333333D01*
X149095238Y-79333333D01*
X149190476Y-79380952D01*
X149238095Y-79428571D01*
X149285714Y-79523809D01*
X149285714Y-79761904D01*
X149238095Y-79857142D01*
X149190476Y-79904761D01*
X149095238Y-79952380D01*
X148857142Y-79952380D01*
X148761904Y-79904761D01*
X148714285Y-79857142D01*
X137952380Y-99452380D02*
X137952380Y-98452380D01*
X138190476Y-98452380D01*
X138333333Y-98500000D01*
X138428571Y-98595238D01*
X138476190Y-98690476D01*
X138523809Y-98880952D01*
X138523809Y-99023809D01*
X138476190Y-99214285D01*
X138428571Y-99309523D01*
X138333333Y-99404761D01*
X138190476Y-99452380D01*
X137952380Y-99452380D01*
X138904761Y-99404761D02*
X139047619Y-99452380D01*
X139285714Y-99452380D01*
X139380952Y-99404761D01*
X139428571Y-99357142D01*
X139476190Y-99261904D01*
X139476190Y-99166666D01*
X139428571Y-99071428D01*
X139380952Y-99023809D01*
X139285714Y-98976190D01*
X139095238Y-98928571D01*
X139000000Y-98880952D01*
X138952380Y-98833333D01*
X138904761Y-98738095D01*
X138904761Y-98642857D01*
X138952380Y-98547619D01*
X139000000Y-98500000D01*
X139095238Y-98452380D01*
X139333333Y-98452380D01*
X139476190Y-98500000D01*
X140333333Y-98785714D02*
X140333333Y-99452380D01*
X139904761Y-98785714D02*
X139904761Y-99309523D01*
X139952380Y-99404761D01*
X140047619Y-99452380D01*
X140190476Y-99452380D01*
X140285714Y-99404761D01*
X140333333Y-99357142D01*
X140809523Y-99452380D02*
X140809523Y-98452380D01*
X140809523Y-98833333D02*
X140904761Y-98785714D01*
X141095238Y-98785714D01*
X141190476Y-98833333D01*
X141238095Y-98880952D01*
X141285714Y-98976190D01*
X141285714Y-99261904D01*
X141238095Y-99357142D01*
X141190476Y-99404761D01*
X141095238Y-99452380D01*
X140904761Y-99452380D01*
X140809523Y-99404761D01*
X141761904Y-99452380D02*
X141952380Y-99452380D01*
X142047619Y-99404761D01*
X142095238Y-99357142D01*
X142190476Y-99214285D01*
X142238095Y-99023809D01*
X142238095Y-98642857D01*
X142190476Y-98547619D01*
X142142857Y-98500000D01*
X142047619Y-98452380D01*
X141857142Y-98452380D01*
X141761904Y-98500000D01*
X141714285Y-98547619D01*
X141666666Y-98642857D01*
X141666666Y-98880952D01*
X141714285Y-98976190D01*
X141761904Y-99023809D01*
X141857142Y-99071428D01*
X142047619Y-99071428D01*
X142142857Y-99023809D01*
X142190476Y-98976190D01*
X142238095Y-98880952D01*
X142523809Y-98452380D02*
X143095238Y-98452380D01*
X142809523Y-99452380D02*
X142809523Y-98452380D01*
X143809523Y-99404761D02*
X143714285Y-99452380D01*
X143523809Y-99452380D01*
X143428571Y-99404761D01*
X143380952Y-99309523D01*
X143380952Y-98928571D01*
X143428571Y-98833333D01*
X143523809Y-98785714D01*
X143714285Y-98785714D01*
X143809523Y-98833333D01*
X143857142Y-98928571D01*
X143857142Y-99023809D01*
X143380952Y-99119047D01*
X144238095Y-99404761D02*
X144333333Y-99452380D01*
X144523809Y-99452380D01*
X144619047Y-99404761D01*
X144666666Y-99309523D01*
X144666666Y-99261904D01*
X144619047Y-99166666D01*
X144523809Y-99119047D01*
X144380952Y-99119047D01*
X144285714Y-99071428D01*
X144238095Y-98976190D01*
X144238095Y-98928571D01*
X144285714Y-98833333D01*
X144380952Y-98785714D01*
X144523809Y-98785714D01*
X144619047Y-98833333D01*
X144952380Y-98785714D02*
X145333333Y-98785714D01*
X145095238Y-98452380D02*
X145095238Y-99309523D01*
X145142857Y-99404761D01*
X145238095Y-99452380D01*
X145333333Y-99452380D01*
X145666666Y-99452380D02*
X145666666Y-98452380D01*
X146047619Y-98452380D01*
X146142857Y-98500000D01*
X146190476Y-98547619D01*
X146238095Y-98642857D01*
X146238095Y-98785714D01*
X146190476Y-98880952D01*
X146142857Y-98928571D01*
X146047619Y-98976190D01*
X145666666Y-98976190D01*
X146809523Y-99452380D02*
X146714285Y-99404761D01*
X146666666Y-99357142D01*
X146619047Y-99261904D01*
X146619047Y-98976190D01*
X146666666Y-98880952D01*
X146714285Y-98833333D01*
X146809523Y-98785714D01*
X146952380Y-98785714D01*
X147047619Y-98833333D01*
X147095238Y-98880952D01*
X147142857Y-98976190D01*
X147142857Y-99261904D01*
X147095238Y-99357142D01*
X147047619Y-99404761D01*
X146952380Y-99452380D01*
X146809523Y-99452380D01*
X147571428Y-99452380D02*
X147571428Y-98785714D01*
X147571428Y-98452380D02*
X147523809Y-98500000D01*
X147571428Y-98547619D01*
X147619047Y-98500000D01*
X147571428Y-98452380D01*
X147571428Y-98547619D01*
X148047619Y-98785714D02*
X148047619Y-99452380D01*
X148047619Y-98880952D02*
X148095238Y-98833333D01*
X148190476Y-98785714D01*
X148333333Y-98785714D01*
X148428571Y-98833333D01*
X148476190Y-98928571D01*
X148476190Y-99452380D01*
X148809523Y-98785714D02*
X149190476Y-98785714D01*
X148952380Y-98452380D02*
X148952380Y-99309523D01*
X149000000Y-99404761D01*
X149095238Y-99452380D01*
X149190476Y-99452380D01*
X126285714Y-95952380D02*
X125714285Y-95952380D01*
X126000000Y-95952380D02*
X126000000Y-94952380D01*
X125904761Y-95095238D01*
X125809523Y-95190476D01*
X125714285Y-95238095D01*
X112952380Y-149452380D02*
X112952380Y-148452380D01*
X113190476Y-148452380D01*
X113333333Y-148500000D01*
X113428571Y-148595238D01*
X113476190Y-148690476D01*
X113523809Y-148880952D01*
X113523809Y-149023809D01*
X113476190Y-149214285D01*
X113428571Y-149309523D01*
X113333333Y-149404761D01*
X113190476Y-149452380D01*
X112952380Y-149452380D01*
X113904761Y-149404761D02*
X114047619Y-149452380D01*
X114285714Y-149452380D01*
X114380952Y-149404761D01*
X114428571Y-149357142D01*
X114476190Y-149261904D01*
X114476190Y-149166666D01*
X114428571Y-149071428D01*
X114380952Y-149023809D01*
X114285714Y-148976190D01*
X114095238Y-148928571D01*
X114000000Y-148880952D01*
X113952380Y-148833333D01*
X113904761Y-148738095D01*
X113904761Y-148642857D01*
X113952380Y-148547619D01*
X114000000Y-148500000D01*
X114095238Y-148452380D01*
X114333333Y-148452380D01*
X114476190Y-148500000D01*
X115333333Y-148785714D02*
X115333333Y-149452380D01*
X114904761Y-148785714D02*
X114904761Y-149309523D01*
X114952380Y-149404761D01*
X115047619Y-149452380D01*
X115190476Y-149452380D01*
X115285714Y-149404761D01*
X115333333Y-149357142D01*
X115809523Y-149452380D02*
X115809523Y-148452380D01*
X115809523Y-148833333D02*
X115904761Y-148785714D01*
X116095238Y-148785714D01*
X116190476Y-148833333D01*
X116238095Y-148880952D01*
X116285714Y-148976190D01*
X116285714Y-149261904D01*
X116238095Y-149357142D01*
X116190476Y-149404761D01*
X116095238Y-149452380D01*
X115904761Y-149452380D01*
X115809523Y-149404761D01*
X116761904Y-149452380D02*
X116952380Y-149452380D01*
X117047619Y-149404761D01*
X117095238Y-149357142D01*
X117190476Y-149214285D01*
X117238095Y-149023809D01*
X117238095Y-148642857D01*
X117190476Y-148547619D01*
X117142857Y-148500000D01*
X117047619Y-148452380D01*
X116857142Y-148452380D01*
X116761904Y-148500000D01*
X116714285Y-148547619D01*
X116666666Y-148642857D01*
X116666666Y-148880952D01*
X116714285Y-148976190D01*
X116761904Y-149023809D01*
X116857142Y-149071428D01*
X117047619Y-149071428D01*
X117142857Y-149023809D01*
X117190476Y-148976190D01*
X117238095Y-148880952D01*
X117523809Y-148452380D02*
X118095238Y-148452380D01*
X117809523Y-149452380D02*
X117809523Y-148452380D01*
X118809523Y-149404761D02*
X118714285Y-149452380D01*
X118523809Y-149452380D01*
X118428571Y-149404761D01*
X118380952Y-149309523D01*
X118380952Y-148928571D01*
X118428571Y-148833333D01*
X118523809Y-148785714D01*
X118714285Y-148785714D01*
X118809523Y-148833333D01*
X118857142Y-148928571D01*
X118857142Y-149023809D01*
X118380952Y-149119047D01*
X119238095Y-149404761D02*
X119333333Y-149452380D01*
X119523809Y-149452380D01*
X119619047Y-149404761D01*
X119666666Y-149309523D01*
X119666666Y-149261904D01*
X119619047Y-149166666D01*
X119523809Y-149119047D01*
X119380952Y-149119047D01*
X119285714Y-149071428D01*
X119238095Y-148976190D01*
X119238095Y-148928571D01*
X119285714Y-148833333D01*
X119380952Y-148785714D01*
X119523809Y-148785714D01*
X119619047Y-148833333D01*
X119952380Y-148785714D02*
X120333333Y-148785714D01*
X120095238Y-148452380D02*
X120095238Y-149309523D01*
X120142857Y-149404761D01*
X120238095Y-149452380D01*
X120333333Y-149452380D01*
X120666666Y-149452380D02*
X120666666Y-148452380D01*
X121047619Y-148452380D01*
X121142857Y-148500000D01*
X121190476Y-148547619D01*
X121238095Y-148642857D01*
X121238095Y-148785714D01*
X121190476Y-148880952D01*
X121142857Y-148928571D01*
X121047619Y-148976190D01*
X120666666Y-148976190D01*
X121809523Y-149452380D02*
X121714285Y-149404761D01*
X121666666Y-149357142D01*
X121619047Y-149261904D01*
X121619047Y-148976190D01*
X121666666Y-148880952D01*
X121714285Y-148833333D01*
X121809523Y-148785714D01*
X121952380Y-148785714D01*
X122047619Y-148833333D01*
X122095238Y-148880952D01*
X122142857Y-148976190D01*
X122142857Y-149261904D01*
X122095238Y-149357142D01*
X122047619Y-149404761D01*
X121952380Y-149452380D01*
X121809523Y-149452380D01*
X122571428Y-149452380D02*
X122571428Y-148785714D01*
X122571428Y-148452380D02*
X122523809Y-148500000D01*
X122571428Y-148547619D01*
X122619047Y-148500000D01*
X122571428Y-148452380D01*
X122571428Y-148547619D01*
X123047619Y-148785714D02*
X123047619Y-149452380D01*
X123047619Y-148880952D02*
X123095238Y-148833333D01*
X123190476Y-148785714D01*
X123333333Y-148785714D01*
X123428571Y-148833333D01*
X123476190Y-148928571D01*
X123476190Y-149452380D01*
X123809523Y-148785714D02*
X124190476Y-148785714D01*
X123952380Y-148452380D02*
X123952380Y-149309523D01*
X124000000Y-149404761D01*
X124095238Y-149452380D01*
X124190476Y-149452380D01*
X101238095Y-128952380D02*
X100761904Y-128952380D01*
X100714285Y-129428571D01*
X100761904Y-129380952D01*
X100857142Y-129333333D01*
X101095238Y-129333333D01*
X101190476Y-129380952D01*
X101238095Y-129428571D01*
X101285714Y-129523809D01*
X101285714Y-129761904D01*
X101238095Y-129857142D01*
X101190476Y-129904761D01*
X101095238Y-129952380D01*
X100857142Y-129952380D01*
X100761904Y-129904761D01*
X100714285Y-129857142D01*
X124238095Y-128952380D02*
X123761904Y-128952380D01*
X123714285Y-129428571D01*
X123761904Y-129380952D01*
X123857142Y-129333333D01*
X124095238Y-129333333D01*
X124190476Y-129380952D01*
X124238095Y-129428571D01*
X124285714Y-129523809D01*
X124285714Y-129761904D01*
X124238095Y-129857142D01*
X124190476Y-129904761D01*
X124095238Y-129952380D01*
X123857142Y-129952380D01*
X123761904Y-129904761D01*
X123714285Y-129857142D01*
X101285714Y-145952380D02*
X100714285Y-145952380D01*
X101000000Y-145952380D02*
X101000000Y-144952380D01*
X100904761Y-145095238D01*
X100809523Y-145190476D01*
X100714285Y-145238095D01*
X124285714Y-145952380D02*
X123714285Y-145952380D01*
X124000000Y-145952380D02*
X124000000Y-144952380D01*
X123904761Y-145095238D01*
X123809523Y-145190476D01*
X123714285Y-145238095D01*
X124238095Y-103952380D02*
X123761904Y-103952380D01*
X123714285Y-104428571D01*
X123761904Y-104380952D01*
X123857142Y-104333333D01*
X124095238Y-104333333D01*
X124190476Y-104380952D01*
X124238095Y-104428571D01*
X124285714Y-104523809D01*
X124285714Y-104761904D01*
X124238095Y-104857142D01*
X124190476Y-104904761D01*
X124095238Y-104952380D01*
X123857142Y-104952380D01*
X123761904Y-104904761D01*
X123714285Y-104857142D01*
X101285714Y-120952380D02*
X100714285Y-120952380D01*
X101000000Y-120952380D02*
X101000000Y-119952380D01*
X100904761Y-120095238D01*
X100809523Y-120190476D01*
X100714285Y-120238095D01*
X112952380Y-124452380D02*
X112952380Y-123452380D01*
X113190476Y-123452380D01*
X113333333Y-123500000D01*
X113428571Y-123595238D01*
X113476190Y-123690476D01*
X113523809Y-123880952D01*
X113523809Y-124023809D01*
X113476190Y-124214285D01*
X113428571Y-124309523D01*
X113333333Y-124404761D01*
X113190476Y-124452380D01*
X112952380Y-124452380D01*
X113904761Y-124404761D02*
X114047619Y-124452380D01*
X114285714Y-124452380D01*
X114380952Y-124404761D01*
X114428571Y-124357142D01*
X114476190Y-124261904D01*
X114476190Y-124166666D01*
X114428571Y-124071428D01*
X114380952Y-124023809D01*
X114285714Y-123976190D01*
X114095238Y-123928571D01*
X114000000Y-123880952D01*
X113952380Y-123833333D01*
X113904761Y-123738095D01*
X113904761Y-123642857D01*
X113952380Y-123547619D01*
X114000000Y-123500000D01*
X114095238Y-123452380D01*
X114333333Y-123452380D01*
X114476190Y-123500000D01*
X115333333Y-123785714D02*
X115333333Y-124452380D01*
X114904761Y-123785714D02*
X114904761Y-124309523D01*
X114952380Y-124404761D01*
X115047619Y-124452380D01*
X115190476Y-124452380D01*
X115285714Y-124404761D01*
X115333333Y-124357142D01*
X115809523Y-124452380D02*
X115809523Y-123452380D01*
X115809523Y-123833333D02*
X115904761Y-123785714D01*
X116095238Y-123785714D01*
X116190476Y-123833333D01*
X116238095Y-123880952D01*
X116285714Y-123976190D01*
X116285714Y-124261904D01*
X116238095Y-124357142D01*
X116190476Y-124404761D01*
X116095238Y-124452380D01*
X115904761Y-124452380D01*
X115809523Y-124404761D01*
X116761904Y-124452380D02*
X116952380Y-124452380D01*
X117047619Y-124404761D01*
X117095238Y-124357142D01*
X117190476Y-124214285D01*
X117238095Y-124023809D01*
X117238095Y-123642857D01*
X117190476Y-123547619D01*
X117142857Y-123500000D01*
X117047619Y-123452380D01*
X116857142Y-123452380D01*
X116761904Y-123500000D01*
X116714285Y-123547619D01*
X116666666Y-123642857D01*
X116666666Y-123880952D01*
X116714285Y-123976190D01*
X116761904Y-124023809D01*
X116857142Y-124071428D01*
X117047619Y-124071428D01*
X117142857Y-124023809D01*
X117190476Y-123976190D01*
X117238095Y-123880952D01*
X117523809Y-123452380D02*
X118095238Y-123452380D01*
X117809523Y-124452380D02*
X117809523Y-123452380D01*
X118809523Y-124404761D02*
X118714285Y-124452380D01*
X118523809Y-124452380D01*
X118428571Y-124404761D01*
X118380952Y-124309523D01*
X118380952Y-123928571D01*
X118428571Y-123833333D01*
X118523809Y-123785714D01*
X118714285Y-123785714D01*
X118809523Y-123833333D01*
X118857142Y-123928571D01*
X118857142Y-124023809D01*
X118380952Y-124119047D01*
X119238095Y-124404761D02*
X119333333Y-124452380D01*
X119523809Y-124452380D01*
X119619047Y-124404761D01*
X119666666Y-124309523D01*
X119666666Y-124261904D01*
X119619047Y-124166666D01*
X119523809Y-124119047D01*
X119380952Y-124119047D01*
X119285714Y-124071428D01*
X119238095Y-123976190D01*
X119238095Y-123928571D01*
X119285714Y-123833333D01*
X119380952Y-123785714D01*
X119523809Y-123785714D01*
X119619047Y-123833333D01*
X119952380Y-123785714D02*
X120333333Y-123785714D01*
X120095238Y-123452380D02*
X120095238Y-124309523D01*
X120142857Y-124404761D01*
X120238095Y-124452380D01*
X120333333Y-124452380D01*
X120666666Y-124452380D02*
X120666666Y-123452380D01*
X121047619Y-123452380D01*
X121142857Y-123500000D01*
X121190476Y-123547619D01*
X121238095Y-123642857D01*
X121238095Y-123785714D01*
X121190476Y-123880952D01*
X121142857Y-123928571D01*
X121047619Y-123976190D01*
X120666666Y-123976190D01*
X121809523Y-124452380D02*
X121714285Y-124404761D01*
X121666666Y-124357142D01*
X121619047Y-124261904D01*
X121619047Y-123976190D01*
X121666666Y-123880952D01*
X121714285Y-123833333D01*
X121809523Y-123785714D01*
X121952380Y-123785714D01*
X122047619Y-123833333D01*
X122095238Y-123880952D01*
X122142857Y-123976190D01*
X122142857Y-124261904D01*
X122095238Y-124357142D01*
X122047619Y-124404761D01*
X121952380Y-124452380D01*
X121809523Y-124452380D01*
X122571428Y-124452380D02*
X122571428Y-123785714D01*
X122571428Y-123452380D02*
X122523809Y-123500000D01*
X122571428Y-123547619D01*
X122619047Y-123500000D01*
X122571428Y-123452380D01*
X122571428Y-123547619D01*
X123047619Y-123785714D02*
X123047619Y-124452380D01*
X123047619Y-123880952D02*
X123095238Y-123833333D01*
X123190476Y-123785714D01*
X123333333Y-123785714D01*
X123428571Y-123833333D01*
X123476190Y-123928571D01*
X123476190Y-124452380D01*
X123809523Y-123785714D02*
X124190476Y-123785714D01*
X123952380Y-123452380D02*
X123952380Y-124309523D01*
X124000000Y-124404761D01*
X124095238Y-124452380D01*
X124190476Y-124452380D01*
X124285714Y-120952380D02*
X123714285Y-120952380D01*
X124000000Y-120952380D02*
X124000000Y-119952380D01*
X123904761Y-120095238D01*
X123809523Y-120190476D01*
X123714285Y-120238095D01*
X101238095Y-103952380D02*
X100761904Y-103952380D01*
X100714285Y-104428571D01*
X100761904Y-104380952D01*
X100857142Y-104333333D01*
X101095238Y-104333333D01*
X101190476Y-104380952D01*
X101238095Y-104428571D01*
X101285714Y-104523809D01*
X101285714Y-104761904D01*
X101238095Y-104857142D01*
X101190476Y-104904761D01*
X101095238Y-104952380D01*
X100857142Y-104952380D01*
X100761904Y-104904761D01*
X100714285Y-104857142D01*
X124238095Y-78952380D02*
X123761904Y-78952380D01*
X123714285Y-79428571D01*
X123761904Y-79380952D01*
X123857142Y-79333333D01*
X124095238Y-79333333D01*
X124190476Y-79380952D01*
X124238095Y-79428571D01*
X124285714Y-79523809D01*
X124285714Y-79761904D01*
X124238095Y-79857142D01*
X124190476Y-79904761D01*
X124095238Y-79952380D01*
X123857142Y-79952380D01*
X123761904Y-79904761D01*
X123714285Y-79857142D01*
X101285714Y-95952380D02*
X100714285Y-95952380D01*
X101000000Y-95952380D02*
X101000000Y-94952380D01*
X100904761Y-95095238D01*
X100809523Y-95190476D01*
X100714285Y-95238095D01*
X101238095Y-78952380D02*
X100761904Y-78952380D01*
X100714285Y-79428571D01*
X100761904Y-79380952D01*
X100857142Y-79333333D01*
X101095238Y-79333333D01*
X101190476Y-79380952D01*
X101238095Y-79428571D01*
X101285714Y-79523809D01*
X101285714Y-79761904D01*
X101238095Y-79857142D01*
X101190476Y-79904761D01*
X101095238Y-79952380D01*
X100857142Y-79952380D01*
X100761904Y-79904761D01*
X100714285Y-79857142D01*
X112952380Y-99452380D02*
X112952380Y-98452380D01*
X113190476Y-98452380D01*
X113333333Y-98500000D01*
X113428571Y-98595238D01*
X113476190Y-98690476D01*
X113523809Y-98880952D01*
X113523809Y-99023809D01*
X113476190Y-99214285D01*
X113428571Y-99309523D01*
X113333333Y-99404761D01*
X113190476Y-99452380D01*
X112952380Y-99452380D01*
X113904761Y-99404761D02*
X114047619Y-99452380D01*
X114285714Y-99452380D01*
X114380952Y-99404761D01*
X114428571Y-99357142D01*
X114476190Y-99261904D01*
X114476190Y-99166666D01*
X114428571Y-99071428D01*
X114380952Y-99023809D01*
X114285714Y-98976190D01*
X114095238Y-98928571D01*
X114000000Y-98880952D01*
X113952380Y-98833333D01*
X113904761Y-98738095D01*
X113904761Y-98642857D01*
X113952380Y-98547619D01*
X114000000Y-98500000D01*
X114095238Y-98452380D01*
X114333333Y-98452380D01*
X114476190Y-98500000D01*
X115333333Y-98785714D02*
X115333333Y-99452380D01*
X114904761Y-98785714D02*
X114904761Y-99309523D01*
X114952380Y-99404761D01*
X115047619Y-99452380D01*
X115190476Y-99452380D01*
X115285714Y-99404761D01*
X115333333Y-99357142D01*
X115809523Y-99452380D02*
X115809523Y-98452380D01*
X115809523Y-98833333D02*
X115904761Y-98785714D01*
X116095238Y-98785714D01*
X116190476Y-98833333D01*
X116238095Y-98880952D01*
X116285714Y-98976190D01*
X116285714Y-99261904D01*
X116238095Y-99357142D01*
X116190476Y-99404761D01*
X116095238Y-99452380D01*
X115904761Y-99452380D01*
X115809523Y-99404761D01*
X116761904Y-99452380D02*
X116952380Y-99452380D01*
X117047619Y-99404761D01*
X117095238Y-99357142D01*
X117190476Y-99214285D01*
X117238095Y-99023809D01*
X117238095Y-98642857D01*
X117190476Y-98547619D01*
X117142857Y-98500000D01*
X117047619Y-98452380D01*
X116857142Y-98452380D01*
X116761904Y-98500000D01*
X116714285Y-98547619D01*
X116666666Y-98642857D01*
X116666666Y-98880952D01*
X116714285Y-98976190D01*
X116761904Y-99023809D01*
X116857142Y-99071428D01*
X117047619Y-99071428D01*
X117142857Y-99023809D01*
X117190476Y-98976190D01*
X117238095Y-98880952D01*
X117523809Y-98452380D02*
X118095238Y-98452380D01*
X117809523Y-99452380D02*
X117809523Y-98452380D01*
X118809523Y-99404761D02*
X118714285Y-99452380D01*
X118523809Y-99452380D01*
X118428571Y-99404761D01*
X118380952Y-99309523D01*
X118380952Y-98928571D01*
X118428571Y-98833333D01*
X118523809Y-98785714D01*
X118714285Y-98785714D01*
X118809523Y-98833333D01*
X118857142Y-98928571D01*
X118857142Y-99023809D01*
X118380952Y-99119047D01*
X119238095Y-99404761D02*
X119333333Y-99452380D01*
X119523809Y-99452380D01*
X119619047Y-99404761D01*
X119666666Y-99309523D01*
X119666666Y-99261904D01*
X119619047Y-99166666D01*
X119523809Y-99119047D01*
X119380952Y-99119047D01*
X119285714Y-99071428D01*
X119238095Y-98976190D01*
X119238095Y-98928571D01*
X119285714Y-98833333D01*
X119380952Y-98785714D01*
X119523809Y-98785714D01*
X119619047Y-98833333D01*
X119952380Y-98785714D02*
X120333333Y-98785714D01*
X120095238Y-98452380D02*
X120095238Y-99309523D01*
X120142857Y-99404761D01*
X120238095Y-99452380D01*
X120333333Y-99452380D01*
X120666666Y-99452380D02*
X120666666Y-98452380D01*
X121047619Y-98452380D01*
X121142857Y-98500000D01*
X121190476Y-98547619D01*
X121238095Y-98642857D01*
X121238095Y-98785714D01*
X121190476Y-98880952D01*
X121142857Y-98928571D01*
X121047619Y-98976190D01*
X120666666Y-98976190D01*
X121809523Y-99452380D02*
X121714285Y-99404761D01*
X121666666Y-99357142D01*
X121619047Y-99261904D01*
X121619047Y-98976190D01*
X121666666Y-98880952D01*
X121714285Y-98833333D01*
X121809523Y-98785714D01*
X121952380Y-98785714D01*
X122047619Y-98833333D01*
X122095238Y-98880952D01*
X122142857Y-98976190D01*
X122142857Y-99261904D01*
X122095238Y-99357142D01*
X122047619Y-99404761D01*
X121952380Y-99452380D01*
X121809523Y-99452380D01*
X122571428Y-99452380D02*
X122571428Y-98785714D01*
X122571428Y-98452380D02*
X122523809Y-98500000D01*
X122571428Y-98547619D01*
X122619047Y-98500000D01*
X122571428Y-98452380D01*
X122571428Y-98547619D01*
X123047619Y-98785714D02*
X123047619Y-99452380D01*
X123047619Y-98880952D02*
X123095238Y-98833333D01*
X123190476Y-98785714D01*
X123333333Y-98785714D01*
X123428571Y-98833333D01*
X123476190Y-98928571D01*
X123476190Y-99452380D01*
X123809523Y-98785714D02*
X124190476Y-98785714D01*
X123952380Y-98452380D02*
X123952380Y-99309523D01*
X124000000Y-99404761D01*
X124095238Y-99452380D01*
X124190476Y-99452380D01*
X124285714Y-95952380D02*
X123714285Y-95952380D01*
X124000000Y-95952380D02*
X124000000Y-94952380D01*
X123904761Y-95095238D01*
X123809523Y-95190476D01*
X123714285Y-95238095D01*
X76285714Y-70952380D02*
X75714285Y-70952380D01*
X76000000Y-70952380D02*
X76000000Y-69952380D01*
X75904761Y-70095238D01*
X75809523Y-70190476D01*
X75714285Y-70238095D01*
X76238095Y-53952380D02*
X75761904Y-53952380D01*
X75714285Y-54428571D01*
X75761904Y-54380952D01*
X75857142Y-54333333D01*
X76095238Y-54333333D01*
X76190476Y-54380952D01*
X76238095Y-54428571D01*
X76285714Y-54523809D01*
X76285714Y-54761904D01*
X76238095Y-54857142D01*
X76190476Y-54904761D01*
X76095238Y-54952380D01*
X75857142Y-54952380D01*
X75761904Y-54904761D01*
X75714285Y-54857142D01*
X99285714Y-70952380D02*
X98714285Y-70952380D01*
X99000000Y-70952380D02*
X99000000Y-69952380D01*
X98904761Y-70095238D01*
X98809523Y-70190476D01*
X98714285Y-70238095D01*
X99238095Y-53952380D02*
X98761904Y-53952380D01*
X98714285Y-54428571D01*
X98761904Y-54380952D01*
X98857142Y-54333333D01*
X99095238Y-54333333D01*
X99190476Y-54380952D01*
X99238095Y-54428571D01*
X99285714Y-54523809D01*
X99285714Y-54761904D01*
X99238095Y-54857142D01*
X99190476Y-54904761D01*
X99095238Y-54952380D01*
X98857142Y-54952380D01*
X98761904Y-54904761D01*
X98714285Y-54857142D01*
X87952380Y-74452380D02*
X87952380Y-73452380D01*
X88190476Y-73452380D01*
X88333333Y-73500000D01*
X88428571Y-73595238D01*
X88476190Y-73690476D01*
X88523809Y-73880952D01*
X88523809Y-74023809D01*
X88476190Y-74214285D01*
X88428571Y-74309523D01*
X88333333Y-74404761D01*
X88190476Y-74452380D01*
X87952380Y-74452380D01*
X88904761Y-74404761D02*
X89047619Y-74452380D01*
X89285714Y-74452380D01*
X89380952Y-74404761D01*
X89428571Y-74357142D01*
X89476190Y-74261904D01*
X89476190Y-74166666D01*
X89428571Y-74071428D01*
X89380952Y-74023809D01*
X89285714Y-73976190D01*
X89095238Y-73928571D01*
X89000000Y-73880952D01*
X88952380Y-73833333D01*
X88904761Y-73738095D01*
X88904761Y-73642857D01*
X88952380Y-73547619D01*
X89000000Y-73500000D01*
X89095238Y-73452380D01*
X89333333Y-73452380D01*
X89476190Y-73500000D01*
X90333333Y-73785714D02*
X90333333Y-74452380D01*
X89904761Y-73785714D02*
X89904761Y-74309523D01*
X89952380Y-74404761D01*
X90047619Y-74452380D01*
X90190476Y-74452380D01*
X90285714Y-74404761D01*
X90333333Y-74357142D01*
X90809523Y-74452380D02*
X90809523Y-73452380D01*
X90809523Y-73833333D02*
X90904761Y-73785714D01*
X91095238Y-73785714D01*
X91190476Y-73833333D01*
X91238095Y-73880952D01*
X91285714Y-73976190D01*
X91285714Y-74261904D01*
X91238095Y-74357142D01*
X91190476Y-74404761D01*
X91095238Y-74452380D01*
X90904761Y-74452380D01*
X90809523Y-74404761D01*
X91761904Y-74452380D02*
X91952380Y-74452380D01*
X92047619Y-74404761D01*
X92095238Y-74357142D01*
X92190476Y-74214285D01*
X92238095Y-74023809D01*
X92238095Y-73642857D01*
X92190476Y-73547619D01*
X92142857Y-73500000D01*
X92047619Y-73452380D01*
X91857142Y-73452380D01*
X91761904Y-73500000D01*
X91714285Y-73547619D01*
X91666666Y-73642857D01*
X91666666Y-73880952D01*
X91714285Y-73976190D01*
X91761904Y-74023809D01*
X91857142Y-74071428D01*
X92047619Y-74071428D01*
X92142857Y-74023809D01*
X92190476Y-73976190D01*
X92238095Y-73880952D01*
X92523809Y-73452380D02*
X93095238Y-73452380D01*
X92809523Y-74452380D02*
X92809523Y-73452380D01*
X93809523Y-74404761D02*
X93714285Y-74452380D01*
X93523809Y-74452380D01*
X93428571Y-74404761D01*
X93380952Y-74309523D01*
X93380952Y-73928571D01*
X93428571Y-73833333D01*
X93523809Y-73785714D01*
X93714285Y-73785714D01*
X93809523Y-73833333D01*
X93857142Y-73928571D01*
X93857142Y-74023809D01*
X93380952Y-74119047D01*
X94238095Y-74404761D02*
X94333333Y-74452380D01*
X94523809Y-74452380D01*
X94619047Y-74404761D01*
X94666666Y-74309523D01*
X94666666Y-74261904D01*
X94619047Y-74166666D01*
X94523809Y-74119047D01*
X94380952Y-74119047D01*
X94285714Y-74071428D01*
X94238095Y-73976190D01*
X94238095Y-73928571D01*
X94285714Y-73833333D01*
X94380952Y-73785714D01*
X94523809Y-73785714D01*
X94619047Y-73833333D01*
X94952380Y-73785714D02*
X95333333Y-73785714D01*
X95095238Y-73452380D02*
X95095238Y-74309523D01*
X95142857Y-74404761D01*
X95238095Y-74452380D01*
X95333333Y-74452380D01*
X95666666Y-74452380D02*
X95666666Y-73452380D01*
X96047619Y-73452380D01*
X96142857Y-73500000D01*
X96190476Y-73547619D01*
X96238095Y-73642857D01*
X96238095Y-73785714D01*
X96190476Y-73880952D01*
X96142857Y-73928571D01*
X96047619Y-73976190D01*
X95666666Y-73976190D01*
X96809523Y-74452380D02*
X96714285Y-74404761D01*
X96666666Y-74357142D01*
X96619047Y-74261904D01*
X96619047Y-73976190D01*
X96666666Y-73880952D01*
X96714285Y-73833333D01*
X96809523Y-73785714D01*
X96952380Y-73785714D01*
X97047619Y-73833333D01*
X97095238Y-73880952D01*
X97142857Y-73976190D01*
X97142857Y-74261904D01*
X97095238Y-74357142D01*
X97047619Y-74404761D01*
X96952380Y-74452380D01*
X96809523Y-74452380D01*
X97571428Y-74452380D02*
X97571428Y-73785714D01*
X97571428Y-73452380D02*
X97523809Y-73500000D01*
X97571428Y-73547619D01*
X97619047Y-73500000D01*
X97571428Y-73452380D01*
X97571428Y-73547619D01*
X98047619Y-73785714D02*
X98047619Y-74452380D01*
X98047619Y-73880952D02*
X98095238Y-73833333D01*
X98190476Y-73785714D01*
X98333333Y-73785714D01*
X98428571Y-73833333D01*
X98476190Y-73928571D01*
X98476190Y-74452380D01*
X98809523Y-73785714D02*
X99190476Y-73785714D01*
X98952380Y-73452380D02*
X98952380Y-74309523D01*
X99000000Y-74404761D01*
X99095238Y-74452380D01*
X99190476Y-74452380D01*
X87952380Y-149452380D02*
X87952380Y-148452380D01*
X88190476Y-148452380D01*
X88333333Y-148500000D01*
X88428571Y-148595238D01*
X88476190Y-148690476D01*
X88523809Y-148880952D01*
X88523809Y-149023809D01*
X88476190Y-149214285D01*
X88428571Y-149309523D01*
X88333333Y-149404761D01*
X88190476Y-149452380D01*
X87952380Y-149452380D01*
X88904761Y-149404761D02*
X89047619Y-149452380D01*
X89285714Y-149452380D01*
X89380952Y-149404761D01*
X89428571Y-149357142D01*
X89476190Y-149261904D01*
X89476190Y-149166666D01*
X89428571Y-149071428D01*
X89380952Y-149023809D01*
X89285714Y-148976190D01*
X89095238Y-148928571D01*
X89000000Y-148880952D01*
X88952380Y-148833333D01*
X88904761Y-148738095D01*
X88904761Y-148642857D01*
X88952380Y-148547619D01*
X89000000Y-148500000D01*
X89095238Y-148452380D01*
X89333333Y-148452380D01*
X89476190Y-148500000D01*
X90333333Y-148785714D02*
X90333333Y-149452380D01*
X89904761Y-148785714D02*
X89904761Y-149309523D01*
X89952380Y-149404761D01*
X90047619Y-149452380D01*
X90190476Y-149452380D01*
X90285714Y-149404761D01*
X90333333Y-149357142D01*
X90809523Y-149452380D02*
X90809523Y-148452380D01*
X90809523Y-148833333D02*
X90904761Y-148785714D01*
X91095238Y-148785714D01*
X91190476Y-148833333D01*
X91238095Y-148880952D01*
X91285714Y-148976190D01*
X91285714Y-149261904D01*
X91238095Y-149357142D01*
X91190476Y-149404761D01*
X91095238Y-149452380D01*
X90904761Y-149452380D01*
X90809523Y-149404761D01*
X91761904Y-149452380D02*
X91952380Y-149452380D01*
X92047619Y-149404761D01*
X92095238Y-149357142D01*
X92190476Y-149214285D01*
X92238095Y-149023809D01*
X92238095Y-148642857D01*
X92190476Y-148547619D01*
X92142857Y-148500000D01*
X92047619Y-148452380D01*
X91857142Y-148452380D01*
X91761904Y-148500000D01*
X91714285Y-148547619D01*
X91666666Y-148642857D01*
X91666666Y-148880952D01*
X91714285Y-148976190D01*
X91761904Y-149023809D01*
X91857142Y-149071428D01*
X92047619Y-149071428D01*
X92142857Y-149023809D01*
X92190476Y-148976190D01*
X92238095Y-148880952D01*
X92523809Y-148452380D02*
X93095238Y-148452380D01*
X92809523Y-149452380D02*
X92809523Y-148452380D01*
X93809523Y-149404761D02*
X93714285Y-149452380D01*
X93523809Y-149452380D01*
X93428571Y-149404761D01*
X93380952Y-149309523D01*
X93380952Y-148928571D01*
X93428571Y-148833333D01*
X93523809Y-148785714D01*
X93714285Y-148785714D01*
X93809523Y-148833333D01*
X93857142Y-148928571D01*
X93857142Y-149023809D01*
X93380952Y-149119047D01*
X94238095Y-149404761D02*
X94333333Y-149452380D01*
X94523809Y-149452380D01*
X94619047Y-149404761D01*
X94666666Y-149309523D01*
X94666666Y-149261904D01*
X94619047Y-149166666D01*
X94523809Y-149119047D01*
X94380952Y-149119047D01*
X94285714Y-149071428D01*
X94238095Y-148976190D01*
X94238095Y-148928571D01*
X94285714Y-148833333D01*
X94380952Y-148785714D01*
X94523809Y-148785714D01*
X94619047Y-148833333D01*
X94952380Y-148785714D02*
X95333333Y-148785714D01*
X95095238Y-148452380D02*
X95095238Y-149309523D01*
X95142857Y-149404761D01*
X95238095Y-149452380D01*
X95333333Y-149452380D01*
X95666666Y-149452380D02*
X95666666Y-148452380D01*
X96047619Y-148452380D01*
X96142857Y-148500000D01*
X96190476Y-148547619D01*
X96238095Y-148642857D01*
X96238095Y-148785714D01*
X96190476Y-148880952D01*
X96142857Y-148928571D01*
X96047619Y-148976190D01*
X95666666Y-148976190D01*
X96809523Y-149452380D02*
X96714285Y-149404761D01*
X96666666Y-149357142D01*
X96619047Y-149261904D01*
X96619047Y-148976190D01*
X96666666Y-148880952D01*
X96714285Y-148833333D01*
X96809523Y-148785714D01*
X96952380Y-148785714D01*
X97047619Y-148833333D01*
X97095238Y-148880952D01*
X97142857Y-148976190D01*
X97142857Y-149261904D01*
X97095238Y-149357142D01*
X97047619Y-149404761D01*
X96952380Y-149452380D01*
X96809523Y-149452380D01*
X97571428Y-149452380D02*
X97571428Y-148785714D01*
X97571428Y-148452380D02*
X97523809Y-148500000D01*
X97571428Y-148547619D01*
X97619047Y-148500000D01*
X97571428Y-148452380D01*
X97571428Y-148547619D01*
X98047619Y-148785714D02*
X98047619Y-149452380D01*
X98047619Y-148880952D02*
X98095238Y-148833333D01*
X98190476Y-148785714D01*
X98333333Y-148785714D01*
X98428571Y-148833333D01*
X98476190Y-148928571D01*
X98476190Y-149452380D01*
X98809523Y-148785714D02*
X99190476Y-148785714D01*
X98952380Y-148452380D02*
X98952380Y-149309523D01*
X99000000Y-149404761D01*
X99095238Y-149452380D01*
X99190476Y-149452380D01*
X76238095Y-128952380D02*
X75761904Y-128952380D01*
X75714285Y-129428571D01*
X75761904Y-129380952D01*
X75857142Y-129333333D01*
X76095238Y-129333333D01*
X76190476Y-129380952D01*
X76238095Y-129428571D01*
X76285714Y-129523809D01*
X76285714Y-129761904D01*
X76238095Y-129857142D01*
X76190476Y-129904761D01*
X76095238Y-129952380D01*
X75857142Y-129952380D01*
X75761904Y-129904761D01*
X75714285Y-129857142D01*
X99238095Y-128952380D02*
X98761904Y-128952380D01*
X98714285Y-129428571D01*
X98761904Y-129380952D01*
X98857142Y-129333333D01*
X99095238Y-129333333D01*
X99190476Y-129380952D01*
X99238095Y-129428571D01*
X99285714Y-129523809D01*
X99285714Y-129761904D01*
X99238095Y-129857142D01*
X99190476Y-129904761D01*
X99095238Y-129952380D01*
X98857142Y-129952380D01*
X98761904Y-129904761D01*
X98714285Y-129857142D01*
X76285714Y-145952380D02*
X75714285Y-145952380D01*
X76000000Y-145952380D02*
X76000000Y-144952380D01*
X75904761Y-145095238D01*
X75809523Y-145190476D01*
X75714285Y-145238095D01*
X99285714Y-145952380D02*
X98714285Y-145952380D01*
X99000000Y-145952380D02*
X99000000Y-144952380D01*
X98904761Y-145095238D01*
X98809523Y-145190476D01*
X98714285Y-145238095D01*
X99238095Y-103952380D02*
X98761904Y-103952380D01*
X98714285Y-104428571D01*
X98761904Y-104380952D01*
X98857142Y-104333333D01*
X99095238Y-104333333D01*
X99190476Y-104380952D01*
X99238095Y-104428571D01*
X99285714Y-104523809D01*
X99285714Y-104761904D01*
X99238095Y-104857142D01*
X99190476Y-104904761D01*
X99095238Y-104952380D01*
X98857142Y-104952380D01*
X98761904Y-104904761D01*
X98714285Y-104857142D01*
X76285714Y-120952380D02*
X75714285Y-120952380D01*
X76000000Y-120952380D02*
X76000000Y-119952380D01*
X75904761Y-120095238D01*
X75809523Y-120190476D01*
X75714285Y-120238095D01*
X87952380Y-124452380D02*
X87952380Y-123452380D01*
X88190476Y-123452380D01*
X88333333Y-123500000D01*
X88428571Y-123595238D01*
X88476190Y-123690476D01*
X88523809Y-123880952D01*
X88523809Y-124023809D01*
X88476190Y-124214285D01*
X88428571Y-124309523D01*
X88333333Y-124404761D01*
X88190476Y-124452380D01*
X87952380Y-124452380D01*
X88904761Y-124404761D02*
X89047619Y-124452380D01*
X89285714Y-124452380D01*
X89380952Y-124404761D01*
X89428571Y-124357142D01*
X89476190Y-124261904D01*
X89476190Y-124166666D01*
X89428571Y-124071428D01*
X89380952Y-124023809D01*
X89285714Y-123976190D01*
X89095238Y-123928571D01*
X89000000Y-123880952D01*
X88952380Y-123833333D01*
X88904761Y-123738095D01*
X88904761Y-123642857D01*
X88952380Y-123547619D01*
X89000000Y-123500000D01*
X89095238Y-123452380D01*
X89333333Y-123452380D01*
X89476190Y-123500000D01*
X90333333Y-123785714D02*
X90333333Y-124452380D01*
X89904761Y-123785714D02*
X89904761Y-124309523D01*
X89952380Y-124404761D01*
X90047619Y-124452380D01*
X90190476Y-124452380D01*
X90285714Y-124404761D01*
X90333333Y-124357142D01*
X90809523Y-124452380D02*
X90809523Y-123452380D01*
X90809523Y-123833333D02*
X90904761Y-123785714D01*
X91095238Y-123785714D01*
X91190476Y-123833333D01*
X91238095Y-123880952D01*
X91285714Y-123976190D01*
X91285714Y-124261904D01*
X91238095Y-124357142D01*
X91190476Y-124404761D01*
X91095238Y-124452380D01*
X90904761Y-124452380D01*
X90809523Y-124404761D01*
X91761904Y-124452380D02*
X91952380Y-124452380D01*
X92047619Y-124404761D01*
X92095238Y-124357142D01*
X92190476Y-124214285D01*
X92238095Y-124023809D01*
X92238095Y-123642857D01*
X92190476Y-123547619D01*
X92142857Y-123500000D01*
X92047619Y-123452380D01*
X91857142Y-123452380D01*
X91761904Y-123500000D01*
X91714285Y-123547619D01*
X91666666Y-123642857D01*
X91666666Y-123880952D01*
X91714285Y-123976190D01*
X91761904Y-124023809D01*
X91857142Y-124071428D01*
X92047619Y-124071428D01*
X92142857Y-124023809D01*
X92190476Y-123976190D01*
X92238095Y-123880952D01*
X92523809Y-123452380D02*
X93095238Y-123452380D01*
X92809523Y-124452380D02*
X92809523Y-123452380D01*
X93809523Y-124404761D02*
X93714285Y-124452380D01*
X93523809Y-124452380D01*
X93428571Y-124404761D01*
X93380952Y-124309523D01*
X93380952Y-123928571D01*
X93428571Y-123833333D01*
X93523809Y-123785714D01*
X93714285Y-123785714D01*
X93809523Y-123833333D01*
X93857142Y-123928571D01*
X93857142Y-124023809D01*
X93380952Y-124119047D01*
X94238095Y-124404761D02*
X94333333Y-124452380D01*
X94523809Y-124452380D01*
X94619047Y-124404761D01*
X94666666Y-124309523D01*
X94666666Y-124261904D01*
X94619047Y-124166666D01*
X94523809Y-124119047D01*
X94380952Y-124119047D01*
X94285714Y-124071428D01*
X94238095Y-123976190D01*
X94238095Y-123928571D01*
X94285714Y-123833333D01*
X94380952Y-123785714D01*
X94523809Y-123785714D01*
X94619047Y-123833333D01*
X94952380Y-123785714D02*
X95333333Y-123785714D01*
X95095238Y-123452380D02*
X95095238Y-124309523D01*
X95142857Y-124404761D01*
X95238095Y-124452380D01*
X95333333Y-124452380D01*
X95666666Y-124452380D02*
X95666666Y-123452380D01*
X96047619Y-123452380D01*
X96142857Y-123500000D01*
X96190476Y-123547619D01*
X96238095Y-123642857D01*
X96238095Y-123785714D01*
X96190476Y-123880952D01*
X96142857Y-123928571D01*
X96047619Y-123976190D01*
X95666666Y-123976190D01*
X96809523Y-124452380D02*
X96714285Y-124404761D01*
X96666666Y-124357142D01*
X96619047Y-124261904D01*
X96619047Y-123976190D01*
X96666666Y-123880952D01*
X96714285Y-123833333D01*
X96809523Y-123785714D01*
X96952380Y-123785714D01*
X97047619Y-123833333D01*
X97095238Y-123880952D01*
X97142857Y-123976190D01*
X97142857Y-124261904D01*
X97095238Y-124357142D01*
X97047619Y-124404761D01*
X96952380Y-124452380D01*
X96809523Y-124452380D01*
X97571428Y-124452380D02*
X97571428Y-123785714D01*
X97571428Y-123452380D02*
X97523809Y-123500000D01*
X97571428Y-123547619D01*
X97619047Y-123500000D01*
X97571428Y-123452380D01*
X97571428Y-123547619D01*
X98047619Y-123785714D02*
X98047619Y-124452380D01*
X98047619Y-123880952D02*
X98095238Y-123833333D01*
X98190476Y-123785714D01*
X98333333Y-123785714D01*
X98428571Y-123833333D01*
X98476190Y-123928571D01*
X98476190Y-124452380D01*
X98809523Y-123785714D02*
X99190476Y-123785714D01*
X98952380Y-123452380D02*
X98952380Y-124309523D01*
X99000000Y-124404761D01*
X99095238Y-124452380D01*
X99190476Y-124452380D01*
X99285714Y-120952380D02*
X98714285Y-120952380D01*
X99000000Y-120952380D02*
X99000000Y-119952380D01*
X98904761Y-120095238D01*
X98809523Y-120190476D01*
X98714285Y-120238095D01*
X76238095Y-103952380D02*
X75761904Y-103952380D01*
X75714285Y-104428571D01*
X75761904Y-104380952D01*
X75857142Y-104333333D01*
X76095238Y-104333333D01*
X76190476Y-104380952D01*
X76238095Y-104428571D01*
X76285714Y-104523809D01*
X76285714Y-104761904D01*
X76238095Y-104857142D01*
X76190476Y-104904761D01*
X76095238Y-104952380D01*
X75857142Y-104952380D01*
X75761904Y-104904761D01*
X75714285Y-104857142D01*
X99238095Y-78952380D02*
X98761904Y-78952380D01*
X98714285Y-79428571D01*
X98761904Y-79380952D01*
X98857142Y-79333333D01*
X99095238Y-79333333D01*
X99190476Y-79380952D01*
X99238095Y-79428571D01*
X99285714Y-79523809D01*
X99285714Y-79761904D01*
X99238095Y-79857142D01*
X99190476Y-79904761D01*
X99095238Y-79952380D01*
X98857142Y-79952380D01*
X98761904Y-79904761D01*
X98714285Y-79857142D01*
X76285714Y-95952380D02*
X75714285Y-95952380D01*
X76000000Y-95952380D02*
X76000000Y-94952380D01*
X75904761Y-95095238D01*
X75809523Y-95190476D01*
X75714285Y-95238095D01*
X76238095Y-78952380D02*
X75761904Y-78952380D01*
X75714285Y-79428571D01*
X75761904Y-79380952D01*
X75857142Y-79333333D01*
X76095238Y-79333333D01*
X76190476Y-79380952D01*
X76238095Y-79428571D01*
X76285714Y-79523809D01*
X76285714Y-79761904D01*
X76238095Y-79857142D01*
X76190476Y-79904761D01*
X76095238Y-79952380D01*
X75857142Y-79952380D01*
X75761904Y-79904761D01*
X75714285Y-79857142D01*
X87952380Y-99452380D02*
X87952380Y-98452380D01*
X88190476Y-98452380D01*
X88333333Y-98500000D01*
X88428571Y-98595238D01*
X88476190Y-98690476D01*
X88523809Y-98880952D01*
X88523809Y-99023809D01*
X88476190Y-99214285D01*
X88428571Y-99309523D01*
X88333333Y-99404761D01*
X88190476Y-99452380D01*
X87952380Y-99452380D01*
X88904761Y-99404761D02*
X89047619Y-99452380D01*
X89285714Y-99452380D01*
X89380952Y-99404761D01*
X89428571Y-99357142D01*
X89476190Y-99261904D01*
X89476190Y-99166666D01*
X89428571Y-99071428D01*
X89380952Y-99023809D01*
X89285714Y-98976190D01*
X89095238Y-98928571D01*
X89000000Y-98880952D01*
X88952380Y-98833333D01*
X88904761Y-98738095D01*
X88904761Y-98642857D01*
X88952380Y-98547619D01*
X89000000Y-98500000D01*
X89095238Y-98452380D01*
X89333333Y-98452380D01*
X89476190Y-98500000D01*
X90333333Y-98785714D02*
X90333333Y-99452380D01*
X89904761Y-98785714D02*
X89904761Y-99309523D01*
X89952380Y-99404761D01*
X90047619Y-99452380D01*
X90190476Y-99452380D01*
X90285714Y-99404761D01*
X90333333Y-99357142D01*
X90809523Y-99452380D02*
X90809523Y-98452380D01*
X90809523Y-98833333D02*
X90904761Y-98785714D01*
X91095238Y-98785714D01*
X91190476Y-98833333D01*
X91238095Y-98880952D01*
X91285714Y-98976190D01*
X91285714Y-99261904D01*
X91238095Y-99357142D01*
X91190476Y-99404761D01*
X91095238Y-99452380D01*
X90904761Y-99452380D01*
X90809523Y-99404761D01*
X91761904Y-99452380D02*
X91952380Y-99452380D01*
X92047619Y-99404761D01*
X92095238Y-99357142D01*
X92190476Y-99214285D01*
X92238095Y-99023809D01*
X92238095Y-98642857D01*
X92190476Y-98547619D01*
X92142857Y-98500000D01*
X92047619Y-98452380D01*
X91857142Y-98452380D01*
X91761904Y-98500000D01*
X91714285Y-98547619D01*
X91666666Y-98642857D01*
X91666666Y-98880952D01*
X91714285Y-98976190D01*
X91761904Y-99023809D01*
X91857142Y-99071428D01*
X92047619Y-99071428D01*
X92142857Y-99023809D01*
X92190476Y-98976190D01*
X92238095Y-98880952D01*
X92523809Y-98452380D02*
X93095238Y-98452380D01*
X92809523Y-99452380D02*
X92809523Y-98452380D01*
X93809523Y-99404761D02*
X93714285Y-99452380D01*
X93523809Y-99452380D01*
X93428571Y-99404761D01*
X93380952Y-99309523D01*
X93380952Y-98928571D01*
X93428571Y-98833333D01*
X93523809Y-98785714D01*
X93714285Y-98785714D01*
X93809523Y-98833333D01*
X93857142Y-98928571D01*
X93857142Y-99023809D01*
X93380952Y-99119047D01*
X94238095Y-99404761D02*
X94333333Y-99452380D01*
X94523809Y-99452380D01*
X94619047Y-99404761D01*
X94666666Y-99309523D01*
X94666666Y-99261904D01*
X94619047Y-99166666D01*
X94523809Y-99119047D01*
X94380952Y-99119047D01*
X94285714Y-99071428D01*
X94238095Y-98976190D01*
X94238095Y-98928571D01*
X94285714Y-98833333D01*
X94380952Y-98785714D01*
X94523809Y-98785714D01*
X94619047Y-98833333D01*
X94952380Y-98785714D02*
X95333333Y-98785714D01*
X95095238Y-98452380D02*
X95095238Y-99309523D01*
X95142857Y-99404761D01*
X95238095Y-99452380D01*
X95333333Y-99452380D01*
X95666666Y-99452380D02*
X95666666Y-98452380D01*
X96047619Y-98452380D01*
X96142857Y-98500000D01*
X96190476Y-98547619D01*
X96238095Y-98642857D01*
X96238095Y-98785714D01*
X96190476Y-98880952D01*
X96142857Y-98928571D01*
X96047619Y-98976190D01*
X95666666Y-98976190D01*
X96809523Y-99452380D02*
X96714285Y-99404761D01*
X96666666Y-99357142D01*
X96619047Y-99261904D01*
X96619047Y-98976190D01*
X96666666Y-98880952D01*
X96714285Y-98833333D01*
X96809523Y-98785714D01*
X96952380Y-98785714D01*
X97047619Y-98833333D01*
X97095238Y-98880952D01*
X97142857Y-98976190D01*
X97142857Y-99261904D01*
X97095238Y-99357142D01*
X97047619Y-99404761D01*
X96952380Y-99452380D01*
X96809523Y-99452380D01*
X97571428Y-99452380D02*
X97571428Y-98785714D01*
X97571428Y-98452380D02*
X97523809Y-98500000D01*
X97571428Y-98547619D01*
X97619047Y-98500000D01*
X97571428Y-98452380D01*
X97571428Y-98547619D01*
X98047619Y-98785714D02*
X98047619Y-99452380D01*
X98047619Y-98880952D02*
X98095238Y-98833333D01*
X98190476Y-98785714D01*
X98333333Y-98785714D01*
X98428571Y-98833333D01*
X98476190Y-98928571D01*
X98476190Y-99452380D01*
X98809523Y-98785714D02*
X99190476Y-98785714D01*
X98952380Y-98452380D02*
X98952380Y-99309523D01*
X99000000Y-99404761D01*
X99095238Y-99452380D01*
X99190476Y-99452380D01*
X99285714Y-95952380D02*
X98714285Y-95952380D01*
X99000000Y-95952380D02*
X99000000Y-94952380D01*
X98904761Y-95095238D01*
X98809523Y-95190476D01*
X98714285Y-95238095D01*
X62952380Y-74452380D02*
X62952380Y-73452380D01*
X63190476Y-73452380D01*
X63333333Y-73500000D01*
X63428571Y-73595238D01*
X63476190Y-73690476D01*
X63523809Y-73880952D01*
X63523809Y-74023809D01*
X63476190Y-74214285D01*
X63428571Y-74309523D01*
X63333333Y-74404761D01*
X63190476Y-74452380D01*
X62952380Y-74452380D01*
X63904761Y-74404761D02*
X64047619Y-74452380D01*
X64285714Y-74452380D01*
X64380952Y-74404761D01*
X64428571Y-74357142D01*
X64476190Y-74261904D01*
X64476190Y-74166666D01*
X64428571Y-74071428D01*
X64380952Y-74023809D01*
X64285714Y-73976190D01*
X64095238Y-73928571D01*
X64000000Y-73880952D01*
X63952380Y-73833333D01*
X63904761Y-73738095D01*
X63904761Y-73642857D01*
X63952380Y-73547619D01*
X64000000Y-73500000D01*
X64095238Y-73452380D01*
X64333333Y-73452380D01*
X64476190Y-73500000D01*
X65333333Y-73785714D02*
X65333333Y-74452380D01*
X64904761Y-73785714D02*
X64904761Y-74309523D01*
X64952380Y-74404761D01*
X65047619Y-74452380D01*
X65190476Y-74452380D01*
X65285714Y-74404761D01*
X65333333Y-74357142D01*
X65809523Y-74452380D02*
X65809523Y-73452380D01*
X65809523Y-73833333D02*
X65904761Y-73785714D01*
X66095238Y-73785714D01*
X66190476Y-73833333D01*
X66238095Y-73880952D01*
X66285714Y-73976190D01*
X66285714Y-74261904D01*
X66238095Y-74357142D01*
X66190476Y-74404761D01*
X66095238Y-74452380D01*
X65904761Y-74452380D01*
X65809523Y-74404761D01*
X66761904Y-74452380D02*
X66952380Y-74452380D01*
X67047619Y-74404761D01*
X67095238Y-74357142D01*
X67190476Y-74214285D01*
X67238095Y-74023809D01*
X67238095Y-73642857D01*
X67190476Y-73547619D01*
X67142857Y-73500000D01*
X67047619Y-73452380D01*
X66857142Y-73452380D01*
X66761904Y-73500000D01*
X66714285Y-73547619D01*
X66666666Y-73642857D01*
X66666666Y-73880952D01*
X66714285Y-73976190D01*
X66761904Y-74023809D01*
X66857142Y-74071428D01*
X67047619Y-74071428D01*
X67142857Y-74023809D01*
X67190476Y-73976190D01*
X67238095Y-73880952D01*
X67523809Y-73452380D02*
X68095238Y-73452380D01*
X67809523Y-74452380D02*
X67809523Y-73452380D01*
X68809523Y-74404761D02*
X68714285Y-74452380D01*
X68523809Y-74452380D01*
X68428571Y-74404761D01*
X68380952Y-74309523D01*
X68380952Y-73928571D01*
X68428571Y-73833333D01*
X68523809Y-73785714D01*
X68714285Y-73785714D01*
X68809523Y-73833333D01*
X68857142Y-73928571D01*
X68857142Y-74023809D01*
X68380952Y-74119047D01*
X69238095Y-74404761D02*
X69333333Y-74452380D01*
X69523809Y-74452380D01*
X69619047Y-74404761D01*
X69666666Y-74309523D01*
X69666666Y-74261904D01*
X69619047Y-74166666D01*
X69523809Y-74119047D01*
X69380952Y-74119047D01*
X69285714Y-74071428D01*
X69238095Y-73976190D01*
X69238095Y-73928571D01*
X69285714Y-73833333D01*
X69380952Y-73785714D01*
X69523809Y-73785714D01*
X69619047Y-73833333D01*
X69952380Y-73785714D02*
X70333333Y-73785714D01*
X70095238Y-73452380D02*
X70095238Y-74309523D01*
X70142857Y-74404761D01*
X70238095Y-74452380D01*
X70333333Y-74452380D01*
X70666666Y-74452380D02*
X70666666Y-73452380D01*
X71047619Y-73452380D01*
X71142857Y-73500000D01*
X71190476Y-73547619D01*
X71238095Y-73642857D01*
X71238095Y-73785714D01*
X71190476Y-73880952D01*
X71142857Y-73928571D01*
X71047619Y-73976190D01*
X70666666Y-73976190D01*
X71809523Y-74452380D02*
X71714285Y-74404761D01*
X71666666Y-74357142D01*
X71619047Y-74261904D01*
X71619047Y-73976190D01*
X71666666Y-73880952D01*
X71714285Y-73833333D01*
X71809523Y-73785714D01*
X71952380Y-73785714D01*
X72047619Y-73833333D01*
X72095238Y-73880952D01*
X72142857Y-73976190D01*
X72142857Y-74261904D01*
X72095238Y-74357142D01*
X72047619Y-74404761D01*
X71952380Y-74452380D01*
X71809523Y-74452380D01*
X72571428Y-74452380D02*
X72571428Y-73785714D01*
X72571428Y-73452380D02*
X72523809Y-73500000D01*
X72571428Y-73547619D01*
X72619047Y-73500000D01*
X72571428Y-73452380D01*
X72571428Y-73547619D01*
X73047619Y-73785714D02*
X73047619Y-74452380D01*
X73047619Y-73880952D02*
X73095238Y-73833333D01*
X73190476Y-73785714D01*
X73333333Y-73785714D01*
X73428571Y-73833333D01*
X73476190Y-73928571D01*
X73476190Y-74452380D01*
X73809523Y-73785714D02*
X74190476Y-73785714D01*
X73952380Y-73452380D02*
X73952380Y-74309523D01*
X74000000Y-74404761D01*
X74095238Y-74452380D01*
X74190476Y-74452380D01*
X74238095Y-53952380D02*
X73761904Y-53952380D01*
X73714285Y-54428571D01*
X73761904Y-54380952D01*
X73857142Y-54333333D01*
X74095238Y-54333333D01*
X74190476Y-54380952D01*
X74238095Y-54428571D01*
X74285714Y-54523809D01*
X74285714Y-54761904D01*
X74238095Y-54857142D01*
X74190476Y-54904761D01*
X74095238Y-54952380D01*
X73857142Y-54952380D01*
X73761904Y-54904761D01*
X73714285Y-54857142D01*
X74285714Y-70952380D02*
X73714285Y-70952380D01*
X74000000Y-70952380D02*
X74000000Y-69952380D01*
X73904761Y-70095238D01*
X73809523Y-70190476D01*
X73714285Y-70238095D01*
X51238095Y-53952380D02*
X50761904Y-53952380D01*
X50714285Y-54428571D01*
X50761904Y-54380952D01*
X50857142Y-54333333D01*
X51095238Y-54333333D01*
X51190476Y-54380952D01*
X51238095Y-54428571D01*
X51285714Y-54523809D01*
X51285714Y-54761904D01*
X51238095Y-54857142D01*
X51190476Y-54904761D01*
X51095238Y-54952380D01*
X50857142Y-54952380D01*
X50761904Y-54904761D01*
X50714285Y-54857142D01*
X51285714Y-70952380D02*
X50714285Y-70952380D01*
X51000000Y-70952380D02*
X51000000Y-69952380D01*
X50904761Y-70095238D01*
X50809523Y-70190476D01*
X50714285Y-70238095D01*
X62952380Y-99452380D02*
X62952380Y-98452380D01*
X63190476Y-98452380D01*
X63333333Y-98500000D01*
X63428571Y-98595238D01*
X63476190Y-98690476D01*
X63523809Y-98880952D01*
X63523809Y-99023809D01*
X63476190Y-99214285D01*
X63428571Y-99309523D01*
X63333333Y-99404761D01*
X63190476Y-99452380D01*
X62952380Y-99452380D01*
X63904761Y-99404761D02*
X64047619Y-99452380D01*
X64285714Y-99452380D01*
X64380952Y-99404761D01*
X64428571Y-99357142D01*
X64476190Y-99261904D01*
X64476190Y-99166666D01*
X64428571Y-99071428D01*
X64380952Y-99023809D01*
X64285714Y-98976190D01*
X64095238Y-98928571D01*
X64000000Y-98880952D01*
X63952380Y-98833333D01*
X63904761Y-98738095D01*
X63904761Y-98642857D01*
X63952380Y-98547619D01*
X64000000Y-98500000D01*
X64095238Y-98452380D01*
X64333333Y-98452380D01*
X64476190Y-98500000D01*
X65333333Y-98785714D02*
X65333333Y-99452380D01*
X64904761Y-98785714D02*
X64904761Y-99309523D01*
X64952380Y-99404761D01*
X65047619Y-99452380D01*
X65190476Y-99452380D01*
X65285714Y-99404761D01*
X65333333Y-99357142D01*
X65809523Y-99452380D02*
X65809523Y-98452380D01*
X65809523Y-98833333D02*
X65904761Y-98785714D01*
X66095238Y-98785714D01*
X66190476Y-98833333D01*
X66238095Y-98880952D01*
X66285714Y-98976190D01*
X66285714Y-99261904D01*
X66238095Y-99357142D01*
X66190476Y-99404761D01*
X66095238Y-99452380D01*
X65904761Y-99452380D01*
X65809523Y-99404761D01*
X66761904Y-99452380D02*
X66952380Y-99452380D01*
X67047619Y-99404761D01*
X67095238Y-99357142D01*
X67190476Y-99214285D01*
X67238095Y-99023809D01*
X67238095Y-98642857D01*
X67190476Y-98547619D01*
X67142857Y-98500000D01*
X67047619Y-98452380D01*
X66857142Y-98452380D01*
X66761904Y-98500000D01*
X66714285Y-98547619D01*
X66666666Y-98642857D01*
X66666666Y-98880952D01*
X66714285Y-98976190D01*
X66761904Y-99023809D01*
X66857142Y-99071428D01*
X67047619Y-99071428D01*
X67142857Y-99023809D01*
X67190476Y-98976190D01*
X67238095Y-98880952D01*
X67523809Y-98452380D02*
X68095238Y-98452380D01*
X67809523Y-99452380D02*
X67809523Y-98452380D01*
X68809523Y-99404761D02*
X68714285Y-99452380D01*
X68523809Y-99452380D01*
X68428571Y-99404761D01*
X68380952Y-99309523D01*
X68380952Y-98928571D01*
X68428571Y-98833333D01*
X68523809Y-98785714D01*
X68714285Y-98785714D01*
X68809523Y-98833333D01*
X68857142Y-98928571D01*
X68857142Y-99023809D01*
X68380952Y-99119047D01*
X69238095Y-99404761D02*
X69333333Y-99452380D01*
X69523809Y-99452380D01*
X69619047Y-99404761D01*
X69666666Y-99309523D01*
X69666666Y-99261904D01*
X69619047Y-99166666D01*
X69523809Y-99119047D01*
X69380952Y-99119047D01*
X69285714Y-99071428D01*
X69238095Y-98976190D01*
X69238095Y-98928571D01*
X69285714Y-98833333D01*
X69380952Y-98785714D01*
X69523809Y-98785714D01*
X69619047Y-98833333D01*
X69952380Y-98785714D02*
X70333333Y-98785714D01*
X70095238Y-98452380D02*
X70095238Y-99309523D01*
X70142857Y-99404761D01*
X70238095Y-99452380D01*
X70333333Y-99452380D01*
X70666666Y-99452380D02*
X70666666Y-98452380D01*
X71047619Y-98452380D01*
X71142857Y-98500000D01*
X71190476Y-98547619D01*
X71238095Y-98642857D01*
X71238095Y-98785714D01*
X71190476Y-98880952D01*
X71142857Y-98928571D01*
X71047619Y-98976190D01*
X70666666Y-98976190D01*
X71809523Y-99452380D02*
X71714285Y-99404761D01*
X71666666Y-99357142D01*
X71619047Y-99261904D01*
X71619047Y-98976190D01*
X71666666Y-98880952D01*
X71714285Y-98833333D01*
X71809523Y-98785714D01*
X71952380Y-98785714D01*
X72047619Y-98833333D01*
X72095238Y-98880952D01*
X72142857Y-98976190D01*
X72142857Y-99261904D01*
X72095238Y-99357142D01*
X72047619Y-99404761D01*
X71952380Y-99452380D01*
X71809523Y-99452380D01*
X72571428Y-99452380D02*
X72571428Y-98785714D01*
X72571428Y-98452380D02*
X72523809Y-98500000D01*
X72571428Y-98547619D01*
X72619047Y-98500000D01*
X72571428Y-98452380D01*
X72571428Y-98547619D01*
X73047619Y-98785714D02*
X73047619Y-99452380D01*
X73047619Y-98880952D02*
X73095238Y-98833333D01*
X73190476Y-98785714D01*
X73333333Y-98785714D01*
X73428571Y-98833333D01*
X73476190Y-98928571D01*
X73476190Y-99452380D01*
X73809523Y-98785714D02*
X74190476Y-98785714D01*
X73952380Y-98452380D02*
X73952380Y-99309523D01*
X74000000Y-99404761D01*
X74095238Y-99452380D01*
X74190476Y-99452380D01*
X74238095Y-78952380D02*
X73761904Y-78952380D01*
X73714285Y-79428571D01*
X73761904Y-79380952D01*
X73857142Y-79333333D01*
X74095238Y-79333333D01*
X74190476Y-79380952D01*
X74238095Y-79428571D01*
X74285714Y-79523809D01*
X74285714Y-79761904D01*
X74238095Y-79857142D01*
X74190476Y-79904761D01*
X74095238Y-79952380D01*
X73857142Y-79952380D01*
X73761904Y-79904761D01*
X73714285Y-79857142D01*
X74285714Y-95952380D02*
X73714285Y-95952380D01*
X74000000Y-95952380D02*
X74000000Y-94952380D01*
X73904761Y-95095238D01*
X73809523Y-95190476D01*
X73714285Y-95238095D01*
X51238095Y-78952380D02*
X50761904Y-78952380D01*
X50714285Y-79428571D01*
X50761904Y-79380952D01*
X50857142Y-79333333D01*
X51095238Y-79333333D01*
X51190476Y-79380952D01*
X51238095Y-79428571D01*
X51285714Y-79523809D01*
X51285714Y-79761904D01*
X51238095Y-79857142D01*
X51190476Y-79904761D01*
X51095238Y-79952380D01*
X50857142Y-79952380D01*
X50761904Y-79904761D01*
X50714285Y-79857142D01*
X51285714Y-95952380D02*
X50714285Y-95952380D01*
X51000000Y-95952380D02*
X51000000Y-94952380D01*
X50904761Y-95095238D01*
X50809523Y-95190476D01*
X50714285Y-95238095D01*
X62952380Y-124452380D02*
X62952380Y-123452380D01*
X63190476Y-123452380D01*
X63333333Y-123500000D01*
X63428571Y-123595238D01*
X63476190Y-123690476D01*
X63523809Y-123880952D01*
X63523809Y-124023809D01*
X63476190Y-124214285D01*
X63428571Y-124309523D01*
X63333333Y-124404761D01*
X63190476Y-124452380D01*
X62952380Y-124452380D01*
X63904761Y-124404761D02*
X64047619Y-124452380D01*
X64285714Y-124452380D01*
X64380952Y-124404761D01*
X64428571Y-124357142D01*
X64476190Y-124261904D01*
X64476190Y-124166666D01*
X64428571Y-124071428D01*
X64380952Y-124023809D01*
X64285714Y-123976190D01*
X64095238Y-123928571D01*
X64000000Y-123880952D01*
X63952380Y-123833333D01*
X63904761Y-123738095D01*
X63904761Y-123642857D01*
X63952380Y-123547619D01*
X64000000Y-123500000D01*
X64095238Y-123452380D01*
X64333333Y-123452380D01*
X64476190Y-123500000D01*
X65333333Y-123785714D02*
X65333333Y-124452380D01*
X64904761Y-123785714D02*
X64904761Y-124309523D01*
X64952380Y-124404761D01*
X65047619Y-124452380D01*
X65190476Y-124452380D01*
X65285714Y-124404761D01*
X65333333Y-124357142D01*
X65809523Y-124452380D02*
X65809523Y-123452380D01*
X65809523Y-123833333D02*
X65904761Y-123785714D01*
X66095238Y-123785714D01*
X66190476Y-123833333D01*
X66238095Y-123880952D01*
X66285714Y-123976190D01*
X66285714Y-124261904D01*
X66238095Y-124357142D01*
X66190476Y-124404761D01*
X66095238Y-124452380D01*
X65904761Y-124452380D01*
X65809523Y-124404761D01*
X66761904Y-124452380D02*
X66952380Y-124452380D01*
X67047619Y-124404761D01*
X67095238Y-124357142D01*
X67190476Y-124214285D01*
X67238095Y-124023809D01*
X67238095Y-123642857D01*
X67190476Y-123547619D01*
X67142857Y-123500000D01*
X67047619Y-123452380D01*
X66857142Y-123452380D01*
X66761904Y-123500000D01*
X66714285Y-123547619D01*
X66666666Y-123642857D01*
X66666666Y-123880952D01*
X66714285Y-123976190D01*
X66761904Y-124023809D01*
X66857142Y-124071428D01*
X67047619Y-124071428D01*
X67142857Y-124023809D01*
X67190476Y-123976190D01*
X67238095Y-123880952D01*
X67523809Y-123452380D02*
X68095238Y-123452380D01*
X67809523Y-124452380D02*
X67809523Y-123452380D01*
X68809523Y-124404761D02*
X68714285Y-124452380D01*
X68523809Y-124452380D01*
X68428571Y-124404761D01*
X68380952Y-124309523D01*
X68380952Y-123928571D01*
X68428571Y-123833333D01*
X68523809Y-123785714D01*
X68714285Y-123785714D01*
X68809523Y-123833333D01*
X68857142Y-123928571D01*
X68857142Y-124023809D01*
X68380952Y-124119047D01*
X69238095Y-124404761D02*
X69333333Y-124452380D01*
X69523809Y-124452380D01*
X69619047Y-124404761D01*
X69666666Y-124309523D01*
X69666666Y-124261904D01*
X69619047Y-124166666D01*
X69523809Y-124119047D01*
X69380952Y-124119047D01*
X69285714Y-124071428D01*
X69238095Y-123976190D01*
X69238095Y-123928571D01*
X69285714Y-123833333D01*
X69380952Y-123785714D01*
X69523809Y-123785714D01*
X69619047Y-123833333D01*
X69952380Y-123785714D02*
X70333333Y-123785714D01*
X70095238Y-123452380D02*
X70095238Y-124309523D01*
X70142857Y-124404761D01*
X70238095Y-124452380D01*
X70333333Y-124452380D01*
X70666666Y-124452380D02*
X70666666Y-123452380D01*
X71047619Y-123452380D01*
X71142857Y-123500000D01*
X71190476Y-123547619D01*
X71238095Y-123642857D01*
X71238095Y-123785714D01*
X71190476Y-123880952D01*
X71142857Y-123928571D01*
X71047619Y-123976190D01*
X70666666Y-123976190D01*
X71809523Y-124452380D02*
X71714285Y-124404761D01*
X71666666Y-124357142D01*
X71619047Y-124261904D01*
X71619047Y-123976190D01*
X71666666Y-123880952D01*
X71714285Y-123833333D01*
X71809523Y-123785714D01*
X71952380Y-123785714D01*
X72047619Y-123833333D01*
X72095238Y-123880952D01*
X72142857Y-123976190D01*
X72142857Y-124261904D01*
X72095238Y-124357142D01*
X72047619Y-124404761D01*
X71952380Y-124452380D01*
X71809523Y-124452380D01*
X72571428Y-124452380D02*
X72571428Y-123785714D01*
X72571428Y-123452380D02*
X72523809Y-123500000D01*
X72571428Y-123547619D01*
X72619047Y-123500000D01*
X72571428Y-123452380D01*
X72571428Y-123547619D01*
X73047619Y-123785714D02*
X73047619Y-124452380D01*
X73047619Y-123880952D02*
X73095238Y-123833333D01*
X73190476Y-123785714D01*
X73333333Y-123785714D01*
X73428571Y-123833333D01*
X73476190Y-123928571D01*
X73476190Y-124452380D01*
X73809523Y-123785714D02*
X74190476Y-123785714D01*
X73952380Y-123452380D02*
X73952380Y-124309523D01*
X74000000Y-124404761D01*
X74095238Y-124452380D01*
X74190476Y-124452380D01*
X74238095Y-103952380D02*
X73761904Y-103952380D01*
X73714285Y-104428571D01*
X73761904Y-104380952D01*
X73857142Y-104333333D01*
X74095238Y-104333333D01*
X74190476Y-104380952D01*
X74238095Y-104428571D01*
X74285714Y-104523809D01*
X74285714Y-104761904D01*
X74238095Y-104857142D01*
X74190476Y-104904761D01*
X74095238Y-104952380D01*
X73857142Y-104952380D01*
X73761904Y-104904761D01*
X73714285Y-104857142D01*
X74285714Y-120952380D02*
X73714285Y-120952380D01*
X74000000Y-120952380D02*
X74000000Y-119952380D01*
X73904761Y-120095238D01*
X73809523Y-120190476D01*
X73714285Y-120238095D01*
X51238095Y-103952380D02*
X50761904Y-103952380D01*
X50714285Y-104428571D01*
X50761904Y-104380952D01*
X50857142Y-104333333D01*
X51095238Y-104333333D01*
X51190476Y-104380952D01*
X51238095Y-104428571D01*
X51285714Y-104523809D01*
X51285714Y-104761904D01*
X51238095Y-104857142D01*
X51190476Y-104904761D01*
X51095238Y-104952380D01*
X50857142Y-104952380D01*
X50761904Y-104904761D01*
X50714285Y-104857142D01*
X51285714Y-120952380D02*
X50714285Y-120952380D01*
X51000000Y-120952380D02*
X51000000Y-119952380D01*
X50904761Y-120095238D01*
X50809523Y-120190476D01*
X50714285Y-120238095D01*
X62952380Y-149452380D02*
X62952380Y-148452380D01*
X63190476Y-148452380D01*
X63333333Y-148500000D01*
X63428571Y-148595238D01*
X63476190Y-148690476D01*
X63523809Y-148880952D01*
X63523809Y-149023809D01*
X63476190Y-149214285D01*
X63428571Y-149309523D01*
X63333333Y-149404761D01*
X63190476Y-149452380D01*
X62952380Y-149452380D01*
X63904761Y-149404761D02*
X64047619Y-149452380D01*
X64285714Y-149452380D01*
X64380952Y-149404761D01*
X64428571Y-149357142D01*
X64476190Y-149261904D01*
X64476190Y-149166666D01*
X64428571Y-149071428D01*
X64380952Y-149023809D01*
X64285714Y-148976190D01*
X64095238Y-148928571D01*
X64000000Y-148880952D01*
X63952380Y-148833333D01*
X63904761Y-148738095D01*
X63904761Y-148642857D01*
X63952380Y-148547619D01*
X64000000Y-148500000D01*
X64095238Y-148452380D01*
X64333333Y-148452380D01*
X64476190Y-148500000D01*
X65333333Y-148785714D02*
X65333333Y-149452380D01*
X64904761Y-148785714D02*
X64904761Y-149309523D01*
X64952380Y-149404761D01*
X65047619Y-149452380D01*
X65190476Y-149452380D01*
X65285714Y-149404761D01*
X65333333Y-149357142D01*
X65809523Y-149452380D02*
X65809523Y-148452380D01*
X65809523Y-148833333D02*
X65904761Y-148785714D01*
X66095238Y-148785714D01*
X66190476Y-148833333D01*
X66238095Y-148880952D01*
X66285714Y-148976190D01*
X66285714Y-149261904D01*
X66238095Y-149357142D01*
X66190476Y-149404761D01*
X66095238Y-149452380D01*
X65904761Y-149452380D01*
X65809523Y-149404761D01*
X66761904Y-149452380D02*
X66952380Y-149452380D01*
X67047619Y-149404761D01*
X67095238Y-149357142D01*
X67190476Y-149214285D01*
X67238095Y-149023809D01*
X67238095Y-148642857D01*
X67190476Y-148547619D01*
X67142857Y-148500000D01*
X67047619Y-148452380D01*
X66857142Y-148452380D01*
X66761904Y-148500000D01*
X66714285Y-148547619D01*
X66666666Y-148642857D01*
X66666666Y-148880952D01*
X66714285Y-148976190D01*
X66761904Y-149023809D01*
X66857142Y-149071428D01*
X67047619Y-149071428D01*
X67142857Y-149023809D01*
X67190476Y-148976190D01*
X67238095Y-148880952D01*
X67523809Y-148452380D02*
X68095238Y-148452380D01*
X67809523Y-149452380D02*
X67809523Y-148452380D01*
X68809523Y-149404761D02*
X68714285Y-149452380D01*
X68523809Y-149452380D01*
X68428571Y-149404761D01*
X68380952Y-149309523D01*
X68380952Y-148928571D01*
X68428571Y-148833333D01*
X68523809Y-148785714D01*
X68714285Y-148785714D01*
X68809523Y-148833333D01*
X68857142Y-148928571D01*
X68857142Y-149023809D01*
X68380952Y-149119047D01*
X69238095Y-149404761D02*
X69333333Y-149452380D01*
X69523809Y-149452380D01*
X69619047Y-149404761D01*
X69666666Y-149309523D01*
X69666666Y-149261904D01*
X69619047Y-149166666D01*
X69523809Y-149119047D01*
X69380952Y-149119047D01*
X69285714Y-149071428D01*
X69238095Y-148976190D01*
X69238095Y-148928571D01*
X69285714Y-148833333D01*
X69380952Y-148785714D01*
X69523809Y-148785714D01*
X69619047Y-148833333D01*
X69952380Y-148785714D02*
X70333333Y-148785714D01*
X70095238Y-148452380D02*
X70095238Y-149309523D01*
X70142857Y-149404761D01*
X70238095Y-149452380D01*
X70333333Y-149452380D01*
X70666666Y-149452380D02*
X70666666Y-148452380D01*
X71047619Y-148452380D01*
X71142857Y-148500000D01*
X71190476Y-148547619D01*
X71238095Y-148642857D01*
X71238095Y-148785714D01*
X71190476Y-148880952D01*
X71142857Y-148928571D01*
X71047619Y-148976190D01*
X70666666Y-148976190D01*
X71809523Y-149452380D02*
X71714285Y-149404761D01*
X71666666Y-149357142D01*
X71619047Y-149261904D01*
X71619047Y-148976190D01*
X71666666Y-148880952D01*
X71714285Y-148833333D01*
X71809523Y-148785714D01*
X71952380Y-148785714D01*
X72047619Y-148833333D01*
X72095238Y-148880952D01*
X72142857Y-148976190D01*
X72142857Y-149261904D01*
X72095238Y-149357142D01*
X72047619Y-149404761D01*
X71952380Y-149452380D01*
X71809523Y-149452380D01*
X72571428Y-149452380D02*
X72571428Y-148785714D01*
X72571428Y-148452380D02*
X72523809Y-148500000D01*
X72571428Y-148547619D01*
X72619047Y-148500000D01*
X72571428Y-148452380D01*
X72571428Y-148547619D01*
X73047619Y-148785714D02*
X73047619Y-149452380D01*
X73047619Y-148880952D02*
X73095238Y-148833333D01*
X73190476Y-148785714D01*
X73333333Y-148785714D01*
X73428571Y-148833333D01*
X73476190Y-148928571D01*
X73476190Y-149452380D01*
X73809523Y-148785714D02*
X74190476Y-148785714D01*
X73952380Y-148452380D02*
X73952380Y-149309523D01*
X74000000Y-149404761D01*
X74095238Y-149452380D01*
X74190476Y-149452380D01*
X74238095Y-128952380D02*
X73761904Y-128952380D01*
X73714285Y-129428571D01*
X73761904Y-129380952D01*
X73857142Y-129333333D01*
X74095238Y-129333333D01*
X74190476Y-129380952D01*
X74238095Y-129428571D01*
X74285714Y-129523809D01*
X74285714Y-129761904D01*
X74238095Y-129857142D01*
X74190476Y-129904761D01*
X74095238Y-129952380D01*
X73857142Y-129952380D01*
X73761904Y-129904761D01*
X73714285Y-129857142D01*
X74285714Y-145952380D02*
X73714285Y-145952380D01*
X74000000Y-145952380D02*
X74000000Y-144952380D01*
X73904761Y-145095238D01*
X73809523Y-145190476D01*
X73714285Y-145238095D01*
X51238095Y-128952380D02*
X50761904Y-128952380D01*
X50714285Y-129428571D01*
X50761904Y-129380952D01*
X50857142Y-129333333D01*
X51095238Y-129333333D01*
X51190476Y-129380952D01*
X51238095Y-129428571D01*
X51285714Y-129523809D01*
X51285714Y-129761904D01*
X51238095Y-129857142D01*
X51190476Y-129904761D01*
X51095238Y-129952380D01*
X50857142Y-129952380D01*
X50761904Y-129904761D01*
X50714285Y-129857142D01*
X51285714Y-145952380D02*
X50714285Y-145952380D01*
X51000000Y-145952380D02*
X51000000Y-144952380D01*
X50904761Y-145095238D01*
X50809523Y-145190476D01*
X50714285Y-145238095D01*
D11*
X134200000Y-101500000D02*
G75*
G03X134200000Y-101500000I-1200000J0D01*
G01*
X143200000Y-146000000D02*
G75*
G03X143200000Y-146000000I-1200000J0D01*
G01*
X143200000Y-115500000D02*
G75*
G03X143200000Y-115500000I-1200000J0D01*
G01*
X134200000Y-137500000D02*
G75*
G03X134200000Y-137500000I-1200000J0D01*
G01*
X143200000Y-109500000D02*
G75*
G03X143200000Y-109500000I-1200000J0D01*
G01*
X143200000Y-134500000D02*
G75*
G03X143200000Y-134500000I-1200000J0D01*
G01*
X134200000Y-148500000D02*
G75*
G03X134200000Y-148500000I-1200000J0D01*
G01*
X134200000Y-143000000D02*
G75*
G03X134200000Y-143000000I-1200000J0D01*
G01*
X134200000Y-107000000D02*
G75*
G03X134200000Y-107000000I-1200000J0D01*
G01*
X134200000Y-126500000D02*
G75*
G03X134200000Y-126500000I-1200000J0D01*
G01*
X143200000Y-121000000D02*
G75*
G03X143200000Y-121000000I-1200000J0D01*
G01*
X109200000Y-73500000D02*
G75*
G03X109200000Y-73500000I-1200000J0D01*
G01*
X120760000Y-69463333D02*
X120760000Y-65270000D01*
X123000000Y-69463333D02*
X120760000Y-69463333D01*
X121000000Y-69223333D02*
X124740000Y-69223333D01*
X121000000Y-55776667D02*
X121000000Y-69223333D01*
X124740000Y-55776667D02*
X121000000Y-55776667D01*
X104240000Y-69463333D02*
X104240000Y-65270000D01*
X102000000Y-69463333D02*
X104240000Y-69463333D01*
X104000000Y-55776667D02*
X100260000Y-55776667D01*
X104000000Y-69223333D02*
X104000000Y-55776667D01*
X100260000Y-69223333D02*
X104000000Y-69223333D01*
X118200000Y-65500000D02*
G75*
G03X118200000Y-65500000I-1200000J0D01*
G01*
X118200000Y-71000000D02*
G75*
G03X118200000Y-71000000I-1200000J0D01*
G01*
X109200000Y-51500000D02*
G75*
G03X109200000Y-51500000I-1200000J0D01*
G01*
X109200000Y-57000000D02*
G75*
G03X109200000Y-57000000I-1200000J0D01*
G01*
X109200000Y-62500000D02*
G75*
G03X109200000Y-62500000I-1200000J0D01*
G01*
X109200000Y-68000000D02*
G75*
G03X109200000Y-68000000I-1200000J0D01*
G01*
X118200000Y-84500000D02*
G75*
G03X118200000Y-84500000I-1200000J0D01*
G01*
X118200000Y-54000000D02*
G75*
G03X118200000Y-54000000I-1200000J0D01*
G01*
X118200000Y-59500000D02*
G75*
G03X118200000Y-59500000I-1200000J0D01*
G01*
X109200000Y-76500000D02*
G75*
G03X109200000Y-76500000I-1200000J0D01*
G01*
X109200000Y-93000000D02*
G75*
G03X109200000Y-93000000I-1200000J0D01*
G01*
X120760000Y-94463333D02*
X120760000Y-90270000D01*
X123000000Y-94463333D02*
X120760000Y-94463333D01*
X121000000Y-94223333D02*
X124740000Y-94223333D01*
X121000000Y-80776667D02*
X121000000Y-94223333D01*
X124740000Y-80776667D02*
X121000000Y-80776667D01*
X104240000Y-119463333D02*
X104240000Y-115270000D01*
X102000000Y-119463333D02*
X104240000Y-119463333D01*
X104000000Y-105776667D02*
X100260000Y-105776667D01*
X104000000Y-119223333D02*
X104000000Y-105776667D01*
X100260000Y-119223333D02*
X104000000Y-119223333D01*
X118200000Y-79000000D02*
G75*
G03X118200000Y-79000000I-1200000J0D01*
G01*
X104240000Y-94463333D02*
X104240000Y-90270000D01*
X102000000Y-94463333D02*
X104240000Y-94463333D01*
X104000000Y-80776667D02*
X100260000Y-80776667D01*
X104000000Y-94223333D02*
X104000000Y-80776667D01*
X100260000Y-94223333D02*
X104000000Y-94223333D01*
X109200000Y-112500000D02*
G75*
G03X109200000Y-112500000I-1200000J0D01*
G01*
X109200000Y-118000000D02*
G75*
G03X109200000Y-118000000I-1200000J0D01*
G01*
X118200000Y-96000000D02*
G75*
G03X118200000Y-96000000I-1200000J0D01*
G01*
X109200000Y-82000000D02*
G75*
G03X109200000Y-82000000I-1200000J0D01*
G01*
X109200000Y-87500000D02*
G75*
G03X109200000Y-87500000I-1200000J0D01*
G01*
X118200000Y-90500000D02*
G75*
G03X118200000Y-90500000I-1200000J0D01*
G01*
X109200000Y-98500000D02*
G75*
G03X109200000Y-98500000I-1200000J0D01*
G01*
X109200000Y-123500000D02*
G75*
G03X109200000Y-123500000I-1200000J0D01*
G01*
X120760000Y-119463333D02*
X120760000Y-115270000D01*
X123000000Y-119463333D02*
X120760000Y-119463333D01*
X121000000Y-119223333D02*
X124740000Y-119223333D01*
X121000000Y-105776667D02*
X121000000Y-119223333D01*
X124740000Y-105776667D02*
X121000000Y-105776667D01*
X120760000Y-144463333D02*
X120760000Y-140270000D01*
X123000000Y-144463333D02*
X120760000Y-144463333D01*
X121000000Y-144223333D02*
X124740000Y-144223333D01*
X121000000Y-130776667D02*
X121000000Y-144223333D01*
X124740000Y-130776667D02*
X121000000Y-130776667D01*
X118200000Y-140500000D02*
G75*
G03X118200000Y-140500000I-1200000J0D01*
G01*
X109200000Y-132000000D02*
G75*
G03X109200000Y-132000000I-1200000J0D01*
G01*
X104240000Y-144463333D02*
X104240000Y-140270000D01*
X102000000Y-144463333D02*
X104240000Y-144463333D01*
X104000000Y-130776667D02*
X100260000Y-130776667D01*
X104000000Y-144223333D02*
X104000000Y-130776667D01*
X100260000Y-144223333D02*
X104000000Y-144223333D01*
X118200000Y-104000000D02*
G75*
G03X118200000Y-104000000I-1200000J0D01*
G01*
X118200000Y-129000000D02*
G75*
G03X118200000Y-129000000I-1200000J0D01*
G01*
X109200000Y-126500000D02*
G75*
G03X109200000Y-126500000I-1200000J0D01*
G01*
X118200000Y-121000000D02*
G75*
G03X118200000Y-121000000I-1200000J0D01*
G01*
X109200000Y-107000000D02*
G75*
G03X109200000Y-107000000I-1200000J0D01*
G01*
X118200000Y-134500000D02*
G75*
G03X118200000Y-134500000I-1200000J0D01*
G01*
X118200000Y-146000000D02*
G75*
G03X118200000Y-146000000I-1200000J0D01*
G01*
X109200000Y-137500000D02*
G75*
G03X109200000Y-137500000I-1200000J0D01*
G01*
X109200000Y-143000000D02*
G75*
G03X109200000Y-143000000I-1200000J0D01*
G01*
X109200000Y-148500000D02*
G75*
G03X109200000Y-148500000I-1200000J0D01*
G01*
X118200000Y-109500000D02*
G75*
G03X118200000Y-109500000I-1200000J0D01*
G01*
X109200000Y-101500000D02*
G75*
G03X109200000Y-101500000I-1200000J0D01*
G01*
X118200000Y-115500000D02*
G75*
G03X118200000Y-115500000I-1200000J0D01*
G01*
X143200000Y-71000000D02*
G75*
G03X143200000Y-71000000I-1200000J0D01*
G01*
X143200000Y-59500000D02*
G75*
G03X143200000Y-59500000I-1200000J0D01*
G01*
X134200000Y-51500000D02*
G75*
G03X134200000Y-51500000I-1200000J0D01*
G01*
X149740000Y-80776667D02*
X146000000Y-80776667D01*
X146000000Y-80776667D02*
X146000000Y-94223333D01*
X146000000Y-94223333D02*
X149740000Y-94223333D01*
X148000000Y-94463333D02*
X145760000Y-94463333D01*
X145760000Y-94463333D02*
X145760000Y-90270000D01*
X134200000Y-93000000D02*
G75*
G03X134200000Y-93000000I-1200000J0D01*
G01*
X143200000Y-54000000D02*
G75*
G03X143200000Y-54000000I-1200000J0D01*
G01*
X143200000Y-84500000D02*
G75*
G03X143200000Y-84500000I-1200000J0D01*
G01*
X149740000Y-55776667D02*
X146000000Y-55776667D01*
X146000000Y-55776667D02*
X146000000Y-69223333D01*
X146000000Y-69223333D02*
X149740000Y-69223333D01*
X148000000Y-69463333D02*
X145760000Y-69463333D01*
X145760000Y-69463333D02*
X145760000Y-65270000D01*
X134200000Y-68000000D02*
G75*
G03X134200000Y-68000000I-1200000J0D01*
G01*
X134200000Y-76500000D02*
G75*
G03X134200000Y-76500000I-1200000J0D01*
G01*
X134200000Y-73500000D02*
G75*
G03X134200000Y-73500000I-1200000J0D01*
G01*
X125260000Y-69223333D02*
X129000000Y-69223333D01*
X129000000Y-69223333D02*
X129000000Y-55776667D01*
X129000000Y-55776667D02*
X125260000Y-55776667D01*
X127000000Y-69463333D02*
X129240000Y-69463333D01*
X129240000Y-69463333D02*
X129240000Y-65270000D01*
X134200000Y-57000000D02*
G75*
G03X134200000Y-57000000I-1200000J0D01*
G01*
X134200000Y-62500000D02*
G75*
G03X134200000Y-62500000I-1200000J0D01*
G01*
X143200000Y-65500000D02*
G75*
G03X143200000Y-65500000I-1200000J0D01*
G01*
X134200000Y-112500000D02*
G75*
G03X134200000Y-112500000I-1200000J0D01*
G01*
X134200000Y-82000000D02*
G75*
G03X134200000Y-82000000I-1200000J0D01*
G01*
X149740000Y-105776667D02*
X146000000Y-105776667D01*
X146000000Y-105776667D02*
X146000000Y-119223333D01*
X146000000Y-119223333D02*
X149740000Y-119223333D01*
X148000000Y-119463333D02*
X145760000Y-119463333D01*
X145760000Y-119463333D02*
X145760000Y-115270000D01*
X134200000Y-118000000D02*
G75*
G03X134200000Y-118000000I-1200000J0D01*
G01*
X134200000Y-87500000D02*
G75*
G03X134200000Y-87500000I-1200000J0D01*
G01*
X125260000Y-144223333D02*
X129000000Y-144223333D01*
X129000000Y-144223333D02*
X129000000Y-130776667D01*
X129000000Y-130776667D02*
X125260000Y-130776667D01*
X127000000Y-144463333D02*
X129240000Y-144463333D01*
X129240000Y-144463333D02*
X129240000Y-140270000D01*
X143200000Y-90500000D02*
G75*
G03X143200000Y-90500000I-1200000J0D01*
G01*
X143200000Y-140500000D02*
G75*
G03X143200000Y-140500000I-1200000J0D01*
G01*
X143200000Y-96000000D02*
G75*
G03X143200000Y-96000000I-1200000J0D01*
G01*
X134200000Y-98500000D02*
G75*
G03X134200000Y-98500000I-1200000J0D01*
G01*
X134200000Y-123500000D02*
G75*
G03X134200000Y-123500000I-1200000J0D01*
G01*
X143200000Y-129000000D02*
G75*
G03X143200000Y-129000000I-1200000J0D01*
G01*
X125260000Y-119223333D02*
X129000000Y-119223333D01*
X129000000Y-119223333D02*
X129000000Y-105776667D01*
X129000000Y-105776667D02*
X125260000Y-105776667D01*
X127000000Y-119463333D02*
X129240000Y-119463333D01*
X129240000Y-119463333D02*
X129240000Y-115270000D01*
X143200000Y-104000000D02*
G75*
G03X143200000Y-104000000I-1200000J0D01*
G01*
X143200000Y-79000000D02*
G75*
G03X143200000Y-79000000I-1200000J0D01*
G01*
X134200000Y-132000000D02*
G75*
G03X134200000Y-132000000I-1200000J0D01*
G01*
X149740000Y-130776667D02*
X146000000Y-130776667D01*
X146000000Y-130776667D02*
X146000000Y-144223333D01*
X146000000Y-144223333D02*
X149740000Y-144223333D01*
X148000000Y-144463333D02*
X145760000Y-144463333D01*
X145760000Y-144463333D02*
X145760000Y-140270000D01*
X125260000Y-94223333D02*
X129000000Y-94223333D01*
X129000000Y-94223333D02*
X129000000Y-80776667D01*
X129000000Y-80776667D02*
X125260000Y-80776667D01*
X127000000Y-94463333D02*
X129240000Y-94463333D01*
X129240000Y-94463333D02*
X129240000Y-90270000D01*
X84200000Y-73500000D02*
G75*
G03X84200000Y-73500000I-1200000J0D01*
G01*
X95760000Y-69463333D02*
X95760000Y-65270000D01*
X98000000Y-69463333D02*
X95760000Y-69463333D01*
X96000000Y-69223333D02*
X99740000Y-69223333D01*
X96000000Y-55776667D02*
X96000000Y-69223333D01*
X99740000Y-55776667D02*
X96000000Y-55776667D01*
X79240000Y-69463333D02*
X79240000Y-65270000D01*
X77000000Y-69463333D02*
X79240000Y-69463333D01*
X79000000Y-55776667D02*
X75260000Y-55776667D01*
X79000000Y-69223333D02*
X79000000Y-55776667D01*
X75260000Y-69223333D02*
X79000000Y-69223333D01*
X93200000Y-65500000D02*
G75*
G03X93200000Y-65500000I-1200000J0D01*
G01*
X93200000Y-71000000D02*
G75*
G03X93200000Y-71000000I-1200000J0D01*
G01*
X84200000Y-51500000D02*
G75*
G03X84200000Y-51500000I-1200000J0D01*
G01*
X84200000Y-57000000D02*
G75*
G03X84200000Y-57000000I-1200000J0D01*
G01*
X84200000Y-62500000D02*
G75*
G03X84200000Y-62500000I-1200000J0D01*
G01*
X84200000Y-68000000D02*
G75*
G03X84200000Y-68000000I-1200000J0D01*
G01*
X93200000Y-84500000D02*
G75*
G03X93200000Y-84500000I-1200000J0D01*
G01*
X93200000Y-54000000D02*
G75*
G03X93200000Y-54000000I-1200000J0D01*
G01*
X93200000Y-59500000D02*
G75*
G03X93200000Y-59500000I-1200000J0D01*
G01*
X84200000Y-76500000D02*
G75*
G03X84200000Y-76500000I-1200000J0D01*
G01*
X84200000Y-93000000D02*
G75*
G03X84200000Y-93000000I-1200000J0D01*
G01*
X95760000Y-94463333D02*
X95760000Y-90270000D01*
X98000000Y-94463333D02*
X95760000Y-94463333D01*
X96000000Y-94223333D02*
X99740000Y-94223333D01*
X96000000Y-80776667D02*
X96000000Y-94223333D01*
X99740000Y-80776667D02*
X96000000Y-80776667D01*
X79240000Y-119463333D02*
X79240000Y-115270000D01*
X77000000Y-119463333D02*
X79240000Y-119463333D01*
X79000000Y-105776667D02*
X75260000Y-105776667D01*
X79000000Y-119223333D02*
X79000000Y-105776667D01*
X75260000Y-119223333D02*
X79000000Y-119223333D01*
X93200000Y-79000000D02*
G75*
G03X93200000Y-79000000I-1200000J0D01*
G01*
X79240000Y-94463333D02*
X79240000Y-90270000D01*
X77000000Y-94463333D02*
X79240000Y-94463333D01*
X79000000Y-80776667D02*
X75260000Y-80776667D01*
X79000000Y-94223333D02*
X79000000Y-80776667D01*
X75260000Y-94223333D02*
X79000000Y-94223333D01*
X84200000Y-112500000D02*
G75*
G03X84200000Y-112500000I-1200000J0D01*
G01*
X84200000Y-118000000D02*
G75*
G03X84200000Y-118000000I-1200000J0D01*
G01*
X93200000Y-96000000D02*
G75*
G03X93200000Y-96000000I-1200000J0D01*
G01*
X84200000Y-82000000D02*
G75*
G03X84200000Y-82000000I-1200000J0D01*
G01*
X84200000Y-87500000D02*
G75*
G03X84200000Y-87500000I-1200000J0D01*
G01*
X93200000Y-90500000D02*
G75*
G03X93200000Y-90500000I-1200000J0D01*
G01*
X84200000Y-98500000D02*
G75*
G03X84200000Y-98500000I-1200000J0D01*
G01*
X84200000Y-123500000D02*
G75*
G03X84200000Y-123500000I-1200000J0D01*
G01*
X95760000Y-119463333D02*
X95760000Y-115270000D01*
X98000000Y-119463333D02*
X95760000Y-119463333D01*
X96000000Y-119223333D02*
X99740000Y-119223333D01*
X96000000Y-105776667D02*
X96000000Y-119223333D01*
X99740000Y-105776667D02*
X96000000Y-105776667D01*
X95760000Y-144463333D02*
X95760000Y-140270000D01*
X98000000Y-144463333D02*
X95760000Y-144463333D01*
X96000000Y-144223333D02*
X99740000Y-144223333D01*
X96000000Y-130776667D02*
X96000000Y-144223333D01*
X99740000Y-130776667D02*
X96000000Y-130776667D01*
X93200000Y-140500000D02*
G75*
G03X93200000Y-140500000I-1200000J0D01*
G01*
X84200000Y-132000000D02*
G75*
G03X84200000Y-132000000I-1200000J0D01*
G01*
X79240000Y-144463333D02*
X79240000Y-140270000D01*
X77000000Y-144463333D02*
X79240000Y-144463333D01*
X79000000Y-130776667D02*
X75260000Y-130776667D01*
X79000000Y-144223333D02*
X79000000Y-130776667D01*
X75260000Y-144223333D02*
X79000000Y-144223333D01*
X93200000Y-104000000D02*
G75*
G03X93200000Y-104000000I-1200000J0D01*
G01*
X93200000Y-129000000D02*
G75*
G03X93200000Y-129000000I-1200000J0D01*
G01*
X84200000Y-126500000D02*
G75*
G03X84200000Y-126500000I-1200000J0D01*
G01*
X93200000Y-121000000D02*
G75*
G03X93200000Y-121000000I-1200000J0D01*
G01*
X84200000Y-107000000D02*
G75*
G03X84200000Y-107000000I-1200000J0D01*
G01*
X93200000Y-134500000D02*
G75*
G03X93200000Y-134500000I-1200000J0D01*
G01*
X93200000Y-146000000D02*
G75*
G03X93200000Y-146000000I-1200000J0D01*
G01*
X84200000Y-137500000D02*
G75*
G03X84200000Y-137500000I-1200000J0D01*
G01*
X84200000Y-143000000D02*
G75*
G03X84200000Y-143000000I-1200000J0D01*
G01*
X84200000Y-148500000D02*
G75*
G03X84200000Y-148500000I-1200000J0D01*
G01*
X93200000Y-109500000D02*
G75*
G03X93200000Y-109500000I-1200000J0D01*
G01*
X84200000Y-101500000D02*
G75*
G03X84200000Y-101500000I-1200000J0D01*
G01*
X93200000Y-115500000D02*
G75*
G03X93200000Y-115500000I-1200000J0D01*
G01*
X50260000Y-69223333D02*
X54000000Y-69223333D01*
X54000000Y-69223333D02*
X54000000Y-55776667D01*
X54000000Y-55776667D02*
X50260000Y-55776667D01*
X52000000Y-69463333D02*
X54240000Y-69463333D01*
X54240000Y-69463333D02*
X54240000Y-65270000D01*
X74740000Y-55776667D02*
X71000000Y-55776667D01*
X71000000Y-55776667D02*
X71000000Y-69223333D01*
X71000000Y-69223333D02*
X74740000Y-69223333D01*
X73000000Y-69463333D02*
X70760000Y-69463333D01*
X70760000Y-69463333D02*
X70760000Y-65270000D01*
X59200000Y-73500000D02*
G75*
G03X59200000Y-73500000I-1200000J0D01*
G01*
X59200000Y-68000000D02*
G75*
G03X59200000Y-68000000I-1200000J0D01*
G01*
X59200000Y-62500000D02*
G75*
G03X59200000Y-62500000I-1200000J0D01*
G01*
X59200000Y-57000000D02*
G75*
G03X59200000Y-57000000I-1200000J0D01*
G01*
X59200000Y-51500000D02*
G75*
G03X59200000Y-51500000I-1200000J0D01*
G01*
X68200000Y-71000000D02*
G75*
G03X68200000Y-71000000I-1200000J0D01*
G01*
X68200000Y-65500000D02*
G75*
G03X68200000Y-65500000I-1200000J0D01*
G01*
X68200000Y-59500000D02*
G75*
G03X68200000Y-59500000I-1200000J0D01*
G01*
X68200000Y-54000000D02*
G75*
G03X68200000Y-54000000I-1200000J0D01*
G01*
X50260000Y-94223333D02*
X54000000Y-94223333D01*
X54000000Y-94223333D02*
X54000000Y-80776667D01*
X54000000Y-80776667D02*
X50260000Y-80776667D01*
X52000000Y-94463333D02*
X54240000Y-94463333D01*
X54240000Y-94463333D02*
X54240000Y-90270000D01*
X74740000Y-80776667D02*
X71000000Y-80776667D01*
X71000000Y-80776667D02*
X71000000Y-94223333D01*
X71000000Y-94223333D02*
X74740000Y-94223333D01*
X73000000Y-94463333D02*
X70760000Y-94463333D01*
X70760000Y-94463333D02*
X70760000Y-90270000D01*
X59200000Y-98500000D02*
G75*
G03X59200000Y-98500000I-1200000J0D01*
G01*
X59200000Y-93000000D02*
G75*
G03X59200000Y-93000000I-1200000J0D01*
G01*
X59200000Y-87500000D02*
G75*
G03X59200000Y-87500000I-1200000J0D01*
G01*
X59200000Y-82000000D02*
G75*
G03X59200000Y-82000000I-1200000J0D01*
G01*
X59200000Y-76500000D02*
G75*
G03X59200000Y-76500000I-1200000J0D01*
G01*
X68200000Y-96000000D02*
G75*
G03X68200000Y-96000000I-1200000J0D01*
G01*
X68200000Y-90500000D02*
G75*
G03X68200000Y-90500000I-1200000J0D01*
G01*
X68200000Y-84500000D02*
G75*
G03X68200000Y-84500000I-1200000J0D01*
G01*
X68200000Y-79000000D02*
G75*
G03X68200000Y-79000000I-1200000J0D01*
G01*
X50260000Y-119223333D02*
X54000000Y-119223333D01*
X54000000Y-119223333D02*
X54000000Y-105776667D01*
X54000000Y-105776667D02*
X50260000Y-105776667D01*
X52000000Y-119463333D02*
X54240000Y-119463333D01*
X54240000Y-119463333D02*
X54240000Y-115270000D01*
X74740000Y-105776667D02*
X71000000Y-105776667D01*
X71000000Y-105776667D02*
X71000000Y-119223333D01*
X71000000Y-119223333D02*
X74740000Y-119223333D01*
X73000000Y-119463333D02*
X70760000Y-119463333D01*
X70760000Y-119463333D02*
X70760000Y-115270000D01*
X59200000Y-123500000D02*
G75*
G03X59200000Y-123500000I-1200000J0D01*
G01*
X59200000Y-118000000D02*
G75*
G03X59200000Y-118000000I-1200000J0D01*
G01*
X59200000Y-112500000D02*
G75*
G03X59200000Y-112500000I-1200000J0D01*
G01*
X59200000Y-107000000D02*
G75*
G03X59200000Y-107000000I-1200000J0D01*
G01*
X59200000Y-101500000D02*
G75*
G03X59200000Y-101500000I-1200000J0D01*
G01*
X68200000Y-121000000D02*
G75*
G03X68200000Y-121000000I-1200000J0D01*
G01*
X68200000Y-115500000D02*
G75*
G03X68200000Y-115500000I-1200000J0D01*
G01*
X68200000Y-109500000D02*
G75*
G03X68200000Y-109500000I-1200000J0D01*
G01*
X68200000Y-104000000D02*
G75*
G03X68200000Y-104000000I-1200000J0D01*
G01*
X50260000Y-144223333D02*
X54000000Y-144223333D01*
X54000000Y-144223333D02*
X54000000Y-130776667D01*
X54000000Y-130776667D02*
X50260000Y-130776667D01*
X52000000Y-144463333D02*
X54240000Y-144463333D01*
X54240000Y-144463333D02*
X54240000Y-140270000D01*
X74740000Y-130776667D02*
X71000000Y-130776667D01*
X71000000Y-130776667D02*
X71000000Y-144223333D01*
X71000000Y-144223333D02*
X74740000Y-144223333D01*
X73000000Y-144463333D02*
X70760000Y-144463333D01*
X70760000Y-144463333D02*
X70760000Y-140270000D01*
X59200000Y-148500000D02*
G75*
G03X59200000Y-148500000I-1200000J0D01*
G01*
X59200000Y-143000000D02*
G75*
G03X59200000Y-143000000I-1200000J0D01*
G01*
X59200000Y-137500000D02*
G75*
G03X59200000Y-137500000I-1200000J0D01*
G01*
X59200000Y-132000000D02*
G75*
G03X59200000Y-132000000I-1200000J0D01*
G01*
X59200000Y-126500000D02*
G75*
G03X59200000Y-126500000I-1200000J0D01*
G01*
X68200000Y-146000000D02*
G75*
G03X68200000Y-146000000I-1200000J0D01*
G01*
X68200000Y-140500000D02*
G75*
G03X68200000Y-140500000I-1200000J0D01*
G01*
X68200000Y-134500000D02*
G75*
G03X68200000Y-134500000I-1200000J0D01*
G01*
X68200000Y-129000000D02*
G75*
G03X68200000Y-129000000I-1200000J0D01*
G01*
D12*
X131476190Y-100404761D02*
X130523809Y-100404761D01*
X130428571Y-101357142D01*
X130523809Y-101261904D01*
X130714285Y-101166666D01*
X131190476Y-101166666D01*
X131380952Y-101261904D01*
X131476190Y-101357142D01*
X131571428Y-101547619D01*
X131571428Y-102023809D01*
X131476190Y-102214285D01*
X131380952Y-102309523D01*
X131190476Y-102404761D01*
X130714285Y-102404761D01*
X130523809Y-102309523D01*
X130428571Y-102214285D01*
X144380952Y-144904761D02*
X144000000Y-144904761D01*
X143809523Y-145000000D01*
X143714285Y-145095238D01*
X143523809Y-145380952D01*
X143428571Y-145761904D01*
X143428571Y-146523809D01*
X143523809Y-146714285D01*
X143619047Y-146809523D01*
X143809523Y-146904761D01*
X144190476Y-146904761D01*
X144380952Y-146809523D01*
X144476190Y-146714285D01*
X144571428Y-146523809D01*
X144571428Y-146047619D01*
X144476190Y-145857142D01*
X144380952Y-145761904D01*
X144190476Y-145666666D01*
X143809523Y-145666666D01*
X143619047Y-145761904D01*
X143523809Y-145857142D01*
X143428571Y-146047619D01*
X143333333Y-114404761D02*
X144666666Y-114404761D01*
X143809523Y-116404761D01*
X130333333Y-136404761D02*
X131571428Y-136404761D01*
X130904761Y-137166666D01*
X131190476Y-137166666D01*
X131380952Y-137261904D01*
X131476190Y-137357142D01*
X131571428Y-137547619D01*
X131571428Y-138023809D01*
X131476190Y-138214285D01*
X131380952Y-138309523D01*
X131190476Y-138404761D01*
X130619047Y-138404761D01*
X130428571Y-138309523D01*
X130333333Y-138214285D01*
X143809523Y-109261904D02*
X143619047Y-109166666D01*
X143523809Y-109071428D01*
X143428571Y-108880952D01*
X143428571Y-108785714D01*
X143523809Y-108595238D01*
X143619047Y-108500000D01*
X143809523Y-108404761D01*
X144190476Y-108404761D01*
X144380952Y-108500000D01*
X144476190Y-108595238D01*
X144571428Y-108785714D01*
X144571428Y-108880952D01*
X144476190Y-109071428D01*
X144380952Y-109166666D01*
X144190476Y-109261904D01*
X143809523Y-109261904D01*
X143619047Y-109357142D01*
X143523809Y-109452380D01*
X143428571Y-109642857D01*
X143428571Y-110023809D01*
X143523809Y-110214285D01*
X143619047Y-110309523D01*
X143809523Y-110404761D01*
X144190476Y-110404761D01*
X144380952Y-110309523D01*
X144476190Y-110214285D01*
X144571428Y-110023809D01*
X144571428Y-109642857D01*
X144476190Y-109452380D01*
X144380952Y-109357142D01*
X144190476Y-109261904D01*
X143809523Y-134261904D02*
X143619047Y-134166666D01*
X143523809Y-134071428D01*
X143428571Y-133880952D01*
X143428571Y-133785714D01*
X143523809Y-133595238D01*
X143619047Y-133500000D01*
X143809523Y-133404761D01*
X144190476Y-133404761D01*
X144380952Y-133500000D01*
X144476190Y-133595238D01*
X144571428Y-133785714D01*
X144571428Y-133880952D01*
X144476190Y-134071428D01*
X144380952Y-134166666D01*
X144190476Y-134261904D01*
X143809523Y-134261904D01*
X143619047Y-134357142D01*
X143523809Y-134452380D01*
X143428571Y-134642857D01*
X143428571Y-135023809D01*
X143523809Y-135214285D01*
X143619047Y-135309523D01*
X143809523Y-135404761D01*
X144190476Y-135404761D01*
X144380952Y-135309523D01*
X144476190Y-135214285D01*
X144571428Y-135023809D01*
X144571428Y-134642857D01*
X144476190Y-134452380D01*
X144380952Y-134357142D01*
X144190476Y-134261904D01*
X131571428Y-149404761D02*
X130428571Y-149404761D01*
X131000000Y-149404761D02*
X131000000Y-147404761D01*
X130809523Y-147690476D01*
X130619047Y-147880952D01*
X130428571Y-147976190D01*
X130428571Y-142095238D02*
X130523809Y-142000000D01*
X130714285Y-141904761D01*
X131190476Y-141904761D01*
X131380952Y-142000000D01*
X131476190Y-142095238D01*
X131571428Y-142285714D01*
X131571428Y-142476190D01*
X131476190Y-142761904D01*
X130333333Y-143904761D01*
X131571428Y-143904761D01*
X131380952Y-106571428D02*
X131380952Y-107904761D01*
X130904761Y-105809523D02*
X130428571Y-107238095D01*
X131666666Y-107238095D01*
X131476190Y-125404761D02*
X130523809Y-125404761D01*
X130428571Y-126357142D01*
X130523809Y-126261904D01*
X130714285Y-126166666D01*
X131190476Y-126166666D01*
X131380952Y-126261904D01*
X131476190Y-126357142D01*
X131571428Y-126547619D01*
X131571428Y-127023809D01*
X131476190Y-127214285D01*
X131380952Y-127309523D01*
X131190476Y-127404761D01*
X130714285Y-127404761D01*
X130523809Y-127309523D01*
X130428571Y-127214285D01*
X144380952Y-119904761D02*
X144000000Y-119904761D01*
X143809523Y-120000000D01*
X143714285Y-120095238D01*
X143523809Y-120380952D01*
X143428571Y-120761904D01*
X143428571Y-121523809D01*
X143523809Y-121714285D01*
X143619047Y-121809523D01*
X143809523Y-121904761D01*
X144190476Y-121904761D01*
X144380952Y-121809523D01*
X144476190Y-121714285D01*
X144571428Y-121523809D01*
X144571428Y-121047619D01*
X144476190Y-120857142D01*
X144380952Y-120761904D01*
X144190476Y-120666666D01*
X143809523Y-120666666D01*
X143619047Y-120761904D01*
X143523809Y-120857142D01*
X143428571Y-121047619D01*
X106571428Y-74404761D02*
X105428571Y-74404761D01*
X106000000Y-74404761D02*
X106000000Y-72404761D01*
X105809523Y-72690476D01*
X105619047Y-72880952D01*
X105428571Y-72976190D01*
X118333333Y-64404761D02*
X119666666Y-64404761D01*
X118809523Y-66404761D01*
X119380952Y-69904761D02*
X119000000Y-69904761D01*
X118809523Y-70000000D01*
X118714285Y-70095238D01*
X118523809Y-70380952D01*
X118428571Y-70761904D01*
X118428571Y-71523809D01*
X118523809Y-71714285D01*
X118619047Y-71809523D01*
X118809523Y-71904761D01*
X119190476Y-71904761D01*
X119380952Y-71809523D01*
X119476190Y-71714285D01*
X119571428Y-71523809D01*
X119571428Y-71047619D01*
X119476190Y-70857142D01*
X119380952Y-70761904D01*
X119190476Y-70666666D01*
X118809523Y-70666666D01*
X118619047Y-70761904D01*
X118523809Y-70857142D01*
X118428571Y-71047619D01*
X106476190Y-50404761D02*
X105523809Y-50404761D01*
X105428571Y-51357142D01*
X105523809Y-51261904D01*
X105714285Y-51166666D01*
X106190476Y-51166666D01*
X106380952Y-51261904D01*
X106476190Y-51357142D01*
X106571428Y-51547619D01*
X106571428Y-52023809D01*
X106476190Y-52214285D01*
X106380952Y-52309523D01*
X106190476Y-52404761D01*
X105714285Y-52404761D01*
X105523809Y-52309523D01*
X105428571Y-52214285D01*
X106380952Y-56571428D02*
X106380952Y-57904761D01*
X105904761Y-55809523D02*
X105428571Y-57238095D01*
X106666666Y-57238095D01*
X105333333Y-61404761D02*
X106571428Y-61404761D01*
X105904761Y-62166666D01*
X106190476Y-62166666D01*
X106380952Y-62261904D01*
X106476190Y-62357142D01*
X106571428Y-62547619D01*
X106571428Y-63023809D01*
X106476190Y-63214285D01*
X106380952Y-63309523D01*
X106190476Y-63404761D01*
X105619047Y-63404761D01*
X105428571Y-63309523D01*
X105333333Y-63214285D01*
X105428571Y-67095238D02*
X105523809Y-67000000D01*
X105714285Y-66904761D01*
X106190476Y-66904761D01*
X106380952Y-67000000D01*
X106476190Y-67095238D01*
X106571428Y-67285714D01*
X106571428Y-67476190D01*
X106476190Y-67761904D01*
X105333333Y-68904761D01*
X106571428Y-68904761D01*
X118809523Y-84261904D02*
X118619047Y-84166666D01*
X118523809Y-84071428D01*
X118428571Y-83880952D01*
X118428571Y-83785714D01*
X118523809Y-83595238D01*
X118619047Y-83500000D01*
X118809523Y-83404761D01*
X119190476Y-83404761D01*
X119380952Y-83500000D01*
X119476190Y-83595238D01*
X119571428Y-83785714D01*
X119571428Y-83880952D01*
X119476190Y-84071428D01*
X119380952Y-84166666D01*
X119190476Y-84261904D01*
X118809523Y-84261904D01*
X118619047Y-84357142D01*
X118523809Y-84452380D01*
X118428571Y-84642857D01*
X118428571Y-85023809D01*
X118523809Y-85214285D01*
X118619047Y-85309523D01*
X118809523Y-85404761D01*
X119190476Y-85404761D01*
X119380952Y-85309523D01*
X119476190Y-85214285D01*
X119571428Y-85023809D01*
X119571428Y-84642857D01*
X119476190Y-84452380D01*
X119380952Y-84357142D01*
X119190476Y-84261904D01*
X118619047Y-54904761D02*
X119000000Y-54904761D01*
X119190476Y-54809523D01*
X119285714Y-54714285D01*
X119476190Y-54428571D01*
X119571428Y-54047619D01*
X119571428Y-53285714D01*
X119476190Y-53095238D01*
X119380952Y-53000000D01*
X119190476Y-52904761D01*
X118809523Y-52904761D01*
X118619047Y-53000000D01*
X118523809Y-53095238D01*
X118428571Y-53285714D01*
X118428571Y-53761904D01*
X118523809Y-53952380D01*
X118619047Y-54047619D01*
X118809523Y-54142857D01*
X119190476Y-54142857D01*
X119380952Y-54047619D01*
X119476190Y-53952380D01*
X119571428Y-53761904D01*
X118809523Y-59261904D02*
X118619047Y-59166666D01*
X118523809Y-59071428D01*
X118428571Y-58880952D01*
X118428571Y-58785714D01*
X118523809Y-58595238D01*
X118619047Y-58500000D01*
X118809523Y-58404761D01*
X119190476Y-58404761D01*
X119380952Y-58500000D01*
X119476190Y-58595238D01*
X119571428Y-58785714D01*
X119571428Y-58880952D01*
X119476190Y-59071428D01*
X119380952Y-59166666D01*
X119190476Y-59261904D01*
X118809523Y-59261904D01*
X118619047Y-59357142D01*
X118523809Y-59452380D01*
X118428571Y-59642857D01*
X118428571Y-60023809D01*
X118523809Y-60214285D01*
X118619047Y-60309523D01*
X118809523Y-60404761D01*
X119190476Y-60404761D01*
X119380952Y-60309523D01*
X119476190Y-60214285D01*
X119571428Y-60023809D01*
X119571428Y-59642857D01*
X119476190Y-59452380D01*
X119380952Y-59357142D01*
X119190476Y-59261904D01*
X106476190Y-75404761D02*
X105523809Y-75404761D01*
X105428571Y-76357142D01*
X105523809Y-76261904D01*
X105714285Y-76166666D01*
X106190476Y-76166666D01*
X106380952Y-76261904D01*
X106476190Y-76357142D01*
X106571428Y-76547619D01*
X106571428Y-77023809D01*
X106476190Y-77214285D01*
X106380952Y-77309523D01*
X106190476Y-77404761D01*
X105714285Y-77404761D01*
X105523809Y-77309523D01*
X105428571Y-77214285D01*
X105428571Y-92095238D02*
X105523809Y-92000000D01*
X105714285Y-91904761D01*
X106190476Y-91904761D01*
X106380952Y-92000000D01*
X106476190Y-92095238D01*
X106571428Y-92285714D01*
X106571428Y-92476190D01*
X106476190Y-92761904D01*
X105333333Y-93904761D01*
X106571428Y-93904761D01*
X118619047Y-79904761D02*
X119000000Y-79904761D01*
X119190476Y-79809523D01*
X119285714Y-79714285D01*
X119476190Y-79428571D01*
X119571428Y-79047619D01*
X119571428Y-78285714D01*
X119476190Y-78095238D01*
X119380952Y-78000000D01*
X119190476Y-77904761D01*
X118809523Y-77904761D01*
X118619047Y-78000000D01*
X118523809Y-78095238D01*
X118428571Y-78285714D01*
X118428571Y-78761904D01*
X118523809Y-78952380D01*
X118619047Y-79047619D01*
X118809523Y-79142857D01*
X119190476Y-79142857D01*
X119380952Y-79047619D01*
X119476190Y-78952380D01*
X119571428Y-78761904D01*
X105333333Y-111404761D02*
X106571428Y-111404761D01*
X105904761Y-112166666D01*
X106190476Y-112166666D01*
X106380952Y-112261904D01*
X106476190Y-112357142D01*
X106571428Y-112547619D01*
X106571428Y-113023809D01*
X106476190Y-113214285D01*
X106380952Y-113309523D01*
X106190476Y-113404761D01*
X105619047Y-113404761D01*
X105428571Y-113309523D01*
X105333333Y-113214285D01*
X105428571Y-117095238D02*
X105523809Y-117000000D01*
X105714285Y-116904761D01*
X106190476Y-116904761D01*
X106380952Y-117000000D01*
X106476190Y-117095238D01*
X106571428Y-117285714D01*
X106571428Y-117476190D01*
X106476190Y-117761904D01*
X105333333Y-118904761D01*
X106571428Y-118904761D01*
X119380952Y-94904761D02*
X119000000Y-94904761D01*
X118809523Y-95000000D01*
X118714285Y-95095238D01*
X118523809Y-95380952D01*
X118428571Y-95761904D01*
X118428571Y-96523809D01*
X118523809Y-96714285D01*
X118619047Y-96809523D01*
X118809523Y-96904761D01*
X119190476Y-96904761D01*
X119380952Y-96809523D01*
X119476190Y-96714285D01*
X119571428Y-96523809D01*
X119571428Y-96047619D01*
X119476190Y-95857142D01*
X119380952Y-95761904D01*
X119190476Y-95666666D01*
X118809523Y-95666666D01*
X118619047Y-95761904D01*
X118523809Y-95857142D01*
X118428571Y-96047619D01*
X106380952Y-81571428D02*
X106380952Y-82904761D01*
X105904761Y-80809523D02*
X105428571Y-82238095D01*
X106666666Y-82238095D01*
X105333333Y-86404761D02*
X106571428Y-86404761D01*
X105904761Y-87166666D01*
X106190476Y-87166666D01*
X106380952Y-87261904D01*
X106476190Y-87357142D01*
X106571428Y-87547619D01*
X106571428Y-88023809D01*
X106476190Y-88214285D01*
X106380952Y-88309523D01*
X106190476Y-88404761D01*
X105619047Y-88404761D01*
X105428571Y-88309523D01*
X105333333Y-88214285D01*
X118333333Y-89404761D02*
X119666666Y-89404761D01*
X118809523Y-91404761D01*
X106571428Y-99404761D02*
X105428571Y-99404761D01*
X106000000Y-99404761D02*
X106000000Y-97404761D01*
X105809523Y-97690476D01*
X105619047Y-97880952D01*
X105428571Y-97976190D01*
X106571428Y-124404761D02*
X105428571Y-124404761D01*
X106000000Y-124404761D02*
X106000000Y-122404761D01*
X105809523Y-122690476D01*
X105619047Y-122880952D01*
X105428571Y-122976190D01*
X118333333Y-139404761D02*
X119666666Y-139404761D01*
X118809523Y-141404761D01*
X106380952Y-131571428D02*
X106380952Y-132904761D01*
X105904761Y-130809523D02*
X105428571Y-132238095D01*
X106666666Y-132238095D01*
X118619047Y-104904761D02*
X119000000Y-104904761D01*
X119190476Y-104809523D01*
X119285714Y-104714285D01*
X119476190Y-104428571D01*
X119571428Y-104047619D01*
X119571428Y-103285714D01*
X119476190Y-103095238D01*
X119380952Y-103000000D01*
X119190476Y-102904761D01*
X118809523Y-102904761D01*
X118619047Y-103000000D01*
X118523809Y-103095238D01*
X118428571Y-103285714D01*
X118428571Y-103761904D01*
X118523809Y-103952380D01*
X118619047Y-104047619D01*
X118809523Y-104142857D01*
X119190476Y-104142857D01*
X119380952Y-104047619D01*
X119476190Y-103952380D01*
X119571428Y-103761904D01*
X118619047Y-129904761D02*
X119000000Y-129904761D01*
X119190476Y-129809523D01*
X119285714Y-129714285D01*
X119476190Y-129428571D01*
X119571428Y-129047619D01*
X119571428Y-128285714D01*
X119476190Y-128095238D01*
X119380952Y-128000000D01*
X119190476Y-127904761D01*
X118809523Y-127904761D01*
X118619047Y-128000000D01*
X118523809Y-128095238D01*
X118428571Y-128285714D01*
X118428571Y-128761904D01*
X118523809Y-128952380D01*
X118619047Y-129047619D01*
X118809523Y-129142857D01*
X119190476Y-129142857D01*
X119380952Y-129047619D01*
X119476190Y-128952380D01*
X119571428Y-128761904D01*
X106476190Y-125404761D02*
X105523809Y-125404761D01*
X105428571Y-126357142D01*
X105523809Y-126261904D01*
X105714285Y-126166666D01*
X106190476Y-126166666D01*
X106380952Y-126261904D01*
X106476190Y-126357142D01*
X106571428Y-126547619D01*
X106571428Y-127023809D01*
X106476190Y-127214285D01*
X106380952Y-127309523D01*
X106190476Y-127404761D01*
X105714285Y-127404761D01*
X105523809Y-127309523D01*
X105428571Y-127214285D01*
X119380952Y-119904761D02*
X119000000Y-119904761D01*
X118809523Y-120000000D01*
X118714285Y-120095238D01*
X118523809Y-120380952D01*
X118428571Y-120761904D01*
X118428571Y-121523809D01*
X118523809Y-121714285D01*
X118619047Y-121809523D01*
X118809523Y-121904761D01*
X119190476Y-121904761D01*
X119380952Y-121809523D01*
X119476190Y-121714285D01*
X119571428Y-121523809D01*
X119571428Y-121047619D01*
X119476190Y-120857142D01*
X119380952Y-120761904D01*
X119190476Y-120666666D01*
X118809523Y-120666666D01*
X118619047Y-120761904D01*
X118523809Y-120857142D01*
X118428571Y-121047619D01*
X106380952Y-106571428D02*
X106380952Y-107904761D01*
X105904761Y-105809523D02*
X105428571Y-107238095D01*
X106666666Y-107238095D01*
X118809523Y-134261904D02*
X118619047Y-134166666D01*
X118523809Y-134071428D01*
X118428571Y-133880952D01*
X118428571Y-133785714D01*
X118523809Y-133595238D01*
X118619047Y-133500000D01*
X118809523Y-133404761D01*
X119190476Y-133404761D01*
X119380952Y-133500000D01*
X119476190Y-133595238D01*
X119571428Y-133785714D01*
X119571428Y-133880952D01*
X119476190Y-134071428D01*
X119380952Y-134166666D01*
X119190476Y-134261904D01*
X118809523Y-134261904D01*
X118619047Y-134357142D01*
X118523809Y-134452380D01*
X118428571Y-134642857D01*
X118428571Y-135023809D01*
X118523809Y-135214285D01*
X118619047Y-135309523D01*
X118809523Y-135404761D01*
X119190476Y-135404761D01*
X119380952Y-135309523D01*
X119476190Y-135214285D01*
X119571428Y-135023809D01*
X119571428Y-134642857D01*
X119476190Y-134452380D01*
X119380952Y-134357142D01*
X119190476Y-134261904D01*
X119380952Y-144904761D02*
X119000000Y-144904761D01*
X118809523Y-145000000D01*
X118714285Y-145095238D01*
X118523809Y-145380952D01*
X118428571Y-145761904D01*
X118428571Y-146523809D01*
X118523809Y-146714285D01*
X118619047Y-146809523D01*
X118809523Y-146904761D01*
X119190476Y-146904761D01*
X119380952Y-146809523D01*
X119476190Y-146714285D01*
X119571428Y-146523809D01*
X119571428Y-146047619D01*
X119476190Y-145857142D01*
X119380952Y-145761904D01*
X119190476Y-145666666D01*
X118809523Y-145666666D01*
X118619047Y-145761904D01*
X118523809Y-145857142D01*
X118428571Y-146047619D01*
X105333333Y-136404761D02*
X106571428Y-136404761D01*
X105904761Y-137166666D01*
X106190476Y-137166666D01*
X106380952Y-137261904D01*
X106476190Y-137357142D01*
X106571428Y-137547619D01*
X106571428Y-138023809D01*
X106476190Y-138214285D01*
X106380952Y-138309523D01*
X106190476Y-138404761D01*
X105619047Y-138404761D01*
X105428571Y-138309523D01*
X105333333Y-138214285D01*
X105428571Y-142095238D02*
X105523809Y-142000000D01*
X105714285Y-141904761D01*
X106190476Y-141904761D01*
X106380952Y-142000000D01*
X106476190Y-142095238D01*
X106571428Y-142285714D01*
X106571428Y-142476190D01*
X106476190Y-142761904D01*
X105333333Y-143904761D01*
X106571428Y-143904761D01*
X106571428Y-149404761D02*
X105428571Y-149404761D01*
X106000000Y-149404761D02*
X106000000Y-147404761D01*
X105809523Y-147690476D01*
X105619047Y-147880952D01*
X105428571Y-147976190D01*
X118809523Y-109261904D02*
X118619047Y-109166666D01*
X118523809Y-109071428D01*
X118428571Y-108880952D01*
X118428571Y-108785714D01*
X118523809Y-108595238D01*
X118619047Y-108500000D01*
X118809523Y-108404761D01*
X119190476Y-108404761D01*
X119380952Y-108500000D01*
X119476190Y-108595238D01*
X119571428Y-108785714D01*
X119571428Y-108880952D01*
X119476190Y-109071428D01*
X119380952Y-109166666D01*
X119190476Y-109261904D01*
X118809523Y-109261904D01*
X118619047Y-109357142D01*
X118523809Y-109452380D01*
X118428571Y-109642857D01*
X118428571Y-110023809D01*
X118523809Y-110214285D01*
X118619047Y-110309523D01*
X118809523Y-110404761D01*
X119190476Y-110404761D01*
X119380952Y-110309523D01*
X119476190Y-110214285D01*
X119571428Y-110023809D01*
X119571428Y-109642857D01*
X119476190Y-109452380D01*
X119380952Y-109357142D01*
X119190476Y-109261904D01*
X106476190Y-100404761D02*
X105523809Y-100404761D01*
X105428571Y-101357142D01*
X105523809Y-101261904D01*
X105714285Y-101166666D01*
X106190476Y-101166666D01*
X106380952Y-101261904D01*
X106476190Y-101357142D01*
X106571428Y-101547619D01*
X106571428Y-102023809D01*
X106476190Y-102214285D01*
X106380952Y-102309523D01*
X106190476Y-102404761D01*
X105714285Y-102404761D01*
X105523809Y-102309523D01*
X105428571Y-102214285D01*
X118333333Y-114404761D02*
X119666666Y-114404761D01*
X118809523Y-116404761D01*
X144380952Y-69904761D02*
X144000000Y-69904761D01*
X143809523Y-70000000D01*
X143714285Y-70095238D01*
X143523809Y-70380952D01*
X143428571Y-70761904D01*
X143428571Y-71523809D01*
X143523809Y-71714285D01*
X143619047Y-71809523D01*
X143809523Y-71904761D01*
X144190476Y-71904761D01*
X144380952Y-71809523D01*
X144476190Y-71714285D01*
X144571428Y-71523809D01*
X144571428Y-71047619D01*
X144476190Y-70857142D01*
X144380952Y-70761904D01*
X144190476Y-70666666D01*
X143809523Y-70666666D01*
X143619047Y-70761904D01*
X143523809Y-70857142D01*
X143428571Y-71047619D01*
X143809523Y-59261904D02*
X143619047Y-59166666D01*
X143523809Y-59071428D01*
X143428571Y-58880952D01*
X143428571Y-58785714D01*
X143523809Y-58595238D01*
X143619047Y-58500000D01*
X143809523Y-58404761D01*
X144190476Y-58404761D01*
X144380952Y-58500000D01*
X144476190Y-58595238D01*
X144571428Y-58785714D01*
X144571428Y-58880952D01*
X144476190Y-59071428D01*
X144380952Y-59166666D01*
X144190476Y-59261904D01*
X143809523Y-59261904D01*
X143619047Y-59357142D01*
X143523809Y-59452380D01*
X143428571Y-59642857D01*
X143428571Y-60023809D01*
X143523809Y-60214285D01*
X143619047Y-60309523D01*
X143809523Y-60404761D01*
X144190476Y-60404761D01*
X144380952Y-60309523D01*
X144476190Y-60214285D01*
X144571428Y-60023809D01*
X144571428Y-59642857D01*
X144476190Y-59452380D01*
X144380952Y-59357142D01*
X144190476Y-59261904D01*
X131476190Y-50404761D02*
X130523809Y-50404761D01*
X130428571Y-51357142D01*
X130523809Y-51261904D01*
X130714285Y-51166666D01*
X131190476Y-51166666D01*
X131380952Y-51261904D01*
X131476190Y-51357142D01*
X131571428Y-51547619D01*
X131571428Y-52023809D01*
X131476190Y-52214285D01*
X131380952Y-52309523D01*
X131190476Y-52404761D01*
X130714285Y-52404761D01*
X130523809Y-52309523D01*
X130428571Y-52214285D01*
X130428571Y-92095238D02*
X130523809Y-92000000D01*
X130714285Y-91904761D01*
X131190476Y-91904761D01*
X131380952Y-92000000D01*
X131476190Y-92095238D01*
X131571428Y-92285714D01*
X131571428Y-92476190D01*
X131476190Y-92761904D01*
X130333333Y-93904761D01*
X131571428Y-93904761D01*
X143619047Y-54904761D02*
X144000000Y-54904761D01*
X144190476Y-54809523D01*
X144285714Y-54714285D01*
X144476190Y-54428571D01*
X144571428Y-54047619D01*
X144571428Y-53285714D01*
X144476190Y-53095238D01*
X144380952Y-53000000D01*
X144190476Y-52904761D01*
X143809523Y-52904761D01*
X143619047Y-53000000D01*
X143523809Y-53095238D01*
X143428571Y-53285714D01*
X143428571Y-53761904D01*
X143523809Y-53952380D01*
X143619047Y-54047619D01*
X143809523Y-54142857D01*
X144190476Y-54142857D01*
X144380952Y-54047619D01*
X144476190Y-53952380D01*
X144571428Y-53761904D01*
X143809523Y-84261904D02*
X143619047Y-84166666D01*
X143523809Y-84071428D01*
X143428571Y-83880952D01*
X143428571Y-83785714D01*
X143523809Y-83595238D01*
X143619047Y-83500000D01*
X143809523Y-83404761D01*
X144190476Y-83404761D01*
X144380952Y-83500000D01*
X144476190Y-83595238D01*
X144571428Y-83785714D01*
X144571428Y-83880952D01*
X144476190Y-84071428D01*
X144380952Y-84166666D01*
X144190476Y-84261904D01*
X143809523Y-84261904D01*
X143619047Y-84357142D01*
X143523809Y-84452380D01*
X143428571Y-84642857D01*
X143428571Y-85023809D01*
X143523809Y-85214285D01*
X143619047Y-85309523D01*
X143809523Y-85404761D01*
X144190476Y-85404761D01*
X144380952Y-85309523D01*
X144476190Y-85214285D01*
X144571428Y-85023809D01*
X144571428Y-84642857D01*
X144476190Y-84452380D01*
X144380952Y-84357142D01*
X144190476Y-84261904D01*
X130428571Y-67095238D02*
X130523809Y-67000000D01*
X130714285Y-66904761D01*
X131190476Y-66904761D01*
X131380952Y-67000000D01*
X131476190Y-67095238D01*
X131571428Y-67285714D01*
X131571428Y-67476190D01*
X131476190Y-67761904D01*
X130333333Y-68904761D01*
X131571428Y-68904761D01*
X131476190Y-75404761D02*
X130523809Y-75404761D01*
X130428571Y-76357142D01*
X130523809Y-76261904D01*
X130714285Y-76166666D01*
X131190476Y-76166666D01*
X131380952Y-76261904D01*
X131476190Y-76357142D01*
X131571428Y-76547619D01*
X131571428Y-77023809D01*
X131476190Y-77214285D01*
X131380952Y-77309523D01*
X131190476Y-77404761D01*
X130714285Y-77404761D01*
X130523809Y-77309523D01*
X130428571Y-77214285D01*
X131571428Y-74404761D02*
X130428571Y-74404761D01*
X131000000Y-74404761D02*
X131000000Y-72404761D01*
X130809523Y-72690476D01*
X130619047Y-72880952D01*
X130428571Y-72976190D01*
X131380952Y-56571428D02*
X131380952Y-57904761D01*
X130904761Y-55809523D02*
X130428571Y-57238095D01*
X131666666Y-57238095D01*
X130333333Y-61404761D02*
X131571428Y-61404761D01*
X130904761Y-62166666D01*
X131190476Y-62166666D01*
X131380952Y-62261904D01*
X131476190Y-62357142D01*
X131571428Y-62547619D01*
X131571428Y-63023809D01*
X131476190Y-63214285D01*
X131380952Y-63309523D01*
X131190476Y-63404761D01*
X130619047Y-63404761D01*
X130428571Y-63309523D01*
X130333333Y-63214285D01*
X143333333Y-64404761D02*
X144666666Y-64404761D01*
X143809523Y-66404761D01*
X130333333Y-111404761D02*
X131571428Y-111404761D01*
X130904761Y-112166666D01*
X131190476Y-112166666D01*
X131380952Y-112261904D01*
X131476190Y-112357142D01*
X131571428Y-112547619D01*
X131571428Y-113023809D01*
X131476190Y-113214285D01*
X131380952Y-113309523D01*
X131190476Y-113404761D01*
X130619047Y-113404761D01*
X130428571Y-113309523D01*
X130333333Y-113214285D01*
X131380952Y-81571428D02*
X131380952Y-82904761D01*
X130904761Y-80809523D02*
X130428571Y-82238095D01*
X131666666Y-82238095D01*
X130428571Y-117095238D02*
X130523809Y-117000000D01*
X130714285Y-116904761D01*
X131190476Y-116904761D01*
X131380952Y-117000000D01*
X131476190Y-117095238D01*
X131571428Y-117285714D01*
X131571428Y-117476190D01*
X131476190Y-117761904D01*
X130333333Y-118904761D01*
X131571428Y-118904761D01*
X130333333Y-86404761D02*
X131571428Y-86404761D01*
X130904761Y-87166666D01*
X131190476Y-87166666D01*
X131380952Y-87261904D01*
X131476190Y-87357142D01*
X131571428Y-87547619D01*
X131571428Y-88023809D01*
X131476190Y-88214285D01*
X131380952Y-88309523D01*
X131190476Y-88404761D01*
X130619047Y-88404761D01*
X130428571Y-88309523D01*
X130333333Y-88214285D01*
X143333333Y-89404761D02*
X144666666Y-89404761D01*
X143809523Y-91404761D01*
X143333333Y-139404761D02*
X144666666Y-139404761D01*
X143809523Y-141404761D01*
X144380952Y-94904761D02*
X144000000Y-94904761D01*
X143809523Y-95000000D01*
X143714285Y-95095238D01*
X143523809Y-95380952D01*
X143428571Y-95761904D01*
X143428571Y-96523809D01*
X143523809Y-96714285D01*
X143619047Y-96809523D01*
X143809523Y-96904761D01*
X144190476Y-96904761D01*
X144380952Y-96809523D01*
X144476190Y-96714285D01*
X144571428Y-96523809D01*
X144571428Y-96047619D01*
X144476190Y-95857142D01*
X144380952Y-95761904D01*
X144190476Y-95666666D01*
X143809523Y-95666666D01*
X143619047Y-95761904D01*
X143523809Y-95857142D01*
X143428571Y-96047619D01*
X131571428Y-99404761D02*
X130428571Y-99404761D01*
X131000000Y-99404761D02*
X131000000Y-97404761D01*
X130809523Y-97690476D01*
X130619047Y-97880952D01*
X130428571Y-97976190D01*
X131571428Y-124404761D02*
X130428571Y-124404761D01*
X131000000Y-124404761D02*
X131000000Y-122404761D01*
X130809523Y-122690476D01*
X130619047Y-122880952D01*
X130428571Y-122976190D01*
X143619047Y-129904761D02*
X144000000Y-129904761D01*
X144190476Y-129809523D01*
X144285714Y-129714285D01*
X144476190Y-129428571D01*
X144571428Y-129047619D01*
X144571428Y-128285714D01*
X144476190Y-128095238D01*
X144380952Y-128000000D01*
X144190476Y-127904761D01*
X143809523Y-127904761D01*
X143619047Y-128000000D01*
X143523809Y-128095238D01*
X143428571Y-128285714D01*
X143428571Y-128761904D01*
X143523809Y-128952380D01*
X143619047Y-129047619D01*
X143809523Y-129142857D01*
X144190476Y-129142857D01*
X144380952Y-129047619D01*
X144476190Y-128952380D01*
X144571428Y-128761904D01*
X143619047Y-104904761D02*
X144000000Y-104904761D01*
X144190476Y-104809523D01*
X144285714Y-104714285D01*
X144476190Y-104428571D01*
X144571428Y-104047619D01*
X144571428Y-103285714D01*
X144476190Y-103095238D01*
X144380952Y-103000000D01*
X144190476Y-102904761D01*
X143809523Y-102904761D01*
X143619047Y-103000000D01*
X143523809Y-103095238D01*
X143428571Y-103285714D01*
X143428571Y-103761904D01*
X143523809Y-103952380D01*
X143619047Y-104047619D01*
X143809523Y-104142857D01*
X144190476Y-104142857D01*
X144380952Y-104047619D01*
X144476190Y-103952380D01*
X144571428Y-103761904D01*
X143619047Y-79904761D02*
X144000000Y-79904761D01*
X144190476Y-79809523D01*
X144285714Y-79714285D01*
X144476190Y-79428571D01*
X144571428Y-79047619D01*
X144571428Y-78285714D01*
X144476190Y-78095238D01*
X144380952Y-78000000D01*
X144190476Y-77904761D01*
X143809523Y-77904761D01*
X143619047Y-78000000D01*
X143523809Y-78095238D01*
X143428571Y-78285714D01*
X143428571Y-78761904D01*
X143523809Y-78952380D01*
X143619047Y-79047619D01*
X143809523Y-79142857D01*
X144190476Y-79142857D01*
X144380952Y-79047619D01*
X144476190Y-78952380D01*
X144571428Y-78761904D01*
X131380952Y-131571428D02*
X131380952Y-132904761D01*
X130904761Y-130809523D02*
X130428571Y-132238095D01*
X131666666Y-132238095D01*
X81571428Y-74404761D02*
X80428571Y-74404761D01*
X81000000Y-74404761D02*
X81000000Y-72404761D01*
X80809523Y-72690476D01*
X80619047Y-72880952D01*
X80428571Y-72976190D01*
X93333333Y-64404761D02*
X94666666Y-64404761D01*
X93809523Y-66404761D01*
X94380952Y-69904761D02*
X94000000Y-69904761D01*
X93809523Y-70000000D01*
X93714285Y-70095238D01*
X93523809Y-70380952D01*
X93428571Y-70761904D01*
X93428571Y-71523809D01*
X93523809Y-71714285D01*
X93619047Y-71809523D01*
X93809523Y-71904761D01*
X94190476Y-71904761D01*
X94380952Y-71809523D01*
X94476190Y-71714285D01*
X94571428Y-71523809D01*
X94571428Y-71047619D01*
X94476190Y-70857142D01*
X94380952Y-70761904D01*
X94190476Y-70666666D01*
X93809523Y-70666666D01*
X93619047Y-70761904D01*
X93523809Y-70857142D01*
X93428571Y-71047619D01*
X81476190Y-50404761D02*
X80523809Y-50404761D01*
X80428571Y-51357142D01*
X80523809Y-51261904D01*
X80714285Y-51166666D01*
X81190476Y-51166666D01*
X81380952Y-51261904D01*
X81476190Y-51357142D01*
X81571428Y-51547619D01*
X81571428Y-52023809D01*
X81476190Y-52214285D01*
X81380952Y-52309523D01*
X81190476Y-52404761D01*
X80714285Y-52404761D01*
X80523809Y-52309523D01*
X80428571Y-52214285D01*
X81380952Y-56571428D02*
X81380952Y-57904761D01*
X80904761Y-55809523D02*
X80428571Y-57238095D01*
X81666666Y-57238095D01*
X80333333Y-61404761D02*
X81571428Y-61404761D01*
X80904761Y-62166666D01*
X81190476Y-62166666D01*
X81380952Y-62261904D01*
X81476190Y-62357142D01*
X81571428Y-62547619D01*
X81571428Y-63023809D01*
X81476190Y-63214285D01*
X81380952Y-63309523D01*
X81190476Y-63404761D01*
X80619047Y-63404761D01*
X80428571Y-63309523D01*
X80333333Y-63214285D01*
X80428571Y-67095238D02*
X80523809Y-67000000D01*
X80714285Y-66904761D01*
X81190476Y-66904761D01*
X81380952Y-67000000D01*
X81476190Y-67095238D01*
X81571428Y-67285714D01*
X81571428Y-67476190D01*
X81476190Y-67761904D01*
X80333333Y-68904761D01*
X81571428Y-68904761D01*
X93809523Y-84261904D02*
X93619047Y-84166666D01*
X93523809Y-84071428D01*
X93428571Y-83880952D01*
X93428571Y-83785714D01*
X93523809Y-83595238D01*
X93619047Y-83500000D01*
X93809523Y-83404761D01*
X94190476Y-83404761D01*
X94380952Y-83500000D01*
X94476190Y-83595238D01*
X94571428Y-83785714D01*
X94571428Y-83880952D01*
X94476190Y-84071428D01*
X94380952Y-84166666D01*
X94190476Y-84261904D01*
X93809523Y-84261904D01*
X93619047Y-84357142D01*
X93523809Y-84452380D01*
X93428571Y-84642857D01*
X93428571Y-85023809D01*
X93523809Y-85214285D01*
X93619047Y-85309523D01*
X93809523Y-85404761D01*
X94190476Y-85404761D01*
X94380952Y-85309523D01*
X94476190Y-85214285D01*
X94571428Y-85023809D01*
X94571428Y-84642857D01*
X94476190Y-84452380D01*
X94380952Y-84357142D01*
X94190476Y-84261904D01*
X93619047Y-54904761D02*
X94000000Y-54904761D01*
X94190476Y-54809523D01*
X94285714Y-54714285D01*
X94476190Y-54428571D01*
X94571428Y-54047619D01*
X94571428Y-53285714D01*
X94476190Y-53095238D01*
X94380952Y-53000000D01*
X94190476Y-52904761D01*
X93809523Y-52904761D01*
X93619047Y-53000000D01*
X93523809Y-53095238D01*
X93428571Y-53285714D01*
X93428571Y-53761904D01*
X93523809Y-53952380D01*
X93619047Y-54047619D01*
X93809523Y-54142857D01*
X94190476Y-54142857D01*
X94380952Y-54047619D01*
X94476190Y-53952380D01*
X94571428Y-53761904D01*
X93809523Y-59261904D02*
X93619047Y-59166666D01*
X93523809Y-59071428D01*
X93428571Y-58880952D01*
X93428571Y-58785714D01*
X93523809Y-58595238D01*
X93619047Y-58500000D01*
X93809523Y-58404761D01*
X94190476Y-58404761D01*
X94380952Y-58500000D01*
X94476190Y-58595238D01*
X94571428Y-58785714D01*
X94571428Y-58880952D01*
X94476190Y-59071428D01*
X94380952Y-59166666D01*
X94190476Y-59261904D01*
X93809523Y-59261904D01*
X93619047Y-59357142D01*
X93523809Y-59452380D01*
X93428571Y-59642857D01*
X93428571Y-60023809D01*
X93523809Y-60214285D01*
X93619047Y-60309523D01*
X93809523Y-60404761D01*
X94190476Y-60404761D01*
X94380952Y-60309523D01*
X94476190Y-60214285D01*
X94571428Y-60023809D01*
X94571428Y-59642857D01*
X94476190Y-59452380D01*
X94380952Y-59357142D01*
X94190476Y-59261904D01*
X81476190Y-75404761D02*
X80523809Y-75404761D01*
X80428571Y-76357142D01*
X80523809Y-76261904D01*
X80714285Y-76166666D01*
X81190476Y-76166666D01*
X81380952Y-76261904D01*
X81476190Y-76357142D01*
X81571428Y-76547619D01*
X81571428Y-77023809D01*
X81476190Y-77214285D01*
X81380952Y-77309523D01*
X81190476Y-77404761D01*
X80714285Y-77404761D01*
X80523809Y-77309523D01*
X80428571Y-77214285D01*
X80428571Y-92095238D02*
X80523809Y-92000000D01*
X80714285Y-91904761D01*
X81190476Y-91904761D01*
X81380952Y-92000000D01*
X81476190Y-92095238D01*
X81571428Y-92285714D01*
X81571428Y-92476190D01*
X81476190Y-92761904D01*
X80333333Y-93904761D01*
X81571428Y-93904761D01*
X93619047Y-79904761D02*
X94000000Y-79904761D01*
X94190476Y-79809523D01*
X94285714Y-79714285D01*
X94476190Y-79428571D01*
X94571428Y-79047619D01*
X94571428Y-78285714D01*
X94476190Y-78095238D01*
X94380952Y-78000000D01*
X94190476Y-77904761D01*
X93809523Y-77904761D01*
X93619047Y-78000000D01*
X93523809Y-78095238D01*
X93428571Y-78285714D01*
X93428571Y-78761904D01*
X93523809Y-78952380D01*
X93619047Y-79047619D01*
X93809523Y-79142857D01*
X94190476Y-79142857D01*
X94380952Y-79047619D01*
X94476190Y-78952380D01*
X94571428Y-78761904D01*
X80333333Y-111404761D02*
X81571428Y-111404761D01*
X80904761Y-112166666D01*
X81190476Y-112166666D01*
X81380952Y-112261904D01*
X81476190Y-112357142D01*
X81571428Y-112547619D01*
X81571428Y-113023809D01*
X81476190Y-113214285D01*
X81380952Y-113309523D01*
X81190476Y-113404761D01*
X80619047Y-113404761D01*
X80428571Y-113309523D01*
X80333333Y-113214285D01*
X80428571Y-117095238D02*
X80523809Y-117000000D01*
X80714285Y-116904761D01*
X81190476Y-116904761D01*
X81380952Y-117000000D01*
X81476190Y-117095238D01*
X81571428Y-117285714D01*
X81571428Y-117476190D01*
X81476190Y-117761904D01*
X80333333Y-118904761D01*
X81571428Y-118904761D01*
X94380952Y-94904761D02*
X94000000Y-94904761D01*
X93809523Y-95000000D01*
X93714285Y-95095238D01*
X93523809Y-95380952D01*
X93428571Y-95761904D01*
X93428571Y-96523809D01*
X93523809Y-96714285D01*
X93619047Y-96809523D01*
X93809523Y-96904761D01*
X94190476Y-96904761D01*
X94380952Y-96809523D01*
X94476190Y-96714285D01*
X94571428Y-96523809D01*
X94571428Y-96047619D01*
X94476190Y-95857142D01*
X94380952Y-95761904D01*
X94190476Y-95666666D01*
X93809523Y-95666666D01*
X93619047Y-95761904D01*
X93523809Y-95857142D01*
X93428571Y-96047619D01*
X81380952Y-81571428D02*
X81380952Y-82904761D01*
X80904761Y-80809523D02*
X80428571Y-82238095D01*
X81666666Y-82238095D01*
X80333333Y-86404761D02*
X81571428Y-86404761D01*
X80904761Y-87166666D01*
X81190476Y-87166666D01*
X81380952Y-87261904D01*
X81476190Y-87357142D01*
X81571428Y-87547619D01*
X81571428Y-88023809D01*
X81476190Y-88214285D01*
X81380952Y-88309523D01*
X81190476Y-88404761D01*
X80619047Y-88404761D01*
X80428571Y-88309523D01*
X80333333Y-88214285D01*
X93333333Y-89404761D02*
X94666666Y-89404761D01*
X93809523Y-91404761D01*
X81571428Y-99404761D02*
X80428571Y-99404761D01*
X81000000Y-99404761D02*
X81000000Y-97404761D01*
X80809523Y-97690476D01*
X80619047Y-97880952D01*
X80428571Y-97976190D01*
X81571428Y-124404761D02*
X80428571Y-124404761D01*
X81000000Y-124404761D02*
X81000000Y-122404761D01*
X80809523Y-122690476D01*
X80619047Y-122880952D01*
X80428571Y-122976190D01*
X93333333Y-139404761D02*
X94666666Y-139404761D01*
X93809523Y-141404761D01*
X81380952Y-131571428D02*
X81380952Y-132904761D01*
X80904761Y-130809523D02*
X80428571Y-132238095D01*
X81666666Y-132238095D01*
X93619047Y-104904761D02*
X94000000Y-104904761D01*
X94190476Y-104809523D01*
X94285714Y-104714285D01*
X94476190Y-104428571D01*
X94571428Y-104047619D01*
X94571428Y-103285714D01*
X94476190Y-103095238D01*
X94380952Y-103000000D01*
X94190476Y-102904761D01*
X93809523Y-102904761D01*
X93619047Y-103000000D01*
X93523809Y-103095238D01*
X93428571Y-103285714D01*
X93428571Y-103761904D01*
X93523809Y-103952380D01*
X93619047Y-104047619D01*
X93809523Y-104142857D01*
X94190476Y-104142857D01*
X94380952Y-104047619D01*
X94476190Y-103952380D01*
X94571428Y-103761904D01*
X93619047Y-129904761D02*
X94000000Y-129904761D01*
X94190476Y-129809523D01*
X94285714Y-129714285D01*
X94476190Y-129428571D01*
X94571428Y-129047619D01*
X94571428Y-128285714D01*
X94476190Y-128095238D01*
X94380952Y-128000000D01*
X94190476Y-127904761D01*
X93809523Y-127904761D01*
X93619047Y-128000000D01*
X93523809Y-128095238D01*
X93428571Y-128285714D01*
X93428571Y-128761904D01*
X93523809Y-128952380D01*
X93619047Y-129047619D01*
X93809523Y-129142857D01*
X94190476Y-129142857D01*
X94380952Y-129047619D01*
X94476190Y-128952380D01*
X94571428Y-128761904D01*
X81476190Y-125404761D02*
X80523809Y-125404761D01*
X80428571Y-126357142D01*
X80523809Y-126261904D01*
X80714285Y-126166666D01*
X81190476Y-126166666D01*
X81380952Y-126261904D01*
X81476190Y-126357142D01*
X81571428Y-126547619D01*
X81571428Y-127023809D01*
X81476190Y-127214285D01*
X81380952Y-127309523D01*
X81190476Y-127404761D01*
X80714285Y-127404761D01*
X80523809Y-127309523D01*
X80428571Y-127214285D01*
X94380952Y-119904761D02*
X94000000Y-119904761D01*
X93809523Y-120000000D01*
X93714285Y-120095238D01*
X93523809Y-120380952D01*
X93428571Y-120761904D01*
X93428571Y-121523809D01*
X93523809Y-121714285D01*
X93619047Y-121809523D01*
X93809523Y-121904761D01*
X94190476Y-121904761D01*
X94380952Y-121809523D01*
X94476190Y-121714285D01*
X94571428Y-121523809D01*
X94571428Y-121047619D01*
X94476190Y-120857142D01*
X94380952Y-120761904D01*
X94190476Y-120666666D01*
X93809523Y-120666666D01*
X93619047Y-120761904D01*
X93523809Y-120857142D01*
X93428571Y-121047619D01*
X81380952Y-106571428D02*
X81380952Y-107904761D01*
X80904761Y-105809523D02*
X80428571Y-107238095D01*
X81666666Y-107238095D01*
X93809523Y-134261904D02*
X93619047Y-134166666D01*
X93523809Y-134071428D01*
X93428571Y-133880952D01*
X93428571Y-133785714D01*
X93523809Y-133595238D01*
X93619047Y-133500000D01*
X93809523Y-133404761D01*
X94190476Y-133404761D01*
X94380952Y-133500000D01*
X94476190Y-133595238D01*
X94571428Y-133785714D01*
X94571428Y-133880952D01*
X94476190Y-134071428D01*
X94380952Y-134166666D01*
X94190476Y-134261904D01*
X93809523Y-134261904D01*
X93619047Y-134357142D01*
X93523809Y-134452380D01*
X93428571Y-134642857D01*
X93428571Y-135023809D01*
X93523809Y-135214285D01*
X93619047Y-135309523D01*
X93809523Y-135404761D01*
X94190476Y-135404761D01*
X94380952Y-135309523D01*
X94476190Y-135214285D01*
X94571428Y-135023809D01*
X94571428Y-134642857D01*
X94476190Y-134452380D01*
X94380952Y-134357142D01*
X94190476Y-134261904D01*
X94380952Y-144904761D02*
X94000000Y-144904761D01*
X93809523Y-145000000D01*
X93714285Y-145095238D01*
X93523809Y-145380952D01*
X93428571Y-145761904D01*
X93428571Y-146523809D01*
X93523809Y-146714285D01*
X93619047Y-146809523D01*
X93809523Y-146904761D01*
X94190476Y-146904761D01*
X94380952Y-146809523D01*
X94476190Y-146714285D01*
X94571428Y-146523809D01*
X94571428Y-146047619D01*
X94476190Y-145857142D01*
X94380952Y-145761904D01*
X94190476Y-145666666D01*
X93809523Y-145666666D01*
X93619047Y-145761904D01*
X93523809Y-145857142D01*
X93428571Y-146047619D01*
X80333333Y-136404761D02*
X81571428Y-136404761D01*
X80904761Y-137166666D01*
X81190476Y-137166666D01*
X81380952Y-137261904D01*
X81476190Y-137357142D01*
X81571428Y-137547619D01*
X81571428Y-138023809D01*
X81476190Y-138214285D01*
X81380952Y-138309523D01*
X81190476Y-138404761D01*
X80619047Y-138404761D01*
X80428571Y-138309523D01*
X80333333Y-138214285D01*
X80428571Y-142095238D02*
X80523809Y-142000000D01*
X80714285Y-141904761D01*
X81190476Y-141904761D01*
X81380952Y-142000000D01*
X81476190Y-142095238D01*
X81571428Y-142285714D01*
X81571428Y-142476190D01*
X81476190Y-142761904D01*
X80333333Y-143904761D01*
X81571428Y-143904761D01*
X81571428Y-149404761D02*
X80428571Y-149404761D01*
X81000000Y-149404761D02*
X81000000Y-147404761D01*
X80809523Y-147690476D01*
X80619047Y-147880952D01*
X80428571Y-147976190D01*
X93809523Y-109261904D02*
X93619047Y-109166666D01*
X93523809Y-109071428D01*
X93428571Y-108880952D01*
X93428571Y-108785714D01*
X93523809Y-108595238D01*
X93619047Y-108500000D01*
X93809523Y-108404761D01*
X94190476Y-108404761D01*
X94380952Y-108500000D01*
X94476190Y-108595238D01*
X94571428Y-108785714D01*
X94571428Y-108880952D01*
X94476190Y-109071428D01*
X94380952Y-109166666D01*
X94190476Y-109261904D01*
X93809523Y-109261904D01*
X93619047Y-109357142D01*
X93523809Y-109452380D01*
X93428571Y-109642857D01*
X93428571Y-110023809D01*
X93523809Y-110214285D01*
X93619047Y-110309523D01*
X93809523Y-110404761D01*
X94190476Y-110404761D01*
X94380952Y-110309523D01*
X94476190Y-110214285D01*
X94571428Y-110023809D01*
X94571428Y-109642857D01*
X94476190Y-109452380D01*
X94380952Y-109357142D01*
X94190476Y-109261904D01*
X81476190Y-100404761D02*
X80523809Y-100404761D01*
X80428571Y-101357142D01*
X80523809Y-101261904D01*
X80714285Y-101166666D01*
X81190476Y-101166666D01*
X81380952Y-101261904D01*
X81476190Y-101357142D01*
X81571428Y-101547619D01*
X81571428Y-102023809D01*
X81476190Y-102214285D01*
X81380952Y-102309523D01*
X81190476Y-102404761D01*
X80714285Y-102404761D01*
X80523809Y-102309523D01*
X80428571Y-102214285D01*
X93333333Y-114404761D02*
X94666666Y-114404761D01*
X93809523Y-116404761D01*
X56571428Y-74404761D02*
X55428571Y-74404761D01*
X56000000Y-74404761D02*
X56000000Y-72404761D01*
X55809523Y-72690476D01*
X55619047Y-72880952D01*
X55428571Y-72976190D01*
X55428571Y-67095238D02*
X55523809Y-67000000D01*
X55714285Y-66904761D01*
X56190476Y-66904761D01*
X56380952Y-67000000D01*
X56476190Y-67095238D01*
X56571428Y-67285714D01*
X56571428Y-67476190D01*
X56476190Y-67761904D01*
X55333333Y-68904761D01*
X56571428Y-68904761D01*
X55333333Y-61404761D02*
X56571428Y-61404761D01*
X55904761Y-62166666D01*
X56190476Y-62166666D01*
X56380952Y-62261904D01*
X56476190Y-62357142D01*
X56571428Y-62547619D01*
X56571428Y-63023809D01*
X56476190Y-63214285D01*
X56380952Y-63309523D01*
X56190476Y-63404761D01*
X55619047Y-63404761D01*
X55428571Y-63309523D01*
X55333333Y-63214285D01*
X56380952Y-56571428D02*
X56380952Y-57904761D01*
X55904761Y-55809523D02*
X55428571Y-57238095D01*
X56666666Y-57238095D01*
X56476190Y-50404761D02*
X55523809Y-50404761D01*
X55428571Y-51357142D01*
X55523809Y-51261904D01*
X55714285Y-51166666D01*
X56190476Y-51166666D01*
X56380952Y-51261904D01*
X56476190Y-51357142D01*
X56571428Y-51547619D01*
X56571428Y-52023809D01*
X56476190Y-52214285D01*
X56380952Y-52309523D01*
X56190476Y-52404761D01*
X55714285Y-52404761D01*
X55523809Y-52309523D01*
X55428571Y-52214285D01*
X69380952Y-69904761D02*
X69000000Y-69904761D01*
X68809523Y-70000000D01*
X68714285Y-70095238D01*
X68523809Y-70380952D01*
X68428571Y-70761904D01*
X68428571Y-71523809D01*
X68523809Y-71714285D01*
X68619047Y-71809523D01*
X68809523Y-71904761D01*
X69190476Y-71904761D01*
X69380952Y-71809523D01*
X69476190Y-71714285D01*
X69571428Y-71523809D01*
X69571428Y-71047619D01*
X69476190Y-70857142D01*
X69380952Y-70761904D01*
X69190476Y-70666666D01*
X68809523Y-70666666D01*
X68619047Y-70761904D01*
X68523809Y-70857142D01*
X68428571Y-71047619D01*
X68333333Y-64404761D02*
X69666666Y-64404761D01*
X68809523Y-66404761D01*
X68809523Y-59261904D02*
X68619047Y-59166666D01*
X68523809Y-59071428D01*
X68428571Y-58880952D01*
X68428571Y-58785714D01*
X68523809Y-58595238D01*
X68619047Y-58500000D01*
X68809523Y-58404761D01*
X69190476Y-58404761D01*
X69380952Y-58500000D01*
X69476190Y-58595238D01*
X69571428Y-58785714D01*
X69571428Y-58880952D01*
X69476190Y-59071428D01*
X69380952Y-59166666D01*
X69190476Y-59261904D01*
X68809523Y-59261904D01*
X68619047Y-59357142D01*
X68523809Y-59452380D01*
X68428571Y-59642857D01*
X68428571Y-60023809D01*
X68523809Y-60214285D01*
X68619047Y-60309523D01*
X68809523Y-60404761D01*
X69190476Y-60404761D01*
X69380952Y-60309523D01*
X69476190Y-60214285D01*
X69571428Y-60023809D01*
X69571428Y-59642857D01*
X69476190Y-59452380D01*
X69380952Y-59357142D01*
X69190476Y-59261904D01*
X68619047Y-54904761D02*
X69000000Y-54904761D01*
X69190476Y-54809523D01*
X69285714Y-54714285D01*
X69476190Y-54428571D01*
X69571428Y-54047619D01*
X69571428Y-53285714D01*
X69476190Y-53095238D01*
X69380952Y-53000000D01*
X69190476Y-52904761D01*
X68809523Y-52904761D01*
X68619047Y-53000000D01*
X68523809Y-53095238D01*
X68428571Y-53285714D01*
X68428571Y-53761904D01*
X68523809Y-53952380D01*
X68619047Y-54047619D01*
X68809523Y-54142857D01*
X69190476Y-54142857D01*
X69380952Y-54047619D01*
X69476190Y-53952380D01*
X69571428Y-53761904D01*
X56571428Y-99404761D02*
X55428571Y-99404761D01*
X56000000Y-99404761D02*
X56000000Y-97404761D01*
X55809523Y-97690476D01*
X55619047Y-97880952D01*
X55428571Y-97976190D01*
X55428571Y-92095238D02*
X55523809Y-92000000D01*
X55714285Y-91904761D01*
X56190476Y-91904761D01*
X56380952Y-92000000D01*
X56476190Y-92095238D01*
X56571428Y-92285714D01*
X56571428Y-92476190D01*
X56476190Y-92761904D01*
X55333333Y-93904761D01*
X56571428Y-93904761D01*
X55333333Y-86404761D02*
X56571428Y-86404761D01*
X55904761Y-87166666D01*
X56190476Y-87166666D01*
X56380952Y-87261904D01*
X56476190Y-87357142D01*
X56571428Y-87547619D01*
X56571428Y-88023809D01*
X56476190Y-88214285D01*
X56380952Y-88309523D01*
X56190476Y-88404761D01*
X55619047Y-88404761D01*
X55428571Y-88309523D01*
X55333333Y-88214285D01*
X56380952Y-81571428D02*
X56380952Y-82904761D01*
X55904761Y-80809523D02*
X55428571Y-82238095D01*
X56666666Y-82238095D01*
X56476190Y-75404761D02*
X55523809Y-75404761D01*
X55428571Y-76357142D01*
X55523809Y-76261904D01*
X55714285Y-76166666D01*
X56190476Y-76166666D01*
X56380952Y-76261904D01*
X56476190Y-76357142D01*
X56571428Y-76547619D01*
X56571428Y-77023809D01*
X56476190Y-77214285D01*
X56380952Y-77309523D01*
X56190476Y-77404761D01*
X55714285Y-77404761D01*
X55523809Y-77309523D01*
X55428571Y-77214285D01*
X69380952Y-94904761D02*
X69000000Y-94904761D01*
X68809523Y-95000000D01*
X68714285Y-95095238D01*
X68523809Y-95380952D01*
X68428571Y-95761904D01*
X68428571Y-96523809D01*
X68523809Y-96714285D01*
X68619047Y-96809523D01*
X68809523Y-96904761D01*
X69190476Y-96904761D01*
X69380952Y-96809523D01*
X69476190Y-96714285D01*
X69571428Y-96523809D01*
X69571428Y-96047619D01*
X69476190Y-95857142D01*
X69380952Y-95761904D01*
X69190476Y-95666666D01*
X68809523Y-95666666D01*
X68619047Y-95761904D01*
X68523809Y-95857142D01*
X68428571Y-96047619D01*
X68333333Y-89404761D02*
X69666666Y-89404761D01*
X68809523Y-91404761D01*
X68809523Y-84261904D02*
X68619047Y-84166666D01*
X68523809Y-84071428D01*
X68428571Y-83880952D01*
X68428571Y-83785714D01*
X68523809Y-83595238D01*
X68619047Y-83500000D01*
X68809523Y-83404761D01*
X69190476Y-83404761D01*
X69380952Y-83500000D01*
X69476190Y-83595238D01*
X69571428Y-83785714D01*
X69571428Y-83880952D01*
X69476190Y-84071428D01*
X69380952Y-84166666D01*
X69190476Y-84261904D01*
X68809523Y-84261904D01*
X68619047Y-84357142D01*
X68523809Y-84452380D01*
X68428571Y-84642857D01*
X68428571Y-85023809D01*
X68523809Y-85214285D01*
X68619047Y-85309523D01*
X68809523Y-85404761D01*
X69190476Y-85404761D01*
X69380952Y-85309523D01*
X69476190Y-85214285D01*
X69571428Y-85023809D01*
X69571428Y-84642857D01*
X69476190Y-84452380D01*
X69380952Y-84357142D01*
X69190476Y-84261904D01*
X68619047Y-79904761D02*
X69000000Y-79904761D01*
X69190476Y-79809523D01*
X69285714Y-79714285D01*
X69476190Y-79428571D01*
X69571428Y-79047619D01*
X69571428Y-78285714D01*
X69476190Y-78095238D01*
X69380952Y-78000000D01*
X69190476Y-77904761D01*
X68809523Y-77904761D01*
X68619047Y-78000000D01*
X68523809Y-78095238D01*
X68428571Y-78285714D01*
X68428571Y-78761904D01*
X68523809Y-78952380D01*
X68619047Y-79047619D01*
X68809523Y-79142857D01*
X69190476Y-79142857D01*
X69380952Y-79047619D01*
X69476190Y-78952380D01*
X69571428Y-78761904D01*
X56571428Y-124404761D02*
X55428571Y-124404761D01*
X56000000Y-124404761D02*
X56000000Y-122404761D01*
X55809523Y-122690476D01*
X55619047Y-122880952D01*
X55428571Y-122976190D01*
X55428571Y-117095238D02*
X55523809Y-117000000D01*
X55714285Y-116904761D01*
X56190476Y-116904761D01*
X56380952Y-117000000D01*
X56476190Y-117095238D01*
X56571428Y-117285714D01*
X56571428Y-117476190D01*
X56476190Y-117761904D01*
X55333333Y-118904761D01*
X56571428Y-118904761D01*
X55333333Y-111404761D02*
X56571428Y-111404761D01*
X55904761Y-112166666D01*
X56190476Y-112166666D01*
X56380952Y-112261904D01*
X56476190Y-112357142D01*
X56571428Y-112547619D01*
X56571428Y-113023809D01*
X56476190Y-113214285D01*
X56380952Y-113309523D01*
X56190476Y-113404761D01*
X55619047Y-113404761D01*
X55428571Y-113309523D01*
X55333333Y-113214285D01*
X56380952Y-106571428D02*
X56380952Y-107904761D01*
X55904761Y-105809523D02*
X55428571Y-107238095D01*
X56666666Y-107238095D01*
X56476190Y-100404761D02*
X55523809Y-100404761D01*
X55428571Y-101357142D01*
X55523809Y-101261904D01*
X55714285Y-101166666D01*
X56190476Y-101166666D01*
X56380952Y-101261904D01*
X56476190Y-101357142D01*
X56571428Y-101547619D01*
X56571428Y-102023809D01*
X56476190Y-102214285D01*
X56380952Y-102309523D01*
X56190476Y-102404761D01*
X55714285Y-102404761D01*
X55523809Y-102309523D01*
X55428571Y-102214285D01*
X69380952Y-119904761D02*
X69000000Y-119904761D01*
X68809523Y-120000000D01*
X68714285Y-120095238D01*
X68523809Y-120380952D01*
X68428571Y-120761904D01*
X68428571Y-121523809D01*
X68523809Y-121714285D01*
X68619047Y-121809523D01*
X68809523Y-121904761D01*
X69190476Y-121904761D01*
X69380952Y-121809523D01*
X69476190Y-121714285D01*
X69571428Y-121523809D01*
X69571428Y-121047619D01*
X69476190Y-120857142D01*
X69380952Y-120761904D01*
X69190476Y-120666666D01*
X68809523Y-120666666D01*
X68619047Y-120761904D01*
X68523809Y-120857142D01*
X68428571Y-121047619D01*
X68333333Y-114404761D02*
X69666666Y-114404761D01*
X68809523Y-116404761D01*
X68809523Y-109261904D02*
X68619047Y-109166666D01*
X68523809Y-109071428D01*
X68428571Y-108880952D01*
X68428571Y-108785714D01*
X68523809Y-108595238D01*
X68619047Y-108500000D01*
X68809523Y-108404761D01*
X69190476Y-108404761D01*
X69380952Y-108500000D01*
X69476190Y-108595238D01*
X69571428Y-108785714D01*
X69571428Y-108880952D01*
X69476190Y-109071428D01*
X69380952Y-109166666D01*
X69190476Y-109261904D01*
X68809523Y-109261904D01*
X68619047Y-109357142D01*
X68523809Y-109452380D01*
X68428571Y-109642857D01*
X68428571Y-110023809D01*
X68523809Y-110214285D01*
X68619047Y-110309523D01*
X68809523Y-110404761D01*
X69190476Y-110404761D01*
X69380952Y-110309523D01*
X69476190Y-110214285D01*
X69571428Y-110023809D01*
X69571428Y-109642857D01*
X69476190Y-109452380D01*
X69380952Y-109357142D01*
X69190476Y-109261904D01*
X68619047Y-104904761D02*
X69000000Y-104904761D01*
X69190476Y-104809523D01*
X69285714Y-104714285D01*
X69476190Y-104428571D01*
X69571428Y-104047619D01*
X69571428Y-103285714D01*
X69476190Y-103095238D01*
X69380952Y-103000000D01*
X69190476Y-102904761D01*
X68809523Y-102904761D01*
X68619047Y-103000000D01*
X68523809Y-103095238D01*
X68428571Y-103285714D01*
X68428571Y-103761904D01*
X68523809Y-103952380D01*
X68619047Y-104047619D01*
X68809523Y-104142857D01*
X69190476Y-104142857D01*
X69380952Y-104047619D01*
X69476190Y-103952380D01*
X69571428Y-103761904D01*
X56571428Y-149404761D02*
X55428571Y-149404761D01*
X56000000Y-149404761D02*
X56000000Y-147404761D01*
X55809523Y-147690476D01*
X55619047Y-147880952D01*
X55428571Y-147976190D01*
X55428571Y-142095238D02*
X55523809Y-142000000D01*
X55714285Y-141904761D01*
X56190476Y-141904761D01*
X56380952Y-142000000D01*
X56476190Y-142095238D01*
X56571428Y-142285714D01*
X56571428Y-142476190D01*
X56476190Y-142761904D01*
X55333333Y-143904761D01*
X56571428Y-143904761D01*
X55333333Y-136404761D02*
X56571428Y-136404761D01*
X55904761Y-137166666D01*
X56190476Y-137166666D01*
X56380952Y-137261904D01*
X56476190Y-137357142D01*
X56571428Y-137547619D01*
X56571428Y-138023809D01*
X56476190Y-138214285D01*
X56380952Y-138309523D01*
X56190476Y-138404761D01*
X55619047Y-138404761D01*
X55428571Y-138309523D01*
X55333333Y-138214285D01*
X56380952Y-131571428D02*
X56380952Y-132904761D01*
X55904761Y-130809523D02*
X55428571Y-132238095D01*
X56666666Y-132238095D01*
X56476190Y-125404761D02*
X55523809Y-125404761D01*
X55428571Y-126357142D01*
X55523809Y-126261904D01*
X55714285Y-126166666D01*
X56190476Y-126166666D01*
X56380952Y-126261904D01*
X56476190Y-126357142D01*
X56571428Y-126547619D01*
X56571428Y-127023809D01*
X56476190Y-127214285D01*
X56380952Y-127309523D01*
X56190476Y-127404761D01*
X55714285Y-127404761D01*
X55523809Y-127309523D01*
X55428571Y-127214285D01*
X69380952Y-144904761D02*
X69000000Y-144904761D01*
X68809523Y-145000000D01*
X68714285Y-145095238D01*
X68523809Y-145380952D01*
X68428571Y-145761904D01*
X68428571Y-146523809D01*
X68523809Y-146714285D01*
X68619047Y-146809523D01*
X68809523Y-146904761D01*
X69190476Y-146904761D01*
X69380952Y-146809523D01*
X69476190Y-146714285D01*
X69571428Y-146523809D01*
X69571428Y-146047619D01*
X69476190Y-145857142D01*
X69380952Y-145761904D01*
X69190476Y-145666666D01*
X68809523Y-145666666D01*
X68619047Y-145761904D01*
X68523809Y-145857142D01*
X68428571Y-146047619D01*
X68333333Y-139404761D02*
X69666666Y-139404761D01*
X68809523Y-141404761D01*
X68809523Y-134261904D02*
X68619047Y-134166666D01*
X68523809Y-134071428D01*
X68428571Y-133880952D01*
X68428571Y-133785714D01*
X68523809Y-133595238D01*
X68619047Y-133500000D01*
X68809523Y-133404761D01*
X69190476Y-133404761D01*
X69380952Y-133500000D01*
X69476190Y-133595238D01*
X69571428Y-133785714D01*
X69571428Y-133880952D01*
X69476190Y-134071428D01*
X69380952Y-134166666D01*
X69190476Y-134261904D01*
X68809523Y-134261904D01*
X68619047Y-134357142D01*
X68523809Y-134452380D01*
X68428571Y-134642857D01*
X68428571Y-135023809D01*
X68523809Y-135214285D01*
X68619047Y-135309523D01*
X68809523Y-135404761D01*
X69190476Y-135404761D01*
X69380952Y-135309523D01*
X69476190Y-135214285D01*
X69571428Y-135023809D01*
X69571428Y-134642857D01*
X69476190Y-134452380D01*
X69380952Y-134357142D01*
X69190476Y-134261904D01*
X68619047Y-129904761D02*
X69000000Y-129904761D01*
X69190476Y-129809523D01*
X69285714Y-129714285D01*
X69476190Y-129428571D01*
X69571428Y-129047619D01*
X69571428Y-128285714D01*
X69476190Y-128095238D01*
X69380952Y-128000000D01*
X69190476Y-127904761D01*
X68809523Y-127904761D01*
X68619047Y-128000000D01*
X68523809Y-128095238D01*
X68428571Y-128285714D01*
X68428571Y-128761904D01*
X68523809Y-128952380D01*
X68619047Y-129047619D01*
X68809523Y-129142857D01*
X69190476Y-129142857D01*
X69380952Y-129047619D01*
X69476190Y-128952380D01*
X69571428Y-128761904D01*
M02*
