G04 #@! TF.GenerationSoftware,KiCad,Pcbnew,(5.1.5)-3*
G04 #@! TF.CreationDate,2021-04-28T18:54:50+09:00*
G04 #@! TF.ProjectId,DSub9TestPoint.kicad_pcb(4x4),44537562-3954-4657-9374-506f696e742e,rev?*
G04 #@! TF.SameCoordinates,Original*
G04 #@! TF.FileFunction,Legend,Bot*
G04 #@! TF.FilePolarity,Positive*
%FSLAX46Y46*%
G04 Gerber Fmt 4.6, Leading zero omitted, Abs format (unit mm)*
G04 Created by KiCad (PCBNEW (5.1.5)-3) date 2021-04-28 18:54:50*
%MOMM*%
%LPD*%
G04 APERTURE LIST*
%ADD10C,0.150000*%
G04 APERTURE END LIST*
D10*
X125809523Y-143452380D02*
X126000000Y-143452380D01*
X126095238Y-143500000D01*
X126142857Y-143547619D01*
X126238095Y-143690476D01*
X126285714Y-143880952D01*
X126285714Y-144261904D01*
X126238095Y-144357142D01*
X126190476Y-144404761D01*
X126095238Y-144452380D01*
X125904761Y-144452380D01*
X125809523Y-144404761D01*
X125761904Y-144357142D01*
X125714285Y-144261904D01*
X125714285Y-144023809D01*
X125761904Y-143928571D01*
X125809523Y-143880952D01*
X125904761Y-143833333D01*
X126095238Y-143833333D01*
X126190476Y-143880952D01*
X126238095Y-143928571D01*
X126285714Y-144023809D01*
X149190476Y-56452380D02*
X149000000Y-56452380D01*
X148904761Y-56404761D01*
X148857142Y-56357142D01*
X148761904Y-56214285D01*
X148714285Y-56023809D01*
X148714285Y-55642857D01*
X148761904Y-55547619D01*
X148809523Y-55500000D01*
X148904761Y-55452380D01*
X149095238Y-55452380D01*
X149190476Y-55500000D01*
X149238095Y-55547619D01*
X149285714Y-55642857D01*
X149285714Y-55880952D01*
X149238095Y-55976190D01*
X149190476Y-56023809D01*
X149095238Y-56071428D01*
X148904761Y-56071428D01*
X148809523Y-56023809D01*
X148761904Y-55976190D01*
X148714285Y-55880952D01*
X126190476Y-56452380D02*
X126000000Y-56452380D01*
X125904761Y-56404761D01*
X125857142Y-56357142D01*
X125761904Y-56214285D01*
X125714285Y-56023809D01*
X125714285Y-55642857D01*
X125761904Y-55547619D01*
X125809523Y-55500000D01*
X125904761Y-55452380D01*
X126095238Y-55452380D01*
X126190476Y-55500000D01*
X126238095Y-55547619D01*
X126285714Y-55642857D01*
X126285714Y-55880952D01*
X126238095Y-55976190D01*
X126190476Y-56023809D01*
X126095238Y-56071428D01*
X125904761Y-56071428D01*
X125809523Y-56023809D01*
X125761904Y-55976190D01*
X125714285Y-55880952D01*
X126190476Y-131452380D02*
X126000000Y-131452380D01*
X125904761Y-131404761D01*
X125857142Y-131357142D01*
X125761904Y-131214285D01*
X125714285Y-131023809D01*
X125714285Y-130642857D01*
X125761904Y-130547619D01*
X125809523Y-130500000D01*
X125904761Y-130452380D01*
X126095238Y-130452380D01*
X126190476Y-130500000D01*
X126238095Y-130547619D01*
X126285714Y-130642857D01*
X126285714Y-130880952D01*
X126238095Y-130976190D01*
X126190476Y-131023809D01*
X126095238Y-131071428D01*
X125904761Y-131071428D01*
X125809523Y-131023809D01*
X125761904Y-130976190D01*
X125714285Y-130880952D01*
X125809523Y-68452380D02*
X126000000Y-68452380D01*
X126095238Y-68500000D01*
X126142857Y-68547619D01*
X126238095Y-68690476D01*
X126285714Y-68880952D01*
X126285714Y-69261904D01*
X126238095Y-69357142D01*
X126190476Y-69404761D01*
X126095238Y-69452380D01*
X125904761Y-69452380D01*
X125809523Y-69404761D01*
X125761904Y-69357142D01*
X125714285Y-69261904D01*
X125714285Y-69023809D01*
X125761904Y-68928571D01*
X125809523Y-68880952D01*
X125904761Y-68833333D01*
X126095238Y-68833333D01*
X126190476Y-68880952D01*
X126238095Y-68928571D01*
X126285714Y-69023809D01*
X144547619Y-138976190D02*
X145547619Y-138976190D01*
X144833333Y-138642857D01*
X145547619Y-138309523D01*
X144547619Y-138309523D01*
X144547619Y-137404761D02*
X145071428Y-137404761D01*
X145166666Y-137452380D01*
X145214285Y-137547619D01*
X145214285Y-137738095D01*
X145166666Y-137833333D01*
X144595238Y-137404761D02*
X144547619Y-137500000D01*
X144547619Y-137738095D01*
X144595238Y-137833333D01*
X144690476Y-137880952D01*
X144785714Y-137880952D01*
X144880952Y-137833333D01*
X144928571Y-137738095D01*
X144928571Y-137500000D01*
X144976190Y-137404761D01*
X144547619Y-136785714D02*
X144595238Y-136880952D01*
X144690476Y-136928571D01*
X145547619Y-136928571D01*
X144595238Y-136023809D02*
X144547619Y-136119047D01*
X144547619Y-136309523D01*
X144595238Y-136404761D01*
X144690476Y-136452380D01*
X145071428Y-136452380D01*
X145166666Y-136404761D01*
X145214285Y-136309523D01*
X145214285Y-136119047D01*
X145166666Y-136023809D01*
X145071428Y-135976190D01*
X144976190Y-135976190D01*
X144880952Y-136452380D01*
X148809523Y-68452380D02*
X149000000Y-68452380D01*
X149095238Y-68500000D01*
X149142857Y-68547619D01*
X149238095Y-68690476D01*
X149285714Y-68880952D01*
X149285714Y-69261904D01*
X149238095Y-69357142D01*
X149190476Y-69404761D01*
X149095238Y-69452380D01*
X148904761Y-69452380D01*
X148809523Y-69404761D01*
X148761904Y-69357142D01*
X148714285Y-69261904D01*
X148714285Y-69023809D01*
X148761904Y-68928571D01*
X148809523Y-68880952D01*
X148904761Y-68833333D01*
X149095238Y-68833333D01*
X149190476Y-68880952D01*
X149238095Y-68928571D01*
X149285714Y-69023809D01*
X144547619Y-63976190D02*
X145547619Y-63976190D01*
X144833333Y-63642857D01*
X145547619Y-63309523D01*
X144547619Y-63309523D01*
X144547619Y-62404761D02*
X145071428Y-62404761D01*
X145166666Y-62452380D01*
X145214285Y-62547619D01*
X145214285Y-62738095D01*
X145166666Y-62833333D01*
X144595238Y-62404761D02*
X144547619Y-62500000D01*
X144547619Y-62738095D01*
X144595238Y-62833333D01*
X144690476Y-62880952D01*
X144785714Y-62880952D01*
X144880952Y-62833333D01*
X144928571Y-62738095D01*
X144928571Y-62500000D01*
X144976190Y-62404761D01*
X144547619Y-61785714D02*
X144595238Y-61880952D01*
X144690476Y-61928571D01*
X145547619Y-61928571D01*
X144595238Y-61023809D02*
X144547619Y-61119047D01*
X144547619Y-61309523D01*
X144595238Y-61404761D01*
X144690476Y-61452380D01*
X145071428Y-61452380D01*
X145166666Y-61404761D01*
X145214285Y-61309523D01*
X145214285Y-61119047D01*
X145166666Y-61023809D01*
X145071428Y-60976190D01*
X144976190Y-60976190D01*
X144880952Y-61452380D01*
X129928571Y-135404761D02*
X129928571Y-135071428D01*
X130452380Y-135071428D02*
X129452380Y-135071428D01*
X129452380Y-135547619D01*
X130404761Y-136309523D02*
X130452380Y-136214285D01*
X130452380Y-136023809D01*
X130404761Y-135928571D01*
X130309523Y-135880952D01*
X129928571Y-135880952D01*
X129833333Y-135928571D01*
X129785714Y-136023809D01*
X129785714Y-136214285D01*
X129833333Y-136309523D01*
X129928571Y-136357142D01*
X130023809Y-136357142D01*
X130119047Y-135880952D01*
X130452380Y-136785714D02*
X129785714Y-136785714D01*
X129880952Y-136785714D02*
X129833333Y-136833333D01*
X129785714Y-136928571D01*
X129785714Y-137071428D01*
X129833333Y-137166666D01*
X129928571Y-137214285D01*
X130452380Y-137214285D01*
X129928571Y-137214285D02*
X129833333Y-137261904D01*
X129785714Y-137357142D01*
X129785714Y-137500000D01*
X129833333Y-137595238D01*
X129928571Y-137642857D01*
X130452380Y-137642857D01*
X130452380Y-138547619D02*
X129928571Y-138547619D01*
X129833333Y-138500000D01*
X129785714Y-138404761D01*
X129785714Y-138214285D01*
X129833333Y-138119047D01*
X130404761Y-138547619D02*
X130452380Y-138452380D01*
X130452380Y-138214285D01*
X130404761Y-138119047D01*
X130309523Y-138071428D01*
X130214285Y-138071428D01*
X130119047Y-138119047D01*
X130071428Y-138214285D01*
X130071428Y-138452380D01*
X130023809Y-138547619D01*
X130452380Y-139166666D02*
X130404761Y-139071428D01*
X130309523Y-139023809D01*
X129452380Y-139023809D01*
X130404761Y-139928571D02*
X130452380Y-139833333D01*
X130452380Y-139642857D01*
X130404761Y-139547619D01*
X130309523Y-139500000D01*
X129928571Y-139500000D01*
X129833333Y-139547619D01*
X129785714Y-139642857D01*
X129785714Y-139833333D01*
X129833333Y-139928571D01*
X129928571Y-139976190D01*
X130023809Y-139976190D01*
X130119047Y-139500000D01*
X125809523Y-118452380D02*
X126000000Y-118452380D01*
X126095238Y-118500000D01*
X126142857Y-118547619D01*
X126238095Y-118690476D01*
X126285714Y-118880952D01*
X126285714Y-119261904D01*
X126238095Y-119357142D01*
X126190476Y-119404761D01*
X126095238Y-119452380D01*
X125904761Y-119452380D01*
X125809523Y-119404761D01*
X125761904Y-119357142D01*
X125714285Y-119261904D01*
X125714285Y-119023809D01*
X125761904Y-118928571D01*
X125809523Y-118880952D01*
X125904761Y-118833333D01*
X126095238Y-118833333D01*
X126190476Y-118880952D01*
X126238095Y-118928571D01*
X126285714Y-119023809D01*
X148809523Y-143452380D02*
X149000000Y-143452380D01*
X149095238Y-143500000D01*
X149142857Y-143547619D01*
X149238095Y-143690476D01*
X149285714Y-143880952D01*
X149285714Y-144261904D01*
X149238095Y-144357142D01*
X149190476Y-144404761D01*
X149095238Y-144452380D01*
X148904761Y-144452380D01*
X148809523Y-144404761D01*
X148761904Y-144357142D01*
X148714285Y-144261904D01*
X148714285Y-144023809D01*
X148761904Y-143928571D01*
X148809523Y-143880952D01*
X148904761Y-143833333D01*
X149095238Y-143833333D01*
X149190476Y-143880952D01*
X149238095Y-143928571D01*
X149285714Y-144023809D01*
X129928571Y-60404761D02*
X129928571Y-60071428D01*
X130452380Y-60071428D02*
X129452380Y-60071428D01*
X129452380Y-60547619D01*
X130404761Y-61309523D02*
X130452380Y-61214285D01*
X130452380Y-61023809D01*
X130404761Y-60928571D01*
X130309523Y-60880952D01*
X129928571Y-60880952D01*
X129833333Y-60928571D01*
X129785714Y-61023809D01*
X129785714Y-61214285D01*
X129833333Y-61309523D01*
X129928571Y-61357142D01*
X130023809Y-61357142D01*
X130119047Y-60880952D01*
X130452380Y-61785714D02*
X129785714Y-61785714D01*
X129880952Y-61785714D02*
X129833333Y-61833333D01*
X129785714Y-61928571D01*
X129785714Y-62071428D01*
X129833333Y-62166666D01*
X129928571Y-62214285D01*
X130452380Y-62214285D01*
X129928571Y-62214285D02*
X129833333Y-62261904D01*
X129785714Y-62357142D01*
X129785714Y-62500000D01*
X129833333Y-62595238D01*
X129928571Y-62642857D01*
X130452380Y-62642857D01*
X130452380Y-63547619D02*
X129928571Y-63547619D01*
X129833333Y-63500000D01*
X129785714Y-63404761D01*
X129785714Y-63214285D01*
X129833333Y-63119047D01*
X130404761Y-63547619D02*
X130452380Y-63452380D01*
X130452380Y-63214285D01*
X130404761Y-63119047D01*
X130309523Y-63071428D01*
X130214285Y-63071428D01*
X130119047Y-63119047D01*
X130071428Y-63214285D01*
X130071428Y-63452380D01*
X130023809Y-63547619D01*
X130452380Y-64166666D02*
X130404761Y-64071428D01*
X130309523Y-64023809D01*
X129452380Y-64023809D01*
X130404761Y-64928571D02*
X130452380Y-64833333D01*
X130452380Y-64642857D01*
X130404761Y-64547619D01*
X130309523Y-64500000D01*
X129928571Y-64500000D01*
X129833333Y-64547619D01*
X129785714Y-64642857D01*
X129785714Y-64833333D01*
X129833333Y-64928571D01*
X129928571Y-64976190D01*
X130023809Y-64976190D01*
X130119047Y-64500000D01*
X149190476Y-131452380D02*
X149000000Y-131452380D01*
X148904761Y-131404761D01*
X148857142Y-131357142D01*
X148761904Y-131214285D01*
X148714285Y-131023809D01*
X148714285Y-130642857D01*
X148761904Y-130547619D01*
X148809523Y-130500000D01*
X148904761Y-130452380D01*
X149095238Y-130452380D01*
X149190476Y-130500000D01*
X149238095Y-130547619D01*
X149285714Y-130642857D01*
X149285714Y-130880952D01*
X149238095Y-130976190D01*
X149190476Y-131023809D01*
X149095238Y-131071428D01*
X148904761Y-131071428D01*
X148809523Y-131023809D01*
X148761904Y-130976190D01*
X148714285Y-130880952D01*
X100809523Y-68452380D02*
X101000000Y-68452380D01*
X101095238Y-68500000D01*
X101142857Y-68547619D01*
X101238095Y-68690476D01*
X101285714Y-68880952D01*
X101285714Y-69261904D01*
X101238095Y-69357142D01*
X101190476Y-69404761D01*
X101095238Y-69452380D01*
X100904761Y-69452380D01*
X100809523Y-69404761D01*
X100761904Y-69357142D01*
X100714285Y-69261904D01*
X100714285Y-69023809D01*
X100761904Y-68928571D01*
X100809523Y-68880952D01*
X100904761Y-68833333D01*
X101095238Y-68833333D01*
X101190476Y-68880952D01*
X101238095Y-68928571D01*
X101285714Y-69023809D01*
X124190476Y-56452380D02*
X124000000Y-56452380D01*
X123904761Y-56404761D01*
X123857142Y-56357142D01*
X123761904Y-56214285D01*
X123714285Y-56023809D01*
X123714285Y-55642857D01*
X123761904Y-55547619D01*
X123809523Y-55500000D01*
X123904761Y-55452380D01*
X124095238Y-55452380D01*
X124190476Y-55500000D01*
X124238095Y-55547619D01*
X124285714Y-55642857D01*
X124285714Y-55880952D01*
X124238095Y-55976190D01*
X124190476Y-56023809D01*
X124095238Y-56071428D01*
X123904761Y-56071428D01*
X123809523Y-56023809D01*
X123761904Y-55976190D01*
X123714285Y-55880952D01*
X104928571Y-60404761D02*
X104928571Y-60071428D01*
X105452380Y-60071428D02*
X104452380Y-60071428D01*
X104452380Y-60547619D01*
X105404761Y-61309523D02*
X105452380Y-61214285D01*
X105452380Y-61023809D01*
X105404761Y-60928571D01*
X105309523Y-60880952D01*
X104928571Y-60880952D01*
X104833333Y-60928571D01*
X104785714Y-61023809D01*
X104785714Y-61214285D01*
X104833333Y-61309523D01*
X104928571Y-61357142D01*
X105023809Y-61357142D01*
X105119047Y-60880952D01*
X105452380Y-61785714D02*
X104785714Y-61785714D01*
X104880952Y-61785714D02*
X104833333Y-61833333D01*
X104785714Y-61928571D01*
X104785714Y-62071428D01*
X104833333Y-62166666D01*
X104928571Y-62214285D01*
X105452380Y-62214285D01*
X104928571Y-62214285D02*
X104833333Y-62261904D01*
X104785714Y-62357142D01*
X104785714Y-62500000D01*
X104833333Y-62595238D01*
X104928571Y-62642857D01*
X105452380Y-62642857D01*
X105452380Y-63547619D02*
X104928571Y-63547619D01*
X104833333Y-63500000D01*
X104785714Y-63404761D01*
X104785714Y-63214285D01*
X104833333Y-63119047D01*
X105404761Y-63547619D02*
X105452380Y-63452380D01*
X105452380Y-63214285D01*
X105404761Y-63119047D01*
X105309523Y-63071428D01*
X105214285Y-63071428D01*
X105119047Y-63119047D01*
X105071428Y-63214285D01*
X105071428Y-63452380D01*
X105023809Y-63547619D01*
X105452380Y-64166666D02*
X105404761Y-64071428D01*
X105309523Y-64023809D01*
X104452380Y-64023809D01*
X105404761Y-64928571D02*
X105452380Y-64833333D01*
X105452380Y-64642857D01*
X105404761Y-64547619D01*
X105309523Y-64500000D01*
X104928571Y-64500000D01*
X104833333Y-64547619D01*
X104785714Y-64642857D01*
X104785714Y-64833333D01*
X104833333Y-64928571D01*
X104928571Y-64976190D01*
X105023809Y-64976190D01*
X105119047Y-64500000D01*
X123809523Y-68452380D02*
X124000000Y-68452380D01*
X124095238Y-68500000D01*
X124142857Y-68547619D01*
X124238095Y-68690476D01*
X124285714Y-68880952D01*
X124285714Y-69261904D01*
X124238095Y-69357142D01*
X124190476Y-69404761D01*
X124095238Y-69452380D01*
X123904761Y-69452380D01*
X123809523Y-69404761D01*
X123761904Y-69357142D01*
X123714285Y-69261904D01*
X123714285Y-69023809D01*
X123761904Y-68928571D01*
X123809523Y-68880952D01*
X123904761Y-68833333D01*
X124095238Y-68833333D01*
X124190476Y-68880952D01*
X124238095Y-68928571D01*
X124285714Y-69023809D01*
X101190476Y-56452380D02*
X101000000Y-56452380D01*
X100904761Y-56404761D01*
X100857142Y-56357142D01*
X100761904Y-56214285D01*
X100714285Y-56023809D01*
X100714285Y-55642857D01*
X100761904Y-55547619D01*
X100809523Y-55500000D01*
X100904761Y-55452380D01*
X101095238Y-55452380D01*
X101190476Y-55500000D01*
X101238095Y-55547619D01*
X101285714Y-55642857D01*
X101285714Y-55880952D01*
X101238095Y-55976190D01*
X101190476Y-56023809D01*
X101095238Y-56071428D01*
X100904761Y-56071428D01*
X100809523Y-56023809D01*
X100761904Y-55976190D01*
X100714285Y-55880952D01*
X119547619Y-63976190D02*
X120547619Y-63976190D01*
X119833333Y-63642857D01*
X120547619Y-63309523D01*
X119547619Y-63309523D01*
X119547619Y-62404761D02*
X120071428Y-62404761D01*
X120166666Y-62452380D01*
X120214285Y-62547619D01*
X120214285Y-62738095D01*
X120166666Y-62833333D01*
X119595238Y-62404761D02*
X119547619Y-62500000D01*
X119547619Y-62738095D01*
X119595238Y-62833333D01*
X119690476Y-62880952D01*
X119785714Y-62880952D01*
X119880952Y-62833333D01*
X119928571Y-62738095D01*
X119928571Y-62500000D01*
X119976190Y-62404761D01*
X119547619Y-61785714D02*
X119595238Y-61880952D01*
X119690476Y-61928571D01*
X120547619Y-61928571D01*
X119595238Y-61023809D02*
X119547619Y-61119047D01*
X119547619Y-61309523D01*
X119595238Y-61404761D01*
X119690476Y-61452380D01*
X120071428Y-61452380D01*
X120166666Y-61404761D01*
X120214285Y-61309523D01*
X120214285Y-61119047D01*
X120166666Y-61023809D01*
X120071428Y-60976190D01*
X119976190Y-60976190D01*
X119880952Y-61452380D01*
X149190476Y-106452380D02*
X149000000Y-106452380D01*
X148904761Y-106404761D01*
X148857142Y-106357142D01*
X148761904Y-106214285D01*
X148714285Y-106023809D01*
X148714285Y-105642857D01*
X148761904Y-105547619D01*
X148809523Y-105500000D01*
X148904761Y-105452380D01*
X149095238Y-105452380D01*
X149190476Y-105500000D01*
X149238095Y-105547619D01*
X149285714Y-105642857D01*
X149285714Y-105880952D01*
X149238095Y-105976190D01*
X149190476Y-106023809D01*
X149095238Y-106071428D01*
X148904761Y-106071428D01*
X148809523Y-106023809D01*
X148761904Y-105976190D01*
X148714285Y-105880952D01*
X144547619Y-113976190D02*
X145547619Y-113976190D01*
X144833333Y-113642857D01*
X145547619Y-113309523D01*
X144547619Y-113309523D01*
X144547619Y-112404761D02*
X145071428Y-112404761D01*
X145166666Y-112452380D01*
X145214285Y-112547619D01*
X145214285Y-112738095D01*
X145166666Y-112833333D01*
X144595238Y-112404761D02*
X144547619Y-112500000D01*
X144547619Y-112738095D01*
X144595238Y-112833333D01*
X144690476Y-112880952D01*
X144785714Y-112880952D01*
X144880952Y-112833333D01*
X144928571Y-112738095D01*
X144928571Y-112500000D01*
X144976190Y-112404761D01*
X144547619Y-111785714D02*
X144595238Y-111880952D01*
X144690476Y-111928571D01*
X145547619Y-111928571D01*
X144595238Y-111023809D02*
X144547619Y-111119047D01*
X144547619Y-111309523D01*
X144595238Y-111404761D01*
X144690476Y-111452380D01*
X145071428Y-111452380D01*
X145166666Y-111404761D01*
X145214285Y-111309523D01*
X145214285Y-111119047D01*
X145166666Y-111023809D01*
X145071428Y-110976190D01*
X144976190Y-110976190D01*
X144880952Y-111452380D01*
X126190476Y-106452380D02*
X126000000Y-106452380D01*
X125904761Y-106404761D01*
X125857142Y-106357142D01*
X125761904Y-106214285D01*
X125714285Y-106023809D01*
X125714285Y-105642857D01*
X125761904Y-105547619D01*
X125809523Y-105500000D01*
X125904761Y-105452380D01*
X126095238Y-105452380D01*
X126190476Y-105500000D01*
X126238095Y-105547619D01*
X126285714Y-105642857D01*
X126285714Y-105880952D01*
X126238095Y-105976190D01*
X126190476Y-106023809D01*
X126095238Y-106071428D01*
X125904761Y-106071428D01*
X125809523Y-106023809D01*
X125761904Y-105976190D01*
X125714285Y-105880952D01*
X144547619Y-88976190D02*
X145547619Y-88976190D01*
X144833333Y-88642857D01*
X145547619Y-88309523D01*
X144547619Y-88309523D01*
X144547619Y-87404761D02*
X145071428Y-87404761D01*
X145166666Y-87452380D01*
X145214285Y-87547619D01*
X145214285Y-87738095D01*
X145166666Y-87833333D01*
X144595238Y-87404761D02*
X144547619Y-87500000D01*
X144547619Y-87738095D01*
X144595238Y-87833333D01*
X144690476Y-87880952D01*
X144785714Y-87880952D01*
X144880952Y-87833333D01*
X144928571Y-87738095D01*
X144928571Y-87500000D01*
X144976190Y-87404761D01*
X144547619Y-86785714D02*
X144595238Y-86880952D01*
X144690476Y-86928571D01*
X145547619Y-86928571D01*
X144595238Y-86023809D02*
X144547619Y-86119047D01*
X144547619Y-86309523D01*
X144595238Y-86404761D01*
X144690476Y-86452380D01*
X145071428Y-86452380D01*
X145166666Y-86404761D01*
X145214285Y-86309523D01*
X145214285Y-86119047D01*
X145166666Y-86023809D01*
X145071428Y-85976190D01*
X144976190Y-85976190D01*
X144880952Y-86452380D01*
X129928571Y-85404761D02*
X129928571Y-85071428D01*
X130452380Y-85071428D02*
X129452380Y-85071428D01*
X129452380Y-85547619D01*
X130404761Y-86309523D02*
X130452380Y-86214285D01*
X130452380Y-86023809D01*
X130404761Y-85928571D01*
X130309523Y-85880952D01*
X129928571Y-85880952D01*
X129833333Y-85928571D01*
X129785714Y-86023809D01*
X129785714Y-86214285D01*
X129833333Y-86309523D01*
X129928571Y-86357142D01*
X130023809Y-86357142D01*
X130119047Y-85880952D01*
X130452380Y-86785714D02*
X129785714Y-86785714D01*
X129880952Y-86785714D02*
X129833333Y-86833333D01*
X129785714Y-86928571D01*
X129785714Y-87071428D01*
X129833333Y-87166666D01*
X129928571Y-87214285D01*
X130452380Y-87214285D01*
X129928571Y-87214285D02*
X129833333Y-87261904D01*
X129785714Y-87357142D01*
X129785714Y-87500000D01*
X129833333Y-87595238D01*
X129928571Y-87642857D01*
X130452380Y-87642857D01*
X130452380Y-88547619D02*
X129928571Y-88547619D01*
X129833333Y-88500000D01*
X129785714Y-88404761D01*
X129785714Y-88214285D01*
X129833333Y-88119047D01*
X130404761Y-88547619D02*
X130452380Y-88452380D01*
X130452380Y-88214285D01*
X130404761Y-88119047D01*
X130309523Y-88071428D01*
X130214285Y-88071428D01*
X130119047Y-88119047D01*
X130071428Y-88214285D01*
X130071428Y-88452380D01*
X130023809Y-88547619D01*
X130452380Y-89166666D02*
X130404761Y-89071428D01*
X130309523Y-89023809D01*
X129452380Y-89023809D01*
X130404761Y-89928571D02*
X130452380Y-89833333D01*
X130452380Y-89642857D01*
X130404761Y-89547619D01*
X130309523Y-89500000D01*
X129928571Y-89500000D01*
X129833333Y-89547619D01*
X129785714Y-89642857D01*
X129785714Y-89833333D01*
X129833333Y-89928571D01*
X129928571Y-89976190D01*
X130023809Y-89976190D01*
X130119047Y-89500000D01*
X149190476Y-81452380D02*
X149000000Y-81452380D01*
X148904761Y-81404761D01*
X148857142Y-81357142D01*
X148761904Y-81214285D01*
X148714285Y-81023809D01*
X148714285Y-80642857D01*
X148761904Y-80547619D01*
X148809523Y-80500000D01*
X148904761Y-80452380D01*
X149095238Y-80452380D01*
X149190476Y-80500000D01*
X149238095Y-80547619D01*
X149285714Y-80642857D01*
X149285714Y-80880952D01*
X149238095Y-80976190D01*
X149190476Y-81023809D01*
X149095238Y-81071428D01*
X148904761Y-81071428D01*
X148809523Y-81023809D01*
X148761904Y-80976190D01*
X148714285Y-80880952D01*
X148809523Y-93452380D02*
X149000000Y-93452380D01*
X149095238Y-93500000D01*
X149142857Y-93547619D01*
X149238095Y-93690476D01*
X149285714Y-93880952D01*
X149285714Y-94261904D01*
X149238095Y-94357142D01*
X149190476Y-94404761D01*
X149095238Y-94452380D01*
X148904761Y-94452380D01*
X148809523Y-94404761D01*
X148761904Y-94357142D01*
X148714285Y-94261904D01*
X148714285Y-94023809D01*
X148761904Y-93928571D01*
X148809523Y-93880952D01*
X148904761Y-93833333D01*
X149095238Y-93833333D01*
X149190476Y-93880952D01*
X149238095Y-93928571D01*
X149285714Y-94023809D01*
X148809523Y-118452380D02*
X149000000Y-118452380D01*
X149095238Y-118500000D01*
X149142857Y-118547619D01*
X149238095Y-118690476D01*
X149285714Y-118880952D01*
X149285714Y-119261904D01*
X149238095Y-119357142D01*
X149190476Y-119404761D01*
X149095238Y-119452380D01*
X148904761Y-119452380D01*
X148809523Y-119404761D01*
X148761904Y-119357142D01*
X148714285Y-119261904D01*
X148714285Y-119023809D01*
X148761904Y-118928571D01*
X148809523Y-118880952D01*
X148904761Y-118833333D01*
X149095238Y-118833333D01*
X149190476Y-118880952D01*
X149238095Y-118928571D01*
X149285714Y-119023809D01*
X126190476Y-81452380D02*
X126000000Y-81452380D01*
X125904761Y-81404761D01*
X125857142Y-81357142D01*
X125761904Y-81214285D01*
X125714285Y-81023809D01*
X125714285Y-80642857D01*
X125761904Y-80547619D01*
X125809523Y-80500000D01*
X125904761Y-80452380D01*
X126095238Y-80452380D01*
X126190476Y-80500000D01*
X126238095Y-80547619D01*
X126285714Y-80642857D01*
X126285714Y-80880952D01*
X126238095Y-80976190D01*
X126190476Y-81023809D01*
X126095238Y-81071428D01*
X125904761Y-81071428D01*
X125809523Y-81023809D01*
X125761904Y-80976190D01*
X125714285Y-80880952D01*
X129928571Y-110404761D02*
X129928571Y-110071428D01*
X130452380Y-110071428D02*
X129452380Y-110071428D01*
X129452380Y-110547619D01*
X130404761Y-111309523D02*
X130452380Y-111214285D01*
X130452380Y-111023809D01*
X130404761Y-110928571D01*
X130309523Y-110880952D01*
X129928571Y-110880952D01*
X129833333Y-110928571D01*
X129785714Y-111023809D01*
X129785714Y-111214285D01*
X129833333Y-111309523D01*
X129928571Y-111357142D01*
X130023809Y-111357142D01*
X130119047Y-110880952D01*
X130452380Y-111785714D02*
X129785714Y-111785714D01*
X129880952Y-111785714D02*
X129833333Y-111833333D01*
X129785714Y-111928571D01*
X129785714Y-112071428D01*
X129833333Y-112166666D01*
X129928571Y-112214285D01*
X130452380Y-112214285D01*
X129928571Y-112214285D02*
X129833333Y-112261904D01*
X129785714Y-112357142D01*
X129785714Y-112500000D01*
X129833333Y-112595238D01*
X129928571Y-112642857D01*
X130452380Y-112642857D01*
X130452380Y-113547619D02*
X129928571Y-113547619D01*
X129833333Y-113500000D01*
X129785714Y-113404761D01*
X129785714Y-113214285D01*
X129833333Y-113119047D01*
X130404761Y-113547619D02*
X130452380Y-113452380D01*
X130452380Y-113214285D01*
X130404761Y-113119047D01*
X130309523Y-113071428D01*
X130214285Y-113071428D01*
X130119047Y-113119047D01*
X130071428Y-113214285D01*
X130071428Y-113452380D01*
X130023809Y-113547619D01*
X130452380Y-114166666D02*
X130404761Y-114071428D01*
X130309523Y-114023809D01*
X129452380Y-114023809D01*
X130404761Y-114928571D02*
X130452380Y-114833333D01*
X130452380Y-114642857D01*
X130404761Y-114547619D01*
X130309523Y-114500000D01*
X129928571Y-114500000D01*
X129833333Y-114547619D01*
X129785714Y-114642857D01*
X129785714Y-114833333D01*
X129833333Y-114928571D01*
X129928571Y-114976190D01*
X130023809Y-114976190D01*
X130119047Y-114500000D01*
X125809523Y-93452380D02*
X126000000Y-93452380D01*
X126095238Y-93500000D01*
X126142857Y-93547619D01*
X126238095Y-93690476D01*
X126285714Y-93880952D01*
X126285714Y-94261904D01*
X126238095Y-94357142D01*
X126190476Y-94404761D01*
X126095238Y-94452380D01*
X125904761Y-94452380D01*
X125809523Y-94404761D01*
X125761904Y-94357142D01*
X125714285Y-94261904D01*
X125714285Y-94023809D01*
X125761904Y-93928571D01*
X125809523Y-93880952D01*
X125904761Y-93833333D01*
X126095238Y-93833333D01*
X126190476Y-93880952D01*
X126238095Y-93928571D01*
X126285714Y-94023809D01*
X119547619Y-138976190D02*
X120547619Y-138976190D01*
X119833333Y-138642857D01*
X120547619Y-138309523D01*
X119547619Y-138309523D01*
X119547619Y-137404761D02*
X120071428Y-137404761D01*
X120166666Y-137452380D01*
X120214285Y-137547619D01*
X120214285Y-137738095D01*
X120166666Y-137833333D01*
X119595238Y-137404761D02*
X119547619Y-137500000D01*
X119547619Y-137738095D01*
X119595238Y-137833333D01*
X119690476Y-137880952D01*
X119785714Y-137880952D01*
X119880952Y-137833333D01*
X119928571Y-137738095D01*
X119928571Y-137500000D01*
X119976190Y-137404761D01*
X119547619Y-136785714D02*
X119595238Y-136880952D01*
X119690476Y-136928571D01*
X120547619Y-136928571D01*
X119595238Y-136023809D02*
X119547619Y-136119047D01*
X119547619Y-136309523D01*
X119595238Y-136404761D01*
X119690476Y-136452380D01*
X120071428Y-136452380D01*
X120166666Y-136404761D01*
X120214285Y-136309523D01*
X120214285Y-136119047D01*
X120166666Y-136023809D01*
X120071428Y-135976190D01*
X119976190Y-135976190D01*
X119880952Y-136452380D01*
X124190476Y-131452380D02*
X124000000Y-131452380D01*
X123904761Y-131404761D01*
X123857142Y-131357142D01*
X123761904Y-131214285D01*
X123714285Y-131023809D01*
X123714285Y-130642857D01*
X123761904Y-130547619D01*
X123809523Y-130500000D01*
X123904761Y-130452380D01*
X124095238Y-130452380D01*
X124190476Y-130500000D01*
X124238095Y-130547619D01*
X124285714Y-130642857D01*
X124285714Y-130880952D01*
X124238095Y-130976190D01*
X124190476Y-131023809D01*
X124095238Y-131071428D01*
X123904761Y-131071428D01*
X123809523Y-131023809D01*
X123761904Y-130976190D01*
X123714285Y-130880952D01*
X123809523Y-143452380D02*
X124000000Y-143452380D01*
X124095238Y-143500000D01*
X124142857Y-143547619D01*
X124238095Y-143690476D01*
X124285714Y-143880952D01*
X124285714Y-144261904D01*
X124238095Y-144357142D01*
X124190476Y-144404761D01*
X124095238Y-144452380D01*
X123904761Y-144452380D01*
X123809523Y-144404761D01*
X123761904Y-144357142D01*
X123714285Y-144261904D01*
X123714285Y-144023809D01*
X123761904Y-143928571D01*
X123809523Y-143880952D01*
X123904761Y-143833333D01*
X124095238Y-143833333D01*
X124190476Y-143880952D01*
X124238095Y-143928571D01*
X124285714Y-144023809D01*
X104928571Y-135404761D02*
X104928571Y-135071428D01*
X105452380Y-135071428D02*
X104452380Y-135071428D01*
X104452380Y-135547619D01*
X105404761Y-136309523D02*
X105452380Y-136214285D01*
X105452380Y-136023809D01*
X105404761Y-135928571D01*
X105309523Y-135880952D01*
X104928571Y-135880952D01*
X104833333Y-135928571D01*
X104785714Y-136023809D01*
X104785714Y-136214285D01*
X104833333Y-136309523D01*
X104928571Y-136357142D01*
X105023809Y-136357142D01*
X105119047Y-135880952D01*
X105452380Y-136785714D02*
X104785714Y-136785714D01*
X104880952Y-136785714D02*
X104833333Y-136833333D01*
X104785714Y-136928571D01*
X104785714Y-137071428D01*
X104833333Y-137166666D01*
X104928571Y-137214285D01*
X105452380Y-137214285D01*
X104928571Y-137214285D02*
X104833333Y-137261904D01*
X104785714Y-137357142D01*
X104785714Y-137500000D01*
X104833333Y-137595238D01*
X104928571Y-137642857D01*
X105452380Y-137642857D01*
X105452380Y-138547619D02*
X104928571Y-138547619D01*
X104833333Y-138500000D01*
X104785714Y-138404761D01*
X104785714Y-138214285D01*
X104833333Y-138119047D01*
X105404761Y-138547619D02*
X105452380Y-138452380D01*
X105452380Y-138214285D01*
X105404761Y-138119047D01*
X105309523Y-138071428D01*
X105214285Y-138071428D01*
X105119047Y-138119047D01*
X105071428Y-138214285D01*
X105071428Y-138452380D01*
X105023809Y-138547619D01*
X105452380Y-139166666D02*
X105404761Y-139071428D01*
X105309523Y-139023809D01*
X104452380Y-139023809D01*
X105404761Y-139928571D02*
X105452380Y-139833333D01*
X105452380Y-139642857D01*
X105404761Y-139547619D01*
X105309523Y-139500000D01*
X104928571Y-139500000D01*
X104833333Y-139547619D01*
X104785714Y-139642857D01*
X104785714Y-139833333D01*
X104833333Y-139928571D01*
X104928571Y-139976190D01*
X105023809Y-139976190D01*
X105119047Y-139500000D01*
X100809523Y-143452380D02*
X101000000Y-143452380D01*
X101095238Y-143500000D01*
X101142857Y-143547619D01*
X101238095Y-143690476D01*
X101285714Y-143880952D01*
X101285714Y-144261904D01*
X101238095Y-144357142D01*
X101190476Y-144404761D01*
X101095238Y-144452380D01*
X100904761Y-144452380D01*
X100809523Y-144404761D01*
X100761904Y-144357142D01*
X100714285Y-144261904D01*
X100714285Y-144023809D01*
X100761904Y-143928571D01*
X100809523Y-143880952D01*
X100904761Y-143833333D01*
X101095238Y-143833333D01*
X101190476Y-143880952D01*
X101238095Y-143928571D01*
X101285714Y-144023809D01*
X101190476Y-131452380D02*
X101000000Y-131452380D01*
X100904761Y-131404761D01*
X100857142Y-131357142D01*
X100761904Y-131214285D01*
X100714285Y-131023809D01*
X100714285Y-130642857D01*
X100761904Y-130547619D01*
X100809523Y-130500000D01*
X100904761Y-130452380D01*
X101095238Y-130452380D01*
X101190476Y-130500000D01*
X101238095Y-130547619D01*
X101285714Y-130642857D01*
X101285714Y-130880952D01*
X101238095Y-130976190D01*
X101190476Y-131023809D01*
X101095238Y-131071428D01*
X100904761Y-131071428D01*
X100809523Y-131023809D01*
X100761904Y-130976190D01*
X100714285Y-130880952D01*
X100809523Y-118452380D02*
X101000000Y-118452380D01*
X101095238Y-118500000D01*
X101142857Y-118547619D01*
X101238095Y-118690476D01*
X101285714Y-118880952D01*
X101285714Y-119261904D01*
X101238095Y-119357142D01*
X101190476Y-119404761D01*
X101095238Y-119452380D01*
X100904761Y-119452380D01*
X100809523Y-119404761D01*
X100761904Y-119357142D01*
X100714285Y-119261904D01*
X100714285Y-119023809D01*
X100761904Y-118928571D01*
X100809523Y-118880952D01*
X100904761Y-118833333D01*
X101095238Y-118833333D01*
X101190476Y-118880952D01*
X101238095Y-118928571D01*
X101285714Y-119023809D01*
X104928571Y-110404761D02*
X104928571Y-110071428D01*
X105452380Y-110071428D02*
X104452380Y-110071428D01*
X104452380Y-110547619D01*
X105404761Y-111309523D02*
X105452380Y-111214285D01*
X105452380Y-111023809D01*
X105404761Y-110928571D01*
X105309523Y-110880952D01*
X104928571Y-110880952D01*
X104833333Y-110928571D01*
X104785714Y-111023809D01*
X104785714Y-111214285D01*
X104833333Y-111309523D01*
X104928571Y-111357142D01*
X105023809Y-111357142D01*
X105119047Y-110880952D01*
X105452380Y-111785714D02*
X104785714Y-111785714D01*
X104880952Y-111785714D02*
X104833333Y-111833333D01*
X104785714Y-111928571D01*
X104785714Y-112071428D01*
X104833333Y-112166666D01*
X104928571Y-112214285D01*
X105452380Y-112214285D01*
X104928571Y-112214285D02*
X104833333Y-112261904D01*
X104785714Y-112357142D01*
X104785714Y-112500000D01*
X104833333Y-112595238D01*
X104928571Y-112642857D01*
X105452380Y-112642857D01*
X105452380Y-113547619D02*
X104928571Y-113547619D01*
X104833333Y-113500000D01*
X104785714Y-113404761D01*
X104785714Y-113214285D01*
X104833333Y-113119047D01*
X105404761Y-113547619D02*
X105452380Y-113452380D01*
X105452380Y-113214285D01*
X105404761Y-113119047D01*
X105309523Y-113071428D01*
X105214285Y-113071428D01*
X105119047Y-113119047D01*
X105071428Y-113214285D01*
X105071428Y-113452380D01*
X105023809Y-113547619D01*
X105452380Y-114166666D02*
X105404761Y-114071428D01*
X105309523Y-114023809D01*
X104452380Y-114023809D01*
X105404761Y-114928571D02*
X105452380Y-114833333D01*
X105452380Y-114642857D01*
X105404761Y-114547619D01*
X105309523Y-114500000D01*
X104928571Y-114500000D01*
X104833333Y-114547619D01*
X104785714Y-114642857D01*
X104785714Y-114833333D01*
X104833333Y-114928571D01*
X104928571Y-114976190D01*
X105023809Y-114976190D01*
X105119047Y-114500000D01*
X124190476Y-106452380D02*
X124000000Y-106452380D01*
X123904761Y-106404761D01*
X123857142Y-106357142D01*
X123761904Y-106214285D01*
X123714285Y-106023809D01*
X123714285Y-105642857D01*
X123761904Y-105547619D01*
X123809523Y-105500000D01*
X123904761Y-105452380D01*
X124095238Y-105452380D01*
X124190476Y-105500000D01*
X124238095Y-105547619D01*
X124285714Y-105642857D01*
X124285714Y-105880952D01*
X124238095Y-105976190D01*
X124190476Y-106023809D01*
X124095238Y-106071428D01*
X123904761Y-106071428D01*
X123809523Y-106023809D01*
X123761904Y-105976190D01*
X123714285Y-105880952D01*
X123809523Y-118452380D02*
X124000000Y-118452380D01*
X124095238Y-118500000D01*
X124142857Y-118547619D01*
X124238095Y-118690476D01*
X124285714Y-118880952D01*
X124285714Y-119261904D01*
X124238095Y-119357142D01*
X124190476Y-119404761D01*
X124095238Y-119452380D01*
X123904761Y-119452380D01*
X123809523Y-119404761D01*
X123761904Y-119357142D01*
X123714285Y-119261904D01*
X123714285Y-119023809D01*
X123761904Y-118928571D01*
X123809523Y-118880952D01*
X123904761Y-118833333D01*
X124095238Y-118833333D01*
X124190476Y-118880952D01*
X124238095Y-118928571D01*
X124285714Y-119023809D01*
X119547619Y-113976190D02*
X120547619Y-113976190D01*
X119833333Y-113642857D01*
X120547619Y-113309523D01*
X119547619Y-113309523D01*
X119547619Y-112404761D02*
X120071428Y-112404761D01*
X120166666Y-112452380D01*
X120214285Y-112547619D01*
X120214285Y-112738095D01*
X120166666Y-112833333D01*
X119595238Y-112404761D02*
X119547619Y-112500000D01*
X119547619Y-112738095D01*
X119595238Y-112833333D01*
X119690476Y-112880952D01*
X119785714Y-112880952D01*
X119880952Y-112833333D01*
X119928571Y-112738095D01*
X119928571Y-112500000D01*
X119976190Y-112404761D01*
X119547619Y-111785714D02*
X119595238Y-111880952D01*
X119690476Y-111928571D01*
X120547619Y-111928571D01*
X119595238Y-111023809D02*
X119547619Y-111119047D01*
X119547619Y-111309523D01*
X119595238Y-111404761D01*
X119690476Y-111452380D01*
X120071428Y-111452380D01*
X120166666Y-111404761D01*
X120214285Y-111309523D01*
X120214285Y-111119047D01*
X120166666Y-111023809D01*
X120071428Y-110976190D01*
X119976190Y-110976190D01*
X119880952Y-111452380D01*
X101190476Y-106452380D02*
X101000000Y-106452380D01*
X100904761Y-106404761D01*
X100857142Y-106357142D01*
X100761904Y-106214285D01*
X100714285Y-106023809D01*
X100714285Y-105642857D01*
X100761904Y-105547619D01*
X100809523Y-105500000D01*
X100904761Y-105452380D01*
X101095238Y-105452380D01*
X101190476Y-105500000D01*
X101238095Y-105547619D01*
X101285714Y-105642857D01*
X101285714Y-105880952D01*
X101238095Y-105976190D01*
X101190476Y-106023809D01*
X101095238Y-106071428D01*
X100904761Y-106071428D01*
X100809523Y-106023809D01*
X100761904Y-105976190D01*
X100714285Y-105880952D01*
X104928571Y-85404761D02*
X104928571Y-85071428D01*
X105452380Y-85071428D02*
X104452380Y-85071428D01*
X104452380Y-85547619D01*
X105404761Y-86309523D02*
X105452380Y-86214285D01*
X105452380Y-86023809D01*
X105404761Y-85928571D01*
X105309523Y-85880952D01*
X104928571Y-85880952D01*
X104833333Y-85928571D01*
X104785714Y-86023809D01*
X104785714Y-86214285D01*
X104833333Y-86309523D01*
X104928571Y-86357142D01*
X105023809Y-86357142D01*
X105119047Y-85880952D01*
X105452380Y-86785714D02*
X104785714Y-86785714D01*
X104880952Y-86785714D02*
X104833333Y-86833333D01*
X104785714Y-86928571D01*
X104785714Y-87071428D01*
X104833333Y-87166666D01*
X104928571Y-87214285D01*
X105452380Y-87214285D01*
X104928571Y-87214285D02*
X104833333Y-87261904D01*
X104785714Y-87357142D01*
X104785714Y-87500000D01*
X104833333Y-87595238D01*
X104928571Y-87642857D01*
X105452380Y-87642857D01*
X105452380Y-88547619D02*
X104928571Y-88547619D01*
X104833333Y-88500000D01*
X104785714Y-88404761D01*
X104785714Y-88214285D01*
X104833333Y-88119047D01*
X105404761Y-88547619D02*
X105452380Y-88452380D01*
X105452380Y-88214285D01*
X105404761Y-88119047D01*
X105309523Y-88071428D01*
X105214285Y-88071428D01*
X105119047Y-88119047D01*
X105071428Y-88214285D01*
X105071428Y-88452380D01*
X105023809Y-88547619D01*
X105452380Y-89166666D02*
X105404761Y-89071428D01*
X105309523Y-89023809D01*
X104452380Y-89023809D01*
X105404761Y-89928571D02*
X105452380Y-89833333D01*
X105452380Y-89642857D01*
X105404761Y-89547619D01*
X105309523Y-89500000D01*
X104928571Y-89500000D01*
X104833333Y-89547619D01*
X104785714Y-89642857D01*
X104785714Y-89833333D01*
X104833333Y-89928571D01*
X104928571Y-89976190D01*
X105023809Y-89976190D01*
X105119047Y-89500000D01*
X119547619Y-88976190D02*
X120547619Y-88976190D01*
X119833333Y-88642857D01*
X120547619Y-88309523D01*
X119547619Y-88309523D01*
X119547619Y-87404761D02*
X120071428Y-87404761D01*
X120166666Y-87452380D01*
X120214285Y-87547619D01*
X120214285Y-87738095D01*
X120166666Y-87833333D01*
X119595238Y-87404761D02*
X119547619Y-87500000D01*
X119547619Y-87738095D01*
X119595238Y-87833333D01*
X119690476Y-87880952D01*
X119785714Y-87880952D01*
X119880952Y-87833333D01*
X119928571Y-87738095D01*
X119928571Y-87500000D01*
X119976190Y-87404761D01*
X119547619Y-86785714D02*
X119595238Y-86880952D01*
X119690476Y-86928571D01*
X120547619Y-86928571D01*
X119595238Y-86023809D02*
X119547619Y-86119047D01*
X119547619Y-86309523D01*
X119595238Y-86404761D01*
X119690476Y-86452380D01*
X120071428Y-86452380D01*
X120166666Y-86404761D01*
X120214285Y-86309523D01*
X120214285Y-86119047D01*
X120166666Y-86023809D01*
X120071428Y-85976190D01*
X119976190Y-85976190D01*
X119880952Y-86452380D01*
X124190476Y-81452380D02*
X124000000Y-81452380D01*
X123904761Y-81404761D01*
X123857142Y-81357142D01*
X123761904Y-81214285D01*
X123714285Y-81023809D01*
X123714285Y-80642857D01*
X123761904Y-80547619D01*
X123809523Y-80500000D01*
X123904761Y-80452380D01*
X124095238Y-80452380D01*
X124190476Y-80500000D01*
X124238095Y-80547619D01*
X124285714Y-80642857D01*
X124285714Y-80880952D01*
X124238095Y-80976190D01*
X124190476Y-81023809D01*
X124095238Y-81071428D01*
X123904761Y-81071428D01*
X123809523Y-81023809D01*
X123761904Y-80976190D01*
X123714285Y-80880952D01*
X123809523Y-93452380D02*
X124000000Y-93452380D01*
X124095238Y-93500000D01*
X124142857Y-93547619D01*
X124238095Y-93690476D01*
X124285714Y-93880952D01*
X124285714Y-94261904D01*
X124238095Y-94357142D01*
X124190476Y-94404761D01*
X124095238Y-94452380D01*
X123904761Y-94452380D01*
X123809523Y-94404761D01*
X123761904Y-94357142D01*
X123714285Y-94261904D01*
X123714285Y-94023809D01*
X123761904Y-93928571D01*
X123809523Y-93880952D01*
X123904761Y-93833333D01*
X124095238Y-93833333D01*
X124190476Y-93880952D01*
X124238095Y-93928571D01*
X124285714Y-94023809D01*
X100809523Y-93452380D02*
X101000000Y-93452380D01*
X101095238Y-93500000D01*
X101142857Y-93547619D01*
X101238095Y-93690476D01*
X101285714Y-93880952D01*
X101285714Y-94261904D01*
X101238095Y-94357142D01*
X101190476Y-94404761D01*
X101095238Y-94452380D01*
X100904761Y-94452380D01*
X100809523Y-94404761D01*
X100761904Y-94357142D01*
X100714285Y-94261904D01*
X100714285Y-94023809D01*
X100761904Y-93928571D01*
X100809523Y-93880952D01*
X100904761Y-93833333D01*
X101095238Y-93833333D01*
X101190476Y-93880952D01*
X101238095Y-93928571D01*
X101285714Y-94023809D01*
X101190476Y-81452380D02*
X101000000Y-81452380D01*
X100904761Y-81404761D01*
X100857142Y-81357142D01*
X100761904Y-81214285D01*
X100714285Y-81023809D01*
X100714285Y-80642857D01*
X100761904Y-80547619D01*
X100809523Y-80500000D01*
X100904761Y-80452380D01*
X101095238Y-80452380D01*
X101190476Y-80500000D01*
X101238095Y-80547619D01*
X101285714Y-80642857D01*
X101285714Y-80880952D01*
X101238095Y-80976190D01*
X101190476Y-81023809D01*
X101095238Y-81071428D01*
X100904761Y-81071428D01*
X100809523Y-81023809D01*
X100761904Y-80976190D01*
X100714285Y-80880952D01*
X75809523Y-68452380D02*
X76000000Y-68452380D01*
X76095238Y-68500000D01*
X76142857Y-68547619D01*
X76238095Y-68690476D01*
X76285714Y-68880952D01*
X76285714Y-69261904D01*
X76238095Y-69357142D01*
X76190476Y-69404761D01*
X76095238Y-69452380D01*
X75904761Y-69452380D01*
X75809523Y-69404761D01*
X75761904Y-69357142D01*
X75714285Y-69261904D01*
X75714285Y-69023809D01*
X75761904Y-68928571D01*
X75809523Y-68880952D01*
X75904761Y-68833333D01*
X76095238Y-68833333D01*
X76190476Y-68880952D01*
X76238095Y-68928571D01*
X76285714Y-69023809D01*
X99190476Y-56452380D02*
X99000000Y-56452380D01*
X98904761Y-56404761D01*
X98857142Y-56357142D01*
X98761904Y-56214285D01*
X98714285Y-56023809D01*
X98714285Y-55642857D01*
X98761904Y-55547619D01*
X98809523Y-55500000D01*
X98904761Y-55452380D01*
X99095238Y-55452380D01*
X99190476Y-55500000D01*
X99238095Y-55547619D01*
X99285714Y-55642857D01*
X99285714Y-55880952D01*
X99238095Y-55976190D01*
X99190476Y-56023809D01*
X99095238Y-56071428D01*
X98904761Y-56071428D01*
X98809523Y-56023809D01*
X98761904Y-55976190D01*
X98714285Y-55880952D01*
X79928571Y-60404761D02*
X79928571Y-60071428D01*
X80452380Y-60071428D02*
X79452380Y-60071428D01*
X79452380Y-60547619D01*
X80404761Y-61309523D02*
X80452380Y-61214285D01*
X80452380Y-61023809D01*
X80404761Y-60928571D01*
X80309523Y-60880952D01*
X79928571Y-60880952D01*
X79833333Y-60928571D01*
X79785714Y-61023809D01*
X79785714Y-61214285D01*
X79833333Y-61309523D01*
X79928571Y-61357142D01*
X80023809Y-61357142D01*
X80119047Y-60880952D01*
X80452380Y-61785714D02*
X79785714Y-61785714D01*
X79880952Y-61785714D02*
X79833333Y-61833333D01*
X79785714Y-61928571D01*
X79785714Y-62071428D01*
X79833333Y-62166666D01*
X79928571Y-62214285D01*
X80452380Y-62214285D01*
X79928571Y-62214285D02*
X79833333Y-62261904D01*
X79785714Y-62357142D01*
X79785714Y-62500000D01*
X79833333Y-62595238D01*
X79928571Y-62642857D01*
X80452380Y-62642857D01*
X80452380Y-63547619D02*
X79928571Y-63547619D01*
X79833333Y-63500000D01*
X79785714Y-63404761D01*
X79785714Y-63214285D01*
X79833333Y-63119047D01*
X80404761Y-63547619D02*
X80452380Y-63452380D01*
X80452380Y-63214285D01*
X80404761Y-63119047D01*
X80309523Y-63071428D01*
X80214285Y-63071428D01*
X80119047Y-63119047D01*
X80071428Y-63214285D01*
X80071428Y-63452380D01*
X80023809Y-63547619D01*
X80452380Y-64166666D02*
X80404761Y-64071428D01*
X80309523Y-64023809D01*
X79452380Y-64023809D01*
X80404761Y-64928571D02*
X80452380Y-64833333D01*
X80452380Y-64642857D01*
X80404761Y-64547619D01*
X80309523Y-64500000D01*
X79928571Y-64500000D01*
X79833333Y-64547619D01*
X79785714Y-64642857D01*
X79785714Y-64833333D01*
X79833333Y-64928571D01*
X79928571Y-64976190D01*
X80023809Y-64976190D01*
X80119047Y-64500000D01*
X98809523Y-68452380D02*
X99000000Y-68452380D01*
X99095238Y-68500000D01*
X99142857Y-68547619D01*
X99238095Y-68690476D01*
X99285714Y-68880952D01*
X99285714Y-69261904D01*
X99238095Y-69357142D01*
X99190476Y-69404761D01*
X99095238Y-69452380D01*
X98904761Y-69452380D01*
X98809523Y-69404761D01*
X98761904Y-69357142D01*
X98714285Y-69261904D01*
X98714285Y-69023809D01*
X98761904Y-68928571D01*
X98809523Y-68880952D01*
X98904761Y-68833333D01*
X99095238Y-68833333D01*
X99190476Y-68880952D01*
X99238095Y-68928571D01*
X99285714Y-69023809D01*
X76190476Y-56452380D02*
X76000000Y-56452380D01*
X75904761Y-56404761D01*
X75857142Y-56357142D01*
X75761904Y-56214285D01*
X75714285Y-56023809D01*
X75714285Y-55642857D01*
X75761904Y-55547619D01*
X75809523Y-55500000D01*
X75904761Y-55452380D01*
X76095238Y-55452380D01*
X76190476Y-55500000D01*
X76238095Y-55547619D01*
X76285714Y-55642857D01*
X76285714Y-55880952D01*
X76238095Y-55976190D01*
X76190476Y-56023809D01*
X76095238Y-56071428D01*
X75904761Y-56071428D01*
X75809523Y-56023809D01*
X75761904Y-55976190D01*
X75714285Y-55880952D01*
X94547619Y-63976190D02*
X95547619Y-63976190D01*
X94833333Y-63642857D01*
X95547619Y-63309523D01*
X94547619Y-63309523D01*
X94547619Y-62404761D02*
X95071428Y-62404761D01*
X95166666Y-62452380D01*
X95214285Y-62547619D01*
X95214285Y-62738095D01*
X95166666Y-62833333D01*
X94595238Y-62404761D02*
X94547619Y-62500000D01*
X94547619Y-62738095D01*
X94595238Y-62833333D01*
X94690476Y-62880952D01*
X94785714Y-62880952D01*
X94880952Y-62833333D01*
X94928571Y-62738095D01*
X94928571Y-62500000D01*
X94976190Y-62404761D01*
X94547619Y-61785714D02*
X94595238Y-61880952D01*
X94690476Y-61928571D01*
X95547619Y-61928571D01*
X94595238Y-61023809D02*
X94547619Y-61119047D01*
X94547619Y-61309523D01*
X94595238Y-61404761D01*
X94690476Y-61452380D01*
X95071428Y-61452380D01*
X95166666Y-61404761D01*
X95214285Y-61309523D01*
X95214285Y-61119047D01*
X95166666Y-61023809D01*
X95071428Y-60976190D01*
X94976190Y-60976190D01*
X94880952Y-61452380D01*
X94547619Y-138976190D02*
X95547619Y-138976190D01*
X94833333Y-138642857D01*
X95547619Y-138309523D01*
X94547619Y-138309523D01*
X94547619Y-137404761D02*
X95071428Y-137404761D01*
X95166666Y-137452380D01*
X95214285Y-137547619D01*
X95214285Y-137738095D01*
X95166666Y-137833333D01*
X94595238Y-137404761D02*
X94547619Y-137500000D01*
X94547619Y-137738095D01*
X94595238Y-137833333D01*
X94690476Y-137880952D01*
X94785714Y-137880952D01*
X94880952Y-137833333D01*
X94928571Y-137738095D01*
X94928571Y-137500000D01*
X94976190Y-137404761D01*
X94547619Y-136785714D02*
X94595238Y-136880952D01*
X94690476Y-136928571D01*
X95547619Y-136928571D01*
X94595238Y-136023809D02*
X94547619Y-136119047D01*
X94547619Y-136309523D01*
X94595238Y-136404761D01*
X94690476Y-136452380D01*
X95071428Y-136452380D01*
X95166666Y-136404761D01*
X95214285Y-136309523D01*
X95214285Y-136119047D01*
X95166666Y-136023809D01*
X95071428Y-135976190D01*
X94976190Y-135976190D01*
X94880952Y-136452380D01*
X99190476Y-131452380D02*
X99000000Y-131452380D01*
X98904761Y-131404761D01*
X98857142Y-131357142D01*
X98761904Y-131214285D01*
X98714285Y-131023809D01*
X98714285Y-130642857D01*
X98761904Y-130547619D01*
X98809523Y-130500000D01*
X98904761Y-130452380D01*
X99095238Y-130452380D01*
X99190476Y-130500000D01*
X99238095Y-130547619D01*
X99285714Y-130642857D01*
X99285714Y-130880952D01*
X99238095Y-130976190D01*
X99190476Y-131023809D01*
X99095238Y-131071428D01*
X98904761Y-131071428D01*
X98809523Y-131023809D01*
X98761904Y-130976190D01*
X98714285Y-130880952D01*
X98809523Y-143452380D02*
X99000000Y-143452380D01*
X99095238Y-143500000D01*
X99142857Y-143547619D01*
X99238095Y-143690476D01*
X99285714Y-143880952D01*
X99285714Y-144261904D01*
X99238095Y-144357142D01*
X99190476Y-144404761D01*
X99095238Y-144452380D01*
X98904761Y-144452380D01*
X98809523Y-144404761D01*
X98761904Y-144357142D01*
X98714285Y-144261904D01*
X98714285Y-144023809D01*
X98761904Y-143928571D01*
X98809523Y-143880952D01*
X98904761Y-143833333D01*
X99095238Y-143833333D01*
X99190476Y-143880952D01*
X99238095Y-143928571D01*
X99285714Y-144023809D01*
X79928571Y-135404761D02*
X79928571Y-135071428D01*
X80452380Y-135071428D02*
X79452380Y-135071428D01*
X79452380Y-135547619D01*
X80404761Y-136309523D02*
X80452380Y-136214285D01*
X80452380Y-136023809D01*
X80404761Y-135928571D01*
X80309523Y-135880952D01*
X79928571Y-135880952D01*
X79833333Y-135928571D01*
X79785714Y-136023809D01*
X79785714Y-136214285D01*
X79833333Y-136309523D01*
X79928571Y-136357142D01*
X80023809Y-136357142D01*
X80119047Y-135880952D01*
X80452380Y-136785714D02*
X79785714Y-136785714D01*
X79880952Y-136785714D02*
X79833333Y-136833333D01*
X79785714Y-136928571D01*
X79785714Y-137071428D01*
X79833333Y-137166666D01*
X79928571Y-137214285D01*
X80452380Y-137214285D01*
X79928571Y-137214285D02*
X79833333Y-137261904D01*
X79785714Y-137357142D01*
X79785714Y-137500000D01*
X79833333Y-137595238D01*
X79928571Y-137642857D01*
X80452380Y-137642857D01*
X80452380Y-138547619D02*
X79928571Y-138547619D01*
X79833333Y-138500000D01*
X79785714Y-138404761D01*
X79785714Y-138214285D01*
X79833333Y-138119047D01*
X80404761Y-138547619D02*
X80452380Y-138452380D01*
X80452380Y-138214285D01*
X80404761Y-138119047D01*
X80309523Y-138071428D01*
X80214285Y-138071428D01*
X80119047Y-138119047D01*
X80071428Y-138214285D01*
X80071428Y-138452380D01*
X80023809Y-138547619D01*
X80452380Y-139166666D02*
X80404761Y-139071428D01*
X80309523Y-139023809D01*
X79452380Y-139023809D01*
X80404761Y-139928571D02*
X80452380Y-139833333D01*
X80452380Y-139642857D01*
X80404761Y-139547619D01*
X80309523Y-139500000D01*
X79928571Y-139500000D01*
X79833333Y-139547619D01*
X79785714Y-139642857D01*
X79785714Y-139833333D01*
X79833333Y-139928571D01*
X79928571Y-139976190D01*
X80023809Y-139976190D01*
X80119047Y-139500000D01*
X75809523Y-143452380D02*
X76000000Y-143452380D01*
X76095238Y-143500000D01*
X76142857Y-143547619D01*
X76238095Y-143690476D01*
X76285714Y-143880952D01*
X76285714Y-144261904D01*
X76238095Y-144357142D01*
X76190476Y-144404761D01*
X76095238Y-144452380D01*
X75904761Y-144452380D01*
X75809523Y-144404761D01*
X75761904Y-144357142D01*
X75714285Y-144261904D01*
X75714285Y-144023809D01*
X75761904Y-143928571D01*
X75809523Y-143880952D01*
X75904761Y-143833333D01*
X76095238Y-143833333D01*
X76190476Y-143880952D01*
X76238095Y-143928571D01*
X76285714Y-144023809D01*
X76190476Y-131452380D02*
X76000000Y-131452380D01*
X75904761Y-131404761D01*
X75857142Y-131357142D01*
X75761904Y-131214285D01*
X75714285Y-131023809D01*
X75714285Y-130642857D01*
X75761904Y-130547619D01*
X75809523Y-130500000D01*
X75904761Y-130452380D01*
X76095238Y-130452380D01*
X76190476Y-130500000D01*
X76238095Y-130547619D01*
X76285714Y-130642857D01*
X76285714Y-130880952D01*
X76238095Y-130976190D01*
X76190476Y-131023809D01*
X76095238Y-131071428D01*
X75904761Y-131071428D01*
X75809523Y-131023809D01*
X75761904Y-130976190D01*
X75714285Y-130880952D01*
X75809523Y-118452380D02*
X76000000Y-118452380D01*
X76095238Y-118500000D01*
X76142857Y-118547619D01*
X76238095Y-118690476D01*
X76285714Y-118880952D01*
X76285714Y-119261904D01*
X76238095Y-119357142D01*
X76190476Y-119404761D01*
X76095238Y-119452380D01*
X75904761Y-119452380D01*
X75809523Y-119404761D01*
X75761904Y-119357142D01*
X75714285Y-119261904D01*
X75714285Y-119023809D01*
X75761904Y-118928571D01*
X75809523Y-118880952D01*
X75904761Y-118833333D01*
X76095238Y-118833333D01*
X76190476Y-118880952D01*
X76238095Y-118928571D01*
X76285714Y-119023809D01*
X79928571Y-110404761D02*
X79928571Y-110071428D01*
X80452380Y-110071428D02*
X79452380Y-110071428D01*
X79452380Y-110547619D01*
X80404761Y-111309523D02*
X80452380Y-111214285D01*
X80452380Y-111023809D01*
X80404761Y-110928571D01*
X80309523Y-110880952D01*
X79928571Y-110880952D01*
X79833333Y-110928571D01*
X79785714Y-111023809D01*
X79785714Y-111214285D01*
X79833333Y-111309523D01*
X79928571Y-111357142D01*
X80023809Y-111357142D01*
X80119047Y-110880952D01*
X80452380Y-111785714D02*
X79785714Y-111785714D01*
X79880952Y-111785714D02*
X79833333Y-111833333D01*
X79785714Y-111928571D01*
X79785714Y-112071428D01*
X79833333Y-112166666D01*
X79928571Y-112214285D01*
X80452380Y-112214285D01*
X79928571Y-112214285D02*
X79833333Y-112261904D01*
X79785714Y-112357142D01*
X79785714Y-112500000D01*
X79833333Y-112595238D01*
X79928571Y-112642857D01*
X80452380Y-112642857D01*
X80452380Y-113547619D02*
X79928571Y-113547619D01*
X79833333Y-113500000D01*
X79785714Y-113404761D01*
X79785714Y-113214285D01*
X79833333Y-113119047D01*
X80404761Y-113547619D02*
X80452380Y-113452380D01*
X80452380Y-113214285D01*
X80404761Y-113119047D01*
X80309523Y-113071428D01*
X80214285Y-113071428D01*
X80119047Y-113119047D01*
X80071428Y-113214285D01*
X80071428Y-113452380D01*
X80023809Y-113547619D01*
X80452380Y-114166666D02*
X80404761Y-114071428D01*
X80309523Y-114023809D01*
X79452380Y-114023809D01*
X80404761Y-114928571D02*
X80452380Y-114833333D01*
X80452380Y-114642857D01*
X80404761Y-114547619D01*
X80309523Y-114500000D01*
X79928571Y-114500000D01*
X79833333Y-114547619D01*
X79785714Y-114642857D01*
X79785714Y-114833333D01*
X79833333Y-114928571D01*
X79928571Y-114976190D01*
X80023809Y-114976190D01*
X80119047Y-114500000D01*
X99190476Y-106452380D02*
X99000000Y-106452380D01*
X98904761Y-106404761D01*
X98857142Y-106357142D01*
X98761904Y-106214285D01*
X98714285Y-106023809D01*
X98714285Y-105642857D01*
X98761904Y-105547619D01*
X98809523Y-105500000D01*
X98904761Y-105452380D01*
X99095238Y-105452380D01*
X99190476Y-105500000D01*
X99238095Y-105547619D01*
X99285714Y-105642857D01*
X99285714Y-105880952D01*
X99238095Y-105976190D01*
X99190476Y-106023809D01*
X99095238Y-106071428D01*
X98904761Y-106071428D01*
X98809523Y-106023809D01*
X98761904Y-105976190D01*
X98714285Y-105880952D01*
X98809523Y-118452380D02*
X99000000Y-118452380D01*
X99095238Y-118500000D01*
X99142857Y-118547619D01*
X99238095Y-118690476D01*
X99285714Y-118880952D01*
X99285714Y-119261904D01*
X99238095Y-119357142D01*
X99190476Y-119404761D01*
X99095238Y-119452380D01*
X98904761Y-119452380D01*
X98809523Y-119404761D01*
X98761904Y-119357142D01*
X98714285Y-119261904D01*
X98714285Y-119023809D01*
X98761904Y-118928571D01*
X98809523Y-118880952D01*
X98904761Y-118833333D01*
X99095238Y-118833333D01*
X99190476Y-118880952D01*
X99238095Y-118928571D01*
X99285714Y-119023809D01*
X94547619Y-113976190D02*
X95547619Y-113976190D01*
X94833333Y-113642857D01*
X95547619Y-113309523D01*
X94547619Y-113309523D01*
X94547619Y-112404761D02*
X95071428Y-112404761D01*
X95166666Y-112452380D01*
X95214285Y-112547619D01*
X95214285Y-112738095D01*
X95166666Y-112833333D01*
X94595238Y-112404761D02*
X94547619Y-112500000D01*
X94547619Y-112738095D01*
X94595238Y-112833333D01*
X94690476Y-112880952D01*
X94785714Y-112880952D01*
X94880952Y-112833333D01*
X94928571Y-112738095D01*
X94928571Y-112500000D01*
X94976190Y-112404761D01*
X94547619Y-111785714D02*
X94595238Y-111880952D01*
X94690476Y-111928571D01*
X95547619Y-111928571D01*
X94595238Y-111023809D02*
X94547619Y-111119047D01*
X94547619Y-111309523D01*
X94595238Y-111404761D01*
X94690476Y-111452380D01*
X95071428Y-111452380D01*
X95166666Y-111404761D01*
X95214285Y-111309523D01*
X95214285Y-111119047D01*
X95166666Y-111023809D01*
X95071428Y-110976190D01*
X94976190Y-110976190D01*
X94880952Y-111452380D01*
X76190476Y-106452380D02*
X76000000Y-106452380D01*
X75904761Y-106404761D01*
X75857142Y-106357142D01*
X75761904Y-106214285D01*
X75714285Y-106023809D01*
X75714285Y-105642857D01*
X75761904Y-105547619D01*
X75809523Y-105500000D01*
X75904761Y-105452380D01*
X76095238Y-105452380D01*
X76190476Y-105500000D01*
X76238095Y-105547619D01*
X76285714Y-105642857D01*
X76285714Y-105880952D01*
X76238095Y-105976190D01*
X76190476Y-106023809D01*
X76095238Y-106071428D01*
X75904761Y-106071428D01*
X75809523Y-106023809D01*
X75761904Y-105976190D01*
X75714285Y-105880952D01*
X79928571Y-85404761D02*
X79928571Y-85071428D01*
X80452380Y-85071428D02*
X79452380Y-85071428D01*
X79452380Y-85547619D01*
X80404761Y-86309523D02*
X80452380Y-86214285D01*
X80452380Y-86023809D01*
X80404761Y-85928571D01*
X80309523Y-85880952D01*
X79928571Y-85880952D01*
X79833333Y-85928571D01*
X79785714Y-86023809D01*
X79785714Y-86214285D01*
X79833333Y-86309523D01*
X79928571Y-86357142D01*
X80023809Y-86357142D01*
X80119047Y-85880952D01*
X80452380Y-86785714D02*
X79785714Y-86785714D01*
X79880952Y-86785714D02*
X79833333Y-86833333D01*
X79785714Y-86928571D01*
X79785714Y-87071428D01*
X79833333Y-87166666D01*
X79928571Y-87214285D01*
X80452380Y-87214285D01*
X79928571Y-87214285D02*
X79833333Y-87261904D01*
X79785714Y-87357142D01*
X79785714Y-87500000D01*
X79833333Y-87595238D01*
X79928571Y-87642857D01*
X80452380Y-87642857D01*
X80452380Y-88547619D02*
X79928571Y-88547619D01*
X79833333Y-88500000D01*
X79785714Y-88404761D01*
X79785714Y-88214285D01*
X79833333Y-88119047D01*
X80404761Y-88547619D02*
X80452380Y-88452380D01*
X80452380Y-88214285D01*
X80404761Y-88119047D01*
X80309523Y-88071428D01*
X80214285Y-88071428D01*
X80119047Y-88119047D01*
X80071428Y-88214285D01*
X80071428Y-88452380D01*
X80023809Y-88547619D01*
X80452380Y-89166666D02*
X80404761Y-89071428D01*
X80309523Y-89023809D01*
X79452380Y-89023809D01*
X80404761Y-89928571D02*
X80452380Y-89833333D01*
X80452380Y-89642857D01*
X80404761Y-89547619D01*
X80309523Y-89500000D01*
X79928571Y-89500000D01*
X79833333Y-89547619D01*
X79785714Y-89642857D01*
X79785714Y-89833333D01*
X79833333Y-89928571D01*
X79928571Y-89976190D01*
X80023809Y-89976190D01*
X80119047Y-89500000D01*
X94547619Y-88976190D02*
X95547619Y-88976190D01*
X94833333Y-88642857D01*
X95547619Y-88309523D01*
X94547619Y-88309523D01*
X94547619Y-87404761D02*
X95071428Y-87404761D01*
X95166666Y-87452380D01*
X95214285Y-87547619D01*
X95214285Y-87738095D01*
X95166666Y-87833333D01*
X94595238Y-87404761D02*
X94547619Y-87500000D01*
X94547619Y-87738095D01*
X94595238Y-87833333D01*
X94690476Y-87880952D01*
X94785714Y-87880952D01*
X94880952Y-87833333D01*
X94928571Y-87738095D01*
X94928571Y-87500000D01*
X94976190Y-87404761D01*
X94547619Y-86785714D02*
X94595238Y-86880952D01*
X94690476Y-86928571D01*
X95547619Y-86928571D01*
X94595238Y-86023809D02*
X94547619Y-86119047D01*
X94547619Y-86309523D01*
X94595238Y-86404761D01*
X94690476Y-86452380D01*
X95071428Y-86452380D01*
X95166666Y-86404761D01*
X95214285Y-86309523D01*
X95214285Y-86119047D01*
X95166666Y-86023809D01*
X95071428Y-85976190D01*
X94976190Y-85976190D01*
X94880952Y-86452380D01*
X99190476Y-81452380D02*
X99000000Y-81452380D01*
X98904761Y-81404761D01*
X98857142Y-81357142D01*
X98761904Y-81214285D01*
X98714285Y-81023809D01*
X98714285Y-80642857D01*
X98761904Y-80547619D01*
X98809523Y-80500000D01*
X98904761Y-80452380D01*
X99095238Y-80452380D01*
X99190476Y-80500000D01*
X99238095Y-80547619D01*
X99285714Y-80642857D01*
X99285714Y-80880952D01*
X99238095Y-80976190D01*
X99190476Y-81023809D01*
X99095238Y-81071428D01*
X98904761Y-81071428D01*
X98809523Y-81023809D01*
X98761904Y-80976190D01*
X98714285Y-80880952D01*
X98809523Y-93452380D02*
X99000000Y-93452380D01*
X99095238Y-93500000D01*
X99142857Y-93547619D01*
X99238095Y-93690476D01*
X99285714Y-93880952D01*
X99285714Y-94261904D01*
X99238095Y-94357142D01*
X99190476Y-94404761D01*
X99095238Y-94452380D01*
X98904761Y-94452380D01*
X98809523Y-94404761D01*
X98761904Y-94357142D01*
X98714285Y-94261904D01*
X98714285Y-94023809D01*
X98761904Y-93928571D01*
X98809523Y-93880952D01*
X98904761Y-93833333D01*
X99095238Y-93833333D01*
X99190476Y-93880952D01*
X99238095Y-93928571D01*
X99285714Y-94023809D01*
X75809523Y-93452380D02*
X76000000Y-93452380D01*
X76095238Y-93500000D01*
X76142857Y-93547619D01*
X76238095Y-93690476D01*
X76285714Y-93880952D01*
X76285714Y-94261904D01*
X76238095Y-94357142D01*
X76190476Y-94404761D01*
X76095238Y-94452380D01*
X75904761Y-94452380D01*
X75809523Y-94404761D01*
X75761904Y-94357142D01*
X75714285Y-94261904D01*
X75714285Y-94023809D01*
X75761904Y-93928571D01*
X75809523Y-93880952D01*
X75904761Y-93833333D01*
X76095238Y-93833333D01*
X76190476Y-93880952D01*
X76238095Y-93928571D01*
X76285714Y-94023809D01*
X76190476Y-81452380D02*
X76000000Y-81452380D01*
X75904761Y-81404761D01*
X75857142Y-81357142D01*
X75761904Y-81214285D01*
X75714285Y-81023809D01*
X75714285Y-80642857D01*
X75761904Y-80547619D01*
X75809523Y-80500000D01*
X75904761Y-80452380D01*
X76095238Y-80452380D01*
X76190476Y-80500000D01*
X76238095Y-80547619D01*
X76285714Y-80642857D01*
X76285714Y-80880952D01*
X76238095Y-80976190D01*
X76190476Y-81023809D01*
X76095238Y-81071428D01*
X75904761Y-81071428D01*
X75809523Y-81023809D01*
X75761904Y-80976190D01*
X75714285Y-80880952D01*
X73809523Y-68452380D02*
X74000000Y-68452380D01*
X74095238Y-68500000D01*
X74142857Y-68547619D01*
X74238095Y-68690476D01*
X74285714Y-68880952D01*
X74285714Y-69261904D01*
X74238095Y-69357142D01*
X74190476Y-69404761D01*
X74095238Y-69452380D01*
X73904761Y-69452380D01*
X73809523Y-69404761D01*
X73761904Y-69357142D01*
X73714285Y-69261904D01*
X73714285Y-69023809D01*
X73761904Y-68928571D01*
X73809523Y-68880952D01*
X73904761Y-68833333D01*
X74095238Y-68833333D01*
X74190476Y-68880952D01*
X74238095Y-68928571D01*
X74285714Y-69023809D01*
X74190476Y-56452380D02*
X74000000Y-56452380D01*
X73904761Y-56404761D01*
X73857142Y-56357142D01*
X73761904Y-56214285D01*
X73714285Y-56023809D01*
X73714285Y-55642857D01*
X73761904Y-55547619D01*
X73809523Y-55500000D01*
X73904761Y-55452380D01*
X74095238Y-55452380D01*
X74190476Y-55500000D01*
X74238095Y-55547619D01*
X74285714Y-55642857D01*
X74285714Y-55880952D01*
X74238095Y-55976190D01*
X74190476Y-56023809D01*
X74095238Y-56071428D01*
X73904761Y-56071428D01*
X73809523Y-56023809D01*
X73761904Y-55976190D01*
X73714285Y-55880952D01*
X69547619Y-63976190D02*
X70547619Y-63976190D01*
X69833333Y-63642857D01*
X70547619Y-63309523D01*
X69547619Y-63309523D01*
X69547619Y-62404761D02*
X70071428Y-62404761D01*
X70166666Y-62452380D01*
X70214285Y-62547619D01*
X70214285Y-62738095D01*
X70166666Y-62833333D01*
X69595238Y-62404761D02*
X69547619Y-62500000D01*
X69547619Y-62738095D01*
X69595238Y-62833333D01*
X69690476Y-62880952D01*
X69785714Y-62880952D01*
X69880952Y-62833333D01*
X69928571Y-62738095D01*
X69928571Y-62500000D01*
X69976190Y-62404761D01*
X69547619Y-61785714D02*
X69595238Y-61880952D01*
X69690476Y-61928571D01*
X70547619Y-61928571D01*
X69595238Y-61023809D02*
X69547619Y-61119047D01*
X69547619Y-61309523D01*
X69595238Y-61404761D01*
X69690476Y-61452380D01*
X70071428Y-61452380D01*
X70166666Y-61404761D01*
X70214285Y-61309523D01*
X70214285Y-61119047D01*
X70166666Y-61023809D01*
X70071428Y-60976190D01*
X69976190Y-60976190D01*
X69880952Y-61452380D01*
X54928571Y-60404761D02*
X54928571Y-60071428D01*
X55452380Y-60071428D02*
X54452380Y-60071428D01*
X54452380Y-60547619D01*
X55404761Y-61309523D02*
X55452380Y-61214285D01*
X55452380Y-61023809D01*
X55404761Y-60928571D01*
X55309523Y-60880952D01*
X54928571Y-60880952D01*
X54833333Y-60928571D01*
X54785714Y-61023809D01*
X54785714Y-61214285D01*
X54833333Y-61309523D01*
X54928571Y-61357142D01*
X55023809Y-61357142D01*
X55119047Y-60880952D01*
X55452380Y-61785714D02*
X54785714Y-61785714D01*
X54880952Y-61785714D02*
X54833333Y-61833333D01*
X54785714Y-61928571D01*
X54785714Y-62071428D01*
X54833333Y-62166666D01*
X54928571Y-62214285D01*
X55452380Y-62214285D01*
X54928571Y-62214285D02*
X54833333Y-62261904D01*
X54785714Y-62357142D01*
X54785714Y-62500000D01*
X54833333Y-62595238D01*
X54928571Y-62642857D01*
X55452380Y-62642857D01*
X55452380Y-63547619D02*
X54928571Y-63547619D01*
X54833333Y-63500000D01*
X54785714Y-63404761D01*
X54785714Y-63214285D01*
X54833333Y-63119047D01*
X55404761Y-63547619D02*
X55452380Y-63452380D01*
X55452380Y-63214285D01*
X55404761Y-63119047D01*
X55309523Y-63071428D01*
X55214285Y-63071428D01*
X55119047Y-63119047D01*
X55071428Y-63214285D01*
X55071428Y-63452380D01*
X55023809Y-63547619D01*
X55452380Y-64166666D02*
X55404761Y-64071428D01*
X55309523Y-64023809D01*
X54452380Y-64023809D01*
X55404761Y-64928571D02*
X55452380Y-64833333D01*
X55452380Y-64642857D01*
X55404761Y-64547619D01*
X55309523Y-64500000D01*
X54928571Y-64500000D01*
X54833333Y-64547619D01*
X54785714Y-64642857D01*
X54785714Y-64833333D01*
X54833333Y-64928571D01*
X54928571Y-64976190D01*
X55023809Y-64976190D01*
X55119047Y-64500000D01*
X51190476Y-56452380D02*
X51000000Y-56452380D01*
X50904761Y-56404761D01*
X50857142Y-56357142D01*
X50761904Y-56214285D01*
X50714285Y-56023809D01*
X50714285Y-55642857D01*
X50761904Y-55547619D01*
X50809523Y-55500000D01*
X50904761Y-55452380D01*
X51095238Y-55452380D01*
X51190476Y-55500000D01*
X51238095Y-55547619D01*
X51285714Y-55642857D01*
X51285714Y-55880952D01*
X51238095Y-55976190D01*
X51190476Y-56023809D01*
X51095238Y-56071428D01*
X50904761Y-56071428D01*
X50809523Y-56023809D01*
X50761904Y-55976190D01*
X50714285Y-55880952D01*
X50809523Y-68452380D02*
X51000000Y-68452380D01*
X51095238Y-68500000D01*
X51142857Y-68547619D01*
X51238095Y-68690476D01*
X51285714Y-68880952D01*
X51285714Y-69261904D01*
X51238095Y-69357142D01*
X51190476Y-69404761D01*
X51095238Y-69452380D01*
X50904761Y-69452380D01*
X50809523Y-69404761D01*
X50761904Y-69357142D01*
X50714285Y-69261904D01*
X50714285Y-69023809D01*
X50761904Y-68928571D01*
X50809523Y-68880952D01*
X50904761Y-68833333D01*
X51095238Y-68833333D01*
X51190476Y-68880952D01*
X51238095Y-68928571D01*
X51285714Y-69023809D01*
X73809523Y-93452380D02*
X74000000Y-93452380D01*
X74095238Y-93500000D01*
X74142857Y-93547619D01*
X74238095Y-93690476D01*
X74285714Y-93880952D01*
X74285714Y-94261904D01*
X74238095Y-94357142D01*
X74190476Y-94404761D01*
X74095238Y-94452380D01*
X73904761Y-94452380D01*
X73809523Y-94404761D01*
X73761904Y-94357142D01*
X73714285Y-94261904D01*
X73714285Y-94023809D01*
X73761904Y-93928571D01*
X73809523Y-93880952D01*
X73904761Y-93833333D01*
X74095238Y-93833333D01*
X74190476Y-93880952D01*
X74238095Y-93928571D01*
X74285714Y-94023809D01*
X74190476Y-81452380D02*
X74000000Y-81452380D01*
X73904761Y-81404761D01*
X73857142Y-81357142D01*
X73761904Y-81214285D01*
X73714285Y-81023809D01*
X73714285Y-80642857D01*
X73761904Y-80547619D01*
X73809523Y-80500000D01*
X73904761Y-80452380D01*
X74095238Y-80452380D01*
X74190476Y-80500000D01*
X74238095Y-80547619D01*
X74285714Y-80642857D01*
X74285714Y-80880952D01*
X74238095Y-80976190D01*
X74190476Y-81023809D01*
X74095238Y-81071428D01*
X73904761Y-81071428D01*
X73809523Y-81023809D01*
X73761904Y-80976190D01*
X73714285Y-80880952D01*
X69547619Y-88976190D02*
X70547619Y-88976190D01*
X69833333Y-88642857D01*
X70547619Y-88309523D01*
X69547619Y-88309523D01*
X69547619Y-87404761D02*
X70071428Y-87404761D01*
X70166666Y-87452380D01*
X70214285Y-87547619D01*
X70214285Y-87738095D01*
X70166666Y-87833333D01*
X69595238Y-87404761D02*
X69547619Y-87500000D01*
X69547619Y-87738095D01*
X69595238Y-87833333D01*
X69690476Y-87880952D01*
X69785714Y-87880952D01*
X69880952Y-87833333D01*
X69928571Y-87738095D01*
X69928571Y-87500000D01*
X69976190Y-87404761D01*
X69547619Y-86785714D02*
X69595238Y-86880952D01*
X69690476Y-86928571D01*
X70547619Y-86928571D01*
X69595238Y-86023809D02*
X69547619Y-86119047D01*
X69547619Y-86309523D01*
X69595238Y-86404761D01*
X69690476Y-86452380D01*
X70071428Y-86452380D01*
X70166666Y-86404761D01*
X70214285Y-86309523D01*
X70214285Y-86119047D01*
X70166666Y-86023809D01*
X70071428Y-85976190D01*
X69976190Y-85976190D01*
X69880952Y-86452380D01*
X54928571Y-85404761D02*
X54928571Y-85071428D01*
X55452380Y-85071428D02*
X54452380Y-85071428D01*
X54452380Y-85547619D01*
X55404761Y-86309523D02*
X55452380Y-86214285D01*
X55452380Y-86023809D01*
X55404761Y-85928571D01*
X55309523Y-85880952D01*
X54928571Y-85880952D01*
X54833333Y-85928571D01*
X54785714Y-86023809D01*
X54785714Y-86214285D01*
X54833333Y-86309523D01*
X54928571Y-86357142D01*
X55023809Y-86357142D01*
X55119047Y-85880952D01*
X55452380Y-86785714D02*
X54785714Y-86785714D01*
X54880952Y-86785714D02*
X54833333Y-86833333D01*
X54785714Y-86928571D01*
X54785714Y-87071428D01*
X54833333Y-87166666D01*
X54928571Y-87214285D01*
X55452380Y-87214285D01*
X54928571Y-87214285D02*
X54833333Y-87261904D01*
X54785714Y-87357142D01*
X54785714Y-87500000D01*
X54833333Y-87595238D01*
X54928571Y-87642857D01*
X55452380Y-87642857D01*
X55452380Y-88547619D02*
X54928571Y-88547619D01*
X54833333Y-88500000D01*
X54785714Y-88404761D01*
X54785714Y-88214285D01*
X54833333Y-88119047D01*
X55404761Y-88547619D02*
X55452380Y-88452380D01*
X55452380Y-88214285D01*
X55404761Y-88119047D01*
X55309523Y-88071428D01*
X55214285Y-88071428D01*
X55119047Y-88119047D01*
X55071428Y-88214285D01*
X55071428Y-88452380D01*
X55023809Y-88547619D01*
X55452380Y-89166666D02*
X55404761Y-89071428D01*
X55309523Y-89023809D01*
X54452380Y-89023809D01*
X55404761Y-89928571D02*
X55452380Y-89833333D01*
X55452380Y-89642857D01*
X55404761Y-89547619D01*
X55309523Y-89500000D01*
X54928571Y-89500000D01*
X54833333Y-89547619D01*
X54785714Y-89642857D01*
X54785714Y-89833333D01*
X54833333Y-89928571D01*
X54928571Y-89976190D01*
X55023809Y-89976190D01*
X55119047Y-89500000D01*
X51190476Y-81452380D02*
X51000000Y-81452380D01*
X50904761Y-81404761D01*
X50857142Y-81357142D01*
X50761904Y-81214285D01*
X50714285Y-81023809D01*
X50714285Y-80642857D01*
X50761904Y-80547619D01*
X50809523Y-80500000D01*
X50904761Y-80452380D01*
X51095238Y-80452380D01*
X51190476Y-80500000D01*
X51238095Y-80547619D01*
X51285714Y-80642857D01*
X51285714Y-80880952D01*
X51238095Y-80976190D01*
X51190476Y-81023809D01*
X51095238Y-81071428D01*
X50904761Y-81071428D01*
X50809523Y-81023809D01*
X50761904Y-80976190D01*
X50714285Y-80880952D01*
X50809523Y-93452380D02*
X51000000Y-93452380D01*
X51095238Y-93500000D01*
X51142857Y-93547619D01*
X51238095Y-93690476D01*
X51285714Y-93880952D01*
X51285714Y-94261904D01*
X51238095Y-94357142D01*
X51190476Y-94404761D01*
X51095238Y-94452380D01*
X50904761Y-94452380D01*
X50809523Y-94404761D01*
X50761904Y-94357142D01*
X50714285Y-94261904D01*
X50714285Y-94023809D01*
X50761904Y-93928571D01*
X50809523Y-93880952D01*
X50904761Y-93833333D01*
X51095238Y-93833333D01*
X51190476Y-93880952D01*
X51238095Y-93928571D01*
X51285714Y-94023809D01*
X73809523Y-118452380D02*
X74000000Y-118452380D01*
X74095238Y-118500000D01*
X74142857Y-118547619D01*
X74238095Y-118690476D01*
X74285714Y-118880952D01*
X74285714Y-119261904D01*
X74238095Y-119357142D01*
X74190476Y-119404761D01*
X74095238Y-119452380D01*
X73904761Y-119452380D01*
X73809523Y-119404761D01*
X73761904Y-119357142D01*
X73714285Y-119261904D01*
X73714285Y-119023809D01*
X73761904Y-118928571D01*
X73809523Y-118880952D01*
X73904761Y-118833333D01*
X74095238Y-118833333D01*
X74190476Y-118880952D01*
X74238095Y-118928571D01*
X74285714Y-119023809D01*
X74190476Y-106452380D02*
X74000000Y-106452380D01*
X73904761Y-106404761D01*
X73857142Y-106357142D01*
X73761904Y-106214285D01*
X73714285Y-106023809D01*
X73714285Y-105642857D01*
X73761904Y-105547619D01*
X73809523Y-105500000D01*
X73904761Y-105452380D01*
X74095238Y-105452380D01*
X74190476Y-105500000D01*
X74238095Y-105547619D01*
X74285714Y-105642857D01*
X74285714Y-105880952D01*
X74238095Y-105976190D01*
X74190476Y-106023809D01*
X74095238Y-106071428D01*
X73904761Y-106071428D01*
X73809523Y-106023809D01*
X73761904Y-105976190D01*
X73714285Y-105880952D01*
X69547619Y-113976190D02*
X70547619Y-113976190D01*
X69833333Y-113642857D01*
X70547619Y-113309523D01*
X69547619Y-113309523D01*
X69547619Y-112404761D02*
X70071428Y-112404761D01*
X70166666Y-112452380D01*
X70214285Y-112547619D01*
X70214285Y-112738095D01*
X70166666Y-112833333D01*
X69595238Y-112404761D02*
X69547619Y-112500000D01*
X69547619Y-112738095D01*
X69595238Y-112833333D01*
X69690476Y-112880952D01*
X69785714Y-112880952D01*
X69880952Y-112833333D01*
X69928571Y-112738095D01*
X69928571Y-112500000D01*
X69976190Y-112404761D01*
X69547619Y-111785714D02*
X69595238Y-111880952D01*
X69690476Y-111928571D01*
X70547619Y-111928571D01*
X69595238Y-111023809D02*
X69547619Y-111119047D01*
X69547619Y-111309523D01*
X69595238Y-111404761D01*
X69690476Y-111452380D01*
X70071428Y-111452380D01*
X70166666Y-111404761D01*
X70214285Y-111309523D01*
X70214285Y-111119047D01*
X70166666Y-111023809D01*
X70071428Y-110976190D01*
X69976190Y-110976190D01*
X69880952Y-111452380D01*
X54928571Y-110404761D02*
X54928571Y-110071428D01*
X55452380Y-110071428D02*
X54452380Y-110071428D01*
X54452380Y-110547619D01*
X55404761Y-111309523D02*
X55452380Y-111214285D01*
X55452380Y-111023809D01*
X55404761Y-110928571D01*
X55309523Y-110880952D01*
X54928571Y-110880952D01*
X54833333Y-110928571D01*
X54785714Y-111023809D01*
X54785714Y-111214285D01*
X54833333Y-111309523D01*
X54928571Y-111357142D01*
X55023809Y-111357142D01*
X55119047Y-110880952D01*
X55452380Y-111785714D02*
X54785714Y-111785714D01*
X54880952Y-111785714D02*
X54833333Y-111833333D01*
X54785714Y-111928571D01*
X54785714Y-112071428D01*
X54833333Y-112166666D01*
X54928571Y-112214285D01*
X55452380Y-112214285D01*
X54928571Y-112214285D02*
X54833333Y-112261904D01*
X54785714Y-112357142D01*
X54785714Y-112500000D01*
X54833333Y-112595238D01*
X54928571Y-112642857D01*
X55452380Y-112642857D01*
X55452380Y-113547619D02*
X54928571Y-113547619D01*
X54833333Y-113500000D01*
X54785714Y-113404761D01*
X54785714Y-113214285D01*
X54833333Y-113119047D01*
X55404761Y-113547619D02*
X55452380Y-113452380D01*
X55452380Y-113214285D01*
X55404761Y-113119047D01*
X55309523Y-113071428D01*
X55214285Y-113071428D01*
X55119047Y-113119047D01*
X55071428Y-113214285D01*
X55071428Y-113452380D01*
X55023809Y-113547619D01*
X55452380Y-114166666D02*
X55404761Y-114071428D01*
X55309523Y-114023809D01*
X54452380Y-114023809D01*
X55404761Y-114928571D02*
X55452380Y-114833333D01*
X55452380Y-114642857D01*
X55404761Y-114547619D01*
X55309523Y-114500000D01*
X54928571Y-114500000D01*
X54833333Y-114547619D01*
X54785714Y-114642857D01*
X54785714Y-114833333D01*
X54833333Y-114928571D01*
X54928571Y-114976190D01*
X55023809Y-114976190D01*
X55119047Y-114500000D01*
X51190476Y-106452380D02*
X51000000Y-106452380D01*
X50904761Y-106404761D01*
X50857142Y-106357142D01*
X50761904Y-106214285D01*
X50714285Y-106023809D01*
X50714285Y-105642857D01*
X50761904Y-105547619D01*
X50809523Y-105500000D01*
X50904761Y-105452380D01*
X51095238Y-105452380D01*
X51190476Y-105500000D01*
X51238095Y-105547619D01*
X51285714Y-105642857D01*
X51285714Y-105880952D01*
X51238095Y-105976190D01*
X51190476Y-106023809D01*
X51095238Y-106071428D01*
X50904761Y-106071428D01*
X50809523Y-106023809D01*
X50761904Y-105976190D01*
X50714285Y-105880952D01*
X50809523Y-118452380D02*
X51000000Y-118452380D01*
X51095238Y-118500000D01*
X51142857Y-118547619D01*
X51238095Y-118690476D01*
X51285714Y-118880952D01*
X51285714Y-119261904D01*
X51238095Y-119357142D01*
X51190476Y-119404761D01*
X51095238Y-119452380D01*
X50904761Y-119452380D01*
X50809523Y-119404761D01*
X50761904Y-119357142D01*
X50714285Y-119261904D01*
X50714285Y-119023809D01*
X50761904Y-118928571D01*
X50809523Y-118880952D01*
X50904761Y-118833333D01*
X51095238Y-118833333D01*
X51190476Y-118880952D01*
X51238095Y-118928571D01*
X51285714Y-119023809D01*
X73809523Y-143452380D02*
X74000000Y-143452380D01*
X74095238Y-143500000D01*
X74142857Y-143547619D01*
X74238095Y-143690476D01*
X74285714Y-143880952D01*
X74285714Y-144261904D01*
X74238095Y-144357142D01*
X74190476Y-144404761D01*
X74095238Y-144452380D01*
X73904761Y-144452380D01*
X73809523Y-144404761D01*
X73761904Y-144357142D01*
X73714285Y-144261904D01*
X73714285Y-144023809D01*
X73761904Y-143928571D01*
X73809523Y-143880952D01*
X73904761Y-143833333D01*
X74095238Y-143833333D01*
X74190476Y-143880952D01*
X74238095Y-143928571D01*
X74285714Y-144023809D01*
X74190476Y-131452380D02*
X74000000Y-131452380D01*
X73904761Y-131404761D01*
X73857142Y-131357142D01*
X73761904Y-131214285D01*
X73714285Y-131023809D01*
X73714285Y-130642857D01*
X73761904Y-130547619D01*
X73809523Y-130500000D01*
X73904761Y-130452380D01*
X74095238Y-130452380D01*
X74190476Y-130500000D01*
X74238095Y-130547619D01*
X74285714Y-130642857D01*
X74285714Y-130880952D01*
X74238095Y-130976190D01*
X74190476Y-131023809D01*
X74095238Y-131071428D01*
X73904761Y-131071428D01*
X73809523Y-131023809D01*
X73761904Y-130976190D01*
X73714285Y-130880952D01*
X69547619Y-138976190D02*
X70547619Y-138976190D01*
X69833333Y-138642857D01*
X70547619Y-138309523D01*
X69547619Y-138309523D01*
X69547619Y-137404761D02*
X70071428Y-137404761D01*
X70166666Y-137452380D01*
X70214285Y-137547619D01*
X70214285Y-137738095D01*
X70166666Y-137833333D01*
X69595238Y-137404761D02*
X69547619Y-137500000D01*
X69547619Y-137738095D01*
X69595238Y-137833333D01*
X69690476Y-137880952D01*
X69785714Y-137880952D01*
X69880952Y-137833333D01*
X69928571Y-137738095D01*
X69928571Y-137500000D01*
X69976190Y-137404761D01*
X69547619Y-136785714D02*
X69595238Y-136880952D01*
X69690476Y-136928571D01*
X70547619Y-136928571D01*
X69595238Y-136023809D02*
X69547619Y-136119047D01*
X69547619Y-136309523D01*
X69595238Y-136404761D01*
X69690476Y-136452380D01*
X70071428Y-136452380D01*
X70166666Y-136404761D01*
X70214285Y-136309523D01*
X70214285Y-136119047D01*
X70166666Y-136023809D01*
X70071428Y-135976190D01*
X69976190Y-135976190D01*
X69880952Y-136452380D01*
X54928571Y-135404761D02*
X54928571Y-135071428D01*
X55452380Y-135071428D02*
X54452380Y-135071428D01*
X54452380Y-135547619D01*
X55404761Y-136309523D02*
X55452380Y-136214285D01*
X55452380Y-136023809D01*
X55404761Y-135928571D01*
X55309523Y-135880952D01*
X54928571Y-135880952D01*
X54833333Y-135928571D01*
X54785714Y-136023809D01*
X54785714Y-136214285D01*
X54833333Y-136309523D01*
X54928571Y-136357142D01*
X55023809Y-136357142D01*
X55119047Y-135880952D01*
X55452380Y-136785714D02*
X54785714Y-136785714D01*
X54880952Y-136785714D02*
X54833333Y-136833333D01*
X54785714Y-136928571D01*
X54785714Y-137071428D01*
X54833333Y-137166666D01*
X54928571Y-137214285D01*
X55452380Y-137214285D01*
X54928571Y-137214285D02*
X54833333Y-137261904D01*
X54785714Y-137357142D01*
X54785714Y-137500000D01*
X54833333Y-137595238D01*
X54928571Y-137642857D01*
X55452380Y-137642857D01*
X55452380Y-138547619D02*
X54928571Y-138547619D01*
X54833333Y-138500000D01*
X54785714Y-138404761D01*
X54785714Y-138214285D01*
X54833333Y-138119047D01*
X55404761Y-138547619D02*
X55452380Y-138452380D01*
X55452380Y-138214285D01*
X55404761Y-138119047D01*
X55309523Y-138071428D01*
X55214285Y-138071428D01*
X55119047Y-138119047D01*
X55071428Y-138214285D01*
X55071428Y-138452380D01*
X55023809Y-138547619D01*
X55452380Y-139166666D02*
X55404761Y-139071428D01*
X55309523Y-139023809D01*
X54452380Y-139023809D01*
X55404761Y-139928571D02*
X55452380Y-139833333D01*
X55452380Y-139642857D01*
X55404761Y-139547619D01*
X55309523Y-139500000D01*
X54928571Y-139500000D01*
X54833333Y-139547619D01*
X54785714Y-139642857D01*
X54785714Y-139833333D01*
X54833333Y-139928571D01*
X54928571Y-139976190D01*
X55023809Y-139976190D01*
X55119047Y-139500000D01*
X51190476Y-131452380D02*
X51000000Y-131452380D01*
X50904761Y-131404761D01*
X50857142Y-131357142D01*
X50761904Y-131214285D01*
X50714285Y-131023809D01*
X50714285Y-130642857D01*
X50761904Y-130547619D01*
X50809523Y-130500000D01*
X50904761Y-130452380D01*
X51095238Y-130452380D01*
X51190476Y-130500000D01*
X51238095Y-130547619D01*
X51285714Y-130642857D01*
X51285714Y-130880952D01*
X51238095Y-130976190D01*
X51190476Y-131023809D01*
X51095238Y-131071428D01*
X50904761Y-131071428D01*
X50809523Y-131023809D01*
X50761904Y-130976190D01*
X50714285Y-130880952D01*
X50809523Y-143452380D02*
X51000000Y-143452380D01*
X51095238Y-143500000D01*
X51142857Y-143547619D01*
X51238095Y-143690476D01*
X51285714Y-143880952D01*
X51285714Y-144261904D01*
X51238095Y-144357142D01*
X51190476Y-144404761D01*
X51095238Y-144452380D01*
X50904761Y-144452380D01*
X50809523Y-144404761D01*
X50761904Y-144357142D01*
X50714285Y-144261904D01*
X50714285Y-144023809D01*
X50761904Y-143928571D01*
X50809523Y-143880952D01*
X50904761Y-143833333D01*
X51095238Y-143833333D01*
X51190476Y-143880952D01*
X51238095Y-143928571D01*
X51285714Y-144023809D01*
M02*
