M48
; DRILL file {KiCad (5.1.5)-3} date 2021/04/28 18:55:10
; FORMAT={-:-/ absolute / metric / decimal}
; #@! TF.CreationDate,2021-04-28T18:55:10+09:00
; #@! TF.GenerationSoftware,Kicad,Pcbnew,(5.1.5)-3
FMAT,2
METRIC
T1C1.000
%
G90
G05
T1
X67.0Y-109.5
X117.0Y-146.0
X133.0Y-93.0
X92.0Y-146.0
X133.0Y-62.5
X108.0Y-82.0
X67.0Y-84.5
X92.0Y-109.5
X133.0Y-112.5
X108.0Y-98.5
X67.0Y-79.0
X83.0Y-126.5
X67.0Y-90.5
X92.0Y-65.5
X67.0Y-65.5
X142.0Y-121.0
X108.0Y-112.5
X117.0Y-71.0
X142.0Y-134.5
X83.0Y-98.5
X58.0Y-132.0
X58.0Y-107.0
X58.0Y-101.5
X108.0Y-137.5
X108.0Y-126.5
X117.0Y-104.0
X92.0Y-115.5
X142.0Y-65.5
X108.0Y-87.5
X67.0Y-54.0
X133.0Y-118.0
X108.0Y-132.0
X133.0Y-132.0
X92.0Y-121.0
X142.0Y-90.5
X108.0Y-107.0
X83.0Y-68.0
X58.0Y-98.5
X108.0Y-57.0
X67.0Y-71.0
X108.0Y-76.5
X108.0Y-51.5
X108.0Y-93.0
X83.0Y-118.0
X83.0Y-123.5
X67.0Y-134.5
X67.0Y-115.5
X133.0Y-76.5
X117.0Y-115.5
X133.0Y-98.5
X117.0Y-140.5
X67.0Y-59.5
X142.0Y-140.5
X108.0Y-101.5
X83.0Y-93.0
X58.0Y-112.5
X142.0Y-129.0
X83.0Y-76.5
X58.0Y-123.5
X108.0Y-62.5
X58.0Y-51.5
X142.0Y-146.0
X117.0Y-54.0
X142.0Y-115.5
X83.0Y-87.5
X108.0Y-118.0
X92.0Y-129.0
X67.0Y-104.0
X67.0Y-146.0
X108.0Y-143.0
X108.0Y-123.5
X142.0Y-59.5
X83.0Y-137.5
X133.0Y-123.5
X58.0Y-76.5
X92.0Y-134.5
X133.0Y-57.0
X142.0Y-54.0
X92.0Y-54.0
X58.0Y-118.0
X83.0Y-73.5
X117.0Y-65.5
X58.0Y-57.0
X133.0Y-143.0
X117.0Y-84.5
X58.0Y-137.5
X117.0Y-134.5
X142.0Y-71.0
X142.0Y-96.0
X117.0Y-129.0
X92.0Y-71.0
X58.0Y-93.0
X83.0Y-148.5
X67.0Y-96.0
X142.0Y-109.5
X58.0Y-73.5
X133.0Y-101.5
X58.0Y-62.5
X133.0Y-107.0
X117.0Y-79.0
X92.0Y-90.5
X92.0Y-104.0
X67.0Y-129.0
X58.0Y-143.0
X108.0Y-148.5
X133.0Y-73.5
X142.0Y-104.0
X133.0Y-68.0
X92.0Y-59.5
X83.0Y-143.0
X142.0Y-79.0
X117.0Y-121.0
X58.0Y-82.0
X83.0Y-57.0
X133.0Y-137.5
X58.0Y-68.0
X108.0Y-68.0
X83.0Y-112.5
X92.0Y-140.5
X92.0Y-79.0
X58.0Y-126.5
X58.0Y-148.5
X117.0Y-109.5
X142.0Y-84.5
X83.0Y-101.5
X117.0Y-96.0
X133.0Y-87.5
X117.0Y-90.5
X83.0Y-51.5
X83.0Y-107.0
X133.0Y-82.0
X133.0Y-51.5
X92.0Y-84.5
X58.0Y-87.5
X83.0Y-62.5
X108.0Y-73.5
X133.0Y-148.5
X133.0Y-126.5
X117.0Y-59.5
X83.0Y-82.0
X92.0Y-96.0
X83.0Y-132.0
X67.0Y-140.5
X67.0Y-121.0
T0
M30
