G04 #@! TF.GenerationSoftware,KiCad,Pcbnew,(5.1.5)-3*
G04 #@! TF.CreationDate,2021-04-28T18:54:50+09:00*
G04 #@! TF.ProjectId,DSub9TestPoint.kicad_pcb(4x4),44537562-3954-4657-9374-506f696e742e,rev?*
G04 #@! TF.SameCoordinates,Original*
G04 #@! TF.FileFunction,Paste,Bot*
G04 #@! TF.FilePolarity,Positive*
%FSLAX46Y46*%
G04 Gerber Fmt 4.6, Leading zero omitted, Abs format (unit mm)*
G04 Created by KiCad (PCBNEW (5.1.5)-3) date 2021-04-28 18:54:50*
%MOMM*%
%LPD*%
G04 APERTURE LIST*
%ADD10R,3.480000X1.846667*%
G04 APERTURE END LIST*
D10*
X123000000Y-58345000D03*
X123000000Y-61115000D03*
X123000000Y-63885000D03*
X123000000Y-66655000D03*
X102000000Y-58345000D03*
X102000000Y-61115000D03*
X102000000Y-63885000D03*
X102000000Y-66655000D03*
X123000000Y-83345000D03*
X123000000Y-86115000D03*
X123000000Y-88885000D03*
X123000000Y-91655000D03*
X102000000Y-108345000D03*
X102000000Y-111115000D03*
X102000000Y-113885000D03*
X102000000Y-116655000D03*
X102000000Y-83345000D03*
X102000000Y-86115000D03*
X102000000Y-88885000D03*
X102000000Y-91655000D03*
X123000000Y-108345000D03*
X123000000Y-111115000D03*
X123000000Y-113885000D03*
X123000000Y-116655000D03*
X123000000Y-133345000D03*
X123000000Y-136115000D03*
X123000000Y-138885000D03*
X123000000Y-141655000D03*
X102000000Y-133345000D03*
X102000000Y-136115000D03*
X102000000Y-138885000D03*
X102000000Y-141655000D03*
X148000000Y-91655000D03*
X148000000Y-88885000D03*
X148000000Y-86115000D03*
X148000000Y-83345000D03*
X148000000Y-66655000D03*
X148000000Y-63885000D03*
X148000000Y-61115000D03*
X148000000Y-58345000D03*
X127000000Y-66655000D03*
X127000000Y-63885000D03*
X127000000Y-61115000D03*
X127000000Y-58345000D03*
X148000000Y-116655000D03*
X148000000Y-113885000D03*
X148000000Y-111115000D03*
X148000000Y-108345000D03*
X127000000Y-141655000D03*
X127000000Y-138885000D03*
X127000000Y-136115000D03*
X127000000Y-133345000D03*
X127000000Y-116655000D03*
X127000000Y-113885000D03*
X127000000Y-111115000D03*
X127000000Y-108345000D03*
X148000000Y-141655000D03*
X148000000Y-138885000D03*
X148000000Y-136115000D03*
X148000000Y-133345000D03*
X127000000Y-91655000D03*
X127000000Y-88885000D03*
X127000000Y-86115000D03*
X127000000Y-83345000D03*
X98000000Y-58345000D03*
X98000000Y-61115000D03*
X98000000Y-63885000D03*
X98000000Y-66655000D03*
X77000000Y-58345000D03*
X77000000Y-61115000D03*
X77000000Y-63885000D03*
X77000000Y-66655000D03*
X98000000Y-83345000D03*
X98000000Y-86115000D03*
X98000000Y-88885000D03*
X98000000Y-91655000D03*
X77000000Y-108345000D03*
X77000000Y-111115000D03*
X77000000Y-113885000D03*
X77000000Y-116655000D03*
X77000000Y-83345000D03*
X77000000Y-86115000D03*
X77000000Y-88885000D03*
X77000000Y-91655000D03*
X98000000Y-108345000D03*
X98000000Y-111115000D03*
X98000000Y-113885000D03*
X98000000Y-116655000D03*
X98000000Y-133345000D03*
X98000000Y-136115000D03*
X98000000Y-138885000D03*
X98000000Y-141655000D03*
X77000000Y-133345000D03*
X77000000Y-136115000D03*
X77000000Y-138885000D03*
X77000000Y-141655000D03*
X52000000Y-66655000D03*
X52000000Y-63885000D03*
X52000000Y-61115000D03*
X52000000Y-58345000D03*
X73000000Y-66655000D03*
X73000000Y-63885000D03*
X73000000Y-61115000D03*
X73000000Y-58345000D03*
X52000000Y-91655000D03*
X52000000Y-88885000D03*
X52000000Y-86115000D03*
X52000000Y-83345000D03*
X73000000Y-91655000D03*
X73000000Y-88885000D03*
X73000000Y-86115000D03*
X73000000Y-83345000D03*
X52000000Y-116655000D03*
X52000000Y-113885000D03*
X52000000Y-111115000D03*
X52000000Y-108345000D03*
X73000000Y-116655000D03*
X73000000Y-113885000D03*
X73000000Y-111115000D03*
X73000000Y-108345000D03*
X52000000Y-141655000D03*
X52000000Y-138885000D03*
X52000000Y-136115000D03*
X52000000Y-133345000D03*
X73000000Y-141655000D03*
X73000000Y-138885000D03*
X73000000Y-136115000D03*
X73000000Y-133345000D03*
M02*
