G04 #@! TF.GenerationSoftware,KiCad,Pcbnew,(5.1.5)-3*
G04 #@! TF.CreationDate,2021-04-28T18:54:50+09:00*
G04 #@! TF.ProjectId,DSub9TestPoint.kicad_pcb(4x4),44537562-3954-4657-9374-506f696e742e,rev?*
G04 #@! TF.SameCoordinates,Original*
G04 #@! TF.FileFunction,Soldermask,Bot*
G04 #@! TF.FilePolarity,Negative*
%FSLAX46Y46*%
G04 Gerber Fmt 4.6, Leading zero omitted, Abs format (unit mm)*
G04 Created by KiCad (PCBNEW (5.1.5)-3) date 2021-04-28 18:54:50*
%MOMM*%
%LPD*%
G04 APERTURE LIST*
%ADD10C,0.100000*%
G04 APERTURE END LIST*
D10*
G36*
X83306564Y-147489389D02*
G01*
X83497833Y-147568615D01*
X83497835Y-147568616D01*
X83669973Y-147683635D01*
X83816365Y-147830027D01*
X83931385Y-148002167D01*
X84010611Y-148193436D01*
X84051000Y-148396484D01*
X84051000Y-148603516D01*
X84010611Y-148806564D01*
X83931385Y-148997833D01*
X83931384Y-148997835D01*
X83816365Y-149169973D01*
X83669973Y-149316365D01*
X83497835Y-149431384D01*
X83497834Y-149431385D01*
X83497833Y-149431385D01*
X83306564Y-149510611D01*
X83103516Y-149551000D01*
X82896484Y-149551000D01*
X82693436Y-149510611D01*
X82502167Y-149431385D01*
X82502166Y-149431385D01*
X82502165Y-149431384D01*
X82330027Y-149316365D01*
X82183635Y-149169973D01*
X82068616Y-148997835D01*
X82068615Y-148997833D01*
X81989389Y-148806564D01*
X81949000Y-148603516D01*
X81949000Y-148396484D01*
X81989389Y-148193436D01*
X82068615Y-148002167D01*
X82183635Y-147830027D01*
X82330027Y-147683635D01*
X82502165Y-147568616D01*
X82502167Y-147568615D01*
X82693436Y-147489389D01*
X82896484Y-147449000D01*
X83103516Y-147449000D01*
X83306564Y-147489389D01*
G37*
G36*
X58306564Y-147489389D02*
G01*
X58497833Y-147568615D01*
X58497835Y-147568616D01*
X58669973Y-147683635D01*
X58816365Y-147830027D01*
X58931385Y-148002167D01*
X59010611Y-148193436D01*
X59051000Y-148396484D01*
X59051000Y-148603516D01*
X59010611Y-148806564D01*
X58931385Y-148997833D01*
X58931384Y-148997835D01*
X58816365Y-149169973D01*
X58669973Y-149316365D01*
X58497835Y-149431384D01*
X58497834Y-149431385D01*
X58497833Y-149431385D01*
X58306564Y-149510611D01*
X58103516Y-149551000D01*
X57896484Y-149551000D01*
X57693436Y-149510611D01*
X57502167Y-149431385D01*
X57502166Y-149431385D01*
X57502165Y-149431384D01*
X57330027Y-149316365D01*
X57183635Y-149169973D01*
X57068616Y-148997835D01*
X57068615Y-148997833D01*
X56989389Y-148806564D01*
X56949000Y-148603516D01*
X56949000Y-148396484D01*
X56989389Y-148193436D01*
X57068615Y-148002167D01*
X57183635Y-147830027D01*
X57330027Y-147683635D01*
X57502165Y-147568616D01*
X57502167Y-147568615D01*
X57693436Y-147489389D01*
X57896484Y-147449000D01*
X58103516Y-147449000D01*
X58306564Y-147489389D01*
G37*
G36*
X133306564Y-147489389D02*
G01*
X133497833Y-147568615D01*
X133497835Y-147568616D01*
X133669973Y-147683635D01*
X133816365Y-147830027D01*
X133931385Y-148002167D01*
X134010611Y-148193436D01*
X134051000Y-148396484D01*
X134051000Y-148603516D01*
X134010611Y-148806564D01*
X133931385Y-148997833D01*
X133931384Y-148997835D01*
X133816365Y-149169973D01*
X133669973Y-149316365D01*
X133497835Y-149431384D01*
X133497834Y-149431385D01*
X133497833Y-149431385D01*
X133306564Y-149510611D01*
X133103516Y-149551000D01*
X132896484Y-149551000D01*
X132693436Y-149510611D01*
X132502167Y-149431385D01*
X132502166Y-149431385D01*
X132502165Y-149431384D01*
X132330027Y-149316365D01*
X132183635Y-149169973D01*
X132068616Y-148997835D01*
X132068615Y-148997833D01*
X131989389Y-148806564D01*
X131949000Y-148603516D01*
X131949000Y-148396484D01*
X131989389Y-148193436D01*
X132068615Y-148002167D01*
X132183635Y-147830027D01*
X132330027Y-147683635D01*
X132502165Y-147568616D01*
X132502167Y-147568615D01*
X132693436Y-147489389D01*
X132896484Y-147449000D01*
X133103516Y-147449000D01*
X133306564Y-147489389D01*
G37*
G36*
X108306564Y-147489389D02*
G01*
X108497833Y-147568615D01*
X108497835Y-147568616D01*
X108669973Y-147683635D01*
X108816365Y-147830027D01*
X108931385Y-148002167D01*
X109010611Y-148193436D01*
X109051000Y-148396484D01*
X109051000Y-148603516D01*
X109010611Y-148806564D01*
X108931385Y-148997833D01*
X108931384Y-148997835D01*
X108816365Y-149169973D01*
X108669973Y-149316365D01*
X108497835Y-149431384D01*
X108497834Y-149431385D01*
X108497833Y-149431385D01*
X108306564Y-149510611D01*
X108103516Y-149551000D01*
X107896484Y-149551000D01*
X107693436Y-149510611D01*
X107502167Y-149431385D01*
X107502166Y-149431385D01*
X107502165Y-149431384D01*
X107330027Y-149316365D01*
X107183635Y-149169973D01*
X107068616Y-148997835D01*
X107068615Y-148997833D01*
X106989389Y-148806564D01*
X106949000Y-148603516D01*
X106949000Y-148396484D01*
X106989389Y-148193436D01*
X107068615Y-148002167D01*
X107183635Y-147830027D01*
X107330027Y-147683635D01*
X107502165Y-147568616D01*
X107502167Y-147568615D01*
X107693436Y-147489389D01*
X107896484Y-147449000D01*
X108103516Y-147449000D01*
X108306564Y-147489389D01*
G37*
G36*
X142306564Y-144989389D02*
G01*
X142497833Y-145068615D01*
X142497835Y-145068616D01*
X142669973Y-145183635D01*
X142816365Y-145330027D01*
X142931385Y-145502167D01*
X143010611Y-145693436D01*
X143051000Y-145896484D01*
X143051000Y-146103516D01*
X143010611Y-146306564D01*
X142931385Y-146497833D01*
X142931384Y-146497835D01*
X142816365Y-146669973D01*
X142669973Y-146816365D01*
X142497835Y-146931384D01*
X142497834Y-146931385D01*
X142497833Y-146931385D01*
X142306564Y-147010611D01*
X142103516Y-147051000D01*
X141896484Y-147051000D01*
X141693436Y-147010611D01*
X141502167Y-146931385D01*
X141502166Y-146931385D01*
X141502165Y-146931384D01*
X141330027Y-146816365D01*
X141183635Y-146669973D01*
X141068616Y-146497835D01*
X141068615Y-146497833D01*
X140989389Y-146306564D01*
X140949000Y-146103516D01*
X140949000Y-145896484D01*
X140989389Y-145693436D01*
X141068615Y-145502167D01*
X141183635Y-145330027D01*
X141330027Y-145183635D01*
X141502165Y-145068616D01*
X141502167Y-145068615D01*
X141693436Y-144989389D01*
X141896484Y-144949000D01*
X142103516Y-144949000D01*
X142306564Y-144989389D01*
G37*
G36*
X117306564Y-144989389D02*
G01*
X117497833Y-145068615D01*
X117497835Y-145068616D01*
X117669973Y-145183635D01*
X117816365Y-145330027D01*
X117931385Y-145502167D01*
X118010611Y-145693436D01*
X118051000Y-145896484D01*
X118051000Y-146103516D01*
X118010611Y-146306564D01*
X117931385Y-146497833D01*
X117931384Y-146497835D01*
X117816365Y-146669973D01*
X117669973Y-146816365D01*
X117497835Y-146931384D01*
X117497834Y-146931385D01*
X117497833Y-146931385D01*
X117306564Y-147010611D01*
X117103516Y-147051000D01*
X116896484Y-147051000D01*
X116693436Y-147010611D01*
X116502167Y-146931385D01*
X116502166Y-146931385D01*
X116502165Y-146931384D01*
X116330027Y-146816365D01*
X116183635Y-146669973D01*
X116068616Y-146497835D01*
X116068615Y-146497833D01*
X115989389Y-146306564D01*
X115949000Y-146103516D01*
X115949000Y-145896484D01*
X115989389Y-145693436D01*
X116068615Y-145502167D01*
X116183635Y-145330027D01*
X116330027Y-145183635D01*
X116502165Y-145068616D01*
X116502167Y-145068615D01*
X116693436Y-144989389D01*
X116896484Y-144949000D01*
X117103516Y-144949000D01*
X117306564Y-144989389D01*
G37*
G36*
X92306564Y-144989389D02*
G01*
X92497833Y-145068615D01*
X92497835Y-145068616D01*
X92669973Y-145183635D01*
X92816365Y-145330027D01*
X92931385Y-145502167D01*
X93010611Y-145693436D01*
X93051000Y-145896484D01*
X93051000Y-146103516D01*
X93010611Y-146306564D01*
X92931385Y-146497833D01*
X92931384Y-146497835D01*
X92816365Y-146669973D01*
X92669973Y-146816365D01*
X92497835Y-146931384D01*
X92497834Y-146931385D01*
X92497833Y-146931385D01*
X92306564Y-147010611D01*
X92103516Y-147051000D01*
X91896484Y-147051000D01*
X91693436Y-147010611D01*
X91502167Y-146931385D01*
X91502166Y-146931385D01*
X91502165Y-146931384D01*
X91330027Y-146816365D01*
X91183635Y-146669973D01*
X91068616Y-146497835D01*
X91068615Y-146497833D01*
X90989389Y-146306564D01*
X90949000Y-146103516D01*
X90949000Y-145896484D01*
X90989389Y-145693436D01*
X91068615Y-145502167D01*
X91183635Y-145330027D01*
X91330027Y-145183635D01*
X91502165Y-145068616D01*
X91502167Y-145068615D01*
X91693436Y-144989389D01*
X91896484Y-144949000D01*
X92103516Y-144949000D01*
X92306564Y-144989389D01*
G37*
G36*
X67306564Y-144989389D02*
G01*
X67497833Y-145068615D01*
X67497835Y-145068616D01*
X67669973Y-145183635D01*
X67816365Y-145330027D01*
X67931385Y-145502167D01*
X68010611Y-145693436D01*
X68051000Y-145896484D01*
X68051000Y-146103516D01*
X68010611Y-146306564D01*
X67931385Y-146497833D01*
X67931384Y-146497835D01*
X67816365Y-146669973D01*
X67669973Y-146816365D01*
X67497835Y-146931384D01*
X67497834Y-146931385D01*
X67497833Y-146931385D01*
X67306564Y-147010611D01*
X67103516Y-147051000D01*
X66896484Y-147051000D01*
X66693436Y-147010611D01*
X66502167Y-146931385D01*
X66502166Y-146931385D01*
X66502165Y-146931384D01*
X66330027Y-146816365D01*
X66183635Y-146669973D01*
X66068616Y-146497835D01*
X66068615Y-146497833D01*
X65989389Y-146306564D01*
X65949000Y-146103516D01*
X65949000Y-145896484D01*
X65989389Y-145693436D01*
X66068615Y-145502167D01*
X66183635Y-145330027D01*
X66330027Y-145183635D01*
X66502165Y-145068616D01*
X66502167Y-145068615D01*
X66693436Y-144989389D01*
X66896484Y-144949000D01*
X67103516Y-144949000D01*
X67306564Y-144989389D01*
G37*
G36*
X133306564Y-141989389D02*
G01*
X133497833Y-142068615D01*
X133497835Y-142068616D01*
X133669973Y-142183635D01*
X133816365Y-142330027D01*
X133931385Y-142502167D01*
X134010611Y-142693436D01*
X134051000Y-142896484D01*
X134051000Y-143103516D01*
X134010611Y-143306564D01*
X133931385Y-143497833D01*
X133931384Y-143497835D01*
X133816365Y-143669973D01*
X133669973Y-143816365D01*
X133497835Y-143931384D01*
X133497834Y-143931385D01*
X133497833Y-143931385D01*
X133306564Y-144010611D01*
X133103516Y-144051000D01*
X132896484Y-144051000D01*
X132693436Y-144010611D01*
X132502167Y-143931385D01*
X132502166Y-143931385D01*
X132502165Y-143931384D01*
X132330027Y-143816365D01*
X132183635Y-143669973D01*
X132068616Y-143497835D01*
X132068615Y-143497833D01*
X131989389Y-143306564D01*
X131949000Y-143103516D01*
X131949000Y-142896484D01*
X131989389Y-142693436D01*
X132068615Y-142502167D01*
X132183635Y-142330027D01*
X132330027Y-142183635D01*
X132502165Y-142068616D01*
X132502167Y-142068615D01*
X132693436Y-141989389D01*
X132896484Y-141949000D01*
X133103516Y-141949000D01*
X133306564Y-141989389D01*
G37*
G36*
X108306564Y-141989389D02*
G01*
X108497833Y-142068615D01*
X108497835Y-142068616D01*
X108669973Y-142183635D01*
X108816365Y-142330027D01*
X108931385Y-142502167D01*
X109010611Y-142693436D01*
X109051000Y-142896484D01*
X109051000Y-143103516D01*
X109010611Y-143306564D01*
X108931385Y-143497833D01*
X108931384Y-143497835D01*
X108816365Y-143669973D01*
X108669973Y-143816365D01*
X108497835Y-143931384D01*
X108497834Y-143931385D01*
X108497833Y-143931385D01*
X108306564Y-144010611D01*
X108103516Y-144051000D01*
X107896484Y-144051000D01*
X107693436Y-144010611D01*
X107502167Y-143931385D01*
X107502166Y-143931385D01*
X107502165Y-143931384D01*
X107330027Y-143816365D01*
X107183635Y-143669973D01*
X107068616Y-143497835D01*
X107068615Y-143497833D01*
X106989389Y-143306564D01*
X106949000Y-143103516D01*
X106949000Y-142896484D01*
X106989389Y-142693436D01*
X107068615Y-142502167D01*
X107183635Y-142330027D01*
X107330027Y-142183635D01*
X107502165Y-142068616D01*
X107502167Y-142068615D01*
X107693436Y-141989389D01*
X107896484Y-141949000D01*
X108103516Y-141949000D01*
X108306564Y-141989389D01*
G37*
G36*
X58306564Y-141989389D02*
G01*
X58497833Y-142068615D01*
X58497835Y-142068616D01*
X58669973Y-142183635D01*
X58816365Y-142330027D01*
X58931385Y-142502167D01*
X59010611Y-142693436D01*
X59051000Y-142896484D01*
X59051000Y-143103516D01*
X59010611Y-143306564D01*
X58931385Y-143497833D01*
X58931384Y-143497835D01*
X58816365Y-143669973D01*
X58669973Y-143816365D01*
X58497835Y-143931384D01*
X58497834Y-143931385D01*
X58497833Y-143931385D01*
X58306564Y-144010611D01*
X58103516Y-144051000D01*
X57896484Y-144051000D01*
X57693436Y-144010611D01*
X57502167Y-143931385D01*
X57502166Y-143931385D01*
X57502165Y-143931384D01*
X57330027Y-143816365D01*
X57183635Y-143669973D01*
X57068616Y-143497835D01*
X57068615Y-143497833D01*
X56989389Y-143306564D01*
X56949000Y-143103516D01*
X56949000Y-142896484D01*
X56989389Y-142693436D01*
X57068615Y-142502167D01*
X57183635Y-142330027D01*
X57330027Y-142183635D01*
X57502165Y-142068616D01*
X57502167Y-142068615D01*
X57693436Y-141989389D01*
X57896484Y-141949000D01*
X58103516Y-141949000D01*
X58306564Y-141989389D01*
G37*
G36*
X83306564Y-141989389D02*
G01*
X83497833Y-142068615D01*
X83497835Y-142068616D01*
X83669973Y-142183635D01*
X83816365Y-142330027D01*
X83931385Y-142502167D01*
X84010611Y-142693436D01*
X84051000Y-142896484D01*
X84051000Y-143103516D01*
X84010611Y-143306564D01*
X83931385Y-143497833D01*
X83931384Y-143497835D01*
X83816365Y-143669973D01*
X83669973Y-143816365D01*
X83497835Y-143931384D01*
X83497834Y-143931385D01*
X83497833Y-143931385D01*
X83306564Y-144010611D01*
X83103516Y-144051000D01*
X82896484Y-144051000D01*
X82693436Y-144010611D01*
X82502167Y-143931385D01*
X82502166Y-143931385D01*
X82502165Y-143931384D01*
X82330027Y-143816365D01*
X82183635Y-143669973D01*
X82068616Y-143497835D01*
X82068615Y-143497833D01*
X81989389Y-143306564D01*
X81949000Y-143103516D01*
X81949000Y-142896484D01*
X81989389Y-142693436D01*
X82068615Y-142502167D01*
X82183635Y-142330027D01*
X82330027Y-142183635D01*
X82502165Y-142068616D01*
X82502167Y-142068615D01*
X82693436Y-141989389D01*
X82896484Y-141949000D01*
X83103516Y-141949000D01*
X83306564Y-141989389D01*
G37*
G36*
X128791000Y-142629333D02*
G01*
X125209000Y-142629333D01*
X125209000Y-140680667D01*
X128791000Y-140680667D01*
X128791000Y-142629333D01*
G37*
G36*
X99791000Y-142629333D02*
G01*
X96209000Y-142629333D01*
X96209000Y-140680667D01*
X99791000Y-140680667D01*
X99791000Y-142629333D01*
G37*
G36*
X78791000Y-142629333D02*
G01*
X75209000Y-142629333D01*
X75209000Y-140680667D01*
X78791000Y-140680667D01*
X78791000Y-142629333D01*
G37*
G36*
X74791000Y-142629333D02*
G01*
X71209000Y-142629333D01*
X71209000Y-140680667D01*
X74791000Y-140680667D01*
X74791000Y-142629333D01*
G37*
G36*
X149791000Y-142629333D02*
G01*
X146209000Y-142629333D01*
X146209000Y-140680667D01*
X149791000Y-140680667D01*
X149791000Y-142629333D01*
G37*
G36*
X53791000Y-142629333D02*
G01*
X50209000Y-142629333D01*
X50209000Y-140680667D01*
X53791000Y-140680667D01*
X53791000Y-142629333D01*
G37*
G36*
X124791000Y-142629333D02*
G01*
X121209000Y-142629333D01*
X121209000Y-140680667D01*
X124791000Y-140680667D01*
X124791000Y-142629333D01*
G37*
G36*
X103791000Y-142629333D02*
G01*
X100209000Y-142629333D01*
X100209000Y-140680667D01*
X103791000Y-140680667D01*
X103791000Y-142629333D01*
G37*
G36*
X142306564Y-139489389D02*
G01*
X142497833Y-139568615D01*
X142497835Y-139568616D01*
X142669973Y-139683635D01*
X142816365Y-139830027D01*
X142931385Y-140002167D01*
X143010611Y-140193436D01*
X143051000Y-140396484D01*
X143051000Y-140603516D01*
X143010611Y-140806564D01*
X142931385Y-140997833D01*
X142931384Y-140997835D01*
X142816365Y-141169973D01*
X142669973Y-141316365D01*
X142497835Y-141431384D01*
X142497834Y-141431385D01*
X142497833Y-141431385D01*
X142306564Y-141510611D01*
X142103516Y-141551000D01*
X141896484Y-141551000D01*
X141693436Y-141510611D01*
X141502167Y-141431385D01*
X141502166Y-141431385D01*
X141502165Y-141431384D01*
X141330027Y-141316365D01*
X141183635Y-141169973D01*
X141068616Y-140997835D01*
X141068615Y-140997833D01*
X140989389Y-140806564D01*
X140949000Y-140603516D01*
X140949000Y-140396484D01*
X140989389Y-140193436D01*
X141068615Y-140002167D01*
X141183635Y-139830027D01*
X141330027Y-139683635D01*
X141502165Y-139568616D01*
X141502167Y-139568615D01*
X141693436Y-139489389D01*
X141896484Y-139449000D01*
X142103516Y-139449000D01*
X142306564Y-139489389D01*
G37*
G36*
X67306564Y-139489389D02*
G01*
X67497833Y-139568615D01*
X67497835Y-139568616D01*
X67669973Y-139683635D01*
X67816365Y-139830027D01*
X67931385Y-140002167D01*
X68010611Y-140193436D01*
X68051000Y-140396484D01*
X68051000Y-140603516D01*
X68010611Y-140806564D01*
X67931385Y-140997833D01*
X67931384Y-140997835D01*
X67816365Y-141169973D01*
X67669973Y-141316365D01*
X67497835Y-141431384D01*
X67497834Y-141431385D01*
X67497833Y-141431385D01*
X67306564Y-141510611D01*
X67103516Y-141551000D01*
X66896484Y-141551000D01*
X66693436Y-141510611D01*
X66502167Y-141431385D01*
X66502166Y-141431385D01*
X66502165Y-141431384D01*
X66330027Y-141316365D01*
X66183635Y-141169973D01*
X66068616Y-140997835D01*
X66068615Y-140997833D01*
X65989389Y-140806564D01*
X65949000Y-140603516D01*
X65949000Y-140396484D01*
X65989389Y-140193436D01*
X66068615Y-140002167D01*
X66183635Y-139830027D01*
X66330027Y-139683635D01*
X66502165Y-139568616D01*
X66502167Y-139568615D01*
X66693436Y-139489389D01*
X66896484Y-139449000D01*
X67103516Y-139449000D01*
X67306564Y-139489389D01*
G37*
G36*
X117306564Y-139489389D02*
G01*
X117497833Y-139568615D01*
X117497835Y-139568616D01*
X117669973Y-139683635D01*
X117816365Y-139830027D01*
X117931385Y-140002167D01*
X118010611Y-140193436D01*
X118051000Y-140396484D01*
X118051000Y-140603516D01*
X118010611Y-140806564D01*
X117931385Y-140997833D01*
X117931384Y-140997835D01*
X117816365Y-141169973D01*
X117669973Y-141316365D01*
X117497835Y-141431384D01*
X117497834Y-141431385D01*
X117497833Y-141431385D01*
X117306564Y-141510611D01*
X117103516Y-141551000D01*
X116896484Y-141551000D01*
X116693436Y-141510611D01*
X116502167Y-141431385D01*
X116502166Y-141431385D01*
X116502165Y-141431384D01*
X116330027Y-141316365D01*
X116183635Y-141169973D01*
X116068616Y-140997835D01*
X116068615Y-140997833D01*
X115989389Y-140806564D01*
X115949000Y-140603516D01*
X115949000Y-140396484D01*
X115989389Y-140193436D01*
X116068615Y-140002167D01*
X116183635Y-139830027D01*
X116330027Y-139683635D01*
X116502165Y-139568616D01*
X116502167Y-139568615D01*
X116693436Y-139489389D01*
X116896484Y-139449000D01*
X117103516Y-139449000D01*
X117306564Y-139489389D01*
G37*
G36*
X92306564Y-139489389D02*
G01*
X92497833Y-139568615D01*
X92497835Y-139568616D01*
X92669973Y-139683635D01*
X92816365Y-139830027D01*
X92931385Y-140002167D01*
X93010611Y-140193436D01*
X93051000Y-140396484D01*
X93051000Y-140603516D01*
X93010611Y-140806564D01*
X92931385Y-140997833D01*
X92931384Y-140997835D01*
X92816365Y-141169973D01*
X92669973Y-141316365D01*
X92497835Y-141431384D01*
X92497834Y-141431385D01*
X92497833Y-141431385D01*
X92306564Y-141510611D01*
X92103516Y-141551000D01*
X91896484Y-141551000D01*
X91693436Y-141510611D01*
X91502167Y-141431385D01*
X91502166Y-141431385D01*
X91502165Y-141431384D01*
X91330027Y-141316365D01*
X91183635Y-141169973D01*
X91068616Y-140997835D01*
X91068615Y-140997833D01*
X90989389Y-140806564D01*
X90949000Y-140603516D01*
X90949000Y-140396484D01*
X90989389Y-140193436D01*
X91068615Y-140002167D01*
X91183635Y-139830027D01*
X91330027Y-139683635D01*
X91502165Y-139568616D01*
X91502167Y-139568615D01*
X91693436Y-139489389D01*
X91896484Y-139449000D01*
X92103516Y-139449000D01*
X92306564Y-139489389D01*
G37*
G36*
X78791000Y-139859333D02*
G01*
X75209000Y-139859333D01*
X75209000Y-137910667D01*
X78791000Y-137910667D01*
X78791000Y-139859333D01*
G37*
G36*
X103791000Y-139859333D02*
G01*
X100209000Y-139859333D01*
X100209000Y-137910667D01*
X103791000Y-137910667D01*
X103791000Y-139859333D01*
G37*
G36*
X99791000Y-139859333D02*
G01*
X96209000Y-139859333D01*
X96209000Y-137910667D01*
X99791000Y-137910667D01*
X99791000Y-139859333D01*
G37*
G36*
X149791000Y-139859333D02*
G01*
X146209000Y-139859333D01*
X146209000Y-137910667D01*
X149791000Y-137910667D01*
X149791000Y-139859333D01*
G37*
G36*
X53791000Y-139859333D02*
G01*
X50209000Y-139859333D01*
X50209000Y-137910667D01*
X53791000Y-137910667D01*
X53791000Y-139859333D01*
G37*
G36*
X74791000Y-139859333D02*
G01*
X71209000Y-139859333D01*
X71209000Y-137910667D01*
X74791000Y-137910667D01*
X74791000Y-139859333D01*
G37*
G36*
X128791000Y-139859333D02*
G01*
X125209000Y-139859333D01*
X125209000Y-137910667D01*
X128791000Y-137910667D01*
X128791000Y-139859333D01*
G37*
G36*
X124791000Y-139859333D02*
G01*
X121209000Y-139859333D01*
X121209000Y-137910667D01*
X124791000Y-137910667D01*
X124791000Y-139859333D01*
G37*
G36*
X83306564Y-136489389D02*
G01*
X83497833Y-136568615D01*
X83497835Y-136568616D01*
X83669973Y-136683635D01*
X83816365Y-136830027D01*
X83931385Y-137002167D01*
X84010611Y-137193436D01*
X84051000Y-137396484D01*
X84051000Y-137603516D01*
X84010611Y-137806564D01*
X83967490Y-137910667D01*
X83931384Y-137997835D01*
X83816365Y-138169973D01*
X83669973Y-138316365D01*
X83497835Y-138431384D01*
X83497834Y-138431385D01*
X83497833Y-138431385D01*
X83306564Y-138510611D01*
X83103516Y-138551000D01*
X82896484Y-138551000D01*
X82693436Y-138510611D01*
X82502167Y-138431385D01*
X82502166Y-138431385D01*
X82502165Y-138431384D01*
X82330027Y-138316365D01*
X82183635Y-138169973D01*
X82068616Y-137997835D01*
X82032510Y-137910667D01*
X81989389Y-137806564D01*
X81949000Y-137603516D01*
X81949000Y-137396484D01*
X81989389Y-137193436D01*
X82068615Y-137002167D01*
X82183635Y-136830027D01*
X82330027Y-136683635D01*
X82502165Y-136568616D01*
X82502167Y-136568615D01*
X82693436Y-136489389D01*
X82896484Y-136449000D01*
X83103516Y-136449000D01*
X83306564Y-136489389D01*
G37*
G36*
X133306564Y-136489389D02*
G01*
X133497833Y-136568615D01*
X133497835Y-136568616D01*
X133669973Y-136683635D01*
X133816365Y-136830027D01*
X133931385Y-137002167D01*
X134010611Y-137193436D01*
X134051000Y-137396484D01*
X134051000Y-137603516D01*
X134010611Y-137806564D01*
X133967490Y-137910667D01*
X133931384Y-137997835D01*
X133816365Y-138169973D01*
X133669973Y-138316365D01*
X133497835Y-138431384D01*
X133497834Y-138431385D01*
X133497833Y-138431385D01*
X133306564Y-138510611D01*
X133103516Y-138551000D01*
X132896484Y-138551000D01*
X132693436Y-138510611D01*
X132502167Y-138431385D01*
X132502166Y-138431385D01*
X132502165Y-138431384D01*
X132330027Y-138316365D01*
X132183635Y-138169973D01*
X132068616Y-137997835D01*
X132032510Y-137910667D01*
X131989389Y-137806564D01*
X131949000Y-137603516D01*
X131949000Y-137396484D01*
X131989389Y-137193436D01*
X132068615Y-137002167D01*
X132183635Y-136830027D01*
X132330027Y-136683635D01*
X132502165Y-136568616D01*
X132502167Y-136568615D01*
X132693436Y-136489389D01*
X132896484Y-136449000D01*
X133103516Y-136449000D01*
X133306564Y-136489389D01*
G37*
G36*
X108306564Y-136489389D02*
G01*
X108497833Y-136568615D01*
X108497835Y-136568616D01*
X108669973Y-136683635D01*
X108816365Y-136830027D01*
X108931385Y-137002167D01*
X109010611Y-137193436D01*
X109051000Y-137396484D01*
X109051000Y-137603516D01*
X109010611Y-137806564D01*
X108967490Y-137910667D01*
X108931384Y-137997835D01*
X108816365Y-138169973D01*
X108669973Y-138316365D01*
X108497835Y-138431384D01*
X108497834Y-138431385D01*
X108497833Y-138431385D01*
X108306564Y-138510611D01*
X108103516Y-138551000D01*
X107896484Y-138551000D01*
X107693436Y-138510611D01*
X107502167Y-138431385D01*
X107502166Y-138431385D01*
X107502165Y-138431384D01*
X107330027Y-138316365D01*
X107183635Y-138169973D01*
X107068616Y-137997835D01*
X107032510Y-137910667D01*
X106989389Y-137806564D01*
X106949000Y-137603516D01*
X106949000Y-137396484D01*
X106989389Y-137193436D01*
X107068615Y-137002167D01*
X107183635Y-136830027D01*
X107330027Y-136683635D01*
X107502165Y-136568616D01*
X107502167Y-136568615D01*
X107693436Y-136489389D01*
X107896484Y-136449000D01*
X108103516Y-136449000D01*
X108306564Y-136489389D01*
G37*
G36*
X58306564Y-136489389D02*
G01*
X58497833Y-136568615D01*
X58497835Y-136568616D01*
X58669973Y-136683635D01*
X58816365Y-136830027D01*
X58931385Y-137002167D01*
X59010611Y-137193436D01*
X59051000Y-137396484D01*
X59051000Y-137603516D01*
X59010611Y-137806564D01*
X58967490Y-137910667D01*
X58931384Y-137997835D01*
X58816365Y-138169973D01*
X58669973Y-138316365D01*
X58497835Y-138431384D01*
X58497834Y-138431385D01*
X58497833Y-138431385D01*
X58306564Y-138510611D01*
X58103516Y-138551000D01*
X57896484Y-138551000D01*
X57693436Y-138510611D01*
X57502167Y-138431385D01*
X57502166Y-138431385D01*
X57502165Y-138431384D01*
X57330027Y-138316365D01*
X57183635Y-138169973D01*
X57068616Y-137997835D01*
X57032510Y-137910667D01*
X56989389Y-137806564D01*
X56949000Y-137603516D01*
X56949000Y-137396484D01*
X56989389Y-137193436D01*
X57068615Y-137002167D01*
X57183635Y-136830027D01*
X57330027Y-136683635D01*
X57502165Y-136568616D01*
X57502167Y-136568615D01*
X57693436Y-136489389D01*
X57896484Y-136449000D01*
X58103516Y-136449000D01*
X58306564Y-136489389D01*
G37*
G36*
X78791000Y-137089333D02*
G01*
X75209000Y-137089333D01*
X75209000Y-135140667D01*
X78791000Y-135140667D01*
X78791000Y-137089333D01*
G37*
G36*
X74791000Y-137089333D02*
G01*
X71209000Y-137089333D01*
X71209000Y-135140667D01*
X74791000Y-135140667D01*
X74791000Y-137089333D01*
G37*
G36*
X53791000Y-137089333D02*
G01*
X50209000Y-137089333D01*
X50209000Y-135140667D01*
X53791000Y-135140667D01*
X53791000Y-137089333D01*
G37*
G36*
X99791000Y-137089333D02*
G01*
X96209000Y-137089333D01*
X96209000Y-135140667D01*
X99791000Y-135140667D01*
X99791000Y-137089333D01*
G37*
G36*
X124791000Y-137089333D02*
G01*
X121209000Y-137089333D01*
X121209000Y-135140667D01*
X124791000Y-135140667D01*
X124791000Y-137089333D01*
G37*
G36*
X128791000Y-137089333D02*
G01*
X125209000Y-137089333D01*
X125209000Y-135140667D01*
X128791000Y-135140667D01*
X128791000Y-137089333D01*
G37*
G36*
X149791000Y-137089333D02*
G01*
X146209000Y-137089333D01*
X146209000Y-135140667D01*
X149791000Y-135140667D01*
X149791000Y-137089333D01*
G37*
G36*
X103791000Y-137089333D02*
G01*
X100209000Y-137089333D01*
X100209000Y-135140667D01*
X103791000Y-135140667D01*
X103791000Y-137089333D01*
G37*
G36*
X67306564Y-133489389D02*
G01*
X67497833Y-133568615D01*
X67497835Y-133568616D01*
X67669973Y-133683635D01*
X67816365Y-133830027D01*
X67931385Y-134002167D01*
X68010611Y-134193436D01*
X68051000Y-134396484D01*
X68051000Y-134603516D01*
X68010611Y-134806564D01*
X67931385Y-134997833D01*
X67931384Y-134997835D01*
X67816365Y-135169973D01*
X67669973Y-135316365D01*
X67497835Y-135431384D01*
X67497834Y-135431385D01*
X67497833Y-135431385D01*
X67306564Y-135510611D01*
X67103516Y-135551000D01*
X66896484Y-135551000D01*
X66693436Y-135510611D01*
X66502167Y-135431385D01*
X66502166Y-135431385D01*
X66502165Y-135431384D01*
X66330027Y-135316365D01*
X66183635Y-135169973D01*
X66068616Y-134997835D01*
X66068615Y-134997833D01*
X65989389Y-134806564D01*
X65949000Y-134603516D01*
X65949000Y-134396484D01*
X65989389Y-134193436D01*
X66068615Y-134002167D01*
X66183635Y-133830027D01*
X66330027Y-133683635D01*
X66502165Y-133568616D01*
X66502167Y-133568615D01*
X66693436Y-133489389D01*
X66896484Y-133449000D01*
X67103516Y-133449000D01*
X67306564Y-133489389D01*
G37*
G36*
X142306564Y-133489389D02*
G01*
X142497833Y-133568615D01*
X142497835Y-133568616D01*
X142669973Y-133683635D01*
X142816365Y-133830027D01*
X142931385Y-134002167D01*
X143010611Y-134193436D01*
X143051000Y-134396484D01*
X143051000Y-134603516D01*
X143010611Y-134806564D01*
X142931385Y-134997833D01*
X142931384Y-134997835D01*
X142816365Y-135169973D01*
X142669973Y-135316365D01*
X142497835Y-135431384D01*
X142497834Y-135431385D01*
X142497833Y-135431385D01*
X142306564Y-135510611D01*
X142103516Y-135551000D01*
X141896484Y-135551000D01*
X141693436Y-135510611D01*
X141502167Y-135431385D01*
X141502166Y-135431385D01*
X141502165Y-135431384D01*
X141330027Y-135316365D01*
X141183635Y-135169973D01*
X141068616Y-134997835D01*
X141068615Y-134997833D01*
X140989389Y-134806564D01*
X140949000Y-134603516D01*
X140949000Y-134396484D01*
X140989389Y-134193436D01*
X141068615Y-134002167D01*
X141183635Y-133830027D01*
X141330027Y-133683635D01*
X141502165Y-133568616D01*
X141502167Y-133568615D01*
X141693436Y-133489389D01*
X141896484Y-133449000D01*
X142103516Y-133449000D01*
X142306564Y-133489389D01*
G37*
G36*
X117306564Y-133489389D02*
G01*
X117497833Y-133568615D01*
X117497835Y-133568616D01*
X117669973Y-133683635D01*
X117816365Y-133830027D01*
X117931385Y-134002167D01*
X118010611Y-134193436D01*
X118051000Y-134396484D01*
X118051000Y-134603516D01*
X118010611Y-134806564D01*
X117931385Y-134997833D01*
X117931384Y-134997835D01*
X117816365Y-135169973D01*
X117669973Y-135316365D01*
X117497835Y-135431384D01*
X117497834Y-135431385D01*
X117497833Y-135431385D01*
X117306564Y-135510611D01*
X117103516Y-135551000D01*
X116896484Y-135551000D01*
X116693436Y-135510611D01*
X116502167Y-135431385D01*
X116502166Y-135431385D01*
X116502165Y-135431384D01*
X116330027Y-135316365D01*
X116183635Y-135169973D01*
X116068616Y-134997835D01*
X116068615Y-134997833D01*
X115989389Y-134806564D01*
X115949000Y-134603516D01*
X115949000Y-134396484D01*
X115989389Y-134193436D01*
X116068615Y-134002167D01*
X116183635Y-133830027D01*
X116330027Y-133683635D01*
X116502165Y-133568616D01*
X116502167Y-133568615D01*
X116693436Y-133489389D01*
X116896484Y-133449000D01*
X117103516Y-133449000D01*
X117306564Y-133489389D01*
G37*
G36*
X92306564Y-133489389D02*
G01*
X92497833Y-133568615D01*
X92497835Y-133568616D01*
X92669973Y-133683635D01*
X92816365Y-133830027D01*
X92931385Y-134002167D01*
X93010611Y-134193436D01*
X93051000Y-134396484D01*
X93051000Y-134603516D01*
X93010611Y-134806564D01*
X92931385Y-134997833D01*
X92931384Y-134997835D01*
X92816365Y-135169973D01*
X92669973Y-135316365D01*
X92497835Y-135431384D01*
X92497834Y-135431385D01*
X92497833Y-135431385D01*
X92306564Y-135510611D01*
X92103516Y-135551000D01*
X91896484Y-135551000D01*
X91693436Y-135510611D01*
X91502167Y-135431385D01*
X91502166Y-135431385D01*
X91502165Y-135431384D01*
X91330027Y-135316365D01*
X91183635Y-135169973D01*
X91068616Y-134997835D01*
X91068615Y-134997833D01*
X90989389Y-134806564D01*
X90949000Y-134603516D01*
X90949000Y-134396484D01*
X90989389Y-134193436D01*
X91068615Y-134002167D01*
X91183635Y-133830027D01*
X91330027Y-133683635D01*
X91502165Y-133568616D01*
X91502167Y-133568615D01*
X91693436Y-133489389D01*
X91896484Y-133449000D01*
X92103516Y-133449000D01*
X92306564Y-133489389D01*
G37*
G36*
X99791000Y-134319333D02*
G01*
X96209000Y-134319333D01*
X96209000Y-132370667D01*
X99791000Y-132370667D01*
X99791000Y-134319333D01*
G37*
G36*
X149791000Y-134319333D02*
G01*
X146209000Y-134319333D01*
X146209000Y-132370667D01*
X149791000Y-132370667D01*
X149791000Y-134319333D01*
G37*
G36*
X53791000Y-134319333D02*
G01*
X50209000Y-134319333D01*
X50209000Y-132370667D01*
X53791000Y-132370667D01*
X53791000Y-134319333D01*
G37*
G36*
X78791000Y-134319333D02*
G01*
X75209000Y-134319333D01*
X75209000Y-132370667D01*
X78791000Y-132370667D01*
X78791000Y-134319333D01*
G37*
G36*
X103791000Y-134319333D02*
G01*
X100209000Y-134319333D01*
X100209000Y-132370667D01*
X103791000Y-132370667D01*
X103791000Y-134319333D01*
G37*
G36*
X124791000Y-134319333D02*
G01*
X121209000Y-134319333D01*
X121209000Y-132370667D01*
X124791000Y-132370667D01*
X124791000Y-134319333D01*
G37*
G36*
X74791000Y-134319333D02*
G01*
X71209000Y-134319333D01*
X71209000Y-132370667D01*
X74791000Y-132370667D01*
X74791000Y-134319333D01*
G37*
G36*
X128791000Y-134319333D02*
G01*
X125209000Y-134319333D01*
X125209000Y-132370667D01*
X128791000Y-132370667D01*
X128791000Y-134319333D01*
G37*
G36*
X58306564Y-130989389D02*
G01*
X58497833Y-131068615D01*
X58497835Y-131068616D01*
X58669973Y-131183635D01*
X58816365Y-131330027D01*
X58931385Y-131502167D01*
X59010611Y-131693436D01*
X59051000Y-131896484D01*
X59051000Y-132103516D01*
X59010611Y-132306564D01*
X58931385Y-132497833D01*
X58931384Y-132497835D01*
X58816365Y-132669973D01*
X58669973Y-132816365D01*
X58497835Y-132931384D01*
X58497834Y-132931385D01*
X58497833Y-132931385D01*
X58306564Y-133010611D01*
X58103516Y-133051000D01*
X57896484Y-133051000D01*
X57693436Y-133010611D01*
X57502167Y-132931385D01*
X57502166Y-132931385D01*
X57502165Y-132931384D01*
X57330027Y-132816365D01*
X57183635Y-132669973D01*
X57068616Y-132497835D01*
X57068615Y-132497833D01*
X56989389Y-132306564D01*
X56949000Y-132103516D01*
X56949000Y-131896484D01*
X56989389Y-131693436D01*
X57068615Y-131502167D01*
X57183635Y-131330027D01*
X57330027Y-131183635D01*
X57502165Y-131068616D01*
X57502167Y-131068615D01*
X57693436Y-130989389D01*
X57896484Y-130949000D01*
X58103516Y-130949000D01*
X58306564Y-130989389D01*
G37*
G36*
X83306564Y-130989389D02*
G01*
X83497833Y-131068615D01*
X83497835Y-131068616D01*
X83669973Y-131183635D01*
X83816365Y-131330027D01*
X83931385Y-131502167D01*
X84010611Y-131693436D01*
X84051000Y-131896484D01*
X84051000Y-132103516D01*
X84010611Y-132306564D01*
X83931385Y-132497833D01*
X83931384Y-132497835D01*
X83816365Y-132669973D01*
X83669973Y-132816365D01*
X83497835Y-132931384D01*
X83497834Y-132931385D01*
X83497833Y-132931385D01*
X83306564Y-133010611D01*
X83103516Y-133051000D01*
X82896484Y-133051000D01*
X82693436Y-133010611D01*
X82502167Y-132931385D01*
X82502166Y-132931385D01*
X82502165Y-132931384D01*
X82330027Y-132816365D01*
X82183635Y-132669973D01*
X82068616Y-132497835D01*
X82068615Y-132497833D01*
X81989389Y-132306564D01*
X81949000Y-132103516D01*
X81949000Y-131896484D01*
X81989389Y-131693436D01*
X82068615Y-131502167D01*
X82183635Y-131330027D01*
X82330027Y-131183635D01*
X82502165Y-131068616D01*
X82502167Y-131068615D01*
X82693436Y-130989389D01*
X82896484Y-130949000D01*
X83103516Y-130949000D01*
X83306564Y-130989389D01*
G37*
G36*
X108306564Y-130989389D02*
G01*
X108497833Y-131068615D01*
X108497835Y-131068616D01*
X108669973Y-131183635D01*
X108816365Y-131330027D01*
X108931385Y-131502167D01*
X109010611Y-131693436D01*
X109051000Y-131896484D01*
X109051000Y-132103516D01*
X109010611Y-132306564D01*
X108931385Y-132497833D01*
X108931384Y-132497835D01*
X108816365Y-132669973D01*
X108669973Y-132816365D01*
X108497835Y-132931384D01*
X108497834Y-132931385D01*
X108497833Y-132931385D01*
X108306564Y-133010611D01*
X108103516Y-133051000D01*
X107896484Y-133051000D01*
X107693436Y-133010611D01*
X107502167Y-132931385D01*
X107502166Y-132931385D01*
X107502165Y-132931384D01*
X107330027Y-132816365D01*
X107183635Y-132669973D01*
X107068616Y-132497835D01*
X107068615Y-132497833D01*
X106989389Y-132306564D01*
X106949000Y-132103516D01*
X106949000Y-131896484D01*
X106989389Y-131693436D01*
X107068615Y-131502167D01*
X107183635Y-131330027D01*
X107330027Y-131183635D01*
X107502165Y-131068616D01*
X107502167Y-131068615D01*
X107693436Y-130989389D01*
X107896484Y-130949000D01*
X108103516Y-130949000D01*
X108306564Y-130989389D01*
G37*
G36*
X133306564Y-130989389D02*
G01*
X133497833Y-131068615D01*
X133497835Y-131068616D01*
X133669973Y-131183635D01*
X133816365Y-131330027D01*
X133931385Y-131502167D01*
X134010611Y-131693436D01*
X134051000Y-131896484D01*
X134051000Y-132103516D01*
X134010611Y-132306564D01*
X133931385Y-132497833D01*
X133931384Y-132497835D01*
X133816365Y-132669973D01*
X133669973Y-132816365D01*
X133497835Y-132931384D01*
X133497834Y-132931385D01*
X133497833Y-132931385D01*
X133306564Y-133010611D01*
X133103516Y-133051000D01*
X132896484Y-133051000D01*
X132693436Y-133010611D01*
X132502167Y-132931385D01*
X132502166Y-132931385D01*
X132502165Y-132931384D01*
X132330027Y-132816365D01*
X132183635Y-132669973D01*
X132068616Y-132497835D01*
X132068615Y-132497833D01*
X131989389Y-132306564D01*
X131949000Y-132103516D01*
X131949000Y-131896484D01*
X131989389Y-131693436D01*
X132068615Y-131502167D01*
X132183635Y-131330027D01*
X132330027Y-131183635D01*
X132502165Y-131068616D01*
X132502167Y-131068615D01*
X132693436Y-130989389D01*
X132896484Y-130949000D01*
X133103516Y-130949000D01*
X133306564Y-130989389D01*
G37*
G36*
X67306564Y-127989389D02*
G01*
X67497833Y-128068615D01*
X67497835Y-128068616D01*
X67669973Y-128183635D01*
X67816365Y-128330027D01*
X67931385Y-128502167D01*
X68010611Y-128693436D01*
X68051000Y-128896484D01*
X68051000Y-129103516D01*
X68010611Y-129306564D01*
X67931385Y-129497833D01*
X67931384Y-129497835D01*
X67816365Y-129669973D01*
X67669973Y-129816365D01*
X67497835Y-129931384D01*
X67497834Y-129931385D01*
X67497833Y-129931385D01*
X67306564Y-130010611D01*
X67103516Y-130051000D01*
X66896484Y-130051000D01*
X66693436Y-130010611D01*
X66502167Y-129931385D01*
X66502166Y-129931385D01*
X66502165Y-129931384D01*
X66330027Y-129816365D01*
X66183635Y-129669973D01*
X66068616Y-129497835D01*
X66068615Y-129497833D01*
X65989389Y-129306564D01*
X65949000Y-129103516D01*
X65949000Y-128896484D01*
X65989389Y-128693436D01*
X66068615Y-128502167D01*
X66183635Y-128330027D01*
X66330027Y-128183635D01*
X66502165Y-128068616D01*
X66502167Y-128068615D01*
X66693436Y-127989389D01*
X66896484Y-127949000D01*
X67103516Y-127949000D01*
X67306564Y-127989389D01*
G37*
G36*
X142306564Y-127989389D02*
G01*
X142497833Y-128068615D01*
X142497835Y-128068616D01*
X142669973Y-128183635D01*
X142816365Y-128330027D01*
X142931385Y-128502167D01*
X143010611Y-128693436D01*
X143051000Y-128896484D01*
X143051000Y-129103516D01*
X143010611Y-129306564D01*
X142931385Y-129497833D01*
X142931384Y-129497835D01*
X142816365Y-129669973D01*
X142669973Y-129816365D01*
X142497835Y-129931384D01*
X142497834Y-129931385D01*
X142497833Y-129931385D01*
X142306564Y-130010611D01*
X142103516Y-130051000D01*
X141896484Y-130051000D01*
X141693436Y-130010611D01*
X141502167Y-129931385D01*
X141502166Y-129931385D01*
X141502165Y-129931384D01*
X141330027Y-129816365D01*
X141183635Y-129669973D01*
X141068616Y-129497835D01*
X141068615Y-129497833D01*
X140989389Y-129306564D01*
X140949000Y-129103516D01*
X140949000Y-128896484D01*
X140989389Y-128693436D01*
X141068615Y-128502167D01*
X141183635Y-128330027D01*
X141330027Y-128183635D01*
X141502165Y-128068616D01*
X141502167Y-128068615D01*
X141693436Y-127989389D01*
X141896484Y-127949000D01*
X142103516Y-127949000D01*
X142306564Y-127989389D01*
G37*
G36*
X92306564Y-127989389D02*
G01*
X92497833Y-128068615D01*
X92497835Y-128068616D01*
X92669973Y-128183635D01*
X92816365Y-128330027D01*
X92931385Y-128502167D01*
X93010611Y-128693436D01*
X93051000Y-128896484D01*
X93051000Y-129103516D01*
X93010611Y-129306564D01*
X92931385Y-129497833D01*
X92931384Y-129497835D01*
X92816365Y-129669973D01*
X92669973Y-129816365D01*
X92497835Y-129931384D01*
X92497834Y-129931385D01*
X92497833Y-129931385D01*
X92306564Y-130010611D01*
X92103516Y-130051000D01*
X91896484Y-130051000D01*
X91693436Y-130010611D01*
X91502167Y-129931385D01*
X91502166Y-129931385D01*
X91502165Y-129931384D01*
X91330027Y-129816365D01*
X91183635Y-129669973D01*
X91068616Y-129497835D01*
X91068615Y-129497833D01*
X90989389Y-129306564D01*
X90949000Y-129103516D01*
X90949000Y-128896484D01*
X90989389Y-128693436D01*
X91068615Y-128502167D01*
X91183635Y-128330027D01*
X91330027Y-128183635D01*
X91502165Y-128068616D01*
X91502167Y-128068615D01*
X91693436Y-127989389D01*
X91896484Y-127949000D01*
X92103516Y-127949000D01*
X92306564Y-127989389D01*
G37*
G36*
X117306564Y-127989389D02*
G01*
X117497833Y-128068615D01*
X117497835Y-128068616D01*
X117669973Y-128183635D01*
X117816365Y-128330027D01*
X117931385Y-128502167D01*
X118010611Y-128693436D01*
X118051000Y-128896484D01*
X118051000Y-129103516D01*
X118010611Y-129306564D01*
X117931385Y-129497833D01*
X117931384Y-129497835D01*
X117816365Y-129669973D01*
X117669973Y-129816365D01*
X117497835Y-129931384D01*
X117497834Y-129931385D01*
X117497833Y-129931385D01*
X117306564Y-130010611D01*
X117103516Y-130051000D01*
X116896484Y-130051000D01*
X116693436Y-130010611D01*
X116502167Y-129931385D01*
X116502166Y-129931385D01*
X116502165Y-129931384D01*
X116330027Y-129816365D01*
X116183635Y-129669973D01*
X116068616Y-129497835D01*
X116068615Y-129497833D01*
X115989389Y-129306564D01*
X115949000Y-129103516D01*
X115949000Y-128896484D01*
X115989389Y-128693436D01*
X116068615Y-128502167D01*
X116183635Y-128330027D01*
X116330027Y-128183635D01*
X116502165Y-128068616D01*
X116502167Y-128068615D01*
X116693436Y-127989389D01*
X116896484Y-127949000D01*
X117103516Y-127949000D01*
X117306564Y-127989389D01*
G37*
G36*
X58306564Y-125489389D02*
G01*
X58497833Y-125568615D01*
X58497835Y-125568616D01*
X58669973Y-125683635D01*
X58816365Y-125830027D01*
X58931385Y-126002167D01*
X59010611Y-126193436D01*
X59051000Y-126396484D01*
X59051000Y-126603516D01*
X59010611Y-126806564D01*
X58931385Y-126997833D01*
X58931384Y-126997835D01*
X58816365Y-127169973D01*
X58669973Y-127316365D01*
X58497835Y-127431384D01*
X58497834Y-127431385D01*
X58497833Y-127431385D01*
X58306564Y-127510611D01*
X58103516Y-127551000D01*
X57896484Y-127551000D01*
X57693436Y-127510611D01*
X57502167Y-127431385D01*
X57502166Y-127431385D01*
X57502165Y-127431384D01*
X57330027Y-127316365D01*
X57183635Y-127169973D01*
X57068616Y-126997835D01*
X57068615Y-126997833D01*
X56989389Y-126806564D01*
X56949000Y-126603516D01*
X56949000Y-126396484D01*
X56989389Y-126193436D01*
X57068615Y-126002167D01*
X57183635Y-125830027D01*
X57330027Y-125683635D01*
X57502165Y-125568616D01*
X57502167Y-125568615D01*
X57693436Y-125489389D01*
X57896484Y-125449000D01*
X58103516Y-125449000D01*
X58306564Y-125489389D01*
G37*
G36*
X133306564Y-125489389D02*
G01*
X133497833Y-125568615D01*
X133497835Y-125568616D01*
X133669973Y-125683635D01*
X133816365Y-125830027D01*
X133931385Y-126002167D01*
X134010611Y-126193436D01*
X134051000Y-126396484D01*
X134051000Y-126603516D01*
X134010611Y-126806564D01*
X133931385Y-126997833D01*
X133931384Y-126997835D01*
X133816365Y-127169973D01*
X133669973Y-127316365D01*
X133497835Y-127431384D01*
X133497834Y-127431385D01*
X133497833Y-127431385D01*
X133306564Y-127510611D01*
X133103516Y-127551000D01*
X132896484Y-127551000D01*
X132693436Y-127510611D01*
X132502167Y-127431385D01*
X132502166Y-127431385D01*
X132502165Y-127431384D01*
X132330027Y-127316365D01*
X132183635Y-127169973D01*
X132068616Y-126997835D01*
X132068615Y-126997833D01*
X131989389Y-126806564D01*
X131949000Y-126603516D01*
X131949000Y-126396484D01*
X131989389Y-126193436D01*
X132068615Y-126002167D01*
X132183635Y-125830027D01*
X132330027Y-125683635D01*
X132502165Y-125568616D01*
X132502167Y-125568615D01*
X132693436Y-125489389D01*
X132896484Y-125449000D01*
X133103516Y-125449000D01*
X133306564Y-125489389D01*
G37*
G36*
X108306564Y-125489389D02*
G01*
X108497833Y-125568615D01*
X108497835Y-125568616D01*
X108669973Y-125683635D01*
X108816365Y-125830027D01*
X108931385Y-126002167D01*
X109010611Y-126193436D01*
X109051000Y-126396484D01*
X109051000Y-126603516D01*
X109010611Y-126806564D01*
X108931385Y-126997833D01*
X108931384Y-126997835D01*
X108816365Y-127169973D01*
X108669973Y-127316365D01*
X108497835Y-127431384D01*
X108497834Y-127431385D01*
X108497833Y-127431385D01*
X108306564Y-127510611D01*
X108103516Y-127551000D01*
X107896484Y-127551000D01*
X107693436Y-127510611D01*
X107502167Y-127431385D01*
X107502166Y-127431385D01*
X107502165Y-127431384D01*
X107330027Y-127316365D01*
X107183635Y-127169973D01*
X107068616Y-126997835D01*
X107068615Y-126997833D01*
X106989389Y-126806564D01*
X106949000Y-126603516D01*
X106949000Y-126396484D01*
X106989389Y-126193436D01*
X107068615Y-126002167D01*
X107183635Y-125830027D01*
X107330027Y-125683635D01*
X107502165Y-125568616D01*
X107502167Y-125568615D01*
X107693436Y-125489389D01*
X107896484Y-125449000D01*
X108103516Y-125449000D01*
X108306564Y-125489389D01*
G37*
G36*
X83306564Y-125489389D02*
G01*
X83497833Y-125568615D01*
X83497835Y-125568616D01*
X83669973Y-125683635D01*
X83816365Y-125830027D01*
X83931385Y-126002167D01*
X84010611Y-126193436D01*
X84051000Y-126396484D01*
X84051000Y-126603516D01*
X84010611Y-126806564D01*
X83931385Y-126997833D01*
X83931384Y-126997835D01*
X83816365Y-127169973D01*
X83669973Y-127316365D01*
X83497835Y-127431384D01*
X83497834Y-127431385D01*
X83497833Y-127431385D01*
X83306564Y-127510611D01*
X83103516Y-127551000D01*
X82896484Y-127551000D01*
X82693436Y-127510611D01*
X82502167Y-127431385D01*
X82502166Y-127431385D01*
X82502165Y-127431384D01*
X82330027Y-127316365D01*
X82183635Y-127169973D01*
X82068616Y-126997835D01*
X82068615Y-126997833D01*
X81989389Y-126806564D01*
X81949000Y-126603516D01*
X81949000Y-126396484D01*
X81989389Y-126193436D01*
X82068615Y-126002167D01*
X82183635Y-125830027D01*
X82330027Y-125683635D01*
X82502165Y-125568616D01*
X82502167Y-125568615D01*
X82693436Y-125489389D01*
X82896484Y-125449000D01*
X83103516Y-125449000D01*
X83306564Y-125489389D01*
G37*
G36*
X83306564Y-122489389D02*
G01*
X83497833Y-122568615D01*
X83497835Y-122568616D01*
X83669973Y-122683635D01*
X83816365Y-122830027D01*
X83931385Y-123002167D01*
X84010611Y-123193436D01*
X84051000Y-123396484D01*
X84051000Y-123603516D01*
X84010611Y-123806564D01*
X83931385Y-123997833D01*
X83931384Y-123997835D01*
X83816365Y-124169973D01*
X83669973Y-124316365D01*
X83497835Y-124431384D01*
X83497834Y-124431385D01*
X83497833Y-124431385D01*
X83306564Y-124510611D01*
X83103516Y-124551000D01*
X82896484Y-124551000D01*
X82693436Y-124510611D01*
X82502167Y-124431385D01*
X82502166Y-124431385D01*
X82502165Y-124431384D01*
X82330027Y-124316365D01*
X82183635Y-124169973D01*
X82068616Y-123997835D01*
X82068615Y-123997833D01*
X81989389Y-123806564D01*
X81949000Y-123603516D01*
X81949000Y-123396484D01*
X81989389Y-123193436D01*
X82068615Y-123002167D01*
X82183635Y-122830027D01*
X82330027Y-122683635D01*
X82502165Y-122568616D01*
X82502167Y-122568615D01*
X82693436Y-122489389D01*
X82896484Y-122449000D01*
X83103516Y-122449000D01*
X83306564Y-122489389D01*
G37*
G36*
X58306564Y-122489389D02*
G01*
X58497833Y-122568615D01*
X58497835Y-122568616D01*
X58669973Y-122683635D01*
X58816365Y-122830027D01*
X58931385Y-123002167D01*
X59010611Y-123193436D01*
X59051000Y-123396484D01*
X59051000Y-123603516D01*
X59010611Y-123806564D01*
X58931385Y-123997833D01*
X58931384Y-123997835D01*
X58816365Y-124169973D01*
X58669973Y-124316365D01*
X58497835Y-124431384D01*
X58497834Y-124431385D01*
X58497833Y-124431385D01*
X58306564Y-124510611D01*
X58103516Y-124551000D01*
X57896484Y-124551000D01*
X57693436Y-124510611D01*
X57502167Y-124431385D01*
X57502166Y-124431385D01*
X57502165Y-124431384D01*
X57330027Y-124316365D01*
X57183635Y-124169973D01*
X57068616Y-123997835D01*
X57068615Y-123997833D01*
X56989389Y-123806564D01*
X56949000Y-123603516D01*
X56949000Y-123396484D01*
X56989389Y-123193436D01*
X57068615Y-123002167D01*
X57183635Y-122830027D01*
X57330027Y-122683635D01*
X57502165Y-122568616D01*
X57502167Y-122568615D01*
X57693436Y-122489389D01*
X57896484Y-122449000D01*
X58103516Y-122449000D01*
X58306564Y-122489389D01*
G37*
G36*
X133306564Y-122489389D02*
G01*
X133497833Y-122568615D01*
X133497835Y-122568616D01*
X133669973Y-122683635D01*
X133816365Y-122830027D01*
X133931385Y-123002167D01*
X134010611Y-123193436D01*
X134051000Y-123396484D01*
X134051000Y-123603516D01*
X134010611Y-123806564D01*
X133931385Y-123997833D01*
X133931384Y-123997835D01*
X133816365Y-124169973D01*
X133669973Y-124316365D01*
X133497835Y-124431384D01*
X133497834Y-124431385D01*
X133497833Y-124431385D01*
X133306564Y-124510611D01*
X133103516Y-124551000D01*
X132896484Y-124551000D01*
X132693436Y-124510611D01*
X132502167Y-124431385D01*
X132502166Y-124431385D01*
X132502165Y-124431384D01*
X132330027Y-124316365D01*
X132183635Y-124169973D01*
X132068616Y-123997835D01*
X132068615Y-123997833D01*
X131989389Y-123806564D01*
X131949000Y-123603516D01*
X131949000Y-123396484D01*
X131989389Y-123193436D01*
X132068615Y-123002167D01*
X132183635Y-122830027D01*
X132330027Y-122683635D01*
X132502165Y-122568616D01*
X132502167Y-122568615D01*
X132693436Y-122489389D01*
X132896484Y-122449000D01*
X133103516Y-122449000D01*
X133306564Y-122489389D01*
G37*
G36*
X108306564Y-122489389D02*
G01*
X108497833Y-122568615D01*
X108497835Y-122568616D01*
X108669973Y-122683635D01*
X108816365Y-122830027D01*
X108931385Y-123002167D01*
X109010611Y-123193436D01*
X109051000Y-123396484D01*
X109051000Y-123603516D01*
X109010611Y-123806564D01*
X108931385Y-123997833D01*
X108931384Y-123997835D01*
X108816365Y-124169973D01*
X108669973Y-124316365D01*
X108497835Y-124431384D01*
X108497834Y-124431385D01*
X108497833Y-124431385D01*
X108306564Y-124510611D01*
X108103516Y-124551000D01*
X107896484Y-124551000D01*
X107693436Y-124510611D01*
X107502167Y-124431385D01*
X107502166Y-124431385D01*
X107502165Y-124431384D01*
X107330027Y-124316365D01*
X107183635Y-124169973D01*
X107068616Y-123997835D01*
X107068615Y-123997833D01*
X106989389Y-123806564D01*
X106949000Y-123603516D01*
X106949000Y-123396484D01*
X106989389Y-123193436D01*
X107068615Y-123002167D01*
X107183635Y-122830027D01*
X107330027Y-122683635D01*
X107502165Y-122568616D01*
X107502167Y-122568615D01*
X107693436Y-122489389D01*
X107896484Y-122449000D01*
X108103516Y-122449000D01*
X108306564Y-122489389D01*
G37*
G36*
X117306564Y-119989389D02*
G01*
X117497833Y-120068615D01*
X117497835Y-120068616D01*
X117669973Y-120183635D01*
X117816365Y-120330027D01*
X117931385Y-120502167D01*
X118010611Y-120693436D01*
X118051000Y-120896484D01*
X118051000Y-121103516D01*
X118010611Y-121306564D01*
X117931385Y-121497833D01*
X117931384Y-121497835D01*
X117816365Y-121669973D01*
X117669973Y-121816365D01*
X117497835Y-121931384D01*
X117497834Y-121931385D01*
X117497833Y-121931385D01*
X117306564Y-122010611D01*
X117103516Y-122051000D01*
X116896484Y-122051000D01*
X116693436Y-122010611D01*
X116502167Y-121931385D01*
X116502166Y-121931385D01*
X116502165Y-121931384D01*
X116330027Y-121816365D01*
X116183635Y-121669973D01*
X116068616Y-121497835D01*
X116068615Y-121497833D01*
X115989389Y-121306564D01*
X115949000Y-121103516D01*
X115949000Y-120896484D01*
X115989389Y-120693436D01*
X116068615Y-120502167D01*
X116183635Y-120330027D01*
X116330027Y-120183635D01*
X116502165Y-120068616D01*
X116502167Y-120068615D01*
X116693436Y-119989389D01*
X116896484Y-119949000D01*
X117103516Y-119949000D01*
X117306564Y-119989389D01*
G37*
G36*
X67306564Y-119989389D02*
G01*
X67497833Y-120068615D01*
X67497835Y-120068616D01*
X67669973Y-120183635D01*
X67816365Y-120330027D01*
X67931385Y-120502167D01*
X68010611Y-120693436D01*
X68051000Y-120896484D01*
X68051000Y-121103516D01*
X68010611Y-121306564D01*
X67931385Y-121497833D01*
X67931384Y-121497835D01*
X67816365Y-121669973D01*
X67669973Y-121816365D01*
X67497835Y-121931384D01*
X67497834Y-121931385D01*
X67497833Y-121931385D01*
X67306564Y-122010611D01*
X67103516Y-122051000D01*
X66896484Y-122051000D01*
X66693436Y-122010611D01*
X66502167Y-121931385D01*
X66502166Y-121931385D01*
X66502165Y-121931384D01*
X66330027Y-121816365D01*
X66183635Y-121669973D01*
X66068616Y-121497835D01*
X66068615Y-121497833D01*
X65989389Y-121306564D01*
X65949000Y-121103516D01*
X65949000Y-120896484D01*
X65989389Y-120693436D01*
X66068615Y-120502167D01*
X66183635Y-120330027D01*
X66330027Y-120183635D01*
X66502165Y-120068616D01*
X66502167Y-120068615D01*
X66693436Y-119989389D01*
X66896484Y-119949000D01*
X67103516Y-119949000D01*
X67306564Y-119989389D01*
G37*
G36*
X142306564Y-119989389D02*
G01*
X142497833Y-120068615D01*
X142497835Y-120068616D01*
X142669973Y-120183635D01*
X142816365Y-120330027D01*
X142931385Y-120502167D01*
X143010611Y-120693436D01*
X143051000Y-120896484D01*
X143051000Y-121103516D01*
X143010611Y-121306564D01*
X142931385Y-121497833D01*
X142931384Y-121497835D01*
X142816365Y-121669973D01*
X142669973Y-121816365D01*
X142497835Y-121931384D01*
X142497834Y-121931385D01*
X142497833Y-121931385D01*
X142306564Y-122010611D01*
X142103516Y-122051000D01*
X141896484Y-122051000D01*
X141693436Y-122010611D01*
X141502167Y-121931385D01*
X141502166Y-121931385D01*
X141502165Y-121931384D01*
X141330027Y-121816365D01*
X141183635Y-121669973D01*
X141068616Y-121497835D01*
X141068615Y-121497833D01*
X140989389Y-121306564D01*
X140949000Y-121103516D01*
X140949000Y-120896484D01*
X140989389Y-120693436D01*
X141068615Y-120502167D01*
X141183635Y-120330027D01*
X141330027Y-120183635D01*
X141502165Y-120068616D01*
X141502167Y-120068615D01*
X141693436Y-119989389D01*
X141896484Y-119949000D01*
X142103516Y-119949000D01*
X142306564Y-119989389D01*
G37*
G36*
X92306564Y-119989389D02*
G01*
X92497833Y-120068615D01*
X92497835Y-120068616D01*
X92669973Y-120183635D01*
X92816365Y-120330027D01*
X92931385Y-120502167D01*
X93010611Y-120693436D01*
X93051000Y-120896484D01*
X93051000Y-121103516D01*
X93010611Y-121306564D01*
X92931385Y-121497833D01*
X92931384Y-121497835D01*
X92816365Y-121669973D01*
X92669973Y-121816365D01*
X92497835Y-121931384D01*
X92497834Y-121931385D01*
X92497833Y-121931385D01*
X92306564Y-122010611D01*
X92103516Y-122051000D01*
X91896484Y-122051000D01*
X91693436Y-122010611D01*
X91502167Y-121931385D01*
X91502166Y-121931385D01*
X91502165Y-121931384D01*
X91330027Y-121816365D01*
X91183635Y-121669973D01*
X91068616Y-121497835D01*
X91068615Y-121497833D01*
X90989389Y-121306564D01*
X90949000Y-121103516D01*
X90949000Y-120896484D01*
X90989389Y-120693436D01*
X91068615Y-120502167D01*
X91183635Y-120330027D01*
X91330027Y-120183635D01*
X91502165Y-120068616D01*
X91502167Y-120068615D01*
X91693436Y-119989389D01*
X91896484Y-119949000D01*
X92103516Y-119949000D01*
X92306564Y-119989389D01*
G37*
G36*
X108306564Y-116989389D02*
G01*
X108497833Y-117068615D01*
X108497835Y-117068616D01*
X108669973Y-117183635D01*
X108816365Y-117330027D01*
X108931385Y-117502167D01*
X109010611Y-117693436D01*
X109051000Y-117896484D01*
X109051000Y-118103516D01*
X109010611Y-118306564D01*
X108931385Y-118497833D01*
X108931384Y-118497835D01*
X108816365Y-118669973D01*
X108669973Y-118816365D01*
X108497835Y-118931384D01*
X108497834Y-118931385D01*
X108497833Y-118931385D01*
X108306564Y-119010611D01*
X108103516Y-119051000D01*
X107896484Y-119051000D01*
X107693436Y-119010611D01*
X107502167Y-118931385D01*
X107502166Y-118931385D01*
X107502165Y-118931384D01*
X107330027Y-118816365D01*
X107183635Y-118669973D01*
X107068616Y-118497835D01*
X107068615Y-118497833D01*
X106989389Y-118306564D01*
X106949000Y-118103516D01*
X106949000Y-117896484D01*
X106989389Y-117693436D01*
X107068615Y-117502167D01*
X107183635Y-117330027D01*
X107330027Y-117183635D01*
X107502165Y-117068616D01*
X107502167Y-117068615D01*
X107693436Y-116989389D01*
X107896484Y-116949000D01*
X108103516Y-116949000D01*
X108306564Y-116989389D01*
G37*
G36*
X133306564Y-116989389D02*
G01*
X133497833Y-117068615D01*
X133497835Y-117068616D01*
X133669973Y-117183635D01*
X133816365Y-117330027D01*
X133931385Y-117502167D01*
X134010611Y-117693436D01*
X134051000Y-117896484D01*
X134051000Y-118103516D01*
X134010611Y-118306564D01*
X133931385Y-118497833D01*
X133931384Y-118497835D01*
X133816365Y-118669973D01*
X133669973Y-118816365D01*
X133497835Y-118931384D01*
X133497834Y-118931385D01*
X133497833Y-118931385D01*
X133306564Y-119010611D01*
X133103516Y-119051000D01*
X132896484Y-119051000D01*
X132693436Y-119010611D01*
X132502167Y-118931385D01*
X132502166Y-118931385D01*
X132502165Y-118931384D01*
X132330027Y-118816365D01*
X132183635Y-118669973D01*
X132068616Y-118497835D01*
X132068615Y-118497833D01*
X131989389Y-118306564D01*
X131949000Y-118103516D01*
X131949000Y-117896484D01*
X131989389Y-117693436D01*
X132068615Y-117502167D01*
X132183635Y-117330027D01*
X132330027Y-117183635D01*
X132502165Y-117068616D01*
X132502167Y-117068615D01*
X132693436Y-116989389D01*
X132896484Y-116949000D01*
X133103516Y-116949000D01*
X133306564Y-116989389D01*
G37*
G36*
X83306564Y-116989389D02*
G01*
X83497833Y-117068615D01*
X83497835Y-117068616D01*
X83669973Y-117183635D01*
X83816365Y-117330027D01*
X83931385Y-117502167D01*
X84010611Y-117693436D01*
X84051000Y-117896484D01*
X84051000Y-118103516D01*
X84010611Y-118306564D01*
X83931385Y-118497833D01*
X83931384Y-118497835D01*
X83816365Y-118669973D01*
X83669973Y-118816365D01*
X83497835Y-118931384D01*
X83497834Y-118931385D01*
X83497833Y-118931385D01*
X83306564Y-119010611D01*
X83103516Y-119051000D01*
X82896484Y-119051000D01*
X82693436Y-119010611D01*
X82502167Y-118931385D01*
X82502166Y-118931385D01*
X82502165Y-118931384D01*
X82330027Y-118816365D01*
X82183635Y-118669973D01*
X82068616Y-118497835D01*
X82068615Y-118497833D01*
X81989389Y-118306564D01*
X81949000Y-118103516D01*
X81949000Y-117896484D01*
X81989389Y-117693436D01*
X82068615Y-117502167D01*
X82183635Y-117330027D01*
X82330027Y-117183635D01*
X82502165Y-117068616D01*
X82502167Y-117068615D01*
X82693436Y-116989389D01*
X82896484Y-116949000D01*
X83103516Y-116949000D01*
X83306564Y-116989389D01*
G37*
G36*
X58306564Y-116989389D02*
G01*
X58497833Y-117068615D01*
X58497835Y-117068616D01*
X58669973Y-117183635D01*
X58816365Y-117330027D01*
X58931385Y-117502167D01*
X59010611Y-117693436D01*
X59051000Y-117896484D01*
X59051000Y-118103516D01*
X59010611Y-118306564D01*
X58931385Y-118497833D01*
X58931384Y-118497835D01*
X58816365Y-118669973D01*
X58669973Y-118816365D01*
X58497835Y-118931384D01*
X58497834Y-118931385D01*
X58497833Y-118931385D01*
X58306564Y-119010611D01*
X58103516Y-119051000D01*
X57896484Y-119051000D01*
X57693436Y-119010611D01*
X57502167Y-118931385D01*
X57502166Y-118931385D01*
X57502165Y-118931384D01*
X57330027Y-118816365D01*
X57183635Y-118669973D01*
X57068616Y-118497835D01*
X57068615Y-118497833D01*
X56989389Y-118306564D01*
X56949000Y-118103516D01*
X56949000Y-117896484D01*
X56989389Y-117693436D01*
X57068615Y-117502167D01*
X57183635Y-117330027D01*
X57330027Y-117183635D01*
X57502165Y-117068616D01*
X57502167Y-117068615D01*
X57693436Y-116989389D01*
X57896484Y-116949000D01*
X58103516Y-116949000D01*
X58306564Y-116989389D01*
G37*
G36*
X128791000Y-117629333D02*
G01*
X125209000Y-117629333D01*
X125209000Y-115680667D01*
X128791000Y-115680667D01*
X128791000Y-117629333D01*
G37*
G36*
X53791000Y-117629333D02*
G01*
X50209000Y-117629333D01*
X50209000Y-115680667D01*
X53791000Y-115680667D01*
X53791000Y-117629333D01*
G37*
G36*
X103791000Y-117629333D02*
G01*
X100209000Y-117629333D01*
X100209000Y-115680667D01*
X103791000Y-115680667D01*
X103791000Y-117629333D01*
G37*
G36*
X124791000Y-117629333D02*
G01*
X121209000Y-117629333D01*
X121209000Y-115680667D01*
X124791000Y-115680667D01*
X124791000Y-117629333D01*
G37*
G36*
X99791000Y-117629333D02*
G01*
X96209000Y-117629333D01*
X96209000Y-115680667D01*
X99791000Y-115680667D01*
X99791000Y-117629333D01*
G37*
G36*
X149791000Y-117629333D02*
G01*
X146209000Y-117629333D01*
X146209000Y-115680667D01*
X149791000Y-115680667D01*
X149791000Y-117629333D01*
G37*
G36*
X74791000Y-117629333D02*
G01*
X71209000Y-117629333D01*
X71209000Y-115680667D01*
X74791000Y-115680667D01*
X74791000Y-117629333D01*
G37*
G36*
X78791000Y-117629333D02*
G01*
X75209000Y-117629333D01*
X75209000Y-115680667D01*
X78791000Y-115680667D01*
X78791000Y-117629333D01*
G37*
G36*
X142306564Y-114489389D02*
G01*
X142497833Y-114568615D01*
X142497835Y-114568616D01*
X142669973Y-114683635D01*
X142816365Y-114830027D01*
X142931385Y-115002167D01*
X143010611Y-115193436D01*
X143051000Y-115396484D01*
X143051000Y-115603516D01*
X143010611Y-115806564D01*
X142931385Y-115997833D01*
X142931384Y-115997835D01*
X142816365Y-116169973D01*
X142669973Y-116316365D01*
X142497835Y-116431384D01*
X142497834Y-116431385D01*
X142497833Y-116431385D01*
X142306564Y-116510611D01*
X142103516Y-116551000D01*
X141896484Y-116551000D01*
X141693436Y-116510611D01*
X141502167Y-116431385D01*
X141502166Y-116431385D01*
X141502165Y-116431384D01*
X141330027Y-116316365D01*
X141183635Y-116169973D01*
X141068616Y-115997835D01*
X141068615Y-115997833D01*
X140989389Y-115806564D01*
X140949000Y-115603516D01*
X140949000Y-115396484D01*
X140989389Y-115193436D01*
X141068615Y-115002167D01*
X141183635Y-114830027D01*
X141330027Y-114683635D01*
X141502165Y-114568616D01*
X141502167Y-114568615D01*
X141693436Y-114489389D01*
X141896484Y-114449000D01*
X142103516Y-114449000D01*
X142306564Y-114489389D01*
G37*
G36*
X92306564Y-114489389D02*
G01*
X92497833Y-114568615D01*
X92497835Y-114568616D01*
X92669973Y-114683635D01*
X92816365Y-114830027D01*
X92931385Y-115002167D01*
X93010611Y-115193436D01*
X93051000Y-115396484D01*
X93051000Y-115603516D01*
X93010611Y-115806564D01*
X92931385Y-115997833D01*
X92931384Y-115997835D01*
X92816365Y-116169973D01*
X92669973Y-116316365D01*
X92497835Y-116431384D01*
X92497834Y-116431385D01*
X92497833Y-116431385D01*
X92306564Y-116510611D01*
X92103516Y-116551000D01*
X91896484Y-116551000D01*
X91693436Y-116510611D01*
X91502167Y-116431385D01*
X91502166Y-116431385D01*
X91502165Y-116431384D01*
X91330027Y-116316365D01*
X91183635Y-116169973D01*
X91068616Y-115997835D01*
X91068615Y-115997833D01*
X90989389Y-115806564D01*
X90949000Y-115603516D01*
X90949000Y-115396484D01*
X90989389Y-115193436D01*
X91068615Y-115002167D01*
X91183635Y-114830027D01*
X91330027Y-114683635D01*
X91502165Y-114568616D01*
X91502167Y-114568615D01*
X91693436Y-114489389D01*
X91896484Y-114449000D01*
X92103516Y-114449000D01*
X92306564Y-114489389D01*
G37*
G36*
X67306564Y-114489389D02*
G01*
X67497833Y-114568615D01*
X67497835Y-114568616D01*
X67669973Y-114683635D01*
X67816365Y-114830027D01*
X67931385Y-115002167D01*
X68010611Y-115193436D01*
X68051000Y-115396484D01*
X68051000Y-115603516D01*
X68010611Y-115806564D01*
X67931385Y-115997833D01*
X67931384Y-115997835D01*
X67816365Y-116169973D01*
X67669973Y-116316365D01*
X67497835Y-116431384D01*
X67497834Y-116431385D01*
X67497833Y-116431385D01*
X67306564Y-116510611D01*
X67103516Y-116551000D01*
X66896484Y-116551000D01*
X66693436Y-116510611D01*
X66502167Y-116431385D01*
X66502166Y-116431385D01*
X66502165Y-116431384D01*
X66330027Y-116316365D01*
X66183635Y-116169973D01*
X66068616Y-115997835D01*
X66068615Y-115997833D01*
X65989389Y-115806564D01*
X65949000Y-115603516D01*
X65949000Y-115396484D01*
X65989389Y-115193436D01*
X66068615Y-115002167D01*
X66183635Y-114830027D01*
X66330027Y-114683635D01*
X66502165Y-114568616D01*
X66502167Y-114568615D01*
X66693436Y-114489389D01*
X66896484Y-114449000D01*
X67103516Y-114449000D01*
X67306564Y-114489389D01*
G37*
G36*
X117306564Y-114489389D02*
G01*
X117497833Y-114568615D01*
X117497835Y-114568616D01*
X117669973Y-114683635D01*
X117816365Y-114830027D01*
X117931385Y-115002167D01*
X118010611Y-115193436D01*
X118051000Y-115396484D01*
X118051000Y-115603516D01*
X118010611Y-115806564D01*
X117931385Y-115997833D01*
X117931384Y-115997835D01*
X117816365Y-116169973D01*
X117669973Y-116316365D01*
X117497835Y-116431384D01*
X117497834Y-116431385D01*
X117497833Y-116431385D01*
X117306564Y-116510611D01*
X117103516Y-116551000D01*
X116896484Y-116551000D01*
X116693436Y-116510611D01*
X116502167Y-116431385D01*
X116502166Y-116431385D01*
X116502165Y-116431384D01*
X116330027Y-116316365D01*
X116183635Y-116169973D01*
X116068616Y-115997835D01*
X116068615Y-115997833D01*
X115989389Y-115806564D01*
X115949000Y-115603516D01*
X115949000Y-115396484D01*
X115989389Y-115193436D01*
X116068615Y-115002167D01*
X116183635Y-114830027D01*
X116330027Y-114683635D01*
X116502165Y-114568616D01*
X116502167Y-114568615D01*
X116693436Y-114489389D01*
X116896484Y-114449000D01*
X117103516Y-114449000D01*
X117306564Y-114489389D01*
G37*
G36*
X128791000Y-114859333D02*
G01*
X125209000Y-114859333D01*
X125209000Y-112910667D01*
X128791000Y-112910667D01*
X128791000Y-114859333D01*
G37*
G36*
X78791000Y-114859333D02*
G01*
X75209000Y-114859333D01*
X75209000Y-112910667D01*
X78791000Y-112910667D01*
X78791000Y-114859333D01*
G37*
G36*
X53791000Y-114859333D02*
G01*
X50209000Y-114859333D01*
X50209000Y-112910667D01*
X53791000Y-112910667D01*
X53791000Y-114859333D01*
G37*
G36*
X149791000Y-114859333D02*
G01*
X146209000Y-114859333D01*
X146209000Y-112910667D01*
X149791000Y-112910667D01*
X149791000Y-114859333D01*
G37*
G36*
X99791000Y-114859333D02*
G01*
X96209000Y-114859333D01*
X96209000Y-112910667D01*
X99791000Y-112910667D01*
X99791000Y-114859333D01*
G37*
G36*
X74791000Y-114859333D02*
G01*
X71209000Y-114859333D01*
X71209000Y-112910667D01*
X74791000Y-112910667D01*
X74791000Y-114859333D01*
G37*
G36*
X124791000Y-114859333D02*
G01*
X121209000Y-114859333D01*
X121209000Y-112910667D01*
X124791000Y-112910667D01*
X124791000Y-114859333D01*
G37*
G36*
X103791000Y-114859333D02*
G01*
X100209000Y-114859333D01*
X100209000Y-112910667D01*
X103791000Y-112910667D01*
X103791000Y-114859333D01*
G37*
G36*
X133306564Y-111489389D02*
G01*
X133497833Y-111568615D01*
X133497835Y-111568616D01*
X133669973Y-111683635D01*
X133816365Y-111830027D01*
X133931385Y-112002167D01*
X134010611Y-112193436D01*
X134051000Y-112396484D01*
X134051000Y-112603516D01*
X134010611Y-112806564D01*
X133967490Y-112910667D01*
X133931384Y-112997835D01*
X133816365Y-113169973D01*
X133669973Y-113316365D01*
X133497835Y-113431384D01*
X133497834Y-113431385D01*
X133497833Y-113431385D01*
X133306564Y-113510611D01*
X133103516Y-113551000D01*
X132896484Y-113551000D01*
X132693436Y-113510611D01*
X132502167Y-113431385D01*
X132502166Y-113431385D01*
X132502165Y-113431384D01*
X132330027Y-113316365D01*
X132183635Y-113169973D01*
X132068616Y-112997835D01*
X132032510Y-112910667D01*
X131989389Y-112806564D01*
X131949000Y-112603516D01*
X131949000Y-112396484D01*
X131989389Y-112193436D01*
X132068615Y-112002167D01*
X132183635Y-111830027D01*
X132330027Y-111683635D01*
X132502165Y-111568616D01*
X132502167Y-111568615D01*
X132693436Y-111489389D01*
X132896484Y-111449000D01*
X133103516Y-111449000D01*
X133306564Y-111489389D01*
G37*
G36*
X58306564Y-111489389D02*
G01*
X58497833Y-111568615D01*
X58497835Y-111568616D01*
X58669973Y-111683635D01*
X58816365Y-111830027D01*
X58931385Y-112002167D01*
X59010611Y-112193436D01*
X59051000Y-112396484D01*
X59051000Y-112603516D01*
X59010611Y-112806564D01*
X58967490Y-112910667D01*
X58931384Y-112997835D01*
X58816365Y-113169973D01*
X58669973Y-113316365D01*
X58497835Y-113431384D01*
X58497834Y-113431385D01*
X58497833Y-113431385D01*
X58306564Y-113510611D01*
X58103516Y-113551000D01*
X57896484Y-113551000D01*
X57693436Y-113510611D01*
X57502167Y-113431385D01*
X57502166Y-113431385D01*
X57502165Y-113431384D01*
X57330027Y-113316365D01*
X57183635Y-113169973D01*
X57068616Y-112997835D01*
X57032510Y-112910667D01*
X56989389Y-112806564D01*
X56949000Y-112603516D01*
X56949000Y-112396484D01*
X56989389Y-112193436D01*
X57068615Y-112002167D01*
X57183635Y-111830027D01*
X57330027Y-111683635D01*
X57502165Y-111568616D01*
X57502167Y-111568615D01*
X57693436Y-111489389D01*
X57896484Y-111449000D01*
X58103516Y-111449000D01*
X58306564Y-111489389D01*
G37*
G36*
X108306564Y-111489389D02*
G01*
X108497833Y-111568615D01*
X108497835Y-111568616D01*
X108669973Y-111683635D01*
X108816365Y-111830027D01*
X108931385Y-112002167D01*
X109010611Y-112193436D01*
X109051000Y-112396484D01*
X109051000Y-112603516D01*
X109010611Y-112806564D01*
X108967490Y-112910667D01*
X108931384Y-112997835D01*
X108816365Y-113169973D01*
X108669973Y-113316365D01*
X108497835Y-113431384D01*
X108497834Y-113431385D01*
X108497833Y-113431385D01*
X108306564Y-113510611D01*
X108103516Y-113551000D01*
X107896484Y-113551000D01*
X107693436Y-113510611D01*
X107502167Y-113431385D01*
X107502166Y-113431385D01*
X107502165Y-113431384D01*
X107330027Y-113316365D01*
X107183635Y-113169973D01*
X107068616Y-112997835D01*
X107032510Y-112910667D01*
X106989389Y-112806564D01*
X106949000Y-112603516D01*
X106949000Y-112396484D01*
X106989389Y-112193436D01*
X107068615Y-112002167D01*
X107183635Y-111830027D01*
X107330027Y-111683635D01*
X107502165Y-111568616D01*
X107502167Y-111568615D01*
X107693436Y-111489389D01*
X107896484Y-111449000D01*
X108103516Y-111449000D01*
X108306564Y-111489389D01*
G37*
G36*
X83306564Y-111489389D02*
G01*
X83497833Y-111568615D01*
X83497835Y-111568616D01*
X83669973Y-111683635D01*
X83816365Y-111830027D01*
X83931385Y-112002167D01*
X84010611Y-112193436D01*
X84051000Y-112396484D01*
X84051000Y-112603516D01*
X84010611Y-112806564D01*
X83967490Y-112910667D01*
X83931384Y-112997835D01*
X83816365Y-113169973D01*
X83669973Y-113316365D01*
X83497835Y-113431384D01*
X83497834Y-113431385D01*
X83497833Y-113431385D01*
X83306564Y-113510611D01*
X83103516Y-113551000D01*
X82896484Y-113551000D01*
X82693436Y-113510611D01*
X82502167Y-113431385D01*
X82502166Y-113431385D01*
X82502165Y-113431384D01*
X82330027Y-113316365D01*
X82183635Y-113169973D01*
X82068616Y-112997835D01*
X82032510Y-112910667D01*
X81989389Y-112806564D01*
X81949000Y-112603516D01*
X81949000Y-112396484D01*
X81989389Y-112193436D01*
X82068615Y-112002167D01*
X82183635Y-111830027D01*
X82330027Y-111683635D01*
X82502165Y-111568616D01*
X82502167Y-111568615D01*
X82693436Y-111489389D01*
X82896484Y-111449000D01*
X83103516Y-111449000D01*
X83306564Y-111489389D01*
G37*
G36*
X53791000Y-112089333D02*
G01*
X50209000Y-112089333D01*
X50209000Y-110140667D01*
X53791000Y-110140667D01*
X53791000Y-112089333D01*
G37*
G36*
X149791000Y-112089333D02*
G01*
X146209000Y-112089333D01*
X146209000Y-110140667D01*
X149791000Y-110140667D01*
X149791000Y-112089333D01*
G37*
G36*
X128791000Y-112089333D02*
G01*
X125209000Y-112089333D01*
X125209000Y-110140667D01*
X128791000Y-110140667D01*
X128791000Y-112089333D01*
G37*
G36*
X99791000Y-112089333D02*
G01*
X96209000Y-112089333D01*
X96209000Y-110140667D01*
X99791000Y-110140667D01*
X99791000Y-112089333D01*
G37*
G36*
X103791000Y-112089333D02*
G01*
X100209000Y-112089333D01*
X100209000Y-110140667D01*
X103791000Y-110140667D01*
X103791000Y-112089333D01*
G37*
G36*
X78791000Y-112089333D02*
G01*
X75209000Y-112089333D01*
X75209000Y-110140667D01*
X78791000Y-110140667D01*
X78791000Y-112089333D01*
G37*
G36*
X124791000Y-112089333D02*
G01*
X121209000Y-112089333D01*
X121209000Y-110140667D01*
X124791000Y-110140667D01*
X124791000Y-112089333D01*
G37*
G36*
X74791000Y-112089333D02*
G01*
X71209000Y-112089333D01*
X71209000Y-110140667D01*
X74791000Y-110140667D01*
X74791000Y-112089333D01*
G37*
G36*
X67306564Y-108489389D02*
G01*
X67497833Y-108568615D01*
X67497835Y-108568616D01*
X67669973Y-108683635D01*
X67816365Y-108830027D01*
X67931385Y-109002167D01*
X68010611Y-109193436D01*
X68051000Y-109396484D01*
X68051000Y-109603516D01*
X68010611Y-109806564D01*
X67931385Y-109997833D01*
X67931384Y-109997835D01*
X67816365Y-110169973D01*
X67669973Y-110316365D01*
X67497835Y-110431384D01*
X67497834Y-110431385D01*
X67497833Y-110431385D01*
X67306564Y-110510611D01*
X67103516Y-110551000D01*
X66896484Y-110551000D01*
X66693436Y-110510611D01*
X66502167Y-110431385D01*
X66502166Y-110431385D01*
X66502165Y-110431384D01*
X66330027Y-110316365D01*
X66183635Y-110169973D01*
X66068616Y-109997835D01*
X66068615Y-109997833D01*
X65989389Y-109806564D01*
X65949000Y-109603516D01*
X65949000Y-109396484D01*
X65989389Y-109193436D01*
X66068615Y-109002167D01*
X66183635Y-108830027D01*
X66330027Y-108683635D01*
X66502165Y-108568616D01*
X66502167Y-108568615D01*
X66693436Y-108489389D01*
X66896484Y-108449000D01*
X67103516Y-108449000D01*
X67306564Y-108489389D01*
G37*
G36*
X142306564Y-108489389D02*
G01*
X142497833Y-108568615D01*
X142497835Y-108568616D01*
X142669973Y-108683635D01*
X142816365Y-108830027D01*
X142931385Y-109002167D01*
X143010611Y-109193436D01*
X143051000Y-109396484D01*
X143051000Y-109603516D01*
X143010611Y-109806564D01*
X142931385Y-109997833D01*
X142931384Y-109997835D01*
X142816365Y-110169973D01*
X142669973Y-110316365D01*
X142497835Y-110431384D01*
X142497834Y-110431385D01*
X142497833Y-110431385D01*
X142306564Y-110510611D01*
X142103516Y-110551000D01*
X141896484Y-110551000D01*
X141693436Y-110510611D01*
X141502167Y-110431385D01*
X141502166Y-110431385D01*
X141502165Y-110431384D01*
X141330027Y-110316365D01*
X141183635Y-110169973D01*
X141068616Y-109997835D01*
X141068615Y-109997833D01*
X140989389Y-109806564D01*
X140949000Y-109603516D01*
X140949000Y-109396484D01*
X140989389Y-109193436D01*
X141068615Y-109002167D01*
X141183635Y-108830027D01*
X141330027Y-108683635D01*
X141502165Y-108568616D01*
X141502167Y-108568615D01*
X141693436Y-108489389D01*
X141896484Y-108449000D01*
X142103516Y-108449000D01*
X142306564Y-108489389D01*
G37*
G36*
X92306564Y-108489389D02*
G01*
X92497833Y-108568615D01*
X92497835Y-108568616D01*
X92669973Y-108683635D01*
X92816365Y-108830027D01*
X92931385Y-109002167D01*
X93010611Y-109193436D01*
X93051000Y-109396484D01*
X93051000Y-109603516D01*
X93010611Y-109806564D01*
X92931385Y-109997833D01*
X92931384Y-109997835D01*
X92816365Y-110169973D01*
X92669973Y-110316365D01*
X92497835Y-110431384D01*
X92497834Y-110431385D01*
X92497833Y-110431385D01*
X92306564Y-110510611D01*
X92103516Y-110551000D01*
X91896484Y-110551000D01*
X91693436Y-110510611D01*
X91502167Y-110431385D01*
X91502166Y-110431385D01*
X91502165Y-110431384D01*
X91330027Y-110316365D01*
X91183635Y-110169973D01*
X91068616Y-109997835D01*
X91068615Y-109997833D01*
X90989389Y-109806564D01*
X90949000Y-109603516D01*
X90949000Y-109396484D01*
X90989389Y-109193436D01*
X91068615Y-109002167D01*
X91183635Y-108830027D01*
X91330027Y-108683635D01*
X91502165Y-108568616D01*
X91502167Y-108568615D01*
X91693436Y-108489389D01*
X91896484Y-108449000D01*
X92103516Y-108449000D01*
X92306564Y-108489389D01*
G37*
G36*
X117306564Y-108489389D02*
G01*
X117497833Y-108568615D01*
X117497835Y-108568616D01*
X117669973Y-108683635D01*
X117816365Y-108830027D01*
X117931385Y-109002167D01*
X118010611Y-109193436D01*
X118051000Y-109396484D01*
X118051000Y-109603516D01*
X118010611Y-109806564D01*
X117931385Y-109997833D01*
X117931384Y-109997835D01*
X117816365Y-110169973D01*
X117669973Y-110316365D01*
X117497835Y-110431384D01*
X117497834Y-110431385D01*
X117497833Y-110431385D01*
X117306564Y-110510611D01*
X117103516Y-110551000D01*
X116896484Y-110551000D01*
X116693436Y-110510611D01*
X116502167Y-110431385D01*
X116502166Y-110431385D01*
X116502165Y-110431384D01*
X116330027Y-110316365D01*
X116183635Y-110169973D01*
X116068616Y-109997835D01*
X116068615Y-109997833D01*
X115989389Y-109806564D01*
X115949000Y-109603516D01*
X115949000Y-109396484D01*
X115989389Y-109193436D01*
X116068615Y-109002167D01*
X116183635Y-108830027D01*
X116330027Y-108683635D01*
X116502165Y-108568616D01*
X116502167Y-108568615D01*
X116693436Y-108489389D01*
X116896484Y-108449000D01*
X117103516Y-108449000D01*
X117306564Y-108489389D01*
G37*
G36*
X149791000Y-109319333D02*
G01*
X146209000Y-109319333D01*
X146209000Y-107370667D01*
X149791000Y-107370667D01*
X149791000Y-109319333D01*
G37*
G36*
X124791000Y-109319333D02*
G01*
X121209000Y-109319333D01*
X121209000Y-107370667D01*
X124791000Y-107370667D01*
X124791000Y-109319333D01*
G37*
G36*
X103791000Y-109319333D02*
G01*
X100209000Y-109319333D01*
X100209000Y-107370667D01*
X103791000Y-107370667D01*
X103791000Y-109319333D01*
G37*
G36*
X99791000Y-109319333D02*
G01*
X96209000Y-109319333D01*
X96209000Y-107370667D01*
X99791000Y-107370667D01*
X99791000Y-109319333D01*
G37*
G36*
X74791000Y-109319333D02*
G01*
X71209000Y-109319333D01*
X71209000Y-107370667D01*
X74791000Y-107370667D01*
X74791000Y-109319333D01*
G37*
G36*
X128791000Y-109319333D02*
G01*
X125209000Y-109319333D01*
X125209000Y-107370667D01*
X128791000Y-107370667D01*
X128791000Y-109319333D01*
G37*
G36*
X53791000Y-109319333D02*
G01*
X50209000Y-109319333D01*
X50209000Y-107370667D01*
X53791000Y-107370667D01*
X53791000Y-109319333D01*
G37*
G36*
X78791000Y-109319333D02*
G01*
X75209000Y-109319333D01*
X75209000Y-107370667D01*
X78791000Y-107370667D01*
X78791000Y-109319333D01*
G37*
G36*
X58306564Y-105989389D02*
G01*
X58497833Y-106068615D01*
X58497835Y-106068616D01*
X58669973Y-106183635D01*
X58816365Y-106330027D01*
X58931385Y-106502167D01*
X59010611Y-106693436D01*
X59051000Y-106896484D01*
X59051000Y-107103516D01*
X59010611Y-107306564D01*
X58931385Y-107497833D01*
X58931384Y-107497835D01*
X58816365Y-107669973D01*
X58669973Y-107816365D01*
X58497835Y-107931384D01*
X58497834Y-107931385D01*
X58497833Y-107931385D01*
X58306564Y-108010611D01*
X58103516Y-108051000D01*
X57896484Y-108051000D01*
X57693436Y-108010611D01*
X57502167Y-107931385D01*
X57502166Y-107931385D01*
X57502165Y-107931384D01*
X57330027Y-107816365D01*
X57183635Y-107669973D01*
X57068616Y-107497835D01*
X57068615Y-107497833D01*
X56989389Y-107306564D01*
X56949000Y-107103516D01*
X56949000Y-106896484D01*
X56989389Y-106693436D01*
X57068615Y-106502167D01*
X57183635Y-106330027D01*
X57330027Y-106183635D01*
X57502165Y-106068616D01*
X57502167Y-106068615D01*
X57693436Y-105989389D01*
X57896484Y-105949000D01*
X58103516Y-105949000D01*
X58306564Y-105989389D01*
G37*
G36*
X108306564Y-105989389D02*
G01*
X108497833Y-106068615D01*
X108497835Y-106068616D01*
X108669973Y-106183635D01*
X108816365Y-106330027D01*
X108931385Y-106502167D01*
X109010611Y-106693436D01*
X109051000Y-106896484D01*
X109051000Y-107103516D01*
X109010611Y-107306564D01*
X108931385Y-107497833D01*
X108931384Y-107497835D01*
X108816365Y-107669973D01*
X108669973Y-107816365D01*
X108497835Y-107931384D01*
X108497834Y-107931385D01*
X108497833Y-107931385D01*
X108306564Y-108010611D01*
X108103516Y-108051000D01*
X107896484Y-108051000D01*
X107693436Y-108010611D01*
X107502167Y-107931385D01*
X107502166Y-107931385D01*
X107502165Y-107931384D01*
X107330027Y-107816365D01*
X107183635Y-107669973D01*
X107068616Y-107497835D01*
X107068615Y-107497833D01*
X106989389Y-107306564D01*
X106949000Y-107103516D01*
X106949000Y-106896484D01*
X106989389Y-106693436D01*
X107068615Y-106502167D01*
X107183635Y-106330027D01*
X107330027Y-106183635D01*
X107502165Y-106068616D01*
X107502167Y-106068615D01*
X107693436Y-105989389D01*
X107896484Y-105949000D01*
X108103516Y-105949000D01*
X108306564Y-105989389D01*
G37*
G36*
X133306564Y-105989389D02*
G01*
X133497833Y-106068615D01*
X133497835Y-106068616D01*
X133669973Y-106183635D01*
X133816365Y-106330027D01*
X133931385Y-106502167D01*
X134010611Y-106693436D01*
X134051000Y-106896484D01*
X134051000Y-107103516D01*
X134010611Y-107306564D01*
X133931385Y-107497833D01*
X133931384Y-107497835D01*
X133816365Y-107669973D01*
X133669973Y-107816365D01*
X133497835Y-107931384D01*
X133497834Y-107931385D01*
X133497833Y-107931385D01*
X133306564Y-108010611D01*
X133103516Y-108051000D01*
X132896484Y-108051000D01*
X132693436Y-108010611D01*
X132502167Y-107931385D01*
X132502166Y-107931385D01*
X132502165Y-107931384D01*
X132330027Y-107816365D01*
X132183635Y-107669973D01*
X132068616Y-107497835D01*
X132068615Y-107497833D01*
X131989389Y-107306564D01*
X131949000Y-107103516D01*
X131949000Y-106896484D01*
X131989389Y-106693436D01*
X132068615Y-106502167D01*
X132183635Y-106330027D01*
X132330027Y-106183635D01*
X132502165Y-106068616D01*
X132502167Y-106068615D01*
X132693436Y-105989389D01*
X132896484Y-105949000D01*
X133103516Y-105949000D01*
X133306564Y-105989389D01*
G37*
G36*
X83306564Y-105989389D02*
G01*
X83497833Y-106068615D01*
X83497835Y-106068616D01*
X83669973Y-106183635D01*
X83816365Y-106330027D01*
X83931385Y-106502167D01*
X84010611Y-106693436D01*
X84051000Y-106896484D01*
X84051000Y-107103516D01*
X84010611Y-107306564D01*
X83931385Y-107497833D01*
X83931384Y-107497835D01*
X83816365Y-107669973D01*
X83669973Y-107816365D01*
X83497835Y-107931384D01*
X83497834Y-107931385D01*
X83497833Y-107931385D01*
X83306564Y-108010611D01*
X83103516Y-108051000D01*
X82896484Y-108051000D01*
X82693436Y-108010611D01*
X82502167Y-107931385D01*
X82502166Y-107931385D01*
X82502165Y-107931384D01*
X82330027Y-107816365D01*
X82183635Y-107669973D01*
X82068616Y-107497835D01*
X82068615Y-107497833D01*
X81989389Y-107306564D01*
X81949000Y-107103516D01*
X81949000Y-106896484D01*
X81989389Y-106693436D01*
X82068615Y-106502167D01*
X82183635Y-106330027D01*
X82330027Y-106183635D01*
X82502165Y-106068616D01*
X82502167Y-106068615D01*
X82693436Y-105989389D01*
X82896484Y-105949000D01*
X83103516Y-105949000D01*
X83306564Y-105989389D01*
G37*
G36*
X117306564Y-102989389D02*
G01*
X117497833Y-103068615D01*
X117497835Y-103068616D01*
X117669973Y-103183635D01*
X117816365Y-103330027D01*
X117931385Y-103502167D01*
X118010611Y-103693436D01*
X118051000Y-103896484D01*
X118051000Y-104103516D01*
X118010611Y-104306564D01*
X117931385Y-104497833D01*
X117931384Y-104497835D01*
X117816365Y-104669973D01*
X117669973Y-104816365D01*
X117497835Y-104931384D01*
X117497834Y-104931385D01*
X117497833Y-104931385D01*
X117306564Y-105010611D01*
X117103516Y-105051000D01*
X116896484Y-105051000D01*
X116693436Y-105010611D01*
X116502167Y-104931385D01*
X116502166Y-104931385D01*
X116502165Y-104931384D01*
X116330027Y-104816365D01*
X116183635Y-104669973D01*
X116068616Y-104497835D01*
X116068615Y-104497833D01*
X115989389Y-104306564D01*
X115949000Y-104103516D01*
X115949000Y-103896484D01*
X115989389Y-103693436D01*
X116068615Y-103502167D01*
X116183635Y-103330027D01*
X116330027Y-103183635D01*
X116502165Y-103068616D01*
X116502167Y-103068615D01*
X116693436Y-102989389D01*
X116896484Y-102949000D01*
X117103516Y-102949000D01*
X117306564Y-102989389D01*
G37*
G36*
X92306564Y-102989389D02*
G01*
X92497833Y-103068615D01*
X92497835Y-103068616D01*
X92669973Y-103183635D01*
X92816365Y-103330027D01*
X92931385Y-103502167D01*
X93010611Y-103693436D01*
X93051000Y-103896484D01*
X93051000Y-104103516D01*
X93010611Y-104306564D01*
X92931385Y-104497833D01*
X92931384Y-104497835D01*
X92816365Y-104669973D01*
X92669973Y-104816365D01*
X92497835Y-104931384D01*
X92497834Y-104931385D01*
X92497833Y-104931385D01*
X92306564Y-105010611D01*
X92103516Y-105051000D01*
X91896484Y-105051000D01*
X91693436Y-105010611D01*
X91502167Y-104931385D01*
X91502166Y-104931385D01*
X91502165Y-104931384D01*
X91330027Y-104816365D01*
X91183635Y-104669973D01*
X91068616Y-104497835D01*
X91068615Y-104497833D01*
X90989389Y-104306564D01*
X90949000Y-104103516D01*
X90949000Y-103896484D01*
X90989389Y-103693436D01*
X91068615Y-103502167D01*
X91183635Y-103330027D01*
X91330027Y-103183635D01*
X91502165Y-103068616D01*
X91502167Y-103068615D01*
X91693436Y-102989389D01*
X91896484Y-102949000D01*
X92103516Y-102949000D01*
X92306564Y-102989389D01*
G37*
G36*
X67306564Y-102989389D02*
G01*
X67497833Y-103068615D01*
X67497835Y-103068616D01*
X67669973Y-103183635D01*
X67816365Y-103330027D01*
X67931385Y-103502167D01*
X68010611Y-103693436D01*
X68051000Y-103896484D01*
X68051000Y-104103516D01*
X68010611Y-104306564D01*
X67931385Y-104497833D01*
X67931384Y-104497835D01*
X67816365Y-104669973D01*
X67669973Y-104816365D01*
X67497835Y-104931384D01*
X67497834Y-104931385D01*
X67497833Y-104931385D01*
X67306564Y-105010611D01*
X67103516Y-105051000D01*
X66896484Y-105051000D01*
X66693436Y-105010611D01*
X66502167Y-104931385D01*
X66502166Y-104931385D01*
X66502165Y-104931384D01*
X66330027Y-104816365D01*
X66183635Y-104669973D01*
X66068616Y-104497835D01*
X66068615Y-104497833D01*
X65989389Y-104306564D01*
X65949000Y-104103516D01*
X65949000Y-103896484D01*
X65989389Y-103693436D01*
X66068615Y-103502167D01*
X66183635Y-103330027D01*
X66330027Y-103183635D01*
X66502165Y-103068616D01*
X66502167Y-103068615D01*
X66693436Y-102989389D01*
X66896484Y-102949000D01*
X67103516Y-102949000D01*
X67306564Y-102989389D01*
G37*
G36*
X142306564Y-102989389D02*
G01*
X142497833Y-103068615D01*
X142497835Y-103068616D01*
X142669973Y-103183635D01*
X142816365Y-103330027D01*
X142931385Y-103502167D01*
X143010611Y-103693436D01*
X143051000Y-103896484D01*
X143051000Y-104103516D01*
X143010611Y-104306564D01*
X142931385Y-104497833D01*
X142931384Y-104497835D01*
X142816365Y-104669973D01*
X142669973Y-104816365D01*
X142497835Y-104931384D01*
X142497834Y-104931385D01*
X142497833Y-104931385D01*
X142306564Y-105010611D01*
X142103516Y-105051000D01*
X141896484Y-105051000D01*
X141693436Y-105010611D01*
X141502167Y-104931385D01*
X141502166Y-104931385D01*
X141502165Y-104931384D01*
X141330027Y-104816365D01*
X141183635Y-104669973D01*
X141068616Y-104497835D01*
X141068615Y-104497833D01*
X140989389Y-104306564D01*
X140949000Y-104103516D01*
X140949000Y-103896484D01*
X140989389Y-103693436D01*
X141068615Y-103502167D01*
X141183635Y-103330027D01*
X141330027Y-103183635D01*
X141502165Y-103068616D01*
X141502167Y-103068615D01*
X141693436Y-102989389D01*
X141896484Y-102949000D01*
X142103516Y-102949000D01*
X142306564Y-102989389D01*
G37*
G36*
X133306564Y-100489389D02*
G01*
X133497833Y-100568615D01*
X133497835Y-100568616D01*
X133669973Y-100683635D01*
X133816365Y-100830027D01*
X133931385Y-101002167D01*
X134010611Y-101193436D01*
X134051000Y-101396484D01*
X134051000Y-101603516D01*
X134010611Y-101806564D01*
X133931385Y-101997833D01*
X133931384Y-101997835D01*
X133816365Y-102169973D01*
X133669973Y-102316365D01*
X133497835Y-102431384D01*
X133497834Y-102431385D01*
X133497833Y-102431385D01*
X133306564Y-102510611D01*
X133103516Y-102551000D01*
X132896484Y-102551000D01*
X132693436Y-102510611D01*
X132502167Y-102431385D01*
X132502166Y-102431385D01*
X132502165Y-102431384D01*
X132330027Y-102316365D01*
X132183635Y-102169973D01*
X132068616Y-101997835D01*
X132068615Y-101997833D01*
X131989389Y-101806564D01*
X131949000Y-101603516D01*
X131949000Y-101396484D01*
X131989389Y-101193436D01*
X132068615Y-101002167D01*
X132183635Y-100830027D01*
X132330027Y-100683635D01*
X132502165Y-100568616D01*
X132502167Y-100568615D01*
X132693436Y-100489389D01*
X132896484Y-100449000D01*
X133103516Y-100449000D01*
X133306564Y-100489389D01*
G37*
G36*
X58306564Y-100489389D02*
G01*
X58497833Y-100568615D01*
X58497835Y-100568616D01*
X58669973Y-100683635D01*
X58816365Y-100830027D01*
X58931385Y-101002167D01*
X59010611Y-101193436D01*
X59051000Y-101396484D01*
X59051000Y-101603516D01*
X59010611Y-101806564D01*
X58931385Y-101997833D01*
X58931384Y-101997835D01*
X58816365Y-102169973D01*
X58669973Y-102316365D01*
X58497835Y-102431384D01*
X58497834Y-102431385D01*
X58497833Y-102431385D01*
X58306564Y-102510611D01*
X58103516Y-102551000D01*
X57896484Y-102551000D01*
X57693436Y-102510611D01*
X57502167Y-102431385D01*
X57502166Y-102431385D01*
X57502165Y-102431384D01*
X57330027Y-102316365D01*
X57183635Y-102169973D01*
X57068616Y-101997835D01*
X57068615Y-101997833D01*
X56989389Y-101806564D01*
X56949000Y-101603516D01*
X56949000Y-101396484D01*
X56989389Y-101193436D01*
X57068615Y-101002167D01*
X57183635Y-100830027D01*
X57330027Y-100683635D01*
X57502165Y-100568616D01*
X57502167Y-100568615D01*
X57693436Y-100489389D01*
X57896484Y-100449000D01*
X58103516Y-100449000D01*
X58306564Y-100489389D01*
G37*
G36*
X83306564Y-100489389D02*
G01*
X83497833Y-100568615D01*
X83497835Y-100568616D01*
X83669973Y-100683635D01*
X83816365Y-100830027D01*
X83931385Y-101002167D01*
X84010611Y-101193436D01*
X84051000Y-101396484D01*
X84051000Y-101603516D01*
X84010611Y-101806564D01*
X83931385Y-101997833D01*
X83931384Y-101997835D01*
X83816365Y-102169973D01*
X83669973Y-102316365D01*
X83497835Y-102431384D01*
X83497834Y-102431385D01*
X83497833Y-102431385D01*
X83306564Y-102510611D01*
X83103516Y-102551000D01*
X82896484Y-102551000D01*
X82693436Y-102510611D01*
X82502167Y-102431385D01*
X82502166Y-102431385D01*
X82502165Y-102431384D01*
X82330027Y-102316365D01*
X82183635Y-102169973D01*
X82068616Y-101997835D01*
X82068615Y-101997833D01*
X81989389Y-101806564D01*
X81949000Y-101603516D01*
X81949000Y-101396484D01*
X81989389Y-101193436D01*
X82068615Y-101002167D01*
X82183635Y-100830027D01*
X82330027Y-100683635D01*
X82502165Y-100568616D01*
X82502167Y-100568615D01*
X82693436Y-100489389D01*
X82896484Y-100449000D01*
X83103516Y-100449000D01*
X83306564Y-100489389D01*
G37*
G36*
X108306564Y-100489389D02*
G01*
X108497833Y-100568615D01*
X108497835Y-100568616D01*
X108669973Y-100683635D01*
X108816365Y-100830027D01*
X108931385Y-101002167D01*
X109010611Y-101193436D01*
X109051000Y-101396484D01*
X109051000Y-101603516D01*
X109010611Y-101806564D01*
X108931385Y-101997833D01*
X108931384Y-101997835D01*
X108816365Y-102169973D01*
X108669973Y-102316365D01*
X108497835Y-102431384D01*
X108497834Y-102431385D01*
X108497833Y-102431385D01*
X108306564Y-102510611D01*
X108103516Y-102551000D01*
X107896484Y-102551000D01*
X107693436Y-102510611D01*
X107502167Y-102431385D01*
X107502166Y-102431385D01*
X107502165Y-102431384D01*
X107330027Y-102316365D01*
X107183635Y-102169973D01*
X107068616Y-101997835D01*
X107068615Y-101997833D01*
X106989389Y-101806564D01*
X106949000Y-101603516D01*
X106949000Y-101396484D01*
X106989389Y-101193436D01*
X107068615Y-101002167D01*
X107183635Y-100830027D01*
X107330027Y-100683635D01*
X107502165Y-100568616D01*
X107502167Y-100568615D01*
X107693436Y-100489389D01*
X107896484Y-100449000D01*
X108103516Y-100449000D01*
X108306564Y-100489389D01*
G37*
G36*
X108306564Y-97489389D02*
G01*
X108497833Y-97568615D01*
X108497835Y-97568616D01*
X108669973Y-97683635D01*
X108816365Y-97830027D01*
X108931385Y-98002167D01*
X109010611Y-98193436D01*
X109051000Y-98396484D01*
X109051000Y-98603516D01*
X109010611Y-98806564D01*
X108931385Y-98997833D01*
X108931384Y-98997835D01*
X108816365Y-99169973D01*
X108669973Y-99316365D01*
X108497835Y-99431384D01*
X108497834Y-99431385D01*
X108497833Y-99431385D01*
X108306564Y-99510611D01*
X108103516Y-99551000D01*
X107896484Y-99551000D01*
X107693436Y-99510611D01*
X107502167Y-99431385D01*
X107502166Y-99431385D01*
X107502165Y-99431384D01*
X107330027Y-99316365D01*
X107183635Y-99169973D01*
X107068616Y-98997835D01*
X107068615Y-98997833D01*
X106989389Y-98806564D01*
X106949000Y-98603516D01*
X106949000Y-98396484D01*
X106989389Y-98193436D01*
X107068615Y-98002167D01*
X107183635Y-97830027D01*
X107330027Y-97683635D01*
X107502165Y-97568616D01*
X107502167Y-97568615D01*
X107693436Y-97489389D01*
X107896484Y-97449000D01*
X108103516Y-97449000D01*
X108306564Y-97489389D01*
G37*
G36*
X83306564Y-97489389D02*
G01*
X83497833Y-97568615D01*
X83497835Y-97568616D01*
X83669973Y-97683635D01*
X83816365Y-97830027D01*
X83931385Y-98002167D01*
X84010611Y-98193436D01*
X84051000Y-98396484D01*
X84051000Y-98603516D01*
X84010611Y-98806564D01*
X83931385Y-98997833D01*
X83931384Y-98997835D01*
X83816365Y-99169973D01*
X83669973Y-99316365D01*
X83497835Y-99431384D01*
X83497834Y-99431385D01*
X83497833Y-99431385D01*
X83306564Y-99510611D01*
X83103516Y-99551000D01*
X82896484Y-99551000D01*
X82693436Y-99510611D01*
X82502167Y-99431385D01*
X82502166Y-99431385D01*
X82502165Y-99431384D01*
X82330027Y-99316365D01*
X82183635Y-99169973D01*
X82068616Y-98997835D01*
X82068615Y-98997833D01*
X81989389Y-98806564D01*
X81949000Y-98603516D01*
X81949000Y-98396484D01*
X81989389Y-98193436D01*
X82068615Y-98002167D01*
X82183635Y-97830027D01*
X82330027Y-97683635D01*
X82502165Y-97568616D01*
X82502167Y-97568615D01*
X82693436Y-97489389D01*
X82896484Y-97449000D01*
X83103516Y-97449000D01*
X83306564Y-97489389D01*
G37*
G36*
X58306564Y-97489389D02*
G01*
X58497833Y-97568615D01*
X58497835Y-97568616D01*
X58669973Y-97683635D01*
X58816365Y-97830027D01*
X58931385Y-98002167D01*
X59010611Y-98193436D01*
X59051000Y-98396484D01*
X59051000Y-98603516D01*
X59010611Y-98806564D01*
X58931385Y-98997833D01*
X58931384Y-98997835D01*
X58816365Y-99169973D01*
X58669973Y-99316365D01*
X58497835Y-99431384D01*
X58497834Y-99431385D01*
X58497833Y-99431385D01*
X58306564Y-99510611D01*
X58103516Y-99551000D01*
X57896484Y-99551000D01*
X57693436Y-99510611D01*
X57502167Y-99431385D01*
X57502166Y-99431385D01*
X57502165Y-99431384D01*
X57330027Y-99316365D01*
X57183635Y-99169973D01*
X57068616Y-98997835D01*
X57068615Y-98997833D01*
X56989389Y-98806564D01*
X56949000Y-98603516D01*
X56949000Y-98396484D01*
X56989389Y-98193436D01*
X57068615Y-98002167D01*
X57183635Y-97830027D01*
X57330027Y-97683635D01*
X57502165Y-97568616D01*
X57502167Y-97568615D01*
X57693436Y-97489389D01*
X57896484Y-97449000D01*
X58103516Y-97449000D01*
X58306564Y-97489389D01*
G37*
G36*
X133306564Y-97489389D02*
G01*
X133497833Y-97568615D01*
X133497835Y-97568616D01*
X133669973Y-97683635D01*
X133816365Y-97830027D01*
X133931385Y-98002167D01*
X134010611Y-98193436D01*
X134051000Y-98396484D01*
X134051000Y-98603516D01*
X134010611Y-98806564D01*
X133931385Y-98997833D01*
X133931384Y-98997835D01*
X133816365Y-99169973D01*
X133669973Y-99316365D01*
X133497835Y-99431384D01*
X133497834Y-99431385D01*
X133497833Y-99431385D01*
X133306564Y-99510611D01*
X133103516Y-99551000D01*
X132896484Y-99551000D01*
X132693436Y-99510611D01*
X132502167Y-99431385D01*
X132502166Y-99431385D01*
X132502165Y-99431384D01*
X132330027Y-99316365D01*
X132183635Y-99169973D01*
X132068616Y-98997835D01*
X132068615Y-98997833D01*
X131989389Y-98806564D01*
X131949000Y-98603516D01*
X131949000Y-98396484D01*
X131989389Y-98193436D01*
X132068615Y-98002167D01*
X132183635Y-97830027D01*
X132330027Y-97683635D01*
X132502165Y-97568616D01*
X132502167Y-97568615D01*
X132693436Y-97489389D01*
X132896484Y-97449000D01*
X133103516Y-97449000D01*
X133306564Y-97489389D01*
G37*
G36*
X117306564Y-94989389D02*
G01*
X117497833Y-95068615D01*
X117497835Y-95068616D01*
X117669973Y-95183635D01*
X117816365Y-95330027D01*
X117931385Y-95502167D01*
X118010611Y-95693436D01*
X118051000Y-95896484D01*
X118051000Y-96103516D01*
X118010611Y-96306564D01*
X117931385Y-96497833D01*
X117931384Y-96497835D01*
X117816365Y-96669973D01*
X117669973Y-96816365D01*
X117497835Y-96931384D01*
X117497834Y-96931385D01*
X117497833Y-96931385D01*
X117306564Y-97010611D01*
X117103516Y-97051000D01*
X116896484Y-97051000D01*
X116693436Y-97010611D01*
X116502167Y-96931385D01*
X116502166Y-96931385D01*
X116502165Y-96931384D01*
X116330027Y-96816365D01*
X116183635Y-96669973D01*
X116068616Y-96497835D01*
X116068615Y-96497833D01*
X115989389Y-96306564D01*
X115949000Y-96103516D01*
X115949000Y-95896484D01*
X115989389Y-95693436D01*
X116068615Y-95502167D01*
X116183635Y-95330027D01*
X116330027Y-95183635D01*
X116502165Y-95068616D01*
X116502167Y-95068615D01*
X116693436Y-94989389D01*
X116896484Y-94949000D01*
X117103516Y-94949000D01*
X117306564Y-94989389D01*
G37*
G36*
X92306564Y-94989389D02*
G01*
X92497833Y-95068615D01*
X92497835Y-95068616D01*
X92669973Y-95183635D01*
X92816365Y-95330027D01*
X92931385Y-95502167D01*
X93010611Y-95693436D01*
X93051000Y-95896484D01*
X93051000Y-96103516D01*
X93010611Y-96306564D01*
X92931385Y-96497833D01*
X92931384Y-96497835D01*
X92816365Y-96669973D01*
X92669973Y-96816365D01*
X92497835Y-96931384D01*
X92497834Y-96931385D01*
X92497833Y-96931385D01*
X92306564Y-97010611D01*
X92103516Y-97051000D01*
X91896484Y-97051000D01*
X91693436Y-97010611D01*
X91502167Y-96931385D01*
X91502166Y-96931385D01*
X91502165Y-96931384D01*
X91330027Y-96816365D01*
X91183635Y-96669973D01*
X91068616Y-96497835D01*
X91068615Y-96497833D01*
X90989389Y-96306564D01*
X90949000Y-96103516D01*
X90949000Y-95896484D01*
X90989389Y-95693436D01*
X91068615Y-95502167D01*
X91183635Y-95330027D01*
X91330027Y-95183635D01*
X91502165Y-95068616D01*
X91502167Y-95068615D01*
X91693436Y-94989389D01*
X91896484Y-94949000D01*
X92103516Y-94949000D01*
X92306564Y-94989389D01*
G37*
G36*
X67306564Y-94989389D02*
G01*
X67497833Y-95068615D01*
X67497835Y-95068616D01*
X67669973Y-95183635D01*
X67816365Y-95330027D01*
X67931385Y-95502167D01*
X68010611Y-95693436D01*
X68051000Y-95896484D01*
X68051000Y-96103516D01*
X68010611Y-96306564D01*
X67931385Y-96497833D01*
X67931384Y-96497835D01*
X67816365Y-96669973D01*
X67669973Y-96816365D01*
X67497835Y-96931384D01*
X67497834Y-96931385D01*
X67497833Y-96931385D01*
X67306564Y-97010611D01*
X67103516Y-97051000D01*
X66896484Y-97051000D01*
X66693436Y-97010611D01*
X66502167Y-96931385D01*
X66502166Y-96931385D01*
X66502165Y-96931384D01*
X66330027Y-96816365D01*
X66183635Y-96669973D01*
X66068616Y-96497835D01*
X66068615Y-96497833D01*
X65989389Y-96306564D01*
X65949000Y-96103516D01*
X65949000Y-95896484D01*
X65989389Y-95693436D01*
X66068615Y-95502167D01*
X66183635Y-95330027D01*
X66330027Y-95183635D01*
X66502165Y-95068616D01*
X66502167Y-95068615D01*
X66693436Y-94989389D01*
X66896484Y-94949000D01*
X67103516Y-94949000D01*
X67306564Y-94989389D01*
G37*
G36*
X142306564Y-94989389D02*
G01*
X142497833Y-95068615D01*
X142497835Y-95068616D01*
X142669973Y-95183635D01*
X142816365Y-95330027D01*
X142931385Y-95502167D01*
X143010611Y-95693436D01*
X143051000Y-95896484D01*
X143051000Y-96103516D01*
X143010611Y-96306564D01*
X142931385Y-96497833D01*
X142931384Y-96497835D01*
X142816365Y-96669973D01*
X142669973Y-96816365D01*
X142497835Y-96931384D01*
X142497834Y-96931385D01*
X142497833Y-96931385D01*
X142306564Y-97010611D01*
X142103516Y-97051000D01*
X141896484Y-97051000D01*
X141693436Y-97010611D01*
X141502167Y-96931385D01*
X141502166Y-96931385D01*
X141502165Y-96931384D01*
X141330027Y-96816365D01*
X141183635Y-96669973D01*
X141068616Y-96497835D01*
X141068615Y-96497833D01*
X140989389Y-96306564D01*
X140949000Y-96103516D01*
X140949000Y-95896484D01*
X140989389Y-95693436D01*
X141068615Y-95502167D01*
X141183635Y-95330027D01*
X141330027Y-95183635D01*
X141502165Y-95068616D01*
X141502167Y-95068615D01*
X141693436Y-94989389D01*
X141896484Y-94949000D01*
X142103516Y-94949000D01*
X142306564Y-94989389D01*
G37*
G36*
X133306564Y-91989389D02*
G01*
X133497833Y-92068615D01*
X133497835Y-92068616D01*
X133669973Y-92183635D01*
X133816365Y-92330027D01*
X133931385Y-92502167D01*
X134010611Y-92693436D01*
X134051000Y-92896484D01*
X134051000Y-93103516D01*
X134010611Y-93306564D01*
X133931385Y-93497833D01*
X133931384Y-93497835D01*
X133816365Y-93669973D01*
X133669973Y-93816365D01*
X133497835Y-93931384D01*
X133497834Y-93931385D01*
X133497833Y-93931385D01*
X133306564Y-94010611D01*
X133103516Y-94051000D01*
X132896484Y-94051000D01*
X132693436Y-94010611D01*
X132502167Y-93931385D01*
X132502166Y-93931385D01*
X132502165Y-93931384D01*
X132330027Y-93816365D01*
X132183635Y-93669973D01*
X132068616Y-93497835D01*
X132068615Y-93497833D01*
X131989389Y-93306564D01*
X131949000Y-93103516D01*
X131949000Y-92896484D01*
X131989389Y-92693436D01*
X132068615Y-92502167D01*
X132183635Y-92330027D01*
X132330027Y-92183635D01*
X132502165Y-92068616D01*
X132502167Y-92068615D01*
X132693436Y-91989389D01*
X132896484Y-91949000D01*
X133103516Y-91949000D01*
X133306564Y-91989389D01*
G37*
G36*
X108306564Y-91989389D02*
G01*
X108497833Y-92068615D01*
X108497835Y-92068616D01*
X108669973Y-92183635D01*
X108816365Y-92330027D01*
X108931385Y-92502167D01*
X109010611Y-92693436D01*
X109051000Y-92896484D01*
X109051000Y-93103516D01*
X109010611Y-93306564D01*
X108931385Y-93497833D01*
X108931384Y-93497835D01*
X108816365Y-93669973D01*
X108669973Y-93816365D01*
X108497835Y-93931384D01*
X108497834Y-93931385D01*
X108497833Y-93931385D01*
X108306564Y-94010611D01*
X108103516Y-94051000D01*
X107896484Y-94051000D01*
X107693436Y-94010611D01*
X107502167Y-93931385D01*
X107502166Y-93931385D01*
X107502165Y-93931384D01*
X107330027Y-93816365D01*
X107183635Y-93669973D01*
X107068616Y-93497835D01*
X107068615Y-93497833D01*
X106989389Y-93306564D01*
X106949000Y-93103516D01*
X106949000Y-92896484D01*
X106989389Y-92693436D01*
X107068615Y-92502167D01*
X107183635Y-92330027D01*
X107330027Y-92183635D01*
X107502165Y-92068616D01*
X107502167Y-92068615D01*
X107693436Y-91989389D01*
X107896484Y-91949000D01*
X108103516Y-91949000D01*
X108306564Y-91989389D01*
G37*
G36*
X83306564Y-91989389D02*
G01*
X83497833Y-92068615D01*
X83497835Y-92068616D01*
X83669973Y-92183635D01*
X83816365Y-92330027D01*
X83931385Y-92502167D01*
X84010611Y-92693436D01*
X84051000Y-92896484D01*
X84051000Y-93103516D01*
X84010611Y-93306564D01*
X83931385Y-93497833D01*
X83931384Y-93497835D01*
X83816365Y-93669973D01*
X83669973Y-93816365D01*
X83497835Y-93931384D01*
X83497834Y-93931385D01*
X83497833Y-93931385D01*
X83306564Y-94010611D01*
X83103516Y-94051000D01*
X82896484Y-94051000D01*
X82693436Y-94010611D01*
X82502167Y-93931385D01*
X82502166Y-93931385D01*
X82502165Y-93931384D01*
X82330027Y-93816365D01*
X82183635Y-93669973D01*
X82068616Y-93497835D01*
X82068615Y-93497833D01*
X81989389Y-93306564D01*
X81949000Y-93103516D01*
X81949000Y-92896484D01*
X81989389Y-92693436D01*
X82068615Y-92502167D01*
X82183635Y-92330027D01*
X82330027Y-92183635D01*
X82502165Y-92068616D01*
X82502167Y-92068615D01*
X82693436Y-91989389D01*
X82896484Y-91949000D01*
X83103516Y-91949000D01*
X83306564Y-91989389D01*
G37*
G36*
X58306564Y-91989389D02*
G01*
X58497833Y-92068615D01*
X58497835Y-92068616D01*
X58669973Y-92183635D01*
X58816365Y-92330027D01*
X58931385Y-92502167D01*
X59010611Y-92693436D01*
X59051000Y-92896484D01*
X59051000Y-93103516D01*
X59010611Y-93306564D01*
X58931385Y-93497833D01*
X58931384Y-93497835D01*
X58816365Y-93669973D01*
X58669973Y-93816365D01*
X58497835Y-93931384D01*
X58497834Y-93931385D01*
X58497833Y-93931385D01*
X58306564Y-94010611D01*
X58103516Y-94051000D01*
X57896484Y-94051000D01*
X57693436Y-94010611D01*
X57502167Y-93931385D01*
X57502166Y-93931385D01*
X57502165Y-93931384D01*
X57330027Y-93816365D01*
X57183635Y-93669973D01*
X57068616Y-93497835D01*
X57068615Y-93497833D01*
X56989389Y-93306564D01*
X56949000Y-93103516D01*
X56949000Y-92896484D01*
X56989389Y-92693436D01*
X57068615Y-92502167D01*
X57183635Y-92330027D01*
X57330027Y-92183635D01*
X57502165Y-92068616D01*
X57502167Y-92068615D01*
X57693436Y-91989389D01*
X57896484Y-91949000D01*
X58103516Y-91949000D01*
X58306564Y-91989389D01*
G37*
G36*
X103791000Y-92629333D02*
G01*
X100209000Y-92629333D01*
X100209000Y-90680667D01*
X103791000Y-90680667D01*
X103791000Y-92629333D01*
G37*
G36*
X53791000Y-92629333D02*
G01*
X50209000Y-92629333D01*
X50209000Y-90680667D01*
X53791000Y-90680667D01*
X53791000Y-92629333D01*
G37*
G36*
X74791000Y-92629333D02*
G01*
X71209000Y-92629333D01*
X71209000Y-90680667D01*
X74791000Y-90680667D01*
X74791000Y-92629333D01*
G37*
G36*
X78791000Y-92629333D02*
G01*
X75209000Y-92629333D01*
X75209000Y-90680667D01*
X78791000Y-90680667D01*
X78791000Y-92629333D01*
G37*
G36*
X99791000Y-92629333D02*
G01*
X96209000Y-92629333D01*
X96209000Y-90680667D01*
X99791000Y-90680667D01*
X99791000Y-92629333D01*
G37*
G36*
X149791000Y-92629333D02*
G01*
X146209000Y-92629333D01*
X146209000Y-90680667D01*
X149791000Y-90680667D01*
X149791000Y-92629333D01*
G37*
G36*
X128791000Y-92629333D02*
G01*
X125209000Y-92629333D01*
X125209000Y-90680667D01*
X128791000Y-90680667D01*
X128791000Y-92629333D01*
G37*
G36*
X124791000Y-92629333D02*
G01*
X121209000Y-92629333D01*
X121209000Y-90680667D01*
X124791000Y-90680667D01*
X124791000Y-92629333D01*
G37*
G36*
X117306564Y-89489389D02*
G01*
X117497833Y-89568615D01*
X117497835Y-89568616D01*
X117669973Y-89683635D01*
X117816365Y-89830027D01*
X117931385Y-90002167D01*
X118010611Y-90193436D01*
X118051000Y-90396484D01*
X118051000Y-90603516D01*
X118010611Y-90806564D01*
X117931385Y-90997833D01*
X117931384Y-90997835D01*
X117816365Y-91169973D01*
X117669973Y-91316365D01*
X117497835Y-91431384D01*
X117497834Y-91431385D01*
X117497833Y-91431385D01*
X117306564Y-91510611D01*
X117103516Y-91551000D01*
X116896484Y-91551000D01*
X116693436Y-91510611D01*
X116502167Y-91431385D01*
X116502166Y-91431385D01*
X116502165Y-91431384D01*
X116330027Y-91316365D01*
X116183635Y-91169973D01*
X116068616Y-90997835D01*
X116068615Y-90997833D01*
X115989389Y-90806564D01*
X115949000Y-90603516D01*
X115949000Y-90396484D01*
X115989389Y-90193436D01*
X116068615Y-90002167D01*
X116183635Y-89830027D01*
X116330027Y-89683635D01*
X116502165Y-89568616D01*
X116502167Y-89568615D01*
X116693436Y-89489389D01*
X116896484Y-89449000D01*
X117103516Y-89449000D01*
X117306564Y-89489389D01*
G37*
G36*
X67306564Y-89489389D02*
G01*
X67497833Y-89568615D01*
X67497835Y-89568616D01*
X67669973Y-89683635D01*
X67816365Y-89830027D01*
X67931385Y-90002167D01*
X68010611Y-90193436D01*
X68051000Y-90396484D01*
X68051000Y-90603516D01*
X68010611Y-90806564D01*
X67931385Y-90997833D01*
X67931384Y-90997835D01*
X67816365Y-91169973D01*
X67669973Y-91316365D01*
X67497835Y-91431384D01*
X67497834Y-91431385D01*
X67497833Y-91431385D01*
X67306564Y-91510611D01*
X67103516Y-91551000D01*
X66896484Y-91551000D01*
X66693436Y-91510611D01*
X66502167Y-91431385D01*
X66502166Y-91431385D01*
X66502165Y-91431384D01*
X66330027Y-91316365D01*
X66183635Y-91169973D01*
X66068616Y-90997835D01*
X66068615Y-90997833D01*
X65989389Y-90806564D01*
X65949000Y-90603516D01*
X65949000Y-90396484D01*
X65989389Y-90193436D01*
X66068615Y-90002167D01*
X66183635Y-89830027D01*
X66330027Y-89683635D01*
X66502165Y-89568616D01*
X66502167Y-89568615D01*
X66693436Y-89489389D01*
X66896484Y-89449000D01*
X67103516Y-89449000D01*
X67306564Y-89489389D01*
G37*
G36*
X142306564Y-89489389D02*
G01*
X142497833Y-89568615D01*
X142497835Y-89568616D01*
X142669973Y-89683635D01*
X142816365Y-89830027D01*
X142931385Y-90002167D01*
X143010611Y-90193436D01*
X143051000Y-90396484D01*
X143051000Y-90603516D01*
X143010611Y-90806564D01*
X142931385Y-90997833D01*
X142931384Y-90997835D01*
X142816365Y-91169973D01*
X142669973Y-91316365D01*
X142497835Y-91431384D01*
X142497834Y-91431385D01*
X142497833Y-91431385D01*
X142306564Y-91510611D01*
X142103516Y-91551000D01*
X141896484Y-91551000D01*
X141693436Y-91510611D01*
X141502167Y-91431385D01*
X141502166Y-91431385D01*
X141502165Y-91431384D01*
X141330027Y-91316365D01*
X141183635Y-91169973D01*
X141068616Y-90997835D01*
X141068615Y-90997833D01*
X140989389Y-90806564D01*
X140949000Y-90603516D01*
X140949000Y-90396484D01*
X140989389Y-90193436D01*
X141068615Y-90002167D01*
X141183635Y-89830027D01*
X141330027Y-89683635D01*
X141502165Y-89568616D01*
X141502167Y-89568615D01*
X141693436Y-89489389D01*
X141896484Y-89449000D01*
X142103516Y-89449000D01*
X142306564Y-89489389D01*
G37*
G36*
X92306564Y-89489389D02*
G01*
X92497833Y-89568615D01*
X92497835Y-89568616D01*
X92669973Y-89683635D01*
X92816365Y-89830027D01*
X92931385Y-90002167D01*
X93010611Y-90193436D01*
X93051000Y-90396484D01*
X93051000Y-90603516D01*
X93010611Y-90806564D01*
X92931385Y-90997833D01*
X92931384Y-90997835D01*
X92816365Y-91169973D01*
X92669973Y-91316365D01*
X92497835Y-91431384D01*
X92497834Y-91431385D01*
X92497833Y-91431385D01*
X92306564Y-91510611D01*
X92103516Y-91551000D01*
X91896484Y-91551000D01*
X91693436Y-91510611D01*
X91502167Y-91431385D01*
X91502166Y-91431385D01*
X91502165Y-91431384D01*
X91330027Y-91316365D01*
X91183635Y-91169973D01*
X91068616Y-90997835D01*
X91068615Y-90997833D01*
X90989389Y-90806564D01*
X90949000Y-90603516D01*
X90949000Y-90396484D01*
X90989389Y-90193436D01*
X91068615Y-90002167D01*
X91183635Y-89830027D01*
X91330027Y-89683635D01*
X91502165Y-89568616D01*
X91502167Y-89568615D01*
X91693436Y-89489389D01*
X91896484Y-89449000D01*
X92103516Y-89449000D01*
X92306564Y-89489389D01*
G37*
G36*
X53791000Y-89859333D02*
G01*
X50209000Y-89859333D01*
X50209000Y-87910667D01*
X53791000Y-87910667D01*
X53791000Y-89859333D01*
G37*
G36*
X74791000Y-89859333D02*
G01*
X71209000Y-89859333D01*
X71209000Y-87910667D01*
X74791000Y-87910667D01*
X74791000Y-89859333D01*
G37*
G36*
X99791000Y-89859333D02*
G01*
X96209000Y-89859333D01*
X96209000Y-87910667D01*
X99791000Y-87910667D01*
X99791000Y-89859333D01*
G37*
G36*
X149791000Y-89859333D02*
G01*
X146209000Y-89859333D01*
X146209000Y-87910667D01*
X149791000Y-87910667D01*
X149791000Y-89859333D01*
G37*
G36*
X103791000Y-89859333D02*
G01*
X100209000Y-89859333D01*
X100209000Y-87910667D01*
X103791000Y-87910667D01*
X103791000Y-89859333D01*
G37*
G36*
X124791000Y-89859333D02*
G01*
X121209000Y-89859333D01*
X121209000Y-87910667D01*
X124791000Y-87910667D01*
X124791000Y-89859333D01*
G37*
G36*
X128791000Y-89859333D02*
G01*
X125209000Y-89859333D01*
X125209000Y-87910667D01*
X128791000Y-87910667D01*
X128791000Y-89859333D01*
G37*
G36*
X78791000Y-89859333D02*
G01*
X75209000Y-89859333D01*
X75209000Y-87910667D01*
X78791000Y-87910667D01*
X78791000Y-89859333D01*
G37*
G36*
X133306564Y-86489389D02*
G01*
X133497833Y-86568615D01*
X133497835Y-86568616D01*
X133669973Y-86683635D01*
X133816365Y-86830027D01*
X133931385Y-87002167D01*
X134010611Y-87193436D01*
X134051000Y-87396484D01*
X134051000Y-87603516D01*
X134010611Y-87806564D01*
X133967490Y-87910667D01*
X133931384Y-87997835D01*
X133816365Y-88169973D01*
X133669973Y-88316365D01*
X133497835Y-88431384D01*
X133497834Y-88431385D01*
X133497833Y-88431385D01*
X133306564Y-88510611D01*
X133103516Y-88551000D01*
X132896484Y-88551000D01*
X132693436Y-88510611D01*
X132502167Y-88431385D01*
X132502166Y-88431385D01*
X132502165Y-88431384D01*
X132330027Y-88316365D01*
X132183635Y-88169973D01*
X132068616Y-87997835D01*
X132032510Y-87910667D01*
X131989389Y-87806564D01*
X131949000Y-87603516D01*
X131949000Y-87396484D01*
X131989389Y-87193436D01*
X132068615Y-87002167D01*
X132183635Y-86830027D01*
X132330027Y-86683635D01*
X132502165Y-86568616D01*
X132502167Y-86568615D01*
X132693436Y-86489389D01*
X132896484Y-86449000D01*
X133103516Y-86449000D01*
X133306564Y-86489389D01*
G37*
G36*
X58306564Y-86489389D02*
G01*
X58497833Y-86568615D01*
X58497835Y-86568616D01*
X58669973Y-86683635D01*
X58816365Y-86830027D01*
X58931385Y-87002167D01*
X59010611Y-87193436D01*
X59051000Y-87396484D01*
X59051000Y-87603516D01*
X59010611Y-87806564D01*
X58967490Y-87910667D01*
X58931384Y-87997835D01*
X58816365Y-88169973D01*
X58669973Y-88316365D01*
X58497835Y-88431384D01*
X58497834Y-88431385D01*
X58497833Y-88431385D01*
X58306564Y-88510611D01*
X58103516Y-88551000D01*
X57896484Y-88551000D01*
X57693436Y-88510611D01*
X57502167Y-88431385D01*
X57502166Y-88431385D01*
X57502165Y-88431384D01*
X57330027Y-88316365D01*
X57183635Y-88169973D01*
X57068616Y-87997835D01*
X57032510Y-87910667D01*
X56989389Y-87806564D01*
X56949000Y-87603516D01*
X56949000Y-87396484D01*
X56989389Y-87193436D01*
X57068615Y-87002167D01*
X57183635Y-86830027D01*
X57330027Y-86683635D01*
X57502165Y-86568616D01*
X57502167Y-86568615D01*
X57693436Y-86489389D01*
X57896484Y-86449000D01*
X58103516Y-86449000D01*
X58306564Y-86489389D01*
G37*
G36*
X83306564Y-86489389D02*
G01*
X83497833Y-86568615D01*
X83497835Y-86568616D01*
X83669973Y-86683635D01*
X83816365Y-86830027D01*
X83931385Y-87002167D01*
X84010611Y-87193436D01*
X84051000Y-87396484D01*
X84051000Y-87603516D01*
X84010611Y-87806564D01*
X83967490Y-87910667D01*
X83931384Y-87997835D01*
X83816365Y-88169973D01*
X83669973Y-88316365D01*
X83497835Y-88431384D01*
X83497834Y-88431385D01*
X83497833Y-88431385D01*
X83306564Y-88510611D01*
X83103516Y-88551000D01*
X82896484Y-88551000D01*
X82693436Y-88510611D01*
X82502167Y-88431385D01*
X82502166Y-88431385D01*
X82502165Y-88431384D01*
X82330027Y-88316365D01*
X82183635Y-88169973D01*
X82068616Y-87997835D01*
X82032510Y-87910667D01*
X81989389Y-87806564D01*
X81949000Y-87603516D01*
X81949000Y-87396484D01*
X81989389Y-87193436D01*
X82068615Y-87002167D01*
X82183635Y-86830027D01*
X82330027Y-86683635D01*
X82502165Y-86568616D01*
X82502167Y-86568615D01*
X82693436Y-86489389D01*
X82896484Y-86449000D01*
X83103516Y-86449000D01*
X83306564Y-86489389D01*
G37*
G36*
X108306564Y-86489389D02*
G01*
X108497833Y-86568615D01*
X108497835Y-86568616D01*
X108669973Y-86683635D01*
X108816365Y-86830027D01*
X108931385Y-87002167D01*
X109010611Y-87193436D01*
X109051000Y-87396484D01*
X109051000Y-87603516D01*
X109010611Y-87806564D01*
X108967490Y-87910667D01*
X108931384Y-87997835D01*
X108816365Y-88169973D01*
X108669973Y-88316365D01*
X108497835Y-88431384D01*
X108497834Y-88431385D01*
X108497833Y-88431385D01*
X108306564Y-88510611D01*
X108103516Y-88551000D01*
X107896484Y-88551000D01*
X107693436Y-88510611D01*
X107502167Y-88431385D01*
X107502166Y-88431385D01*
X107502165Y-88431384D01*
X107330027Y-88316365D01*
X107183635Y-88169973D01*
X107068616Y-87997835D01*
X107032510Y-87910667D01*
X106989389Y-87806564D01*
X106949000Y-87603516D01*
X106949000Y-87396484D01*
X106989389Y-87193436D01*
X107068615Y-87002167D01*
X107183635Y-86830027D01*
X107330027Y-86683635D01*
X107502165Y-86568616D01*
X107502167Y-86568615D01*
X107693436Y-86489389D01*
X107896484Y-86449000D01*
X108103516Y-86449000D01*
X108306564Y-86489389D01*
G37*
G36*
X103791000Y-87089333D02*
G01*
X100209000Y-87089333D01*
X100209000Y-85140667D01*
X103791000Y-85140667D01*
X103791000Y-87089333D01*
G37*
G36*
X124791000Y-87089333D02*
G01*
X121209000Y-87089333D01*
X121209000Y-85140667D01*
X124791000Y-85140667D01*
X124791000Y-87089333D01*
G37*
G36*
X78791000Y-87089333D02*
G01*
X75209000Y-87089333D01*
X75209000Y-85140667D01*
X78791000Y-85140667D01*
X78791000Y-87089333D01*
G37*
G36*
X74791000Y-87089333D02*
G01*
X71209000Y-87089333D01*
X71209000Y-85140667D01*
X74791000Y-85140667D01*
X74791000Y-87089333D01*
G37*
G36*
X128791000Y-87089333D02*
G01*
X125209000Y-87089333D01*
X125209000Y-85140667D01*
X128791000Y-85140667D01*
X128791000Y-87089333D01*
G37*
G36*
X53791000Y-87089333D02*
G01*
X50209000Y-87089333D01*
X50209000Y-85140667D01*
X53791000Y-85140667D01*
X53791000Y-87089333D01*
G37*
G36*
X99791000Y-87089333D02*
G01*
X96209000Y-87089333D01*
X96209000Y-85140667D01*
X99791000Y-85140667D01*
X99791000Y-87089333D01*
G37*
G36*
X149791000Y-87089333D02*
G01*
X146209000Y-87089333D01*
X146209000Y-85140667D01*
X149791000Y-85140667D01*
X149791000Y-87089333D01*
G37*
G36*
X67306564Y-83489389D02*
G01*
X67497833Y-83568615D01*
X67497835Y-83568616D01*
X67669973Y-83683635D01*
X67816365Y-83830027D01*
X67931385Y-84002167D01*
X68010611Y-84193436D01*
X68051000Y-84396484D01*
X68051000Y-84603516D01*
X68010611Y-84806564D01*
X67931385Y-84997833D01*
X67931384Y-84997835D01*
X67816365Y-85169973D01*
X67669973Y-85316365D01*
X67497835Y-85431384D01*
X67497834Y-85431385D01*
X67497833Y-85431385D01*
X67306564Y-85510611D01*
X67103516Y-85551000D01*
X66896484Y-85551000D01*
X66693436Y-85510611D01*
X66502167Y-85431385D01*
X66502166Y-85431385D01*
X66502165Y-85431384D01*
X66330027Y-85316365D01*
X66183635Y-85169973D01*
X66068616Y-84997835D01*
X66068615Y-84997833D01*
X65989389Y-84806564D01*
X65949000Y-84603516D01*
X65949000Y-84396484D01*
X65989389Y-84193436D01*
X66068615Y-84002167D01*
X66183635Y-83830027D01*
X66330027Y-83683635D01*
X66502165Y-83568616D01*
X66502167Y-83568615D01*
X66693436Y-83489389D01*
X66896484Y-83449000D01*
X67103516Y-83449000D01*
X67306564Y-83489389D01*
G37*
G36*
X92306564Y-83489389D02*
G01*
X92497833Y-83568615D01*
X92497835Y-83568616D01*
X92669973Y-83683635D01*
X92816365Y-83830027D01*
X92931385Y-84002167D01*
X93010611Y-84193436D01*
X93051000Y-84396484D01*
X93051000Y-84603516D01*
X93010611Y-84806564D01*
X92931385Y-84997833D01*
X92931384Y-84997835D01*
X92816365Y-85169973D01*
X92669973Y-85316365D01*
X92497835Y-85431384D01*
X92497834Y-85431385D01*
X92497833Y-85431385D01*
X92306564Y-85510611D01*
X92103516Y-85551000D01*
X91896484Y-85551000D01*
X91693436Y-85510611D01*
X91502167Y-85431385D01*
X91502166Y-85431385D01*
X91502165Y-85431384D01*
X91330027Y-85316365D01*
X91183635Y-85169973D01*
X91068616Y-84997835D01*
X91068615Y-84997833D01*
X90989389Y-84806564D01*
X90949000Y-84603516D01*
X90949000Y-84396484D01*
X90989389Y-84193436D01*
X91068615Y-84002167D01*
X91183635Y-83830027D01*
X91330027Y-83683635D01*
X91502165Y-83568616D01*
X91502167Y-83568615D01*
X91693436Y-83489389D01*
X91896484Y-83449000D01*
X92103516Y-83449000D01*
X92306564Y-83489389D01*
G37*
G36*
X142306564Y-83489389D02*
G01*
X142497833Y-83568615D01*
X142497835Y-83568616D01*
X142669973Y-83683635D01*
X142816365Y-83830027D01*
X142931385Y-84002167D01*
X143010611Y-84193436D01*
X143051000Y-84396484D01*
X143051000Y-84603516D01*
X143010611Y-84806564D01*
X142931385Y-84997833D01*
X142931384Y-84997835D01*
X142816365Y-85169973D01*
X142669973Y-85316365D01*
X142497835Y-85431384D01*
X142497834Y-85431385D01*
X142497833Y-85431385D01*
X142306564Y-85510611D01*
X142103516Y-85551000D01*
X141896484Y-85551000D01*
X141693436Y-85510611D01*
X141502167Y-85431385D01*
X141502166Y-85431385D01*
X141502165Y-85431384D01*
X141330027Y-85316365D01*
X141183635Y-85169973D01*
X141068616Y-84997835D01*
X141068615Y-84997833D01*
X140989389Y-84806564D01*
X140949000Y-84603516D01*
X140949000Y-84396484D01*
X140989389Y-84193436D01*
X141068615Y-84002167D01*
X141183635Y-83830027D01*
X141330027Y-83683635D01*
X141502165Y-83568616D01*
X141502167Y-83568615D01*
X141693436Y-83489389D01*
X141896484Y-83449000D01*
X142103516Y-83449000D01*
X142306564Y-83489389D01*
G37*
G36*
X117306564Y-83489389D02*
G01*
X117497833Y-83568615D01*
X117497835Y-83568616D01*
X117669973Y-83683635D01*
X117816365Y-83830027D01*
X117931385Y-84002167D01*
X118010611Y-84193436D01*
X118051000Y-84396484D01*
X118051000Y-84603516D01*
X118010611Y-84806564D01*
X117931385Y-84997833D01*
X117931384Y-84997835D01*
X117816365Y-85169973D01*
X117669973Y-85316365D01*
X117497835Y-85431384D01*
X117497834Y-85431385D01*
X117497833Y-85431385D01*
X117306564Y-85510611D01*
X117103516Y-85551000D01*
X116896484Y-85551000D01*
X116693436Y-85510611D01*
X116502167Y-85431385D01*
X116502166Y-85431385D01*
X116502165Y-85431384D01*
X116330027Y-85316365D01*
X116183635Y-85169973D01*
X116068616Y-84997835D01*
X116068615Y-84997833D01*
X115989389Y-84806564D01*
X115949000Y-84603516D01*
X115949000Y-84396484D01*
X115989389Y-84193436D01*
X116068615Y-84002167D01*
X116183635Y-83830027D01*
X116330027Y-83683635D01*
X116502165Y-83568616D01*
X116502167Y-83568615D01*
X116693436Y-83489389D01*
X116896484Y-83449000D01*
X117103516Y-83449000D01*
X117306564Y-83489389D01*
G37*
G36*
X149791000Y-84319333D02*
G01*
X146209000Y-84319333D01*
X146209000Y-82370667D01*
X149791000Y-82370667D01*
X149791000Y-84319333D01*
G37*
G36*
X128791000Y-84319333D02*
G01*
X125209000Y-84319333D01*
X125209000Y-82370667D01*
X128791000Y-82370667D01*
X128791000Y-84319333D01*
G37*
G36*
X99791000Y-84319333D02*
G01*
X96209000Y-84319333D01*
X96209000Y-82370667D01*
X99791000Y-82370667D01*
X99791000Y-84319333D01*
G37*
G36*
X78791000Y-84319333D02*
G01*
X75209000Y-84319333D01*
X75209000Y-82370667D01*
X78791000Y-82370667D01*
X78791000Y-84319333D01*
G37*
G36*
X124791000Y-84319333D02*
G01*
X121209000Y-84319333D01*
X121209000Y-82370667D01*
X124791000Y-82370667D01*
X124791000Y-84319333D01*
G37*
G36*
X103791000Y-84319333D02*
G01*
X100209000Y-84319333D01*
X100209000Y-82370667D01*
X103791000Y-82370667D01*
X103791000Y-84319333D01*
G37*
G36*
X53791000Y-84319333D02*
G01*
X50209000Y-84319333D01*
X50209000Y-82370667D01*
X53791000Y-82370667D01*
X53791000Y-84319333D01*
G37*
G36*
X74791000Y-84319333D02*
G01*
X71209000Y-84319333D01*
X71209000Y-82370667D01*
X74791000Y-82370667D01*
X74791000Y-84319333D01*
G37*
G36*
X83306564Y-80989389D02*
G01*
X83497833Y-81068615D01*
X83497835Y-81068616D01*
X83669973Y-81183635D01*
X83816365Y-81330027D01*
X83931385Y-81502167D01*
X84010611Y-81693436D01*
X84051000Y-81896484D01*
X84051000Y-82103516D01*
X84010611Y-82306564D01*
X83931385Y-82497833D01*
X83931384Y-82497835D01*
X83816365Y-82669973D01*
X83669973Y-82816365D01*
X83497835Y-82931384D01*
X83497834Y-82931385D01*
X83497833Y-82931385D01*
X83306564Y-83010611D01*
X83103516Y-83051000D01*
X82896484Y-83051000D01*
X82693436Y-83010611D01*
X82502167Y-82931385D01*
X82502166Y-82931385D01*
X82502165Y-82931384D01*
X82330027Y-82816365D01*
X82183635Y-82669973D01*
X82068616Y-82497835D01*
X82068615Y-82497833D01*
X81989389Y-82306564D01*
X81949000Y-82103516D01*
X81949000Y-81896484D01*
X81989389Y-81693436D01*
X82068615Y-81502167D01*
X82183635Y-81330027D01*
X82330027Y-81183635D01*
X82502165Y-81068616D01*
X82502167Y-81068615D01*
X82693436Y-80989389D01*
X82896484Y-80949000D01*
X83103516Y-80949000D01*
X83306564Y-80989389D01*
G37*
G36*
X58306564Y-80989389D02*
G01*
X58497833Y-81068615D01*
X58497835Y-81068616D01*
X58669973Y-81183635D01*
X58816365Y-81330027D01*
X58931385Y-81502167D01*
X59010611Y-81693436D01*
X59051000Y-81896484D01*
X59051000Y-82103516D01*
X59010611Y-82306564D01*
X58931385Y-82497833D01*
X58931384Y-82497835D01*
X58816365Y-82669973D01*
X58669973Y-82816365D01*
X58497835Y-82931384D01*
X58497834Y-82931385D01*
X58497833Y-82931385D01*
X58306564Y-83010611D01*
X58103516Y-83051000D01*
X57896484Y-83051000D01*
X57693436Y-83010611D01*
X57502167Y-82931385D01*
X57502166Y-82931385D01*
X57502165Y-82931384D01*
X57330027Y-82816365D01*
X57183635Y-82669973D01*
X57068616Y-82497835D01*
X57068615Y-82497833D01*
X56989389Y-82306564D01*
X56949000Y-82103516D01*
X56949000Y-81896484D01*
X56989389Y-81693436D01*
X57068615Y-81502167D01*
X57183635Y-81330027D01*
X57330027Y-81183635D01*
X57502165Y-81068616D01*
X57502167Y-81068615D01*
X57693436Y-80989389D01*
X57896484Y-80949000D01*
X58103516Y-80949000D01*
X58306564Y-80989389D01*
G37*
G36*
X133306564Y-80989389D02*
G01*
X133497833Y-81068615D01*
X133497835Y-81068616D01*
X133669973Y-81183635D01*
X133816365Y-81330027D01*
X133931385Y-81502167D01*
X134010611Y-81693436D01*
X134051000Y-81896484D01*
X134051000Y-82103516D01*
X134010611Y-82306564D01*
X133931385Y-82497833D01*
X133931384Y-82497835D01*
X133816365Y-82669973D01*
X133669973Y-82816365D01*
X133497835Y-82931384D01*
X133497834Y-82931385D01*
X133497833Y-82931385D01*
X133306564Y-83010611D01*
X133103516Y-83051000D01*
X132896484Y-83051000D01*
X132693436Y-83010611D01*
X132502167Y-82931385D01*
X132502166Y-82931385D01*
X132502165Y-82931384D01*
X132330027Y-82816365D01*
X132183635Y-82669973D01*
X132068616Y-82497835D01*
X132068615Y-82497833D01*
X131989389Y-82306564D01*
X131949000Y-82103516D01*
X131949000Y-81896484D01*
X131989389Y-81693436D01*
X132068615Y-81502167D01*
X132183635Y-81330027D01*
X132330027Y-81183635D01*
X132502165Y-81068616D01*
X132502167Y-81068615D01*
X132693436Y-80989389D01*
X132896484Y-80949000D01*
X133103516Y-80949000D01*
X133306564Y-80989389D01*
G37*
G36*
X108306564Y-80989389D02*
G01*
X108497833Y-81068615D01*
X108497835Y-81068616D01*
X108669973Y-81183635D01*
X108816365Y-81330027D01*
X108931385Y-81502167D01*
X109010611Y-81693436D01*
X109051000Y-81896484D01*
X109051000Y-82103516D01*
X109010611Y-82306564D01*
X108931385Y-82497833D01*
X108931384Y-82497835D01*
X108816365Y-82669973D01*
X108669973Y-82816365D01*
X108497835Y-82931384D01*
X108497834Y-82931385D01*
X108497833Y-82931385D01*
X108306564Y-83010611D01*
X108103516Y-83051000D01*
X107896484Y-83051000D01*
X107693436Y-83010611D01*
X107502167Y-82931385D01*
X107502166Y-82931385D01*
X107502165Y-82931384D01*
X107330027Y-82816365D01*
X107183635Y-82669973D01*
X107068616Y-82497835D01*
X107068615Y-82497833D01*
X106989389Y-82306564D01*
X106949000Y-82103516D01*
X106949000Y-81896484D01*
X106989389Y-81693436D01*
X107068615Y-81502167D01*
X107183635Y-81330027D01*
X107330027Y-81183635D01*
X107502165Y-81068616D01*
X107502167Y-81068615D01*
X107693436Y-80989389D01*
X107896484Y-80949000D01*
X108103516Y-80949000D01*
X108306564Y-80989389D01*
G37*
G36*
X117306564Y-77989389D02*
G01*
X117497833Y-78068615D01*
X117497835Y-78068616D01*
X117669973Y-78183635D01*
X117816365Y-78330027D01*
X117931385Y-78502167D01*
X118010611Y-78693436D01*
X118051000Y-78896484D01*
X118051000Y-79103516D01*
X118010611Y-79306564D01*
X117931385Y-79497833D01*
X117931384Y-79497835D01*
X117816365Y-79669973D01*
X117669973Y-79816365D01*
X117497835Y-79931384D01*
X117497834Y-79931385D01*
X117497833Y-79931385D01*
X117306564Y-80010611D01*
X117103516Y-80051000D01*
X116896484Y-80051000D01*
X116693436Y-80010611D01*
X116502167Y-79931385D01*
X116502166Y-79931385D01*
X116502165Y-79931384D01*
X116330027Y-79816365D01*
X116183635Y-79669973D01*
X116068616Y-79497835D01*
X116068615Y-79497833D01*
X115989389Y-79306564D01*
X115949000Y-79103516D01*
X115949000Y-78896484D01*
X115989389Y-78693436D01*
X116068615Y-78502167D01*
X116183635Y-78330027D01*
X116330027Y-78183635D01*
X116502165Y-78068616D01*
X116502167Y-78068615D01*
X116693436Y-77989389D01*
X116896484Y-77949000D01*
X117103516Y-77949000D01*
X117306564Y-77989389D01*
G37*
G36*
X142306564Y-77989389D02*
G01*
X142497833Y-78068615D01*
X142497835Y-78068616D01*
X142669973Y-78183635D01*
X142816365Y-78330027D01*
X142931385Y-78502167D01*
X143010611Y-78693436D01*
X143051000Y-78896484D01*
X143051000Y-79103516D01*
X143010611Y-79306564D01*
X142931385Y-79497833D01*
X142931384Y-79497835D01*
X142816365Y-79669973D01*
X142669973Y-79816365D01*
X142497835Y-79931384D01*
X142497834Y-79931385D01*
X142497833Y-79931385D01*
X142306564Y-80010611D01*
X142103516Y-80051000D01*
X141896484Y-80051000D01*
X141693436Y-80010611D01*
X141502167Y-79931385D01*
X141502166Y-79931385D01*
X141502165Y-79931384D01*
X141330027Y-79816365D01*
X141183635Y-79669973D01*
X141068616Y-79497835D01*
X141068615Y-79497833D01*
X140989389Y-79306564D01*
X140949000Y-79103516D01*
X140949000Y-78896484D01*
X140989389Y-78693436D01*
X141068615Y-78502167D01*
X141183635Y-78330027D01*
X141330027Y-78183635D01*
X141502165Y-78068616D01*
X141502167Y-78068615D01*
X141693436Y-77989389D01*
X141896484Y-77949000D01*
X142103516Y-77949000D01*
X142306564Y-77989389D01*
G37*
G36*
X92306564Y-77989389D02*
G01*
X92497833Y-78068615D01*
X92497835Y-78068616D01*
X92669973Y-78183635D01*
X92816365Y-78330027D01*
X92931385Y-78502167D01*
X93010611Y-78693436D01*
X93051000Y-78896484D01*
X93051000Y-79103516D01*
X93010611Y-79306564D01*
X92931385Y-79497833D01*
X92931384Y-79497835D01*
X92816365Y-79669973D01*
X92669973Y-79816365D01*
X92497835Y-79931384D01*
X92497834Y-79931385D01*
X92497833Y-79931385D01*
X92306564Y-80010611D01*
X92103516Y-80051000D01*
X91896484Y-80051000D01*
X91693436Y-80010611D01*
X91502167Y-79931385D01*
X91502166Y-79931385D01*
X91502165Y-79931384D01*
X91330027Y-79816365D01*
X91183635Y-79669973D01*
X91068616Y-79497835D01*
X91068615Y-79497833D01*
X90989389Y-79306564D01*
X90949000Y-79103516D01*
X90949000Y-78896484D01*
X90989389Y-78693436D01*
X91068615Y-78502167D01*
X91183635Y-78330027D01*
X91330027Y-78183635D01*
X91502165Y-78068616D01*
X91502167Y-78068615D01*
X91693436Y-77989389D01*
X91896484Y-77949000D01*
X92103516Y-77949000D01*
X92306564Y-77989389D01*
G37*
G36*
X67306564Y-77989389D02*
G01*
X67497833Y-78068615D01*
X67497835Y-78068616D01*
X67669973Y-78183635D01*
X67816365Y-78330027D01*
X67931385Y-78502167D01*
X68010611Y-78693436D01*
X68051000Y-78896484D01*
X68051000Y-79103516D01*
X68010611Y-79306564D01*
X67931385Y-79497833D01*
X67931384Y-79497835D01*
X67816365Y-79669973D01*
X67669973Y-79816365D01*
X67497835Y-79931384D01*
X67497834Y-79931385D01*
X67497833Y-79931385D01*
X67306564Y-80010611D01*
X67103516Y-80051000D01*
X66896484Y-80051000D01*
X66693436Y-80010611D01*
X66502167Y-79931385D01*
X66502166Y-79931385D01*
X66502165Y-79931384D01*
X66330027Y-79816365D01*
X66183635Y-79669973D01*
X66068616Y-79497835D01*
X66068615Y-79497833D01*
X65989389Y-79306564D01*
X65949000Y-79103516D01*
X65949000Y-78896484D01*
X65989389Y-78693436D01*
X66068615Y-78502167D01*
X66183635Y-78330027D01*
X66330027Y-78183635D01*
X66502165Y-78068616D01*
X66502167Y-78068615D01*
X66693436Y-77989389D01*
X66896484Y-77949000D01*
X67103516Y-77949000D01*
X67306564Y-77989389D01*
G37*
G36*
X58306564Y-75489389D02*
G01*
X58497833Y-75568615D01*
X58497835Y-75568616D01*
X58669973Y-75683635D01*
X58816365Y-75830027D01*
X58931385Y-76002167D01*
X59010611Y-76193436D01*
X59051000Y-76396484D01*
X59051000Y-76603516D01*
X59010611Y-76806564D01*
X58931385Y-76997833D01*
X58931384Y-76997835D01*
X58816365Y-77169973D01*
X58669973Y-77316365D01*
X58497835Y-77431384D01*
X58497834Y-77431385D01*
X58497833Y-77431385D01*
X58306564Y-77510611D01*
X58103516Y-77551000D01*
X57896484Y-77551000D01*
X57693436Y-77510611D01*
X57502167Y-77431385D01*
X57502166Y-77431385D01*
X57502165Y-77431384D01*
X57330027Y-77316365D01*
X57183635Y-77169973D01*
X57068616Y-76997835D01*
X57068615Y-76997833D01*
X56989389Y-76806564D01*
X56949000Y-76603516D01*
X56949000Y-76396484D01*
X56989389Y-76193436D01*
X57068615Y-76002167D01*
X57183635Y-75830027D01*
X57330027Y-75683635D01*
X57502165Y-75568616D01*
X57502167Y-75568615D01*
X57693436Y-75489389D01*
X57896484Y-75449000D01*
X58103516Y-75449000D01*
X58306564Y-75489389D01*
G37*
G36*
X133306564Y-75489389D02*
G01*
X133497833Y-75568615D01*
X133497835Y-75568616D01*
X133669973Y-75683635D01*
X133816365Y-75830027D01*
X133931385Y-76002167D01*
X134010611Y-76193436D01*
X134051000Y-76396484D01*
X134051000Y-76603516D01*
X134010611Y-76806564D01*
X133931385Y-76997833D01*
X133931384Y-76997835D01*
X133816365Y-77169973D01*
X133669973Y-77316365D01*
X133497835Y-77431384D01*
X133497834Y-77431385D01*
X133497833Y-77431385D01*
X133306564Y-77510611D01*
X133103516Y-77551000D01*
X132896484Y-77551000D01*
X132693436Y-77510611D01*
X132502167Y-77431385D01*
X132502166Y-77431385D01*
X132502165Y-77431384D01*
X132330027Y-77316365D01*
X132183635Y-77169973D01*
X132068616Y-76997835D01*
X132068615Y-76997833D01*
X131989389Y-76806564D01*
X131949000Y-76603516D01*
X131949000Y-76396484D01*
X131989389Y-76193436D01*
X132068615Y-76002167D01*
X132183635Y-75830027D01*
X132330027Y-75683635D01*
X132502165Y-75568616D01*
X132502167Y-75568615D01*
X132693436Y-75489389D01*
X132896484Y-75449000D01*
X133103516Y-75449000D01*
X133306564Y-75489389D01*
G37*
G36*
X83306564Y-75489389D02*
G01*
X83497833Y-75568615D01*
X83497835Y-75568616D01*
X83669973Y-75683635D01*
X83816365Y-75830027D01*
X83931385Y-76002167D01*
X84010611Y-76193436D01*
X84051000Y-76396484D01*
X84051000Y-76603516D01*
X84010611Y-76806564D01*
X83931385Y-76997833D01*
X83931384Y-76997835D01*
X83816365Y-77169973D01*
X83669973Y-77316365D01*
X83497835Y-77431384D01*
X83497834Y-77431385D01*
X83497833Y-77431385D01*
X83306564Y-77510611D01*
X83103516Y-77551000D01*
X82896484Y-77551000D01*
X82693436Y-77510611D01*
X82502167Y-77431385D01*
X82502166Y-77431385D01*
X82502165Y-77431384D01*
X82330027Y-77316365D01*
X82183635Y-77169973D01*
X82068616Y-76997835D01*
X82068615Y-76997833D01*
X81989389Y-76806564D01*
X81949000Y-76603516D01*
X81949000Y-76396484D01*
X81989389Y-76193436D01*
X82068615Y-76002167D01*
X82183635Y-75830027D01*
X82330027Y-75683635D01*
X82502165Y-75568616D01*
X82502167Y-75568615D01*
X82693436Y-75489389D01*
X82896484Y-75449000D01*
X83103516Y-75449000D01*
X83306564Y-75489389D01*
G37*
G36*
X108306564Y-75489389D02*
G01*
X108497833Y-75568615D01*
X108497835Y-75568616D01*
X108669973Y-75683635D01*
X108816365Y-75830027D01*
X108931385Y-76002167D01*
X109010611Y-76193436D01*
X109051000Y-76396484D01*
X109051000Y-76603516D01*
X109010611Y-76806564D01*
X108931385Y-76997833D01*
X108931384Y-76997835D01*
X108816365Y-77169973D01*
X108669973Y-77316365D01*
X108497835Y-77431384D01*
X108497834Y-77431385D01*
X108497833Y-77431385D01*
X108306564Y-77510611D01*
X108103516Y-77551000D01*
X107896484Y-77551000D01*
X107693436Y-77510611D01*
X107502167Y-77431385D01*
X107502166Y-77431385D01*
X107502165Y-77431384D01*
X107330027Y-77316365D01*
X107183635Y-77169973D01*
X107068616Y-76997835D01*
X107068615Y-76997833D01*
X106989389Y-76806564D01*
X106949000Y-76603516D01*
X106949000Y-76396484D01*
X106989389Y-76193436D01*
X107068615Y-76002167D01*
X107183635Y-75830027D01*
X107330027Y-75683635D01*
X107502165Y-75568616D01*
X107502167Y-75568615D01*
X107693436Y-75489389D01*
X107896484Y-75449000D01*
X108103516Y-75449000D01*
X108306564Y-75489389D01*
G37*
G36*
X108306564Y-72489389D02*
G01*
X108497833Y-72568615D01*
X108497835Y-72568616D01*
X108669973Y-72683635D01*
X108816365Y-72830027D01*
X108931385Y-73002167D01*
X109010611Y-73193436D01*
X109051000Y-73396484D01*
X109051000Y-73603516D01*
X109010611Y-73806564D01*
X108931385Y-73997833D01*
X108931384Y-73997835D01*
X108816365Y-74169973D01*
X108669973Y-74316365D01*
X108497835Y-74431384D01*
X108497834Y-74431385D01*
X108497833Y-74431385D01*
X108306564Y-74510611D01*
X108103516Y-74551000D01*
X107896484Y-74551000D01*
X107693436Y-74510611D01*
X107502167Y-74431385D01*
X107502166Y-74431385D01*
X107502165Y-74431384D01*
X107330027Y-74316365D01*
X107183635Y-74169973D01*
X107068616Y-73997835D01*
X107068615Y-73997833D01*
X106989389Y-73806564D01*
X106949000Y-73603516D01*
X106949000Y-73396484D01*
X106989389Y-73193436D01*
X107068615Y-73002167D01*
X107183635Y-72830027D01*
X107330027Y-72683635D01*
X107502165Y-72568616D01*
X107502167Y-72568615D01*
X107693436Y-72489389D01*
X107896484Y-72449000D01*
X108103516Y-72449000D01*
X108306564Y-72489389D01*
G37*
G36*
X58306564Y-72489389D02*
G01*
X58497833Y-72568615D01*
X58497835Y-72568616D01*
X58669973Y-72683635D01*
X58816365Y-72830027D01*
X58931385Y-73002167D01*
X59010611Y-73193436D01*
X59051000Y-73396484D01*
X59051000Y-73603516D01*
X59010611Y-73806564D01*
X58931385Y-73997833D01*
X58931384Y-73997835D01*
X58816365Y-74169973D01*
X58669973Y-74316365D01*
X58497835Y-74431384D01*
X58497834Y-74431385D01*
X58497833Y-74431385D01*
X58306564Y-74510611D01*
X58103516Y-74551000D01*
X57896484Y-74551000D01*
X57693436Y-74510611D01*
X57502167Y-74431385D01*
X57502166Y-74431385D01*
X57502165Y-74431384D01*
X57330027Y-74316365D01*
X57183635Y-74169973D01*
X57068616Y-73997835D01*
X57068615Y-73997833D01*
X56989389Y-73806564D01*
X56949000Y-73603516D01*
X56949000Y-73396484D01*
X56989389Y-73193436D01*
X57068615Y-73002167D01*
X57183635Y-72830027D01*
X57330027Y-72683635D01*
X57502165Y-72568616D01*
X57502167Y-72568615D01*
X57693436Y-72489389D01*
X57896484Y-72449000D01*
X58103516Y-72449000D01*
X58306564Y-72489389D01*
G37*
G36*
X83306564Y-72489389D02*
G01*
X83497833Y-72568615D01*
X83497835Y-72568616D01*
X83669973Y-72683635D01*
X83816365Y-72830027D01*
X83931385Y-73002167D01*
X84010611Y-73193436D01*
X84051000Y-73396484D01*
X84051000Y-73603516D01*
X84010611Y-73806564D01*
X83931385Y-73997833D01*
X83931384Y-73997835D01*
X83816365Y-74169973D01*
X83669973Y-74316365D01*
X83497835Y-74431384D01*
X83497834Y-74431385D01*
X83497833Y-74431385D01*
X83306564Y-74510611D01*
X83103516Y-74551000D01*
X82896484Y-74551000D01*
X82693436Y-74510611D01*
X82502167Y-74431385D01*
X82502166Y-74431385D01*
X82502165Y-74431384D01*
X82330027Y-74316365D01*
X82183635Y-74169973D01*
X82068616Y-73997835D01*
X82068615Y-73997833D01*
X81989389Y-73806564D01*
X81949000Y-73603516D01*
X81949000Y-73396484D01*
X81989389Y-73193436D01*
X82068615Y-73002167D01*
X82183635Y-72830027D01*
X82330027Y-72683635D01*
X82502165Y-72568616D01*
X82502167Y-72568615D01*
X82693436Y-72489389D01*
X82896484Y-72449000D01*
X83103516Y-72449000D01*
X83306564Y-72489389D01*
G37*
G36*
X133306564Y-72489389D02*
G01*
X133497833Y-72568615D01*
X133497835Y-72568616D01*
X133669973Y-72683635D01*
X133816365Y-72830027D01*
X133931385Y-73002167D01*
X134010611Y-73193436D01*
X134051000Y-73396484D01*
X134051000Y-73603516D01*
X134010611Y-73806564D01*
X133931385Y-73997833D01*
X133931384Y-73997835D01*
X133816365Y-74169973D01*
X133669973Y-74316365D01*
X133497835Y-74431384D01*
X133497834Y-74431385D01*
X133497833Y-74431385D01*
X133306564Y-74510611D01*
X133103516Y-74551000D01*
X132896484Y-74551000D01*
X132693436Y-74510611D01*
X132502167Y-74431385D01*
X132502166Y-74431385D01*
X132502165Y-74431384D01*
X132330027Y-74316365D01*
X132183635Y-74169973D01*
X132068616Y-73997835D01*
X132068615Y-73997833D01*
X131989389Y-73806564D01*
X131949000Y-73603516D01*
X131949000Y-73396484D01*
X131989389Y-73193436D01*
X132068615Y-73002167D01*
X132183635Y-72830027D01*
X132330027Y-72683635D01*
X132502165Y-72568616D01*
X132502167Y-72568615D01*
X132693436Y-72489389D01*
X132896484Y-72449000D01*
X133103516Y-72449000D01*
X133306564Y-72489389D01*
G37*
G36*
X117306564Y-69989389D02*
G01*
X117497833Y-70068615D01*
X117497835Y-70068616D01*
X117669973Y-70183635D01*
X117816365Y-70330027D01*
X117931385Y-70502167D01*
X118010611Y-70693436D01*
X118051000Y-70896484D01*
X118051000Y-71103516D01*
X118010611Y-71306564D01*
X117931385Y-71497833D01*
X117931384Y-71497835D01*
X117816365Y-71669973D01*
X117669973Y-71816365D01*
X117497835Y-71931384D01*
X117497834Y-71931385D01*
X117497833Y-71931385D01*
X117306564Y-72010611D01*
X117103516Y-72051000D01*
X116896484Y-72051000D01*
X116693436Y-72010611D01*
X116502167Y-71931385D01*
X116502166Y-71931385D01*
X116502165Y-71931384D01*
X116330027Y-71816365D01*
X116183635Y-71669973D01*
X116068616Y-71497835D01*
X116068615Y-71497833D01*
X115989389Y-71306564D01*
X115949000Y-71103516D01*
X115949000Y-70896484D01*
X115989389Y-70693436D01*
X116068615Y-70502167D01*
X116183635Y-70330027D01*
X116330027Y-70183635D01*
X116502165Y-70068616D01*
X116502167Y-70068615D01*
X116693436Y-69989389D01*
X116896484Y-69949000D01*
X117103516Y-69949000D01*
X117306564Y-69989389D01*
G37*
G36*
X142306564Y-69989389D02*
G01*
X142497833Y-70068615D01*
X142497835Y-70068616D01*
X142669973Y-70183635D01*
X142816365Y-70330027D01*
X142931385Y-70502167D01*
X143010611Y-70693436D01*
X143051000Y-70896484D01*
X143051000Y-71103516D01*
X143010611Y-71306564D01*
X142931385Y-71497833D01*
X142931384Y-71497835D01*
X142816365Y-71669973D01*
X142669973Y-71816365D01*
X142497835Y-71931384D01*
X142497834Y-71931385D01*
X142497833Y-71931385D01*
X142306564Y-72010611D01*
X142103516Y-72051000D01*
X141896484Y-72051000D01*
X141693436Y-72010611D01*
X141502167Y-71931385D01*
X141502166Y-71931385D01*
X141502165Y-71931384D01*
X141330027Y-71816365D01*
X141183635Y-71669973D01*
X141068616Y-71497835D01*
X141068615Y-71497833D01*
X140989389Y-71306564D01*
X140949000Y-71103516D01*
X140949000Y-70896484D01*
X140989389Y-70693436D01*
X141068615Y-70502167D01*
X141183635Y-70330027D01*
X141330027Y-70183635D01*
X141502165Y-70068616D01*
X141502167Y-70068615D01*
X141693436Y-69989389D01*
X141896484Y-69949000D01*
X142103516Y-69949000D01*
X142306564Y-69989389D01*
G37*
G36*
X92306564Y-69989389D02*
G01*
X92497833Y-70068615D01*
X92497835Y-70068616D01*
X92669973Y-70183635D01*
X92816365Y-70330027D01*
X92931385Y-70502167D01*
X93010611Y-70693436D01*
X93051000Y-70896484D01*
X93051000Y-71103516D01*
X93010611Y-71306564D01*
X92931385Y-71497833D01*
X92931384Y-71497835D01*
X92816365Y-71669973D01*
X92669973Y-71816365D01*
X92497835Y-71931384D01*
X92497834Y-71931385D01*
X92497833Y-71931385D01*
X92306564Y-72010611D01*
X92103516Y-72051000D01*
X91896484Y-72051000D01*
X91693436Y-72010611D01*
X91502167Y-71931385D01*
X91502166Y-71931385D01*
X91502165Y-71931384D01*
X91330027Y-71816365D01*
X91183635Y-71669973D01*
X91068616Y-71497835D01*
X91068615Y-71497833D01*
X90989389Y-71306564D01*
X90949000Y-71103516D01*
X90949000Y-70896484D01*
X90989389Y-70693436D01*
X91068615Y-70502167D01*
X91183635Y-70330027D01*
X91330027Y-70183635D01*
X91502165Y-70068616D01*
X91502167Y-70068615D01*
X91693436Y-69989389D01*
X91896484Y-69949000D01*
X92103516Y-69949000D01*
X92306564Y-69989389D01*
G37*
G36*
X67306564Y-69989389D02*
G01*
X67497833Y-70068615D01*
X67497835Y-70068616D01*
X67669973Y-70183635D01*
X67816365Y-70330027D01*
X67931385Y-70502167D01*
X68010611Y-70693436D01*
X68051000Y-70896484D01*
X68051000Y-71103516D01*
X68010611Y-71306564D01*
X67931385Y-71497833D01*
X67931384Y-71497835D01*
X67816365Y-71669973D01*
X67669973Y-71816365D01*
X67497835Y-71931384D01*
X67497834Y-71931385D01*
X67497833Y-71931385D01*
X67306564Y-72010611D01*
X67103516Y-72051000D01*
X66896484Y-72051000D01*
X66693436Y-72010611D01*
X66502167Y-71931385D01*
X66502166Y-71931385D01*
X66502165Y-71931384D01*
X66330027Y-71816365D01*
X66183635Y-71669973D01*
X66068616Y-71497835D01*
X66068615Y-71497833D01*
X65989389Y-71306564D01*
X65949000Y-71103516D01*
X65949000Y-70896484D01*
X65989389Y-70693436D01*
X66068615Y-70502167D01*
X66183635Y-70330027D01*
X66330027Y-70183635D01*
X66502165Y-70068616D01*
X66502167Y-70068615D01*
X66693436Y-69989389D01*
X66896484Y-69949000D01*
X67103516Y-69949000D01*
X67306564Y-69989389D01*
G37*
G36*
X133306564Y-66989389D02*
G01*
X133497833Y-67068615D01*
X133497835Y-67068616D01*
X133669973Y-67183635D01*
X133816365Y-67330027D01*
X133931385Y-67502167D01*
X134010611Y-67693436D01*
X134051000Y-67896484D01*
X134051000Y-68103516D01*
X134010611Y-68306564D01*
X133931385Y-68497833D01*
X133931384Y-68497835D01*
X133816365Y-68669973D01*
X133669973Y-68816365D01*
X133497835Y-68931384D01*
X133497834Y-68931385D01*
X133497833Y-68931385D01*
X133306564Y-69010611D01*
X133103516Y-69051000D01*
X132896484Y-69051000D01*
X132693436Y-69010611D01*
X132502167Y-68931385D01*
X132502166Y-68931385D01*
X132502165Y-68931384D01*
X132330027Y-68816365D01*
X132183635Y-68669973D01*
X132068616Y-68497835D01*
X132068615Y-68497833D01*
X131989389Y-68306564D01*
X131949000Y-68103516D01*
X131949000Y-67896484D01*
X131989389Y-67693436D01*
X132068615Y-67502167D01*
X132183635Y-67330027D01*
X132330027Y-67183635D01*
X132502165Y-67068616D01*
X132502167Y-67068615D01*
X132693436Y-66989389D01*
X132896484Y-66949000D01*
X133103516Y-66949000D01*
X133306564Y-66989389D01*
G37*
G36*
X108306564Y-66989389D02*
G01*
X108497833Y-67068615D01*
X108497835Y-67068616D01*
X108669973Y-67183635D01*
X108816365Y-67330027D01*
X108931385Y-67502167D01*
X109010611Y-67693436D01*
X109051000Y-67896484D01*
X109051000Y-68103516D01*
X109010611Y-68306564D01*
X108931385Y-68497833D01*
X108931384Y-68497835D01*
X108816365Y-68669973D01*
X108669973Y-68816365D01*
X108497835Y-68931384D01*
X108497834Y-68931385D01*
X108497833Y-68931385D01*
X108306564Y-69010611D01*
X108103516Y-69051000D01*
X107896484Y-69051000D01*
X107693436Y-69010611D01*
X107502167Y-68931385D01*
X107502166Y-68931385D01*
X107502165Y-68931384D01*
X107330027Y-68816365D01*
X107183635Y-68669973D01*
X107068616Y-68497835D01*
X107068615Y-68497833D01*
X106989389Y-68306564D01*
X106949000Y-68103516D01*
X106949000Y-67896484D01*
X106989389Y-67693436D01*
X107068615Y-67502167D01*
X107183635Y-67330027D01*
X107330027Y-67183635D01*
X107502165Y-67068616D01*
X107502167Y-67068615D01*
X107693436Y-66989389D01*
X107896484Y-66949000D01*
X108103516Y-66949000D01*
X108306564Y-66989389D01*
G37*
G36*
X83306564Y-66989389D02*
G01*
X83497833Y-67068615D01*
X83497835Y-67068616D01*
X83669973Y-67183635D01*
X83816365Y-67330027D01*
X83931385Y-67502167D01*
X84010611Y-67693436D01*
X84051000Y-67896484D01*
X84051000Y-68103516D01*
X84010611Y-68306564D01*
X83931385Y-68497833D01*
X83931384Y-68497835D01*
X83816365Y-68669973D01*
X83669973Y-68816365D01*
X83497835Y-68931384D01*
X83497834Y-68931385D01*
X83497833Y-68931385D01*
X83306564Y-69010611D01*
X83103516Y-69051000D01*
X82896484Y-69051000D01*
X82693436Y-69010611D01*
X82502167Y-68931385D01*
X82502166Y-68931385D01*
X82502165Y-68931384D01*
X82330027Y-68816365D01*
X82183635Y-68669973D01*
X82068616Y-68497835D01*
X82068615Y-68497833D01*
X81989389Y-68306564D01*
X81949000Y-68103516D01*
X81949000Y-67896484D01*
X81989389Y-67693436D01*
X82068615Y-67502167D01*
X82183635Y-67330027D01*
X82330027Y-67183635D01*
X82502165Y-67068616D01*
X82502167Y-67068615D01*
X82693436Y-66989389D01*
X82896484Y-66949000D01*
X83103516Y-66949000D01*
X83306564Y-66989389D01*
G37*
G36*
X58306564Y-66989389D02*
G01*
X58497833Y-67068615D01*
X58497835Y-67068616D01*
X58669973Y-67183635D01*
X58816365Y-67330027D01*
X58931385Y-67502167D01*
X59010611Y-67693436D01*
X59051000Y-67896484D01*
X59051000Y-68103516D01*
X59010611Y-68306564D01*
X58931385Y-68497833D01*
X58931384Y-68497835D01*
X58816365Y-68669973D01*
X58669973Y-68816365D01*
X58497835Y-68931384D01*
X58497834Y-68931385D01*
X58497833Y-68931385D01*
X58306564Y-69010611D01*
X58103516Y-69051000D01*
X57896484Y-69051000D01*
X57693436Y-69010611D01*
X57502167Y-68931385D01*
X57502166Y-68931385D01*
X57502165Y-68931384D01*
X57330027Y-68816365D01*
X57183635Y-68669973D01*
X57068616Y-68497835D01*
X57068615Y-68497833D01*
X56989389Y-68306564D01*
X56949000Y-68103516D01*
X56949000Y-67896484D01*
X56989389Y-67693436D01*
X57068615Y-67502167D01*
X57183635Y-67330027D01*
X57330027Y-67183635D01*
X57502165Y-67068616D01*
X57502167Y-67068615D01*
X57693436Y-66989389D01*
X57896484Y-66949000D01*
X58103516Y-66949000D01*
X58306564Y-66989389D01*
G37*
G36*
X103791000Y-67629333D02*
G01*
X100209000Y-67629333D01*
X100209000Y-65680667D01*
X103791000Y-65680667D01*
X103791000Y-67629333D01*
G37*
G36*
X53791000Y-67629333D02*
G01*
X50209000Y-67629333D01*
X50209000Y-65680667D01*
X53791000Y-65680667D01*
X53791000Y-67629333D01*
G37*
G36*
X124791000Y-67629333D02*
G01*
X121209000Y-67629333D01*
X121209000Y-65680667D01*
X124791000Y-65680667D01*
X124791000Y-67629333D01*
G37*
G36*
X99791000Y-67629333D02*
G01*
X96209000Y-67629333D01*
X96209000Y-65680667D01*
X99791000Y-65680667D01*
X99791000Y-67629333D01*
G37*
G36*
X74791000Y-67629333D02*
G01*
X71209000Y-67629333D01*
X71209000Y-65680667D01*
X74791000Y-65680667D01*
X74791000Y-67629333D01*
G37*
G36*
X78791000Y-67629333D02*
G01*
X75209000Y-67629333D01*
X75209000Y-65680667D01*
X78791000Y-65680667D01*
X78791000Y-67629333D01*
G37*
G36*
X128791000Y-67629333D02*
G01*
X125209000Y-67629333D01*
X125209000Y-65680667D01*
X128791000Y-65680667D01*
X128791000Y-67629333D01*
G37*
G36*
X149791000Y-67629333D02*
G01*
X146209000Y-67629333D01*
X146209000Y-65680667D01*
X149791000Y-65680667D01*
X149791000Y-67629333D01*
G37*
G36*
X67306564Y-64489389D02*
G01*
X67497833Y-64568615D01*
X67497835Y-64568616D01*
X67669973Y-64683635D01*
X67816365Y-64830027D01*
X67931385Y-65002167D01*
X68010611Y-65193436D01*
X68051000Y-65396484D01*
X68051000Y-65603516D01*
X68010611Y-65806564D01*
X67931385Y-65997833D01*
X67931384Y-65997835D01*
X67816365Y-66169973D01*
X67669973Y-66316365D01*
X67497835Y-66431384D01*
X67497834Y-66431385D01*
X67497833Y-66431385D01*
X67306564Y-66510611D01*
X67103516Y-66551000D01*
X66896484Y-66551000D01*
X66693436Y-66510611D01*
X66502167Y-66431385D01*
X66502166Y-66431385D01*
X66502165Y-66431384D01*
X66330027Y-66316365D01*
X66183635Y-66169973D01*
X66068616Y-65997835D01*
X66068615Y-65997833D01*
X65989389Y-65806564D01*
X65949000Y-65603516D01*
X65949000Y-65396484D01*
X65989389Y-65193436D01*
X66068615Y-65002167D01*
X66183635Y-64830027D01*
X66330027Y-64683635D01*
X66502165Y-64568616D01*
X66502167Y-64568615D01*
X66693436Y-64489389D01*
X66896484Y-64449000D01*
X67103516Y-64449000D01*
X67306564Y-64489389D01*
G37*
G36*
X142306564Y-64489389D02*
G01*
X142497833Y-64568615D01*
X142497835Y-64568616D01*
X142669973Y-64683635D01*
X142816365Y-64830027D01*
X142931385Y-65002167D01*
X143010611Y-65193436D01*
X143051000Y-65396484D01*
X143051000Y-65603516D01*
X143010611Y-65806564D01*
X142931385Y-65997833D01*
X142931384Y-65997835D01*
X142816365Y-66169973D01*
X142669973Y-66316365D01*
X142497835Y-66431384D01*
X142497834Y-66431385D01*
X142497833Y-66431385D01*
X142306564Y-66510611D01*
X142103516Y-66551000D01*
X141896484Y-66551000D01*
X141693436Y-66510611D01*
X141502167Y-66431385D01*
X141502166Y-66431385D01*
X141502165Y-66431384D01*
X141330027Y-66316365D01*
X141183635Y-66169973D01*
X141068616Y-65997835D01*
X141068615Y-65997833D01*
X140989389Y-65806564D01*
X140949000Y-65603516D01*
X140949000Y-65396484D01*
X140989389Y-65193436D01*
X141068615Y-65002167D01*
X141183635Y-64830027D01*
X141330027Y-64683635D01*
X141502165Y-64568616D01*
X141502167Y-64568615D01*
X141693436Y-64489389D01*
X141896484Y-64449000D01*
X142103516Y-64449000D01*
X142306564Y-64489389D01*
G37*
G36*
X117306564Y-64489389D02*
G01*
X117497833Y-64568615D01*
X117497835Y-64568616D01*
X117669973Y-64683635D01*
X117816365Y-64830027D01*
X117931385Y-65002167D01*
X118010611Y-65193436D01*
X118051000Y-65396484D01*
X118051000Y-65603516D01*
X118010611Y-65806564D01*
X117931385Y-65997833D01*
X117931384Y-65997835D01*
X117816365Y-66169973D01*
X117669973Y-66316365D01*
X117497835Y-66431384D01*
X117497834Y-66431385D01*
X117497833Y-66431385D01*
X117306564Y-66510611D01*
X117103516Y-66551000D01*
X116896484Y-66551000D01*
X116693436Y-66510611D01*
X116502167Y-66431385D01*
X116502166Y-66431385D01*
X116502165Y-66431384D01*
X116330027Y-66316365D01*
X116183635Y-66169973D01*
X116068616Y-65997835D01*
X116068615Y-65997833D01*
X115989389Y-65806564D01*
X115949000Y-65603516D01*
X115949000Y-65396484D01*
X115989389Y-65193436D01*
X116068615Y-65002167D01*
X116183635Y-64830027D01*
X116330027Y-64683635D01*
X116502165Y-64568616D01*
X116502167Y-64568615D01*
X116693436Y-64489389D01*
X116896484Y-64449000D01*
X117103516Y-64449000D01*
X117306564Y-64489389D01*
G37*
G36*
X92306564Y-64489389D02*
G01*
X92497833Y-64568615D01*
X92497835Y-64568616D01*
X92669973Y-64683635D01*
X92816365Y-64830027D01*
X92931385Y-65002167D01*
X93010611Y-65193436D01*
X93051000Y-65396484D01*
X93051000Y-65603516D01*
X93010611Y-65806564D01*
X92931385Y-65997833D01*
X92931384Y-65997835D01*
X92816365Y-66169973D01*
X92669973Y-66316365D01*
X92497835Y-66431384D01*
X92497834Y-66431385D01*
X92497833Y-66431385D01*
X92306564Y-66510611D01*
X92103516Y-66551000D01*
X91896484Y-66551000D01*
X91693436Y-66510611D01*
X91502167Y-66431385D01*
X91502166Y-66431385D01*
X91502165Y-66431384D01*
X91330027Y-66316365D01*
X91183635Y-66169973D01*
X91068616Y-65997835D01*
X91068615Y-65997833D01*
X90989389Y-65806564D01*
X90949000Y-65603516D01*
X90949000Y-65396484D01*
X90989389Y-65193436D01*
X91068615Y-65002167D01*
X91183635Y-64830027D01*
X91330027Y-64683635D01*
X91502165Y-64568616D01*
X91502167Y-64568615D01*
X91693436Y-64489389D01*
X91896484Y-64449000D01*
X92103516Y-64449000D01*
X92306564Y-64489389D01*
G37*
G36*
X99791000Y-64859333D02*
G01*
X96209000Y-64859333D01*
X96209000Y-62910667D01*
X99791000Y-62910667D01*
X99791000Y-64859333D01*
G37*
G36*
X149791000Y-64859333D02*
G01*
X146209000Y-64859333D01*
X146209000Y-62910667D01*
X149791000Y-62910667D01*
X149791000Y-64859333D01*
G37*
G36*
X128791000Y-64859333D02*
G01*
X125209000Y-64859333D01*
X125209000Y-62910667D01*
X128791000Y-62910667D01*
X128791000Y-64859333D01*
G37*
G36*
X124791000Y-64859333D02*
G01*
X121209000Y-64859333D01*
X121209000Y-62910667D01*
X124791000Y-62910667D01*
X124791000Y-64859333D01*
G37*
G36*
X53791000Y-64859333D02*
G01*
X50209000Y-64859333D01*
X50209000Y-62910667D01*
X53791000Y-62910667D01*
X53791000Y-64859333D01*
G37*
G36*
X78791000Y-64859333D02*
G01*
X75209000Y-64859333D01*
X75209000Y-62910667D01*
X78791000Y-62910667D01*
X78791000Y-64859333D01*
G37*
G36*
X74791000Y-64859333D02*
G01*
X71209000Y-64859333D01*
X71209000Y-62910667D01*
X74791000Y-62910667D01*
X74791000Y-64859333D01*
G37*
G36*
X103791000Y-64859333D02*
G01*
X100209000Y-64859333D01*
X100209000Y-62910667D01*
X103791000Y-62910667D01*
X103791000Y-64859333D01*
G37*
G36*
X133306564Y-61489389D02*
G01*
X133497833Y-61568615D01*
X133497835Y-61568616D01*
X133669973Y-61683635D01*
X133816365Y-61830027D01*
X133931385Y-62002167D01*
X134010611Y-62193436D01*
X134051000Y-62396484D01*
X134051000Y-62603516D01*
X134010611Y-62806564D01*
X133967490Y-62910667D01*
X133931384Y-62997835D01*
X133816365Y-63169973D01*
X133669973Y-63316365D01*
X133497835Y-63431384D01*
X133497834Y-63431385D01*
X133497833Y-63431385D01*
X133306564Y-63510611D01*
X133103516Y-63551000D01*
X132896484Y-63551000D01*
X132693436Y-63510611D01*
X132502167Y-63431385D01*
X132502166Y-63431385D01*
X132502165Y-63431384D01*
X132330027Y-63316365D01*
X132183635Y-63169973D01*
X132068616Y-62997835D01*
X132032510Y-62910667D01*
X131989389Y-62806564D01*
X131949000Y-62603516D01*
X131949000Y-62396484D01*
X131989389Y-62193436D01*
X132068615Y-62002167D01*
X132183635Y-61830027D01*
X132330027Y-61683635D01*
X132502165Y-61568616D01*
X132502167Y-61568615D01*
X132693436Y-61489389D01*
X132896484Y-61449000D01*
X133103516Y-61449000D01*
X133306564Y-61489389D01*
G37*
G36*
X58306564Y-61489389D02*
G01*
X58497833Y-61568615D01*
X58497835Y-61568616D01*
X58669973Y-61683635D01*
X58816365Y-61830027D01*
X58931385Y-62002167D01*
X59010611Y-62193436D01*
X59051000Y-62396484D01*
X59051000Y-62603516D01*
X59010611Y-62806564D01*
X58967490Y-62910667D01*
X58931384Y-62997835D01*
X58816365Y-63169973D01*
X58669973Y-63316365D01*
X58497835Y-63431384D01*
X58497834Y-63431385D01*
X58497833Y-63431385D01*
X58306564Y-63510611D01*
X58103516Y-63551000D01*
X57896484Y-63551000D01*
X57693436Y-63510611D01*
X57502167Y-63431385D01*
X57502166Y-63431385D01*
X57502165Y-63431384D01*
X57330027Y-63316365D01*
X57183635Y-63169973D01*
X57068616Y-62997835D01*
X57032510Y-62910667D01*
X56989389Y-62806564D01*
X56949000Y-62603516D01*
X56949000Y-62396484D01*
X56989389Y-62193436D01*
X57068615Y-62002167D01*
X57183635Y-61830027D01*
X57330027Y-61683635D01*
X57502165Y-61568616D01*
X57502167Y-61568615D01*
X57693436Y-61489389D01*
X57896484Y-61449000D01*
X58103516Y-61449000D01*
X58306564Y-61489389D01*
G37*
G36*
X108306564Y-61489389D02*
G01*
X108497833Y-61568615D01*
X108497835Y-61568616D01*
X108669973Y-61683635D01*
X108816365Y-61830027D01*
X108931385Y-62002167D01*
X109010611Y-62193436D01*
X109051000Y-62396484D01*
X109051000Y-62603516D01*
X109010611Y-62806564D01*
X108967490Y-62910667D01*
X108931384Y-62997835D01*
X108816365Y-63169973D01*
X108669973Y-63316365D01*
X108497835Y-63431384D01*
X108497834Y-63431385D01*
X108497833Y-63431385D01*
X108306564Y-63510611D01*
X108103516Y-63551000D01*
X107896484Y-63551000D01*
X107693436Y-63510611D01*
X107502167Y-63431385D01*
X107502166Y-63431385D01*
X107502165Y-63431384D01*
X107330027Y-63316365D01*
X107183635Y-63169973D01*
X107068616Y-62997835D01*
X107032510Y-62910667D01*
X106989389Y-62806564D01*
X106949000Y-62603516D01*
X106949000Y-62396484D01*
X106989389Y-62193436D01*
X107068615Y-62002167D01*
X107183635Y-61830027D01*
X107330027Y-61683635D01*
X107502165Y-61568616D01*
X107502167Y-61568615D01*
X107693436Y-61489389D01*
X107896484Y-61449000D01*
X108103516Y-61449000D01*
X108306564Y-61489389D01*
G37*
G36*
X83306564Y-61489389D02*
G01*
X83497833Y-61568615D01*
X83497835Y-61568616D01*
X83669973Y-61683635D01*
X83816365Y-61830027D01*
X83931385Y-62002167D01*
X84010611Y-62193436D01*
X84051000Y-62396484D01*
X84051000Y-62603516D01*
X84010611Y-62806564D01*
X83967490Y-62910667D01*
X83931384Y-62997835D01*
X83816365Y-63169973D01*
X83669973Y-63316365D01*
X83497835Y-63431384D01*
X83497834Y-63431385D01*
X83497833Y-63431385D01*
X83306564Y-63510611D01*
X83103516Y-63551000D01*
X82896484Y-63551000D01*
X82693436Y-63510611D01*
X82502167Y-63431385D01*
X82502166Y-63431385D01*
X82502165Y-63431384D01*
X82330027Y-63316365D01*
X82183635Y-63169973D01*
X82068616Y-62997835D01*
X82032510Y-62910667D01*
X81989389Y-62806564D01*
X81949000Y-62603516D01*
X81949000Y-62396484D01*
X81989389Y-62193436D01*
X82068615Y-62002167D01*
X82183635Y-61830027D01*
X82330027Y-61683635D01*
X82502165Y-61568616D01*
X82502167Y-61568615D01*
X82693436Y-61489389D01*
X82896484Y-61449000D01*
X83103516Y-61449000D01*
X83306564Y-61489389D01*
G37*
G36*
X53791000Y-62089333D02*
G01*
X50209000Y-62089333D01*
X50209000Y-60140667D01*
X53791000Y-60140667D01*
X53791000Y-62089333D01*
G37*
G36*
X78791000Y-62089333D02*
G01*
X75209000Y-62089333D01*
X75209000Y-60140667D01*
X78791000Y-60140667D01*
X78791000Y-62089333D01*
G37*
G36*
X99791000Y-62089333D02*
G01*
X96209000Y-62089333D01*
X96209000Y-60140667D01*
X99791000Y-60140667D01*
X99791000Y-62089333D01*
G37*
G36*
X124791000Y-62089333D02*
G01*
X121209000Y-62089333D01*
X121209000Y-60140667D01*
X124791000Y-60140667D01*
X124791000Y-62089333D01*
G37*
G36*
X103791000Y-62089333D02*
G01*
X100209000Y-62089333D01*
X100209000Y-60140667D01*
X103791000Y-60140667D01*
X103791000Y-62089333D01*
G37*
G36*
X128791000Y-62089333D02*
G01*
X125209000Y-62089333D01*
X125209000Y-60140667D01*
X128791000Y-60140667D01*
X128791000Y-62089333D01*
G37*
G36*
X149791000Y-62089333D02*
G01*
X146209000Y-62089333D01*
X146209000Y-60140667D01*
X149791000Y-60140667D01*
X149791000Y-62089333D01*
G37*
G36*
X74791000Y-62089333D02*
G01*
X71209000Y-62089333D01*
X71209000Y-60140667D01*
X74791000Y-60140667D01*
X74791000Y-62089333D01*
G37*
G36*
X92306564Y-58489389D02*
G01*
X92497833Y-58568615D01*
X92497835Y-58568616D01*
X92669973Y-58683635D01*
X92816365Y-58830027D01*
X92931385Y-59002167D01*
X93010611Y-59193436D01*
X93051000Y-59396484D01*
X93051000Y-59603516D01*
X93010611Y-59806564D01*
X92931385Y-59997833D01*
X92931384Y-59997835D01*
X92816365Y-60169973D01*
X92669973Y-60316365D01*
X92497835Y-60431384D01*
X92497834Y-60431385D01*
X92497833Y-60431385D01*
X92306564Y-60510611D01*
X92103516Y-60551000D01*
X91896484Y-60551000D01*
X91693436Y-60510611D01*
X91502167Y-60431385D01*
X91502166Y-60431385D01*
X91502165Y-60431384D01*
X91330027Y-60316365D01*
X91183635Y-60169973D01*
X91068616Y-59997835D01*
X91068615Y-59997833D01*
X90989389Y-59806564D01*
X90949000Y-59603516D01*
X90949000Y-59396484D01*
X90989389Y-59193436D01*
X91068615Y-59002167D01*
X91183635Y-58830027D01*
X91330027Y-58683635D01*
X91502165Y-58568616D01*
X91502167Y-58568615D01*
X91693436Y-58489389D01*
X91896484Y-58449000D01*
X92103516Y-58449000D01*
X92306564Y-58489389D01*
G37*
G36*
X67306564Y-58489389D02*
G01*
X67497833Y-58568615D01*
X67497835Y-58568616D01*
X67669973Y-58683635D01*
X67816365Y-58830027D01*
X67931385Y-59002167D01*
X68010611Y-59193436D01*
X68051000Y-59396484D01*
X68051000Y-59603516D01*
X68010611Y-59806564D01*
X67931385Y-59997833D01*
X67931384Y-59997835D01*
X67816365Y-60169973D01*
X67669973Y-60316365D01*
X67497835Y-60431384D01*
X67497834Y-60431385D01*
X67497833Y-60431385D01*
X67306564Y-60510611D01*
X67103516Y-60551000D01*
X66896484Y-60551000D01*
X66693436Y-60510611D01*
X66502167Y-60431385D01*
X66502166Y-60431385D01*
X66502165Y-60431384D01*
X66330027Y-60316365D01*
X66183635Y-60169973D01*
X66068616Y-59997835D01*
X66068615Y-59997833D01*
X65989389Y-59806564D01*
X65949000Y-59603516D01*
X65949000Y-59396484D01*
X65989389Y-59193436D01*
X66068615Y-59002167D01*
X66183635Y-58830027D01*
X66330027Y-58683635D01*
X66502165Y-58568616D01*
X66502167Y-58568615D01*
X66693436Y-58489389D01*
X66896484Y-58449000D01*
X67103516Y-58449000D01*
X67306564Y-58489389D01*
G37*
G36*
X142306564Y-58489389D02*
G01*
X142497833Y-58568615D01*
X142497835Y-58568616D01*
X142669973Y-58683635D01*
X142816365Y-58830027D01*
X142931385Y-59002167D01*
X143010611Y-59193436D01*
X143051000Y-59396484D01*
X143051000Y-59603516D01*
X143010611Y-59806564D01*
X142931385Y-59997833D01*
X142931384Y-59997835D01*
X142816365Y-60169973D01*
X142669973Y-60316365D01*
X142497835Y-60431384D01*
X142497834Y-60431385D01*
X142497833Y-60431385D01*
X142306564Y-60510611D01*
X142103516Y-60551000D01*
X141896484Y-60551000D01*
X141693436Y-60510611D01*
X141502167Y-60431385D01*
X141502166Y-60431385D01*
X141502165Y-60431384D01*
X141330027Y-60316365D01*
X141183635Y-60169973D01*
X141068616Y-59997835D01*
X141068615Y-59997833D01*
X140989389Y-59806564D01*
X140949000Y-59603516D01*
X140949000Y-59396484D01*
X140989389Y-59193436D01*
X141068615Y-59002167D01*
X141183635Y-58830027D01*
X141330027Y-58683635D01*
X141502165Y-58568616D01*
X141502167Y-58568615D01*
X141693436Y-58489389D01*
X141896484Y-58449000D01*
X142103516Y-58449000D01*
X142306564Y-58489389D01*
G37*
G36*
X117306564Y-58489389D02*
G01*
X117497833Y-58568615D01*
X117497835Y-58568616D01*
X117669973Y-58683635D01*
X117816365Y-58830027D01*
X117931385Y-59002167D01*
X118010611Y-59193436D01*
X118051000Y-59396484D01*
X118051000Y-59603516D01*
X118010611Y-59806564D01*
X117931385Y-59997833D01*
X117931384Y-59997835D01*
X117816365Y-60169973D01*
X117669973Y-60316365D01*
X117497835Y-60431384D01*
X117497834Y-60431385D01*
X117497833Y-60431385D01*
X117306564Y-60510611D01*
X117103516Y-60551000D01*
X116896484Y-60551000D01*
X116693436Y-60510611D01*
X116502167Y-60431385D01*
X116502166Y-60431385D01*
X116502165Y-60431384D01*
X116330027Y-60316365D01*
X116183635Y-60169973D01*
X116068616Y-59997835D01*
X116068615Y-59997833D01*
X115989389Y-59806564D01*
X115949000Y-59603516D01*
X115949000Y-59396484D01*
X115989389Y-59193436D01*
X116068615Y-59002167D01*
X116183635Y-58830027D01*
X116330027Y-58683635D01*
X116502165Y-58568616D01*
X116502167Y-58568615D01*
X116693436Y-58489389D01*
X116896484Y-58449000D01*
X117103516Y-58449000D01*
X117306564Y-58489389D01*
G37*
G36*
X103791000Y-59319333D02*
G01*
X100209000Y-59319333D01*
X100209000Y-57370667D01*
X103791000Y-57370667D01*
X103791000Y-59319333D01*
G37*
G36*
X99791000Y-59319333D02*
G01*
X96209000Y-59319333D01*
X96209000Y-57370667D01*
X99791000Y-57370667D01*
X99791000Y-59319333D01*
G37*
G36*
X78791000Y-59319333D02*
G01*
X75209000Y-59319333D01*
X75209000Y-57370667D01*
X78791000Y-57370667D01*
X78791000Y-59319333D01*
G37*
G36*
X53791000Y-59319333D02*
G01*
X50209000Y-59319333D01*
X50209000Y-57370667D01*
X53791000Y-57370667D01*
X53791000Y-59319333D01*
G37*
G36*
X74791000Y-59319333D02*
G01*
X71209000Y-59319333D01*
X71209000Y-57370667D01*
X74791000Y-57370667D01*
X74791000Y-59319333D01*
G37*
G36*
X124791000Y-59319333D02*
G01*
X121209000Y-59319333D01*
X121209000Y-57370667D01*
X124791000Y-57370667D01*
X124791000Y-59319333D01*
G37*
G36*
X128791000Y-59319333D02*
G01*
X125209000Y-59319333D01*
X125209000Y-57370667D01*
X128791000Y-57370667D01*
X128791000Y-59319333D01*
G37*
G36*
X149791000Y-59319333D02*
G01*
X146209000Y-59319333D01*
X146209000Y-57370667D01*
X149791000Y-57370667D01*
X149791000Y-59319333D01*
G37*
G36*
X108306564Y-55989389D02*
G01*
X108497833Y-56068615D01*
X108497835Y-56068616D01*
X108669973Y-56183635D01*
X108816365Y-56330027D01*
X108931385Y-56502167D01*
X109010611Y-56693436D01*
X109051000Y-56896484D01*
X109051000Y-57103516D01*
X109010611Y-57306564D01*
X108931385Y-57497833D01*
X108931384Y-57497835D01*
X108816365Y-57669973D01*
X108669973Y-57816365D01*
X108497835Y-57931384D01*
X108497834Y-57931385D01*
X108497833Y-57931385D01*
X108306564Y-58010611D01*
X108103516Y-58051000D01*
X107896484Y-58051000D01*
X107693436Y-58010611D01*
X107502167Y-57931385D01*
X107502166Y-57931385D01*
X107502165Y-57931384D01*
X107330027Y-57816365D01*
X107183635Y-57669973D01*
X107068616Y-57497835D01*
X107068615Y-57497833D01*
X106989389Y-57306564D01*
X106949000Y-57103516D01*
X106949000Y-56896484D01*
X106989389Y-56693436D01*
X107068615Y-56502167D01*
X107183635Y-56330027D01*
X107330027Y-56183635D01*
X107502165Y-56068616D01*
X107502167Y-56068615D01*
X107693436Y-55989389D01*
X107896484Y-55949000D01*
X108103516Y-55949000D01*
X108306564Y-55989389D01*
G37*
G36*
X133306564Y-55989389D02*
G01*
X133497833Y-56068615D01*
X133497835Y-56068616D01*
X133669973Y-56183635D01*
X133816365Y-56330027D01*
X133931385Y-56502167D01*
X134010611Y-56693436D01*
X134051000Y-56896484D01*
X134051000Y-57103516D01*
X134010611Y-57306564D01*
X133931385Y-57497833D01*
X133931384Y-57497835D01*
X133816365Y-57669973D01*
X133669973Y-57816365D01*
X133497835Y-57931384D01*
X133497834Y-57931385D01*
X133497833Y-57931385D01*
X133306564Y-58010611D01*
X133103516Y-58051000D01*
X132896484Y-58051000D01*
X132693436Y-58010611D01*
X132502167Y-57931385D01*
X132502166Y-57931385D01*
X132502165Y-57931384D01*
X132330027Y-57816365D01*
X132183635Y-57669973D01*
X132068616Y-57497835D01*
X132068615Y-57497833D01*
X131989389Y-57306564D01*
X131949000Y-57103516D01*
X131949000Y-56896484D01*
X131989389Y-56693436D01*
X132068615Y-56502167D01*
X132183635Y-56330027D01*
X132330027Y-56183635D01*
X132502165Y-56068616D01*
X132502167Y-56068615D01*
X132693436Y-55989389D01*
X132896484Y-55949000D01*
X133103516Y-55949000D01*
X133306564Y-55989389D01*
G37*
G36*
X83306564Y-55989389D02*
G01*
X83497833Y-56068615D01*
X83497835Y-56068616D01*
X83669973Y-56183635D01*
X83816365Y-56330027D01*
X83931385Y-56502167D01*
X84010611Y-56693436D01*
X84051000Y-56896484D01*
X84051000Y-57103516D01*
X84010611Y-57306564D01*
X83931385Y-57497833D01*
X83931384Y-57497835D01*
X83816365Y-57669973D01*
X83669973Y-57816365D01*
X83497835Y-57931384D01*
X83497834Y-57931385D01*
X83497833Y-57931385D01*
X83306564Y-58010611D01*
X83103516Y-58051000D01*
X82896484Y-58051000D01*
X82693436Y-58010611D01*
X82502167Y-57931385D01*
X82502166Y-57931385D01*
X82502165Y-57931384D01*
X82330027Y-57816365D01*
X82183635Y-57669973D01*
X82068616Y-57497835D01*
X82068615Y-57497833D01*
X81989389Y-57306564D01*
X81949000Y-57103516D01*
X81949000Y-56896484D01*
X81989389Y-56693436D01*
X82068615Y-56502167D01*
X82183635Y-56330027D01*
X82330027Y-56183635D01*
X82502165Y-56068616D01*
X82502167Y-56068615D01*
X82693436Y-55989389D01*
X82896484Y-55949000D01*
X83103516Y-55949000D01*
X83306564Y-55989389D01*
G37*
G36*
X58306564Y-55989389D02*
G01*
X58497833Y-56068615D01*
X58497835Y-56068616D01*
X58669973Y-56183635D01*
X58816365Y-56330027D01*
X58931385Y-56502167D01*
X59010611Y-56693436D01*
X59051000Y-56896484D01*
X59051000Y-57103516D01*
X59010611Y-57306564D01*
X58931385Y-57497833D01*
X58931384Y-57497835D01*
X58816365Y-57669973D01*
X58669973Y-57816365D01*
X58497835Y-57931384D01*
X58497834Y-57931385D01*
X58497833Y-57931385D01*
X58306564Y-58010611D01*
X58103516Y-58051000D01*
X57896484Y-58051000D01*
X57693436Y-58010611D01*
X57502167Y-57931385D01*
X57502166Y-57931385D01*
X57502165Y-57931384D01*
X57330027Y-57816365D01*
X57183635Y-57669973D01*
X57068616Y-57497835D01*
X57068615Y-57497833D01*
X56989389Y-57306564D01*
X56949000Y-57103516D01*
X56949000Y-56896484D01*
X56989389Y-56693436D01*
X57068615Y-56502167D01*
X57183635Y-56330027D01*
X57330027Y-56183635D01*
X57502165Y-56068616D01*
X57502167Y-56068615D01*
X57693436Y-55989389D01*
X57896484Y-55949000D01*
X58103516Y-55949000D01*
X58306564Y-55989389D01*
G37*
G36*
X142306564Y-52989389D02*
G01*
X142497833Y-53068615D01*
X142497835Y-53068616D01*
X142669973Y-53183635D01*
X142816365Y-53330027D01*
X142931385Y-53502167D01*
X143010611Y-53693436D01*
X143051000Y-53896484D01*
X143051000Y-54103516D01*
X143010611Y-54306564D01*
X142931385Y-54497833D01*
X142931384Y-54497835D01*
X142816365Y-54669973D01*
X142669973Y-54816365D01*
X142497835Y-54931384D01*
X142497834Y-54931385D01*
X142497833Y-54931385D01*
X142306564Y-55010611D01*
X142103516Y-55051000D01*
X141896484Y-55051000D01*
X141693436Y-55010611D01*
X141502167Y-54931385D01*
X141502166Y-54931385D01*
X141502165Y-54931384D01*
X141330027Y-54816365D01*
X141183635Y-54669973D01*
X141068616Y-54497835D01*
X141068615Y-54497833D01*
X140989389Y-54306564D01*
X140949000Y-54103516D01*
X140949000Y-53896484D01*
X140989389Y-53693436D01*
X141068615Y-53502167D01*
X141183635Y-53330027D01*
X141330027Y-53183635D01*
X141502165Y-53068616D01*
X141502167Y-53068615D01*
X141693436Y-52989389D01*
X141896484Y-52949000D01*
X142103516Y-52949000D01*
X142306564Y-52989389D01*
G37*
G36*
X117306564Y-52989389D02*
G01*
X117497833Y-53068615D01*
X117497835Y-53068616D01*
X117669973Y-53183635D01*
X117816365Y-53330027D01*
X117931385Y-53502167D01*
X118010611Y-53693436D01*
X118051000Y-53896484D01*
X118051000Y-54103516D01*
X118010611Y-54306564D01*
X117931385Y-54497833D01*
X117931384Y-54497835D01*
X117816365Y-54669973D01*
X117669973Y-54816365D01*
X117497835Y-54931384D01*
X117497834Y-54931385D01*
X117497833Y-54931385D01*
X117306564Y-55010611D01*
X117103516Y-55051000D01*
X116896484Y-55051000D01*
X116693436Y-55010611D01*
X116502167Y-54931385D01*
X116502166Y-54931385D01*
X116502165Y-54931384D01*
X116330027Y-54816365D01*
X116183635Y-54669973D01*
X116068616Y-54497835D01*
X116068615Y-54497833D01*
X115989389Y-54306564D01*
X115949000Y-54103516D01*
X115949000Y-53896484D01*
X115989389Y-53693436D01*
X116068615Y-53502167D01*
X116183635Y-53330027D01*
X116330027Y-53183635D01*
X116502165Y-53068616D01*
X116502167Y-53068615D01*
X116693436Y-52989389D01*
X116896484Y-52949000D01*
X117103516Y-52949000D01*
X117306564Y-52989389D01*
G37*
G36*
X92306564Y-52989389D02*
G01*
X92497833Y-53068615D01*
X92497835Y-53068616D01*
X92669973Y-53183635D01*
X92816365Y-53330027D01*
X92931385Y-53502167D01*
X93010611Y-53693436D01*
X93051000Y-53896484D01*
X93051000Y-54103516D01*
X93010611Y-54306564D01*
X92931385Y-54497833D01*
X92931384Y-54497835D01*
X92816365Y-54669973D01*
X92669973Y-54816365D01*
X92497835Y-54931384D01*
X92497834Y-54931385D01*
X92497833Y-54931385D01*
X92306564Y-55010611D01*
X92103516Y-55051000D01*
X91896484Y-55051000D01*
X91693436Y-55010611D01*
X91502167Y-54931385D01*
X91502166Y-54931385D01*
X91502165Y-54931384D01*
X91330027Y-54816365D01*
X91183635Y-54669973D01*
X91068616Y-54497835D01*
X91068615Y-54497833D01*
X90989389Y-54306564D01*
X90949000Y-54103516D01*
X90949000Y-53896484D01*
X90989389Y-53693436D01*
X91068615Y-53502167D01*
X91183635Y-53330027D01*
X91330027Y-53183635D01*
X91502165Y-53068616D01*
X91502167Y-53068615D01*
X91693436Y-52989389D01*
X91896484Y-52949000D01*
X92103516Y-52949000D01*
X92306564Y-52989389D01*
G37*
G36*
X67306564Y-52989389D02*
G01*
X67497833Y-53068615D01*
X67497835Y-53068616D01*
X67669973Y-53183635D01*
X67816365Y-53330027D01*
X67931385Y-53502167D01*
X68010611Y-53693436D01*
X68051000Y-53896484D01*
X68051000Y-54103516D01*
X68010611Y-54306564D01*
X67931385Y-54497833D01*
X67931384Y-54497835D01*
X67816365Y-54669973D01*
X67669973Y-54816365D01*
X67497835Y-54931384D01*
X67497834Y-54931385D01*
X67497833Y-54931385D01*
X67306564Y-55010611D01*
X67103516Y-55051000D01*
X66896484Y-55051000D01*
X66693436Y-55010611D01*
X66502167Y-54931385D01*
X66502166Y-54931385D01*
X66502165Y-54931384D01*
X66330027Y-54816365D01*
X66183635Y-54669973D01*
X66068616Y-54497835D01*
X66068615Y-54497833D01*
X65989389Y-54306564D01*
X65949000Y-54103516D01*
X65949000Y-53896484D01*
X65989389Y-53693436D01*
X66068615Y-53502167D01*
X66183635Y-53330027D01*
X66330027Y-53183635D01*
X66502165Y-53068616D01*
X66502167Y-53068615D01*
X66693436Y-52989389D01*
X66896484Y-52949000D01*
X67103516Y-52949000D01*
X67306564Y-52989389D01*
G37*
G36*
X108306564Y-50489389D02*
G01*
X108497833Y-50568615D01*
X108497835Y-50568616D01*
X108669973Y-50683635D01*
X108816365Y-50830027D01*
X108931385Y-51002167D01*
X109010611Y-51193436D01*
X109051000Y-51396484D01*
X109051000Y-51603516D01*
X109010611Y-51806564D01*
X108931385Y-51997833D01*
X108931384Y-51997835D01*
X108816365Y-52169973D01*
X108669973Y-52316365D01*
X108497835Y-52431384D01*
X108497834Y-52431385D01*
X108497833Y-52431385D01*
X108306564Y-52510611D01*
X108103516Y-52551000D01*
X107896484Y-52551000D01*
X107693436Y-52510611D01*
X107502167Y-52431385D01*
X107502166Y-52431385D01*
X107502165Y-52431384D01*
X107330027Y-52316365D01*
X107183635Y-52169973D01*
X107068616Y-51997835D01*
X107068615Y-51997833D01*
X106989389Y-51806564D01*
X106949000Y-51603516D01*
X106949000Y-51396484D01*
X106989389Y-51193436D01*
X107068615Y-51002167D01*
X107183635Y-50830027D01*
X107330027Y-50683635D01*
X107502165Y-50568616D01*
X107502167Y-50568615D01*
X107693436Y-50489389D01*
X107896484Y-50449000D01*
X108103516Y-50449000D01*
X108306564Y-50489389D01*
G37*
G36*
X133306564Y-50489389D02*
G01*
X133497833Y-50568615D01*
X133497835Y-50568616D01*
X133669973Y-50683635D01*
X133816365Y-50830027D01*
X133931385Y-51002167D01*
X134010611Y-51193436D01*
X134051000Y-51396484D01*
X134051000Y-51603516D01*
X134010611Y-51806564D01*
X133931385Y-51997833D01*
X133931384Y-51997835D01*
X133816365Y-52169973D01*
X133669973Y-52316365D01*
X133497835Y-52431384D01*
X133497834Y-52431385D01*
X133497833Y-52431385D01*
X133306564Y-52510611D01*
X133103516Y-52551000D01*
X132896484Y-52551000D01*
X132693436Y-52510611D01*
X132502167Y-52431385D01*
X132502166Y-52431385D01*
X132502165Y-52431384D01*
X132330027Y-52316365D01*
X132183635Y-52169973D01*
X132068616Y-51997835D01*
X132068615Y-51997833D01*
X131989389Y-51806564D01*
X131949000Y-51603516D01*
X131949000Y-51396484D01*
X131989389Y-51193436D01*
X132068615Y-51002167D01*
X132183635Y-50830027D01*
X132330027Y-50683635D01*
X132502165Y-50568616D01*
X132502167Y-50568615D01*
X132693436Y-50489389D01*
X132896484Y-50449000D01*
X133103516Y-50449000D01*
X133306564Y-50489389D01*
G37*
G36*
X58306564Y-50489389D02*
G01*
X58497833Y-50568615D01*
X58497835Y-50568616D01*
X58669973Y-50683635D01*
X58816365Y-50830027D01*
X58931385Y-51002167D01*
X59010611Y-51193436D01*
X59051000Y-51396484D01*
X59051000Y-51603516D01*
X59010611Y-51806564D01*
X58931385Y-51997833D01*
X58931384Y-51997835D01*
X58816365Y-52169973D01*
X58669973Y-52316365D01*
X58497835Y-52431384D01*
X58497834Y-52431385D01*
X58497833Y-52431385D01*
X58306564Y-52510611D01*
X58103516Y-52551000D01*
X57896484Y-52551000D01*
X57693436Y-52510611D01*
X57502167Y-52431385D01*
X57502166Y-52431385D01*
X57502165Y-52431384D01*
X57330027Y-52316365D01*
X57183635Y-52169973D01*
X57068616Y-51997835D01*
X57068615Y-51997833D01*
X56989389Y-51806564D01*
X56949000Y-51603516D01*
X56949000Y-51396484D01*
X56989389Y-51193436D01*
X57068615Y-51002167D01*
X57183635Y-50830027D01*
X57330027Y-50683635D01*
X57502165Y-50568616D01*
X57502167Y-50568615D01*
X57693436Y-50489389D01*
X57896484Y-50449000D01*
X58103516Y-50449000D01*
X58306564Y-50489389D01*
G37*
G36*
X83306564Y-50489389D02*
G01*
X83497833Y-50568615D01*
X83497835Y-50568616D01*
X83669973Y-50683635D01*
X83816365Y-50830027D01*
X83931385Y-51002167D01*
X84010611Y-51193436D01*
X84051000Y-51396484D01*
X84051000Y-51603516D01*
X84010611Y-51806564D01*
X83931385Y-51997833D01*
X83931384Y-51997835D01*
X83816365Y-52169973D01*
X83669973Y-52316365D01*
X83497835Y-52431384D01*
X83497834Y-52431385D01*
X83497833Y-52431385D01*
X83306564Y-52510611D01*
X83103516Y-52551000D01*
X82896484Y-52551000D01*
X82693436Y-52510611D01*
X82502167Y-52431385D01*
X82502166Y-52431385D01*
X82502165Y-52431384D01*
X82330027Y-52316365D01*
X82183635Y-52169973D01*
X82068616Y-51997835D01*
X82068615Y-51997833D01*
X81989389Y-51806564D01*
X81949000Y-51603516D01*
X81949000Y-51396484D01*
X81989389Y-51193436D01*
X82068615Y-51002167D01*
X82183635Y-50830027D01*
X82330027Y-50683635D01*
X82502165Y-50568616D01*
X82502167Y-50568615D01*
X82693436Y-50489389D01*
X82896484Y-50449000D01*
X83103516Y-50449000D01*
X83306564Y-50489389D01*
G37*
M02*
